/* XPM */
static char * ad_xpm[] = {
"23 12 121 2",
"  	c None",
". 	c #002748",
"+ 	c #375675",
"@ 	c #788DA6",
"# 	c #8699B2",
"$ 	c #8596B4",
"% 	c #8590BD",
"& 	c #EBE085",
"* 	c #EBDB85",
"= 	c #EAE785",
"- 	c #CE8585",
"; 	c #D28686",
"> 	c #CD7878",
", 	c #B63737",
"' 	c #9D0000",
") 	c #00284C",
"! 	c #002B50",
"~ 	c #758CA2",
"{ 	c #A8B6C6",
"] 	c #ABB8CA",
"^ 	c #ABB2D0",
"/ 	c #F5EEAB",
"( 	c #F5E9AB",
"_ 	c #F5E8AB",
": 	c #F4F2AB",
"< 	c #E1ABAB",
"[ 	c #E3A8A8",
"} 	c #D37575",
"| 	c #AF0000",
"1 	c #A70000",
"2 	c #002751",
"3 	c #002C53",
"4 	c #395B79",
"5 	c #7B92A6",
"6 	c #8094AB",
"7 	c #808BB2",
"8 	c #F1E680",
"9 	c #F1E180",
"0 	c #F1DF80",
"a 	c #F1ED80",
"b 	c #D78080",
"c 	c #D67B7B",
"d 	c #C13939",
"e 	c #A30000",
"f 	c #002B59",
"g 	c #1E446B",
"h 	c #22456F",
"i 	c #22367A",
"j 	c #EAD922",
"k 	c #E1CD23",
"l 	c #DBC125",
"m 	c #D8C025",
"n 	c #DEC823",
"o 	c #E8E322",
"p 	c #BB2222",
"q 	c #BA1E1E",
"r 	c #AA0000",
"s 	c #002764",
"t 	c #002A67",
"u 	c #002B65",
"v 	c #011D73",
"w 	c #ECDC01",
"x 	c #C97B06",
"y 	c #B75409",
"z 	c #C46708",
"A 	c #C18406",
"B 	c #DEE102",
"C 	c #B60101",
"D 	c #B10000",
"E 	c #9B0000",
"F 	c #00266D",
"G 	c #002A75",
"H 	c #002978",
"I 	c #001D89",
"J 	c #F4D600",
"K 	c #C78005",
"L 	c #BD5E0A",
"M 	c #CE6D09",
"N 	c #C88908",
"O 	c #D7DA03",
"P 	c #960000",
"Q 	c #002C79",
"R 	c #001D8D",
"S 	c #F9DE00",
"T 	c #D28F04",
"U 	c #CD780C",
"V 	c #C67A09",
"W 	c #DEEE01",
"X 	c #BD0000",
"Y 	c #002B6A",
"Z 	c #002D69",
"` 	c #001D7A",
" .	c #FDDE00",
"..	c #D29A03",
"+.	c #CB8D08",
"@.	c #CB9F07",
"#.	c #C09706",
"$.	c #ECE402",
"%.	c #C40000",
"&.	c #B90000",
"*.	c #002E5F",
"=.	c #001A72",
"-.	c #FFE900",
";.	c #FCE200",
">.	c #E2BD02",
",.	c #DAB303",
"'.	c #FEFA00",
").	c #002F59",
"!.	c #002D60",
"~.	c #FFE600",
"{.	c #FFD700",
"].	c #FFD900",
"^.	c #FEF500",
"/.	c #00197D",
"(.	c #FCD100",
"_.	c #002961",
":.	c #002769",
"<.	c #00177E",
"[.	c #E5CB00",
"}.	c #E6BD00",
"|.	c #E5DB00",
"          . + @ # $ % & * * * * = - ; ; > , ' ",
"          ) ! ~ { ] ^ / ( _ ( ( : < < [ } | 1 ",
"          2 3 4 5 6 7 8 9 0 0 9 a b b c d | e ",
"          f f f g h i j k l m n o p p q | r ' ",
"          s t t u t v w x y z A B C D D | r E ",
"          F G G H G I J K L M N O C D | | r P ",
"          F G H Q H R S T M U V W X C D D r E ",
"          s Y Z Z Z `  ...+.@.#.$.%.X &.C | E ",
"          f *.*.*.*.=.-.;.>.,.S '.%.X X &.D e ",
"          ! 3 ).*.!.=.~.{.{.].].^.X %.%.X C e ",
"          2 ! ).!.Z /.;.{.(.(.(.-.&.&.&.&.C e ",
"          . ! f _.:.<.[.}.}.>.[.|.1 r r 1 1 P "};
