/* XPM */
static char * ae_xpm[] = {
"23 12 64 1",
" 	c None",
".	c #9E0000",
"+	c #B63737",
"@	c #CF7878",
"#	c #DE8686",
"$	c #85D585",
"%	c #86CD86",
"&	c #85CB85",
"*	c #78C778",
"=	c #37AC37",
"-	c #008B00",
";	c #A50000",
">	c #AE0000",
",	c #D47575",
"'	c #ECA8A8",
")	c #ABE5AB",
"!	c #ABDFAB",
"~	c #ABDEAB",
"{	c #A8DEA8",
"]	c #75CB75",
"^	c #009F00",
"/	c #009600",
"(	c #A20000",
"_	c #C33939",
":	c #E37B7B",
"<	c #80D880",
"[	c #80D180",
"}	c #80CF80",
"|	c #7BCD7B",
"1	c #39B539",
"2	c #B20000",
"3	c #CD1E1E",
"4	c #22BB22",
"5	c #22AF22",
"6	c #22A922",
"7	c #1EA71E",
"8	c #AA0000",
"9	c #ECECEC",
"0	c #ECEDEE",
"a	c #EBEBEB",
"b	c #EAEAEA",
"c	c #E6E7E7",
"d	c #D1D1D1",
"e	c #EFF2F2",
"f	c #EFECF2",
"g	c #EEEBF0",
"h	c #EBE8EE",
"i	c #E8E5EB",
"j	c #E3E0E5",
"k	c #CDCACF",
"l	c #F4F8F8",
"m	c #F5F6F7",
"n	c #F4F5F6",
"o	c #B90000",
"p	c #FBFBFB",
"q	c #FDFDFD",
"r	c #F2F2F2",
"s	c #D4D4D4",
"t	c #BE0000",
"u	c #D90000",
"v	c #000000",
"w	c #B60000",
"x	c #DD0000",
"y	c #C40000",
"     .+@#$%%%%&&&%&%*=-",
"     ;>,')!!!~~~~~~{]^/",
"     (>_:<[}}}}}}}}|1^/",
"     (>2345666666667//-",
"     .8>>99990900a9bbcd",
"     .8>>eefggg0ggghijk",
"     .82>llmmmmmmnne9cd",
"     .>2opqqqqqqqqpprbs",
"     ;2tuvvvvvvvvvvvvvv",
"     8wtxvvvvvvvvvvvvvv",
"     8wtuvvvvvvvvvvvvvv",
"     (;>yvvvvvvvvvvvvvv"};
