/* XPM */
static const char * au_xpm[] = {
"23 12 129 2",
"  	c None",
". 	c #6C4668",
"+ 	c #AA9FAE",
"@ 	c #899EC2",
"# 	c #8696CB",
"$ 	c #EBA6B1",
"% 	c #BFA0BC",
"& 	c #858ECE",
"* 	c #A09FCF",
"= 	c #E2B8D3",
"- 	c #A4A9D2",
"; 	c #8590C9",
"> 	c #8593C6",
", 	c #8090B9",
"' 	c #8F9EC6",
") 	c #7A8BB8",
"! 	c #374F89",
"~ 	c #001F62",
"{ 	c #0E2E6D",
"] 	c #513968",
"^ 	c #EEB8BC",
"/ 	c #E7DEED",
"( 	c #F5C0C5",
"_ 	c #E6BEC7",
": 	c #F2D3E1",
"< 	c #F5D6E8",
"[ 	c #BBC2DF",
"} 	c #AFB6D9",
"| 	c #ABB5D7",
"1 	c #ABB6D5",
"2 	c #D0D5E0",
"3 	c #9AA9C2",
"4 	c #000D62",
"5 	c #00095C",
"6 	c #BC313E",
"7 	c #BD213C",
"8 	c #DD6B77",
"9 	c #F19D93",
"0 	c #F08988",
"a 	c #F1938F",
"b 	c #F1A4A0",
"c 	c #DC8FA3",
"d 	c #F192A5",
"e 	c #E098AE",
"f 	c #808EBE",
"g 	c #8085B8",
"h 	c #7B84B2",
"i 	c #39458A",
"j 	c #324E87",
"k 	c #647796",
"l 	c #003691",
"m 	c #726AA7",
"n 	c #E0799E",
"o 	c #5376B5",
"p 	c #E96666",
"q 	c #C16E8C",
"r 	c #7B96D5",
"s 	c #DD88B1",
"t 	c #5C669C",
"u 	c #223A8D",
"v 	c #324B91",
"w 	c #8592B3",
"x 	c #223383",
"y 	c #223F87",
"z 	c #031F77",
"A 	c #203D89",
"B 	c #30498C",
"C 	c #956095",
"D 	c #8A528F",
"E 	c #000A84",
"F 	c #001E93",
"G 	c #BC4C73",
"H 	c #602F6F",
"I 	c #010283",
"J 	c #013995",
"K 	c #C59EA7",
"L 	c #6F4687",
"M 	c #011F82",
"N 	c #36529B",
"O 	c #001D7D",
"P 	c #012284",
"Q 	c #143593",
"R 	c #00218D",
"S 	c #00127B",
"T 	c #000E8E",
"U 	c #00189B",
"V 	c #00209C",
"W 	c #00209B",
"X 	c #000E8A",
"Y 	c #000A98",
"Z 	c #0023A1",
"` 	c #001D9A",
" .	c #001F8C",
"..	c #7D9FD9",
"+.	c #2348B6",
"@.	c #001F8B",
"#.	c #001F86",
"$.	c #FBFBEB",
"%.	c #5071B8",
"&.	c #001283",
"*.	c #00258C",
"=.	c #00258D",
"-.	c #00198B",
";.	c #002479",
">.	c #00227E",
",.	c #000268",
"'.	c #001278",
").	c #002583",
"!.	c #002584",
"~.	c #415E9F",
"{.	c #8193B7",
"].	c #000A74",
"^.	c #002176",
"/.	c #002373",
"(.	c #002476",
"_.	c #00247E",
":.	c #042A85",
"<.	c #0C3083",
"[.	c #00216C",
"}.	c #002065",
"|.	c #002181",
"1.	c #002496",
"2.	c #002499",
"3.	c #002591",
"4.	c #002167",
"5.	c #002091",
"6.	c #002096",
"7.	c #00208B",
"8.	c #001D5B",
"          . + @ # $ % & * = - ; ; > , ' ) ! ~ ",
"          { ] ^ / ( _ : < [ } | | | 1 2 3 4 5 ",
"          6 7 8 9 0 a b c d e f g f , h i j k ",
"          l m n o p q r s t u v w x y y z A B ",
"          C D E F G H I J K L M N O P M Q R S ",
"          T U V W X U W U Y Z ` ` W Z V V `  .",
"          F V V U ..+.U Z Z V Z Z Z Z Z Z W @.",
"          #.R @.@.$.%.&.*.=.=.=.=.=. .-.=.@.M ",
"          ;.>.>.>.,.'.).).).!.).).O ~.{.].>.^.",
"          ^./.(.;._.).!.=.*.=.=.).).:.<.^.^.[.",
"          }.[.;.|.=.=.1.2.2.2.2.1.3.|.>.;.[.4.",
"          }.[.^.|.R 5.6.` W W ` 6.5.7.|.^.}.8."};
