/* XPM */
static char * aw_xpm[] = {
"23 12 84 1",
" 	c None",
".	c #287AA2",
"+	c #5699BF",
"@	c #8CBDD8",
"#	c #97C1DB",
"$	c #95C3DE",
"%	c #95BFDF",
"&	c #98C1DB",
"*	c #8DBAD5",
"=	c #489AC5",
"-	c #23729F",
";	c #287EAA",
">	c #01A2DB",
",	c #C3AFBB",
"'	c #B5DAEC",
")	c #B3D7EA",
"!	c #B8D6EA",
"~	c #B8D6E9",
"{	c #B6D5E7",
"]	c #8DBED7",
"^	c #2D87B7",
"/	c #2F82A6",
"(	c #2784B5",
"_	c #906C81",
":	c #DB403B",
"<	c #DE9393",
"[	c #A1CAE3",
"}	c #92C1DA",
"|	c #5CA2C7",
"1	c #2D86B4",
"2	c #267AAA",
"3	c #257FB4",
"4	c #2894C9",
"5	c #C02E32",
"6	c #6784A9",
"7	c #479AC6",
"8	c #4597C4",
"9	c #2B87BB",
"0	c #257BAF",
"a	c #247DB9",
"b	c #1688C8",
"c	c #3F95D0",
"d	c #218FCD",
"e	c #2A8AC7",
"f	c #2C8CC6",
"g	c #2C8BC5",
"h	c #2987C5",
"i	c #237AB4",
"j	c #227CBF",
"k	c #2485CC",
"l	c #2389D2",
"m	c #268BD4",
"n	c #278CD4",
"o	c #278CD5",
"p	c #2181CA",
"q	c #1E76BE",
"r	c #1F79C3",
"s	c #2283D0",
"t	c #2388D7",
"u	c #248ADA",
"v	c #248CDC",
"w	c #2080CD",
"x	c #2880B9",
"y	c #2F90CA",
"z	c #3195CD",
"A	c #3398D0",
"B	c #3398CF",
"C	c #3197D3",
"D	c #A3BC38",
"E	c #AECA41",
"F	c #B5D141",
"G	c #B7D23D",
"H	c #BEDB44",
"I	c #BFDC43",
"J	c #BEDB43",
"K	c #B2CB3B",
"L	c #9AB43C",
"M	c #BCDB48",
"N	c #3085AA",
"O	c #348FB9",
"P	c #3396C7",
"Q	c #3096D5",
"R	c #2581BB",
"S	c #2382C6",
"     .+@#$%$%%%%$%%&*=-",
"     ;>,')'!!!!!!!~{]^/",
"     (_:<[$$$$%$$#$}|12",
"     34567===87====8990",
"     abcdeeffgffegeehei",
"     jklmnnoooooonmnkpq",
"     rstuvvvvvvvvvuunwj",
"     xfyzzAABBABBACzyhi",
"     DEFGHIIIIIHHIJGFKL",
"     DKGJJHHMMMMIHJJGKD",
"     NOOPzAAQQQQQAzPOO;",
"     0RRSSppwwwwppSSR3."};
