/* XPM */
static const char * az_xpm[] = {
"23 12 110 2",
"  	c None",
". 	c #2663B3",
"+ 	c #5687CA",
"@ 	c #8CADDD",
"# 	c #97B5E1",
"$ 	c #94B3E4",
"% 	c #2767BA",
"& 	c #2A6DC5",
"* 	c #8BB0E1",
"= 	c #B5CDEC",
"- 	c #B8CEEE",
"; 	c #B7CDEF",
"> 	c #2169C3",
", 	c #236FCC",
"' 	c #548FD9",
") 	c #8DB4E6",
"! 	c #90B6E7",
"~ 	c #91B7E8",
"{ 	c #2167C3",
"] 	c #256FCD",
"^ 	c #2670CF",
"/ 	c #4082D5",
"( 	c #4385D8",
"_ 	c #4280D1",
": 	c #406FBB",
"< 	c #437CD1",
"[ 	c #437FD5",
"} 	c #2065BE",
"| 	c #D71216",
"1 	c #E41316",
"2 	c #E81317",
"3 	c #EC1417",
"4 	c #EB0000",
"5 	c #ECA5B3",
"6 	c #ECB9B9",
"7 	c #EC2B2C",
"8 	c #EC0E05",
"9 	c #EC151A",
"0 	c #EC100E",
"a 	c #D11215",
"b 	c #CF1B36",
"c 	c #DE1D3A",
"d 	c #E21D39",
"e 	c #E61F3B",
"f 	c #E8010A",
"g 	c #EF80B3",
"h 	c #F4D1DF",
"i 	c #EC0101",
"j 	c #EB040F",
"k 	c #F2D9E2",
"l 	c #F4F4F4",
"m 	c #EA1025",
"n 	c #EA1E39",
"o 	c #F41D37",
"p 	c #E31C3E",
"q 	c #CB1935",
"r 	c #D3193B",
"s 	c #E91D40",
"t 	c #EE1E40",
"u 	c #F10215",
"v 	c #F76EB1",
"w 	c #F9D3EA",
"x 	c #F20A29",
"y 	c #F888BF",
"z 	c #F9DCEE",
"A 	c #F2021E",
"B 	c #F21C3E",
"C 	c #CD1839",
"D 	c #D11A36",
"E 	c #EE2039",
"F 	c #F32038",
"G 	c #F30009",
"H 	c #FD9BBB",
"I 	c #FDC7D6",
"J 	c #F73A53",
"K 	c #F2120C",
"L 	c #F22217",
"M 	c #F4213A",
"N 	c #359235",
"O 	c #3C9F36",
"P 	c #3FA636",
"Q 	c #40AB37",
"R 	c #42AF38",
"S 	c #40AD36",
"T 	c #3F880F",
"U 	c #419724",
"V 	c #42A435",
"W 	c #338D33",
"X 	c #4A8630",
"Y 	c #529132",
"Z 	c #559633",
"` 	c #569C39",
" .	c #559B3A",
"..	c #53973C",
"+.	c #549C3C",
"@.	c #569935",
"#.	c #538F31",
"$.	c #4B822E",
"%.	c #4E852C",
"&.	c #4F9741",
"*.	c #4E9642",
"=.	c #4D9643",
"-.	c #549638",
";.	c #559234",
">.	c #4B7F2A",
",.	c #4A8534",
"'.	c #46863B",
").	c #44863E",
"!.	c #408643",
"~.	c #467727",
"          . + @ # # # $ $ $ $ $ $ $ # # @ + . ",
"          % & * = - - = = ; ; ; ; - - = * & % ",
"          > , ' ) ! ! ! ! ~ ~ ~ ~ ~ ~ ) ' , { ",
"          { ] ^ / ( _ : < [ / < / ( / / ^ , } ",
"          | 1 2 3 3 4 5 6 7 8 9 0 9 3 3 2 1 a ",
"          b c d e f g h i j k l m n n o p c q ",
"          r p s t u v w u x y z A B t s s p C ",
"          D d n E F G H I J K L o M n E E d q ",
"          N O P Q R S T U V R R R R S Q V O W ",
"          X Y Z Z ` `  . .....+.`  .` @.Z #.$.",
"          %.#.Z ......&.*.&.=.*.&.*...-.;.#.$.",
"          >.%.,.,.'.).!.!.!.!.!.!.'.).,.,.X ~."};
