/* XPM */
static char * bg_xpm[] = {
"23 12 69 1",
" 	c None",
".	c #CCCCCC",
"+	c #DDDDDD",
"@	c #E8E8E8",
"#	c #E3DEE0",
"$	c #EBEBEB",
"%	c #D4D4D4",
"&	c #E0E0E0",
"*	c #C8CCC4",
"=	c #C8D1C0",
"-	c #CFD4CD",
";	c #F3F3F2",
">	c #F5F5F5",
",	c #EFEFEE",
"'	c #DFE6E1",
")	c #D3D3D3",
"!	c #B7B2A3",
"~	c #B5AC92",
"{	c #C1BAA8",
"]	c #F1F1F1",
"^	c #CAD2CD",
"/	c #D7E0DB",
"(	c #D7D7CF",
"_	c #CAB592",
":	c #D9D3C1",
"<	c #D8E0DA",
"[	c #E0E6E1",
"}	c #D6DED9",
"|	c #C5CDC8",
"1	c #158C19",
"2	c #16941A",
"3	c #189A1D",
"4	c #1BA129",
"5	c #189B19",
"6	c #199C1A",
"7	c #17991A",
"8	c #148818",
"9	c #018300",
"0	c #008B00",
"a	c #019100",
"b	c #019600",
"c	c #019900",
"d	c #007D00",
"e	c #018700",
"f	c #019C00",
"g	c #0D8000",
"h	c #0F8A00",
"i	c #0F8E00",
"j	c #109300",
"k	c #109500",
"l	c #119600",
"m	c #0D7C00",
"n	c #C50D00",
"o	c #D40E00",
"p	c #DC0E00",
"q	c #E70F00",
"r	c #E50F00",
"s	c #BF0D00",
"t	c #DA0000",
"u	c #EB0000",
"v	c #FA0000",
"w	c #FF0000",
"x	c #D20000",
"y	c #F10000",
"z	c #F70000",
"A	c #E10000",
"B	c #DD0000",
"C	c #E60000",
"D	c #C20000",
"     .+@#@@$$$$$$$$$@+.",
"     %&*=-;>>>>>>>>>,')",
"     %&!~{,;;;]]],;]@#)",
"     ^/(_:@<['''''''/}|",
"     123445666566677728",
"     900aaaababacbaa00d",
"     eabcfffffffffccba0",
"     ghijkkkkkkllkkkihm",
"     nopqqqqqqqqqqqrpos",
"     tuuvvwwwwwwwwwvuux",
"     tuyvvwvwvvwvwvzyux",
"     xtAAABCCCCCCAAABtD"};
