/* XPM */
static const char * bh_xpm[] = {
"23 12 72 1",
" 	c None",
".	c #C5C5C5",
"+	c #D9D9D9",
"@	c #E5E5E6",
"#	c #E6E7EB",
"$	c #EAEBED",
"%	c #E4DDE2",
"&	c #D6A1AE",
"*	c #CF8585",
"=	c #D08585",
"-	c #CD7878",
";	c #B63737",
">	c #9D0000",
",	c #CECECE",
"'	c #EAEAEA",
")	c #F1F2F2",
"!	c #F2F4F4",
"~	c #EFE3E7",
"{	c #E5B4B6",
"]	c #E3ABAB",
"^	c #E3A8A8",
"/	c #D37575",
"(	c #AF0000",
"_	c #A20000",
":	c #CECFD0",
"<	c #E3E3E3",
"[	c #EDEDED",
"}	c #EFF1F2",
"|	c #DC9A9E",
"1	c #D68080",
"2	c #D67B7B",
"3	c #C13939",
"4	c #CFD0D5",
"5	c #DDDDDE",
"6	c #DCCED1",
"7	c #C75359",
"8	c #BB2222",
"9	c #BA1E1E",
"0	c #B30101",
"a	c #E2E2E5",
"b	c #E6E8EB",
"c	c #D8AEBB",
"d	c #BA161B",
"e	c #AA0000",
"f	c #9A0000",
"g	c #DEDFE3",
"h	c #E3E4E8",
"i	c #EBEDF0",
"j	c #C33954",
"k	c #A70000",
"l	c #D0D1D6",
"m	c #F2F9F9",
"n	c #EED3D8",
"o	c #B60000",
"p	c #BD0000",
"q	c #EFF0F1",
"r	c #E7C1CF",
"s	c #C91E24",
"t	c #C10000",
"u	c #F6FCFC",
"v	c #EFDCDF",
"w	c #D14148",
"x	c #C40000",
"y	c #D3D3D3",
"z	c #D13E47",
"A	c #C41B23",
"B	c #C9C9C9",
"C	c #D6D7D8",
"D	c #DBE2E2",
"E	c #D5C0CD",
"F	c #B63E5D",
"G	c #960000",
"     .+@#$%&*******=-;>",
"     ,+')!~{]]]]]]]^/(_",
"     :+<[}%|111111123(_",
"     4+5<#67888888890(>",
"     :5<abcd00000000(ef",
"     4ghbi6j000000(((kf",
"     la#imnj0oppoop((ef",
"     la$qmrsptpppppp0(>",
"     la[)uvwtttxxxttp0_",
"     y@[)unztttttxtpp0_",
"     y<'qmrAopopppppp0k",
"     ByC+DEFkekkkkekkkG"};
