/* XPM */
static char * bw_xpm[] = {
"23 12 74 1",
" 	c None",
".	c #64899F",
"+	c #86A7BC",
"@	c #ABC3D4",
"#	c #B3C9DA",
"$	c #AFC8DD",
"%	c #ACC8DE",
"&	c #668CA3",
"*	c #698FA6",
"=	c #6E97B1",
"-	c #AFC6D6",
";	c #CCDBE6",
">	c #CCDCE8",
",	c #CBDCE9",
"'	c #668FAA",
")	c #6E98B3",
"!	c #8EB0C5",
"~	c #B3CBDD",
"{	c #B4CBDC",
"]	c #B6CCDA",
"^	c #5E8EAF",
"/	c #6696B7",
"(	c #6998B7",
"_	c #7CA5BF",
":	c #7FA7C1",
"<	c #7EA7C2",
"[	c #5C8BAB",
"}	c #6FABD2",
"|	c #79B6DF",
"1	c #7CB9E3",
"2	c #7EBBE5",
"3	c #81BDE6",
"4	c #6CA6CC",
"5	c #626C9B",
"6	c #6D79AA",
"7	c #727EAD",
"8	c #7480AE",
"9	c #000000",
"0	c #626A90",
"a	c #6E7495",
"b	c #767A97",
"c	c #797C97",
"d	c #7B7D96",
"e	c #737796",
"f	c #5F678C",
"g	c #79B5D7",
"h	c #85C3E9",
"i	c #8BCAF0",
"j	c #90D0F5",
"k	c #92D3F9",
"l	c #93D4FB",
"m	c #75AFD0",
"n	c #6691AD",
"o	c #75A2C1",
"p	c #75A5C4",
"q	c #75A9CB",
"r	c #74A8CD",
"s	c #71A8CF",
"t	c #76A8C8",
"u	c #73A2BF",
"v	c #638CA8",
"w	c #6C92AB",
"x	c #72A7CE",
"y	c #70A8D2",
"z	c #6DA7D5",
"A	c #6AA7D8",
"B	c #749FBA",
"C	c #6A95B0",
"D	c #6998B9",
"E	c #669AC1",
"F	c #639AC7",
"G	c #5D9ACF",
"H	c #5C9ACF",
"I	c #619BCC",
"     .+@#$$$%%%%%%##@+&",
"     *=-;>,,,,,,,>>>-=*",
"     ')!#~{{{~~~~]]#!='",
"     ^/(_+:::::<<:__(/[",
"     }|1223333333332114",
"     567788888888788665",
"     999999999999999999",
"     0abbccdddddddcbeaf",
"     ghijklllllllljjihm",
"     n)opqqrsssssqtpu)v",
"     woopxyzAAAA}yrppB*",
"     &CDEFFGGGGGHIFEDC."};
