/* XPM */
static const char * ch_xpm[] = {
"23 12 50 1",
" 	c None",
".	c #9E0000",
"+	c #B63737",
"@	c #CD7878",
"#	c #D28686",
"$	c #D18585",
"%	c #A50000",
"&	c #B30000",
"*	c #D37575",
"=	c #E3ABAB",
"-	c #E2ABAB",
";	c #AF0000",
">	c #D67B7B",
",	c #DA8788",
"'	c #E6CED1",
")	c #A10000",
"!	c #B71E1E",
"~	c #C0292C",
"{	c #E8EAEA",
"]	c #C12F30",
"^	c #A90000",
"/	c #B40D10",
"(	c #BF2C39",
"_	c #E5ECEC",
":	c #C02F3B",
"<	c #B51015",
"[	c #D3A3C3",
"}	c #ECF2F2",
"|	c #EAEBEF",
"1	c #EAF2F2",
"2	c #D5AAC8",
"3	c #D6A5C6",
"4	c #F1F5F5",
"5	c #EFF8F8",
"6	c #EFF0F4",
"7	c #D8AFCB",
"8	c #BC1218",
"9	c #C01920",
"0	c #CD3443",
"a	c #F5FDFD",
"b	c #CE3745",
"c	c #BB0000",
"d	c #C6080A",
"e	c #FCFFFF",
"f	c #C80D0E",
"g	c #B60000",
"h	c #BE0000",
"i	c #C91316",
"j	c #E8BDC4",
"k	c #C91617",
"        .+@###$$#@+.   ",
"        %&*==----*;%   ",
"        %;+>,'',>+;%   ",
"        );;!~{{]!&;)   ",
"        .^//(__:<<^.   ",
"        .%[}}||1}2%.   ",
"        .%34546547%.   ",
"        );890aab98;)   ",
"        %&ccdeefcc&%   ",
"        %gchijjkhcg%   ",
"        ^ggchcchccg^   ",
"        )%;;;;;;;;^)   "};
