/* XPM */
static char * ci_xpm[] = {
"23 12 108 2",
"  	c None",
". 	c #CC4F27",
"+ 	c #DD7759",
"@ 	c #E9A391",
"# 	c #EBAC9E",
"$ 	c #EBA99D",
"% 	c #ECECEC",
"& 	c #EAEAEA",
"* 	c #85EBB2",
"= 	c #85EBB6",
"- 	c #78E9AA",
"; 	c #39E97F",
"> 	c #00CC50",
", 	c #D45328",
"' 	c #E0572C",
") 	c #EEA48E",
"! 	c #F4C5B8",
"~ 	c #F5C0B2",
"{ 	c #F5F5F5",
"] 	c #ABF5CC",
"^ 	c #75EEA7",
"/ 	c #00D659",
"( 	c #00D453",
"_ 	c #E97D5D",
": 	c #F1A893",
"< 	c #F1AA96",
"[ 	c #F1A18A",
"} 	c #F1F1F1",
"| 	c #80F1A9",
"1 	c #00E982",
"2 	c #00E15A",
"3 	c #00D357",
"4 	c #D65031",
"5 	c #E25731",
"6 	c #E55730",
"7 	c #E96C48",
"8 	c #EA5D33",
"9 	c #22EA69",
"0 	c #22E973",
"a 	c #00DD62",
"b 	c #00D16A",
"c 	c #D74F35",
"d 	c #E45538",
"e 	c #E85636",
"f 	c #EA5836",
"g 	c #EC5734",
"h 	c #EC4517",
"i 	c #01EC5D",
"j 	c #01EC6A",
"k 	c #00E86F",
"l 	c #00E472",
"m 	c #D84E3B",
"n 	c #ED5640",
"o 	c #F2563D",
"p 	c #F3441B",
"q 	c #F4F4F4",
"r 	c #00F367",
"s 	c #00F27E",
"t 	c #00EB75",
"u 	c #00D376",
"v 	c #F55941",
"w 	c #F8573E",
"x 	c #F9451B",
"y 	c #F9F9F9",
"z 	c #FDFDFD",
"A 	c #00F971",
"B 	c #00F881",
"C 	c #00F584",
"D 	c #00ED81",
"E 	c #EB5839",
"F 	c #F25A39",
"G 	c #F85D39",
"H 	c #FB5C36",
"I 	c #FD4918",
"J 	c #00FD62",
"K 	c #00FB70",
"L 	c #00F875",
"M 	c #00F274",
"N 	c #00D46B",
"O 	c #DA5132",
"P 	c #EB5A33",
"Q 	c #F15D31",
"R 	c #F96034",
"S 	c #FD5E32",
"T 	c #FF4B16",
"U 	c #00FF5C",
"V 	c #00FD66",
"W 	c #00F965",
"X 	c #00EB68",
"Y 	c #00D361",
"Z 	c #DA542D",
"` 	c #F96032",
" .	c #00F361",
"..	c #00EB5E",
"+.	c #D95429",
"@.	c #EB5B2E",
"#.	c #F75E34",
"$.	c #FCFCFC",
"%.	c #00FA6E",
"&.	c #00F76B",
"*.	c #CF5028",
"=.	c #DF5431",
"-.	c #E15435",
";.	c #E35135",
">.	c #E54017",
",.	c #E6E6E6",
"'.	c #00E466",
").	c #00C14C",
"          . + @ # $ @ % % & % & % * = = - ; > ",
"          , ' ) ! ! ~ { { { { { { ] ] ] ^ / ( ",
"          , ' _ : < [ } } } } } } | * ^ 1 2 3 ",
"          4 5 6 7 7 8 & & & & & & 9 0 0 9 a b ",
"          c d e f g h % % % % % % i j j k l b ",
"          m n n n o p { { q q q { r s 1 s t u ",
"          m n n v w x y y y y z y A B C D 1 u ",
"          c E F G H I z z z z z z J K L M t N ",
"          O P Q R S T z z z z z z U V W r X Y ",
"          Z 8 Q ` S T z z z z z z U V W  ...3 ",
"          +.@.Q #.H I z $.z z z y V %.&.r i ( ",
"          *.Z =.-.;.>.,.,.,.,.,.,.'.l a a / )."};
