/* XPM */
static char * cl_xpm[] = {
"23 12 70 1",
" 	c None",
".	c #060090",
"+	c #3C37B0",
"@	c #7A78CC",
"#	c #8786D4",
"$	c #EEEEEC",
"%	c #EAEAEA",
"&	c #E7E7E9",
"*	c #DADADA",
"=	c #C5C5C5",
"-	c #060097",
";	c #000096",
">	c #9491D5",
",	c #C0BFE6",
"'	c #ABABE2",
")	c #F5F5F4",
"!	c #F2F2F3",
"~	c #F2F4F4",
"{	c #CECECE",
"]	c #02009D",
"^	c #8384C0",
"/	c #E0E0E1",
"(	c #C0C2E1",
"_	c #F1F1EF",
":	c #EDF2F2",
"<	c #EDEEEE",
"[	c #ECECEC",
"}	c #E3E3E4",
"|	c #CACECE",
"1	c #0000A2",
"2	c #231BAF",
"3	c #E5E5E3",
"4	c #E9E9E7",
"5	c #4843BE",
"6	c #2222AF",
"7	c #DDDDDE",
"8	c #DADBDC",
"9	c #C9CACB",
"0	c #0000AC",
"a	c #2327C2",
"b	c #939EDA",
"c	c #8F97DA",
"d	c #2D30C4",
"e	c #E4E8E9",
"f	c #DDE1E2",
"g	c #0000C0",
"h	c #0211D1",
"i	c #0000CB",
"j	c #0000CD",
"k	c #000ED8",
"l	c #0000D1",
"m	c #EEF4F4",
"n	c #EAF0F0",
"o	c #E7EDED",
"p	c #CCD1D1",
"q	c #BC0000",
"r	c #CC0000",
"s	c #D10000",
"t	c #D40000",
"u	c #B70000",
"v	c #B20000",
"w	c #BA0000",
"x	c #AF0000",
"y	c #A50000",
"z	c #960000",
"A	c #C30000",
"B	c #9C0000",
"C	c #A20000",
"D	c #C40000",
"E	c #A80000",
"     .+@###$%&&&&&&&&*=",
"     -;>,''))!!~~!!!%*{",
"     ]^/$(@_:$$$<$$[}*|",
"     12345644}}}}}}}789",
"     0abcd0$%eeeeeeeff|",
"     ghijkl)~mmmmmmnoep",
"     qqrsrtuuvwuuuvxxyz",
"     yvwqAAqqqwqqqwwvxB",
"     CuwqADDAAAADDAqwvC",
"     yuqAAAAAAAAAAAAquC",
"     Ewwqqqqqwqqqqqwwuy",
"     CEEEEEEEyyyEEEEyCz"};
