/* XPM */
static const char * cm_xpm[] = {
"23 12 83 1",
" 	c None",
".	c #006200",
"+	c #378637",
"@	c #78AD78",
"#	c #86B586",
"$	c #85BB85",
"%	c #D98585",
"&	c #D18585",
"*	c #CF8585",
"=	c #EAEB85",
"-	c #E9E978",
";	c #DDDD37",
">	c #CCCC00",
",	c #006600",
"'	c #006C00",
")	c #75AF75",
"!	c #A8CDA8",
"~	c #ABD3AB",
"{	c #E9ABAB",
"]	c #E3ABAB",
"^	c #E0ABAB",
"/	c #F4F5AB",
"(	c #EEEE75",
"_	c #E4E400",
":	c #D3D300",
"<	c #398D39",
"[	c #7BB37B",
"}	c #80B780",
"|	c #80BD80",
"1	c #E08080",
"2	c #D88080",
"3	c #D68080",
"4	c #D48080",
"5	c #F1F17B",
"6	c #E9E939",
"7	c #DDDD00",
"8	c #D6D600",
"9	c #006B00",
"0	c #1E7E1E",
"a	c #228222",
"b	c #228F22",
"c	c #CC2222",
"d	c #BB2222",
"e	c #B62222",
"f	c #E9E922",
"g	c #E9E91E",
"h	c #017101",
"i	c #018001",
"j	c #CA0000",
"k	c #B40101",
"l	c #C03401",
"m	c #AE0101",
"n	c #EBEC01",
"o	c #E7E700",
"p	c #007D00",
"q	c #C50000",
"r	c #DA5F00",
"s	c #EFF400",
"t	c #C96200",
"u	c #AA0000",
"v	c #F2F200",
"w	c #ECEC01",
"x	c #008400",
"y	c #BE0000",
"z	c #F7F900",
"A	c #BB0000",
"B	c #FBFB00",
"C	c #F8F800",
"D	c #F5F500",
"E	c #007600",
"F	c #008A00",
"G	c #D20000",
"H	c #CE1C00",
"I	c #CB2100",
"J	c #C61B00",
"K	c #007B00",
"L	c #C10000",
"M	c #FEFF00",
"N	c #D80000",
"O	c #F0F000",
"P	c #A60000",
"Q	c #A20000",
"R	c #C1C100",
"     .+@##$%&&***===-;>",
"     ,')!~~{]]]]^///(_:",
"     ,'<[}|123334555678",
"     ,9'0abcddddeffg__:",
"     .9''hijkllmmnnno_>",
"     .,''hpqrsstuvvvwo:",
"     .99'hxjyzzAkBCDwo:",
"     .9'EEFGHIIJkBBCDn8",
"     ,hhEKFGjyLLyMMCvn:",
"     9hhKKFNqLLyyMMBvn:",
"     ,hhEEFGyyAAkBBCOn:",
"     .99,9EyuPPPQo7_78R"};
