/* XPM */
static char * co_xpm[] = {
"23 12 46 1",
" 	c None",
".	c #CCCC00",
"+	c #DDDD37",
"@	c #E9E978",
"#	c #EBEB86",
"$	c #D4D400",
"%	c #E0E000",
"&	c #EEEE75",
"*	c #F4F4A8",
"=	c #F5F5AB",
"-	c #E9E939",
";	c #F1F17B",
">	c #F1F180",
",	c #D8D800",
"'	c #E5E500",
")	c #E9E91E",
"!	c #E9E922",
"~	c #EAEA22",
"{	c #D1D100",
"]	c #E8E800",
"^	c #EDED00",
"/	c #E4E400",
"(	c #F2F200",
"_	c #F4F400",
":	c #0000C0",
"<	c #0000CD",
"[	c #0000D3",
"}	c #0000D9",
"|	c #0000DA",
"1	c #0000D4",
"2	c #0000B8",
"3	c #0000B1",
"4	c #0000BD",
"5	c #0000C5",
"6	c #0000AC",
"7	c #0000CA",
"8	c #BE0000",
"9	c #CD0000",
"0	c #D40000",
"a	c #D90000",
"b	c #DD0000",
"c	c #B80000",
"d	c #AB0000",
"e	c #C10000",
"f	c #A60000",
"g	c #960000",
"     .+@############@+.",
"     $%&*=====*==*=*&%$",
"     $%-;>>>>>>>>>>;-%$",
"     ,%')!!!!!!!!~~)'%{",
"     ,']]^^^^^^]^^^]]/{",
"     ,'^(((________(^]{",
"     :<[}}}}}||}}}}}1<2",
"     34::55555<55555:46",
"     257<[[[1111[[[<753",
"     890aabbbbbbbbba09c",
"     d888ee888888e8888f",
"     gfdfddffffffdddfdg"};
