/* XPM */
static char * cs_xpm[] = {
"23 12 51 1",
" 	c None",
".	c #060090",
"+	c #3C37B0",
"@	c #7B78CC",
"#	c #8986D4",
"$	c #8885D8",
"%	c #8785DA",
"&	c #7975CD",
"*	c #060097",
"=	c #0700A0",
"-	c #AAA8E1",
";	c #ADABE3",
">	c #ADABE6",
",	c #03009A",
"'	c #0000A3",
")	c #3B39B7",
"!	c #7D7BCF",
"~	c #8180D2",
"{	c #8180D5",
"]	c #00009D",
"^	c #1E1EAC",
"/	c #2222AF",
"(	c #2222B0",
"_	c #D7D7D7",
":	c #E4E4E4",
"<	c #E8E9E8",
"[	c #ECECEC",
"}	c #D1D1D1",
"|	c #EBECEB",
"1	c #F0F6F7",
"2	c #EFF0EF",
"3	c #E1E7E7",
"4	c #CDCECE",
"5	c #CED4D4",
"6	c #E7EDEE",
"7	c #EEF2F2",
"8	c #CBD0D1",
"9	c #D4DADA",
"0	c #E5EBEB",
"a	c #F3F8F8",
"b	c #F8FDFD",
"c	c #A70000",
"d	c #A90000",
"e	c #BC0000",
"f	c #C20000",
"g	c #BB0000",
"h	c #B00000",
"i	c #9C0000",
"j	c #B60000",
"k	c #A10000",
"l	c #960000",
"     .+@##$$$%%%%$##&+.",
"     *=&-;;>>>>>>>>-&=*",
"     ,')!~~{{{{{{~~!),,",
"     ]''^////((((//^'',",
"     _:<<[[[[[[[[[[<<:}",
"     _:<|[1222222[2[<34",
"     536711111111117638",
"     907aabbbbbbbbba705",
"     cdeefefeffffefgghi",
"     cjgeffffefefffegjk",
"     djeegeeeegggeeegjk",
"     kcddddccdcccdddccl"};
