/* XPM */
static const char * cx_xpm[] = {
"23 12 103 2",
"  	c None",
". 	c #00A000",
"+ 	c #37B437",
"@ 	c #78CC78",
"# 	c #86D086",
"$ 	c #85CF85",
"% 	c #37B237",
"& 	c #009600",
"* 	c #008F0D",
"= 	c #00D600",
"- 	c #75D975",
"; 	c #A8E1A8",
"> 	c #ABE2AB",
", 	c #BCDB75",
"' 	c #0EB000",
") 	c #009E00",
"! 	c #0000C9",
"~ 	c #002C83",
"{ 	c #39B939",
"] 	c #7BEB7B",
"^ 	c #80DC80",
"/ 	c #80D480",
"( 	c #7BD47B",
"_ 	c #3BC239",
": 	c #DFD300",
"< 	c #009A00",
"[ 	c #0000AB",
"} 	c #0200CD",
"| 	c #0300D5",
"1 	c #1E4A90",
"2 	c #22B922",
"3 	c #22E122",
"4 	c #22C522",
"5 	c #22B422",
"6 	c #22B222",
"7 	c #B9D01E",
"8 	c #95CF00",
"9 	c #D0D700",
"0 	c #009100",
"a 	c #0000B0",
"b 	c #1B1DBF",
"c 	c #373CCB",
"d 	c #0000D0",
"e 	c #0101DC",
"f 	c #013590",
"g 	c #019D0A",
"h 	c #61D701",
"i 	c #ECE901",
"j 	c #ECE301",
"k 	c #01B201",
"l 	c #01AF01",
"m 	c #00A700",
"n 	c #3BBF00",
"o 	c #E4E400",
"p 	c #7BBC00",
"q 	c #0101B9",
"r 	c #0202C6",
"s 	c #1619CF",
"t 	c #1B17D3",
"u 	c #0000EB",
"v 	c #1200DD",
"w 	c #E9F400",
"x 	c #5CD700",
"y 	c #25C900",
"z 	c #A4DD00",
"A 	c #21BB00",
"B 	c #C4DA00",
"C 	c #3CAC00",
"D 	c #4754C4",
"E 	c #242BD7",
"F 	c #272DD7",
"G 	c #0000D9",
"H 	c #F9F900",
"I 	c #54E800",
"J 	c #23D900",
"K 	c #26C000",
"L 	c #2BBA00",
"M 	c #0000B6",
"N 	c #0000BE",
"O 	c #1416C8",
"P 	c #0F11CA",
"Q 	c #0000E4",
"R 	c #685C8D",
"S 	c #FDFD00",
"T 	c #D3F002",
"U 	c #0E00D9",
"V 	c #0022A6",
"W 	c #0AC700",
"X 	c #0BF100",
"Y 	c #00C700",
"Z 	c #0000AD",
"` 	c #0000C3",
" .	c #00BD00",
"..	c #00EA00",
"+.	c #0000A7",
"@.	c #1C1CB9",
"#.	c #3D3EC8",
"$.	c #00B700",
"%.	c #00C900",
"&.	c #0505B2",
"*.	c #0F0FBB",
"=.	c #00405C",
"-.	c #00009B",
"          . + @ # # # $ $ $ $ # # # # # @ % & ",
"          * = - ; ; ; ; > > > > > ; > ; , ' ) ",
"          ! ~ { ] ^ / / / / / / / / / ( _ : < ",
"          [ } | 1 2 3 4 5 6 6 5 5 2 5 7 8 9 0 ",
"          a b c d e f g h i j k l k l m n o p ",
"          q r ! s t u v w x y z k k l l A B C ",
"          D r } E F | G H I I H = J K K L . < ",
"          M N O P r ! Q R S T U V W X Y k l < ",
"          Z q q N ` ` r Q G Q G Q u f  ... .) ",
"          +.@.#.N ` r r ! } } ! r ! Q Q ~ $.%.",
"          +.&.*.N r ! ! } } } } ! ! r r G d =.",
"          -.+.Z M q N ` ` r r r r ` q &.Z +.+."};
