/* XPM */
static const char * dj_xpm[] = {
"23 12 82 1",
" 	c None",
".	c #9EBACC",
"+	c #6FB8DD",
"@	c #A5D2E9",
"#	c #B2D7EB",
"$	c #AFD6EB",
"%	c #ACD6EB",
"&	c #ABD3E9",
"*	c #85BEDD",
"=	c #62A4CC",
"-	c #D4D4D4",
";	c #E0DEE0",
">	c #A8D7EE",
",	c #C2E4F4",
"'	c #CCE6F5",
")	c #C9E6F5",
"!	c #AED7EE",
"~	c #6BB5E0",
"{	c #66ACD4",
"]	c #D1D3D5",
"^	c #E2E2E2",
"/	c #E9E8E9",
"(	c #BFDFF1",
"_	c #A3D7F1",
":	c #B2DBF1",
"<	c #8CC7E9",
"[	c #62AAD3",
"}	c #D2D4D6",
"|	c #E5E5E5",
"1	c #BFDAE9",
"2	c #62BCEA",
"3	c #77C1EA",
"4	c #7EC2EA",
"5	c #6BBEEC",
"6	c #69B8E5",
"7	c #66B6E2",
"8	c #5CA7D1",
"9	c #E8B4C2",
"0	c #ECECEC",
"a	c #E4E6EC",
"b	c #5ABBEC",
"c	c #51BBEC",
"d	c #6CC1F4",
"e	c #6ABCEC",
"f	c #69BEF0",
"g	c #65B9E8",
"h	c #64B7E7",
"i	c #59A5D1",
"j	c #E778AA",
"k	c #ED0000",
"l	c #F073A8",
"m	c #F2E4EA",
"n	c #F3F3F3",
"o	c #AED4F4",
"p	c #5BBFF4",
"q	c #6BC1F4",
"r	c #66BCED",
"s	c #D8D9D9",
"t	c #E976AB",
"u	c #F00000",
"v	c #F54F74",
"w	c #FBFBFB",
"x	c #F9F8F9",
"y	c #43CF50",
"z	c #00B200",
"A	c #00B600",
"B	c #00AE00",
"C	c #00AC00",
"D	c #009C00",
"E	c #EBA2B8",
"F	c #F295AE",
"G	c #F8ADC0",
"H	c #FDFDFD",
"I	c #00BA00",
"J	c #009500",
"K	c #B1E8BA",
"L	c #00BC00",
"M	c #48CD4F",
"N	c #009E00",
"O	c #90BE90",
"P	c #00A500",
"Q	c #00A100",
"     .+@#$$$$%%$$$$#&*=",
"     -;>,'''))))))))!~{",
"     ]^/(_::::::::#:<~[",
"     }^|/12344444<<5678",
"     }|90/abc5dee5feghi",
"     ]jklmnnopddqeffrgi",
"     stuvwwxyzAAAAAzBCD",
"     sEFGwHAzIIIIIAAzCJ",
"     s/nwKBILLLLLLIIABD",
"     s/nMBIIIIILILIIzBD",
"     s0zBAIAIIIAIIAAzBN",
"     OJNPPPPPPPPPPPPQNJ"};
