/* XPM */
static const char * dm_xpm[] = {
"23 12 120 2",
"  	c None",
". 	c #009000",
"+ 	c #37AC37",
"@ 	c #78C778",
"# 	c #86CD86",
"$ 	c #85CB85",
"% 	c #85C485",
"& 	c #EBEB85",
"* 	c #9FA085",
"= 	c #9493C2",
"- 	c #EBEBEB",
"; 	c #85C585",
"> 	c #008D00",
", 	c #009600",
"' 	c #009F00",
") 	c #75CB75",
"! 	c #A8DEA8",
"~ 	c #ABDFAB",
"{ 	c #F5F5AB",
"] 	c #BFBDAB",
"^ 	c #B6B2D8",
"/ 	c #F5F5F5",
"( 	c #ABE1AB",
"_ 	c #00A100",
": 	c #39B539",
"< 	c #7BCD7B",
"[ 	c #80CF80",
"} 	c #80DF80",
"| 	c #E28B80",
"1 	c #E29780",
"2 	c #E38698",
"3 	c #008900",
"4 	c #1EA11E",
"5 	c #22B522",
"6 	c #EA2222",
"7 	c #BE6D22",
"8 	c #C04931",
"9 	c #C24425",
"0 	c #229122",
"a 	c #22B922",
"b 	c #008700",
"c 	c #D7D700",
"d 	c #E4E400",
"e 	c #E8E800",
"f 	c #ECEC01",
"g 	c #CF5401",
"h 	c #C62401",
"i 	c #CA1101",
"j 	c #373874",
"k 	c #8D0958",
"l 	c #C90F01",
"m 	c #C02801",
"n 	c #CF4401",
"o 	c #D1D100",
"p 	c #312B00",
"q 	c #352F00",
"r 	c #373100",
"s 	c #2E3400",
"t 	c #C50A00",
"u 	c #B24000",
"v 	c #D90006",
"w 	c #1E5287",
"x 	c #165C00",
"y 	c #E40000",
"z 	c #B13900",
"A 	c #313100",
"B 	c #2F2A00",
"C 	c #2F2891",
"D 	c #332C9A",
"E 	c #352D9D",
"F 	c #3631A2",
"G 	c #2D30B2",
"H 	c #C90900",
"I 	c #B54100",
"J 	c #692F33",
"K 	c #018204",
"L 	c #BC0200",
"M 	c #B83800",
"N 	c #D41200",
"O 	c #2E2DAF",
"P 	c #3631A6",
"Q 	c #2E278D",
"R 	c #DADADA",
"S 	c #F2F2F2",
"T 	c #F8F8F8",
"U 	c #DA564C",
"V 	c #D72900",
"W 	c #BC0F00",
"X 	c #D81C00",
"Y 	c #483C00",
"Z 	c #A01B00",
"` 	c #D92500",
" .	c #D54435",
"..	c #FCFCFC",
"+.	c #D4D4D4",
"@.	c #009B00",
"#.	c #00B900",
"$.	c #EF0000",
"%.	c #CD6F00",
"&.	c #CE2300",
"*.	c #CC2B00",
"=.	c #C15C00",
"-.	c #FF0000",
";.	c #00BE00",
">.	c #00A800",
",.	c #00B200",
"'.	c #00D300",
").	c #DC1700",
"!.	c #DB2D00",
"~.	c #E13200",
"{.	c #E10E36",
"].	c #00D600",
"^.	c #00A600",
"/.	c #00AE00",
"(.	c #FCFC00",
"_.	c #443D00",
":.	c #241999",
"<.	c #3A3C00",
"[.	c #212089",
"}.	c #E5E5E5",
"          . + @ # # $ % & * = - ; $ $ # @ + > ",
"          , ' ) ! ~ ~ ~ { ] ^ / ( ~ ~ ! ) ' , ",
"          , _ : < [ } [ | | 1 2 [ } [ < : _ , ",
"          3 . , 4 5 4 6 7 8 9 7 6 0 a 4 , . b ",
"          c d e e f g h i j k l m n f f e d o ",
"          p q r r s t u v w x y z i A r q q B ",
"          C D E F G H I y J K L M N O P E D Q ",
"          R - S T T U V W X Y Z `  ...T S - +.",
"          > @.' _ #._ $.%.&.*.=.-.. ;._ ' @.3 ",
"          @.>.>.,.,.'.,.).!.~.{.>.].,.,.>.^., ",
"          @.^.>./.,./.,.(._.:...#./././.>.^., ",
"          . @.@.@.' ' > d <.[.}.> ' @.' ' , 3 "};
