/* XPM */
static const char * ec_xpm[] = {
"23 12 73 1",
" 	c None",
".	c #CCCC00",
"+	c #DDDD37",
"@	c #E9E978",
"#	c #EBEB86",
"$	c #D4D400",
"%	c #E0E000",
"&	c #EEEE75",
"*	c #F4F4A8",
"=	c #F5F5AB",
"-	c #E9E939",
";	c #F1F17B",
">	c #F1F180",
",	c #EFEC80",
"'	c #D3D300",
")	c #D8D800",
"!	c #E5E500",
"~	c #E9E91E",
"{	c #EAEA22",
"]	c #E8E825",
"^	c #BB9B23",
"/	c #985E22",
"(	c #955322",
"_	c #B18223",
":	c #DDD925",
"<	c #E8E800",
"[	c #EDED00",
"}	c #ECE910",
"|	c #627B01",
"1	c #939D2A",
"2	c #918036",
"3	c #576C01",
"4	c #E1DD10",
"5	c #F2F200",
"6	c #F4F400",
"7	c #5F3418",
"8	c #A5DFF4",
"9	c #A9F4F4",
"0	c #5F392F",
"a	c #0000C1",
"b	c #0000CE",
"c	c #0000D5",
"d	c #0000D9",
"e	c #0000E5",
"f	c #0B10C7",
"g	c #CC6E25",
"h	c #ABD0D0",
"i	c #A4BDBE",
"j	c #C66C31",
"k	c #0000E8",
"l	c #0000BD",
"m	c #0000B1",
"n	c #0000C5",
"o	c #0000CA",
"p	c #0000D1",
"q	c #AF9B23",
"r	c #846253",
"s	c #815850",
"t	c #B29917",
"u	c #0000AC",
"v	c #0000B8",
"w	c #362585",
"x	c #3E2C7C",
"y	c #BF0000",
"z	c #CD0000",
"A	c #D40000",
"B	c #DD0000",
"C	c #D90000",
"D	c #B80000",
"E	c #A90000",
"F	c #C10000",
"G	c #A60000",
"H	c #960000",
"     .+@############@+.",
"     $%&****==*==*=*&%$",
"     $%-;>>>,>>>>>>;-%'",
"     )%!~{{]^/(_:{{~!%$",
"     )!<<[[}|1234[[<<!$",
"     )![555678905655[!$",
"     abcddefghijfkddcbl",
"     mlaanopqrstoonnalu",
"     vnopppckwxedppbonm",
"     yzAABBBAzzABBBCAzD",
"     EyyyFyyyyyyyyFyyFG",
"     HGEEEEGGGGGGEEEGEH"};
