/* XPM */
static const char * eg_xpm[] = {
"23 12 45 1",
" 	c None",
".	c #9E0000",
"+	c #B63737",
"@	c #CD7878",
"#	c #D28686",
"$	c #CF8585",
"%	c #A50000",
"&	c #AE0000",
"*	c #D37575",
"=	c #E3A8A8",
"-	c #E2ABAB",
";	c #A20000",
">	c #C03939",
",	c #D67B7B",
"'	c #D78080",
")	c #AB0000",
"!	c #B71E1E",
"~	c #B82222",
"{	c #B92222",
"]	c #990000",
"^	c #D6D7D7",
"/	c #E3E4E4",
"(	c #E7E7E7",
"_	c #EBEBEB",
":	c #EAECEC",
"<	c #EDEDED",
"[	c #E7E8E8",
"}	c #E2ECD7",
"|	c #D0D1D1",
"1	c #D8D8D8",
"2	c #F3F3F3",
"3	c #F5F5F5",
"4	c #EEF4DA",
"5	c #A1611F",
"6	c #F0EFD3",
"7	c #D3D3D3",
"8	c #F8F8F8",
"9	c #F4E6D1",
"0	c #DE9941",
"a	c #F5DFC5",
"b	c #F0F0F0",
"c	c #FDFDFD",
"d	c #FDFDF6",
"e	c #FDFDEB",
"f	c #000000",
"     .+@##$$$$$$$$##@+.",
"     %&*=-=--------=*&%",
"     ;&>,'''''''''',+&;",
"     .))!~{{{{{{{{{{&%]",
"     ^/(_::<:[}:<<__(/|",
"     1(_222345563322:(7",
"     1_<3388900a8882b(7",
"     1<288cccdeccc832<1",
"     ffffffffffffffffff",
"     ffffffffffffffffff",
"     ffffffffffffffffff",
"     ffffffffffffffffff"};
