/* XPM */
static const char * eh_xpm[] = {
"23 12 96 2",
"  	c None",
". 	c #000000",
"+ 	c #323232",
"@ 	c #767676",
"# 	c #838383",
"$ 	c #3A3232",
"% 	c #7D0000",
"& 	c #787878",
"* 	c #A6A6A6",
"= 	c #A8A8A8",
"- 	c #8E7878",
"; 	c #B50000",
"> 	c #D70000",
", 	c #3B3B3B",
"' 	c #A47575",
") 	c #DF3B3B",
"! 	c #E20000",
"~ 	c #0E0F12",
"{ 	c #101012",
"] 	c #272728",
"^ 	c #2A2A2B",
"/ 	c #2A2C2E",
"( 	c #2A3031",
"_ 	c #2A2A2C",
": 	c #312829",
"< 	c #961C1C",
"[ 	c #E81919",
"} 	c #E60000",
"| 	c #C7C7CD",
"1 	c #D4D5DA",
"2 	c #D6D8DC",
"3 	c #D8DADE",
"4 	c #DBDCDF",
"5 	c #DBADBA",
"6 	c #DBD5D9",
"7 	c #DBE5E6",
"8 	c #E02228",
"9 	c #EC0000",
"0 	c #EA0000",
"a 	c #D9D9D9",
"b 	c #E8E8E8",
"c 	c #EDEDED",
"d 	c #F0F0F0",
"e 	c #F3EBEE",
"f 	c #F472A7",
"g 	c #F46898",
"h 	c #F4A8C7",
"i 	c #F4F4F4",
"j 	c #F48CB6",
"k 	c #F40D13",
"l 	c #F40000",
"m 	c #F30000",
"n 	c #DB0000",
"o 	c #EAEAEA",
"p 	c #F5F5F5",
"q 	c #F8F3F7",
"r 	c #F9689D",
"s 	c #F9ABCD",
"t 	c #F9F9F9",
"u 	c #F981B4",
"v 	c #F9070F",
"w 	c #FB0000",
"x 	c #CAD4D0",
"y 	c #D9E4E0",
"z 	c #E0ECE5",
"A 	c #E4F1EA",
"B 	c #E8F3EC",
"C 	c #EAF5ED",
"D 	c #EABFC3",
"E 	c #EAEDE6",
"F 	c #EAFDF5",
"G 	c #F02727",
"H 	c #0F8712",
"I 	c #109813",
"J 	c #119E13",
"K 	c #11A016",
"L 	c #11A71C",
"M 	c #119F14",
"N 	c #11A91D",
"O 	c #1D970F",
"P 	c #9C3700",
"Q 	c #007E00",
"R 	c #008800",
"S 	c #008F00",
"T 	c #009300",
"U 	c #009400",
"V 	c #009A00",
"W 	c #009D00",
"X 	c #645800",
"Y 	c #E90600",
"Z 	c #008300",
"` 	c #317400",
" .	c #C11900",
"..	c #008700",
"+.	c #0D7F00",
"@.	c #862E00",
"          . + @ # # # # # # # # # # # # @ $ % ",
"          . . & * = = * * = * = = * = * - ; > ",
"          . . , @ & & & & & & & & & & ' ) ! > ",
"          ~ { ~ ] ^ / ( / ^ _ _ ( : < [ } ! > ",
"          | 1 2 3 4 3 5 6 4 4 7 5 8 9 0 0 } > ",
"          a b c d e f g h i i j k l m m 0 0 n ",
"          a o d p q r r s t t u v l w m m 0 n ",
"          x y z A B C D E C C F D G w l m 9 n ",
"          H I I J J K L K M M M N O P w l 9 n ",
"          Q R S T U U U U U T U U V W X Y 9 n ",
"          Z S T T U U U T T T T U U U W `  .n ",
"          Q Z R R R R R ........R R R R S +.@."};
