/* XPM */
static char * es_xpm[] = {
"23 12 87 1",
" 	c None",
".	c #C30000",
"+	c #DD3737",
"@	c #E97878",
"#	c #EB8686",
"$	c #CC0000",
"%	c #E00000",
"&	c #EE7575",
"*	c #F4A8A8",
"=	c #F5ABAB",
"-	c #D40000",
";	c #E93939",
">	c #F17B7B",
",	c #F18080",
"'	c #CDB500",
")	c #E2CE00",
"!	c #E5D100",
"~	c #E9E91E",
"{	c #EAEA22",
"]	c #EADD22",
"^	c #EAD722",
"/	c #E9D51E",
"(	c #E2CB00",
"_	c #D1BB00",
":	c #CDD700",
"<	c #E4E400",
"[	c #E8E901",
"}	c #A37102",
"|	c #7D2201",
"1	c #9A3E01",
"2	c #EBEC01",
"3	c #ECEC01",
"4	c #D1D100",
"5	c #94A323",
"6	c #A54C00",
"7	c #862430",
"8	c #9B6983",
"9	c #889912",
"0	c #EFF403",
"a	c #F5F500",
"b	c #F2F200",
"c	c #CFD100",
"d	c #BD6758",
"e	c #A43B0B",
"f	c #9B5697",
"g	c #AA8DDC",
"h	c #C9665C",
"i	c #F8F901",
"j	c #F9F900",
"k	c #F0F000",
"l	c #D3D300",
"m	c #C46F4A",
"n	c #DD320B",
"o	c #9F201A",
"p	c #C81E14",
"q	c #CE6551",
"r	c #FCF906",
"s	c #FDFD00",
"t	c #D2DA00",
"u	c #9EBF63",
"v	c #E46A09",
"w	c #D40C1C",
"x	c #DF1C01",
"y	c #9DBB69",
"z	c #F9FF09",
"A	c #D2AF00",
"B	c #EACF01",
"C	c #DCBB0A",
"D	c #F4E204",
"E	c #DBCB2A",
"F	c #FBE60E",
"G	c #E9C90A",
"H	c #FDD502",
"I	c #FFDB00",
"J	c #F9D500",
"K	c #F4D000",
"L	c #EBC900",
"M	c #D3B400",
"N	c #D00000",
"O	c #ED0000",
"P	c #F20000",
"Q	c #F80000",
"R	c #FD0000",
"S	c #C90000",
"T	c #DE0000",
"U	c #E40000",
"V	c #E80000",
"     .+@############@+$",
"     $%&*=**==*==*=*&%-",
"     $%;>>,,,,,,,,,>;%-",
"     ')!~{{]^^^^^^^/!(_",
"     :<[}|122333333[[<4",
"     4<567890aaaabbb3[4",
"     c[defghijjjjiiak[l",
"     42mnopqrissssijb3l",
"     t3uvwxyzsssssiia34",
"     ABCDEFGHIIIIIIJKLM",
"     NOPQRRRRRRRRRQQPON",
"     STUVVOOOOOOOOOVUTS"};
