/* XPM */
static char * fi_xpm[] = {
"23 12 64 1",
" 	c None",
".	c #CBCBCB",
"+	c #DFDFDF",
"@	c #E5E5E5",
"#	c #EBEBEB",
"$	c #C0C4EB",
"%	c #8585EB",
"&	c #B2B9EB",
"*	c #E5E5E4",
"=	c #D3D3D3",
"-	c #EEEEEE",
";	c #F4F4F4",
">	c #D7D9F5",
",	c #ABABF5",
"'	c #CED2F5",
")	c #E2E2E1",
"!	c #F0F0F0",
"~	c #C6C8EB",
"{	c #8080F1",
"]	c #B9BCF1",
"^	c #D6D6D5",
"/	c #B0B1EA",
"(	c #2222EA",
"_	c #9C9EEA",
":	c #D1D1D0",
"<	c #BEC1D6",
"[	c #CBCDE3",
"}	c #D1D3EA",
"|	c #E7E7EB",
"1	c #7D83EC",
"2	c #0000ED",
"3	c #656BEC",
"4	c #DEDFEB",
"5	c #BEC1E3",
"6	c #ACB0D0",
"7	c #0000D8",
"8	c #0000E7",
"9	c #0000F0",
"0	c #0000F5",
"a	c #0000D3",
"b	c #0000E9",
"c	c #0000F9",
"d	c #D8DAF1",
"e	c #DCDEF7",
"f	c #F6F6FA",
"g	c #858CFD",
"h	c #0000FF",
"i	c #7078FD",
"j	c #FCFCFB",
"k	c #E2E3FC",
"l	c #E1E2FA",
"m	c #BBBED3",
"n	c #DADAD9",
"o	c #B5B7FF",
"p	c #989BFF",
"q	c #E8E8E8",
"r	c #9D9FFF",
"s	c #8187FF",
"t	c #989EFC",
"u	c #7884FC",
"v	c #CECECE",
"w	c #848DE5",
"x	c #6574E6",
"y	c #C0C0C0",
"     .+@##$%%&######*+.",
"     =+-;;>,,';;;;;;-+=",
"     =)#-!~{{]!!!!-!#+=",
"     ^))##/((_#####@*):",
"     <[}}|12234~~~~~$56",
"     78299909090029928a",
"     7b90cccccccccc098a",
"     <}defghhijkklled}m",
"     n#!jjohhpjjjjjj;q:",
"     n#!jjrhhsjjjjj;;#^",
"     ^##;jt00ujjjjj;!#:",
"     vn4))w88x@@@))+4^y"};
