/* XPM */
static const char * fk_xpm[] = {
"23 12 131 2",
"  	c None",
". 	c #CD5956",
"+ 	c #DE9FB7",
"@ 	c #7B8DC3",
"# 	c #8788A5",
"$ 	c #D09EB4",
"% 	c #EBABA8",
"& 	c #8687D0",
"* 	c #8687B0",
"= 	c #BF879B",
"- 	c #EBD0D3",
"; 	c #99A5D6",
"> 	c #8787BD",
", 	c #8687C0",
"' 	c #8788BA",
") 	c #7B7BAE",
"! 	c #3B3C82",
"~ 	c #1A1A61",
"{ 	c #0925B1",
"] 	c #825F80",
"^ 	c #EFE2D8",
"/ 	c #F1EEF5",
"( 	c #E4D8E5",
"_ 	c #F5B5A8",
": 	c #C7DAF5",
"< 	c #F5F2E6",
"[ 	c #F5EFF5",
"} 	c #A8DAF5",
"| 	c #A8A8CB",
"1 	c #A8A8CF",
"2 	c #A8A8C4",
"3 	c #A6A6B2",
"4 	c #787894",
"5 	c #000028",
"6 	c #09094A",
"7 	c #D63530",
"8 	c #E2001F",
"9 	c #E95253",
"0 	c #F07474",
"a 	c #F07878",
"b 	c #F0918E",
"c 	c #D781A3",
"d 	c #7878B0",
"e 	c #E7F0F0",
"f 	c #3A79BD",
"g 	c #0093E2",
"h 	c #283B84",
"i 	c #140D71",
"j 	c #6AB7E3",
"k 	c #E5E5E5",
"l 	c #E89391",
"m 	c #E27C99",
"n 	c #EA1C1C",
"o 	c #EAEAEA",
"p 	c #EAAF92",
"q 	c #E77585",
"r 	c #3C6DC2",
"s 	c #1C3683",
"t 	c #1C1C75",
"u 	c #1D1C4D",
"v 	c #1C2BA2",
"w 	c #CFE8E5",
"x 	c #CFD0E5",
"y 	c #E3E3E2",
"z 	c #0B0C84",
"A 	c #72A9B9",
"B 	c #E6E6A8",
"C 	c #B71C46",
"D 	c #00008F",
"E 	c #EC7580",
"F 	c #ED8721",
"G 	c #00009D",
"H 	c #1470BD",
"I 	c #EDEDA2",
"J 	c #ED8C7E",
"K 	c #000069",
"L 	c #000071",
"M 	c #2663D1",
"N 	c #007AAE",
"O 	c #475532",
"P 	c #158297",
"Q 	c #1C36A7",
"R 	c #681059",
"S 	c #00006C",
"T 	c #000088",
"U 	c #050685",
"V 	c #30037A",
"W 	c #000039",
"X 	c #000099",
"Y 	c #5B86B5",
"Z 	c #2C0084",
"` 	c #000021",
" .	c #5CA2F3",
"..	c #F0EBD4",
"+.	c #AA7F9A",
"@.	c #CCE8C6",
"#.	c #3859B9",
"$.	c #0A0C88",
"%.	c #000085",
"&.	c #00007F",
"*.	c #000065",
"=.	c #B8F5D4",
"-.	c #9492B5",
";.	c #8F8DA3",
">.	c #0A0CA4",
",.	c #0B0C7C",
"'.	c #000077",
").	c #000078",
"!.	c #FCFCAD",
"~.	c #999D71",
"{.	c #B5B89A",
"].	c #8C5E4F",
"^.	c #0B0C6E",
"/.	c #393376",
"(.	c #422B69",
"_.	c #2C1C54",
":.	c #170053",
"<.	c #26266D",
"[.	c #00005F",
"}.	c #000063",
"|.	c #454581",
"1.	c #414288",
"2.	c #444592",
"3.	c #43469B",
"4.	c #4246A3",
"5.	c #4146AA",
"6.	c #3F46AE",
"7.	c #3E45B2",
"8.	c #3D45B4",
"9.	c #00004E",
"0.	c #000056",
"          . + @ # $ % & * = - ; > , > ' ) ! ~ ",
"          { ] ^ / ( _ : < [ } | 1 1 2 3 4 5 6 ",
"          7 8 9 0 a a a b a a c d @ @ e f g h ",
"          i j k l m n o p q r s t u v w x y z ",
"          A B C D E F G H I J K L 5 M N O P Q ",
"          R S T T U V T W X Y Z T `  ...+.@.#.",
"          $.%.T T T T T T %.&.%.T *.X =.-.;.>.",
"          ,.'.).).).'.).).'.'.'.'.'.!.~.< {.].",
"          ^.K K S S L L S L L L S L /.(._.:.<.",
"          [.}.*.K S S '.'.).).'.L L S K *.}.[.",
"          |.1.2.3.4.5.6.7.8.8.7.6.5.4.3.2.1.|.",
"          9.0.[.K L '.).).&.).&.'.'.L K [.0.9."};
