/* XPM */
static const char * gb_xpm[] = {
"23 12 154 2",
"  	c None",
". 	c #CC4017",
"+ 	c #BAA9DD",
"@ 	c #848BE9",
"# 	c #9090EB",
"$ 	c #8E90EA",
"% 	c #9BABEB",
"& 	c #EBA7A6",
"* 	c #EBA294",
"= 	c #A4B1EB",
"- 	c #AFA9DD",
"; 	c #CC4B21",
"> 	c #D4A2D4",
", 	c #E05445",
"' 	c #EEC0B9",
") 	c #C4D8F4",
"! 	c #B2B3F4",
"~ 	c #BDC8F5",
"{ 	c #F5C1B5",
"] 	c #C3CCF5",
"^ 	c #BFD4F4",
"/ 	c #F5C5C0",
"( 	c #E04D4D",
"_ 	c #D49ECF",
": 	c #1621D5",
"< 	c #E1E1E1",
"[ 	c #E9A46F",
"} 	c #F1A09F",
"| 	c #E7DFF1",
"1 	c #8B9DF1",
"2 	c #8B8CF0",
"3 	c #9DA9F1",
"4 	c #ECA6A0",
"5 	c #F1A28E",
"6 	c #A8AFF1",
"7 	c #8B97F1",
"8 	c #E1DDF1",
"9 	c #F1A89E",
"0 	c #E99F60",
"a 	c #152AD3",
"b 	c #1516D3",
"c 	c #1617E2",
"d 	c #4C94E5",
"e 	c #E9C4E2",
"f 	c #E93F55",
"g 	c #EA9B90",
"h 	c #5A7DEA",
"i 	c #3648EA",
"j 	c #EA6B53",
"k 	c #EA5939",
"l 	c #365BEA",
"m 	c #4870EA",
"n 	c #E93E5D",
"o 	c #E9BFD1",
"p 	c #5CA6E5",
"q 	c #1515CE",
"r 	c #3452D7",
"s 	c #3752E4",
"t 	c #1629E8",
"u 	c #2278EA",
"v 	c #ECECEC",
"w 	c #EC8673",
"x 	c #EC9E92",
"y 	c #EC424C",
"z 	c #EC201E",
"A 	c #EC7B5F",
"B 	c #2C8BEA",
"C 	c #1623E8",
"D 	c #3451D4",
"E 	c #D84738",
"F 	c #E74E3C",
"G 	c #ED4E40",
"H 	c #F0382D",
"I 	c #F22842",
"J 	c #F35681",
"K 	c #F43142",
"L 	c #F44844",
"M 	c #F41923",
"N 	c #F0342D",
"O 	c #E94E3C",
"P 	c #D34636",
"Q 	c #D94838",
"R 	c #F04F41",
"S 	c #F5382E",
"T 	c #F82B44",
"U 	c #F95884",
"V 	c #F92E43",
"W 	c #F94A45",
"X 	c #F91924",
"Y 	c #F94A48",
"Z 	c #F92F3D",
"` 	c #F82E4A",
" .	c #F5332B",
"..	c #3553DA",
"+.	c #3854EB",
"@.	c #1729F2",
"#.	c #2B89F8",
"$.	c #FBFBFB",
"%.	c #FD907A",
"&.	c #FDABA3",
"*.	c #FDFDFD",
"=.	c #FD4751",
"-.	c #FD231F",
";.	c #FDB4B3",
">.	c #FD8363",
",.	c #379BF8",
"'.	c #1726F2",
").	c #1516D7",
"!.	c #1718EB",
"~.	c #4F9DF3",
"{.	c #F9CDF1",
"].	c #FFA091",
"^.	c #4474FF",
"/.	c #1A2DFF",
"(.	c #FF5B44",
"_.	c #FF471E",
":.	c #1A47FF",
"<.	c #2C61FF",
"[.	c #FFADA6",
"}.	c #FD1B49",
"|.	c #F9C8DE",
"1.	c #63B0F3",
"2.	c #161DDD",
"3.	c #EBEBEB",
"4.	c #F3944A",
"5.	c #E6D3FD",
"6.	c #1A33FF",
"7.	c #191BFB",
"8.	c #425DFF",
"9.	c #FC4A23",
"0.	c #5B6CFF",
"a.	c #171AFB",
"b.	c #DAD3FD",
"c.	c #F95442",
"d.	c #F38E35",
"e.	c #D9A6D9",
"f.	c #EB5748",
"g.	c #F19487",
"h.	c #589BF7",
"i.	c #3E62FC",
"j.	c #5370FC",
"k.	c #4B8FF7",
"l.	c #F19E9A",
"m.	c #CF451D",
"n.	c #A893DA",
"o.	c #1A17E2",
"p.	c #1317E5",
"q.	c #3255E5",
"r.	c #E64E49",
"s.	c #E54122",
"t.	c #4663E5",
"u.	c #1317E4",
"v.	c #9691D6",
"w.	c #C14B23",
"          . + @ # # # $ % & * = # # # # @ - ; ",
"          > , ' ) ! ! ! ~ { { ] ! ! ! ^ / ( _ ",
"          : < [ } | 1 2 3 4 5 6 2 7 8 9 0 < a ",
"          b c d e f g h i j k l m 4 n o p c q ",
"          r s t u v w x v y z v 4 A v B C s D ",
"          E F G H I J K L M M L K J I N G O P ",
"          Q O R S T U V W X X Y Z U `  .G O P ",
"          ..+.@.#.$.%.&.*.=.-.*.;.>.$.,.'.i D ",
"          ).!.~.{.T ].^./.(._.:.<.[.}.|.1.!.q ",
"          2.3.4.W 5.6.7.8.(.9.0.a.6.b.c.d.3.a ",
"          e.f.g.h.7.7.a.i.(.9.j.a.7.7.k.l.f._ ",
"          m.n.C 2.o.o.p.q.r.s.t.u.o.o.2.2.v.w."};
