/* XPM */
static char * gd_xpm[] = {
"23 12 89 1",
" 	c None",
".	c #9E0000",
"+	c #B73737",
"@	c #CD7878",
"#	c #D69386",
"$	c #D79986",
"%	c #CE8585",
"&	c #D69685",
"*	c #CD8585",
"=	c #D59285",
"-	c #A50000",
";	c #E98A75",
">	c #F4C8A8",
",	c #EBC7AB",
"'	c #E4B0AB",
")	c #E5B4AB",
"!	c #A80000",
"~	c #B20000",
"{	c #830D00",
"]	c #39E939",
"^	c #E3F17B",
"/	c #F1F180",
"(	c #E9F17B",
"_	c #791600",
":	c #9E0F00",
"<	c #00B900",
"[	c #1EA51E",
"}	c #55C222",
"|	c #EAEA22",
"1	c #5DC322",
"2	c #931400",
"3	c #AF0000",
"4	c #960D00",
"5	c #00BF00",
"6	c #00AA00",
"7	c #019D01",
"8	c #019601",
"9	c #77CB01",
"0	c #ECEC01",
"a	c #86CF01",
"b	c #00A600",
"c	c #00C200",
"d	c #8E1300",
"e	c #890A00",
"f	c #05CB00",
"g	c #F0BC00",
"h	c #1DAA00",
"i	c #00A200",
"j	c #EE3800",
"k	c #F43C00",
"l	c #930C00",
"m	c #00CF00",
"n	c #A1A700",
"o	c #3AAA00",
"p	c #F94100",
"q	c #00AE00",
"r	c #00C500",
"s	c #00B100",
"t	c #82DA00",
"u	c #FDFD00",
"v	c #FDF900",
"w	c #91DE00",
"x	c #00CA00",
"y	c #941400",
"z	c #A30F00",
"A	c #41CA00",
"B	c #4BCB00",
"C	c #991400",
"D	c #B50000",
"E	c #880E00",
"F	c #00F300",
"G	c #DFF900",
"H	c #EDF900",
"I	c #7F1600",
"J	c #E62D00",
"K	c #F75100",
"L	c #D55100",
"M	c #C21600",
"N	c #C51D00",
"O	c #CF4700",
"P	c #D25100",
"Q	c #D44500",
"R	c #F65E00",
"S	c #E82B00",
"T	c #A10000",
"U	c #B42C00",
"V	c #B43000",
"W	c #B53500",
"X	c #960000",
"     .+@#$%%%#&%%*=&@+.",
"     --;>,')',,')),>;!-",
"     ~{]^///(//////(]_~",
"     ~:<[}||||||||1[<2~",
"     34567890000a87bcd3",
"     3efghbibjk7ibbbcd!",
"     3lmno6b7kp866q6rd3",
"     ~:rsbituuvuwibqxy3",
"     ~zrbAuuuuuuuuB6rC~",
"     DEFGuuuuuuuuuuHFI~",
"     !~JKLMNMOPMNMQRS~-",
"     T!!UV--TUWT--UW--X"};
