/* XPM */
static const char * gf_xpm[] = {
"23 12 86 1",
" 	c None",
".	c #060090",
"+	c #3C37B0",
"@	c #7B78CC",
"#	c #8986D4",
"$	c #8685D6",
"%	c #EBEBEB",
"&	c #E7E7E9",
"*	c #E7E9EA",
"=	c #CF8585",
"-	c #D28686",
";	c #CD7878",
">	c #B63737",
",	c #9B0000",
"'	c #060097",
")	c #0700A0",
"!	c #7975CD",
"~	c #AAA8E1",
"{	c #ABABE2",
"]	c #F5F6F4",
"^	c #F2F2F3",
"/	c #F3F5F5",
"(	c #E2ABAB",
"_	c #E3A8A8",
":	c #D37575",
"<	c #AF0000",
"[	c #A70000",
"}	c #06009B",
"|	c #3E39B7",
"1	c #7F7BCF",
"2	c #8180D2",
"3	c #8080D0",
"4	c #F0F1EF",
"5	c #EDEEEE",
"6	c #D78080",
"7	c #D67B7B",
"8	c #0700A9",
"9	c #241EB3",
"0	c #2522B4",
"a	c #2222AF",
"b	c #E9E9E7",
"c	c #E3E3E4",
"d	c #E4E7E7",
"e	c #BB2222",
"f	c #BA1E1E",
"g	c #B10101",
"h	c #A80000",
"i	c #9E0000",
"j	c #0600AD",
"k	c #0500B6",
"l	c #0600B4",
"m	c #0101AE",
"n	c #E4E5E6",
"o	c #E9ECEC",
"p	c #0500C0",
"q	c #0600C6",
"r	c #0300C7",
"s	c #0000C3",
"t	c #EBEBEF",
"u	c #ECF0F1",
"v	c #EFF4F4",
"w	c #0700BF",
"x	c #0600CA",
"y	c #0300CB",
"z	c #F4F9F9",
"A	c #F0F0F4",
"B	c #B50000",
"C	c #0400B9",
"D	c #0000BB",
"E	c #FDFDFD",
"F	c #FAFAF7",
"G	c #F6F7F8",
"H	c #F9FDFD",
"I	c #BD0000",
"J	c #BA0000",
"K	c #0800B7",
"L	c #0000B4",
"M	c #FCFCFC",
"N	c #C30000",
"O	c #A00000",
"P	c #F7FCFC",
"Q	c #0600A3",
"R	c #F3F3F6",
"S	c #DCDDE2",
"T	c #DBDCE1",
"U	c #960000",
"     .+@#$$%%&&*%==-;>,",
"     ')!~{~]]^^//((_:<[",
"     })|123455554667><[",
"     )8890a%bccd%eefghi",
"     jkkllm%bnn*ogggghi",
"     kpqqrs]4touvgg<g[,",
"     kwqxyrz]AA]zBBggh,",
"     jCwwwDEFG/zHIIJB<i",
"     )lKKkLEMGGHHNNIJgO",
"     ))lKDLEFGGPPNNNJBO",
"     }QjCCwMFRRGPJIJJB[",
"     }))jLk&cSTSd[[[[hU"};
