/* XPM */
static char * gq_xpm[] = {
"23 12 104 2",
"  	c None",
". 	c #033E52",
"+ 	c #37D237",
"@ 	c #78C878",
"# 	c #86CD86",
"$ 	c #85CC85",
"% 	c #78C778",
"& 	c #37AC37",
"* 	c #008B00",
"= 	c #0600C4",
"- 	c #03405B",
"; 	c #75E875",
"> 	c #A8DFA8",
", 	c #ABDEAB",
"' 	c #A8DEA8",
") 	c #75CB75",
"! 	c #009F00",
"~ 	c #009700",
"{ 	c #06009D",
"] 	c #0700D3",
"^ 	c #3B6B81",
"/ 	c #7BEA7B",
"( 	c #80D180",
"_ 	c #80CF80",
": 	c #7BCD7B",
"< 	c #39B539",
"[ 	c #00A000",
"} 	c #0600A3",
"| 	c #0600AA",
"1 	c #0700D7",
"2 	c #205773",
"3 	c #2BE222",
"4 	c #22AF22",
"5 	c #22A922",
"6 	c #22A822",
"7 	c #22B122",
"8 	c #1EA71E",
"9 	c #009A00",
"0 	c #0600B4",
"a 	c #0500C1",
"b 	c #8169E2",
"c 	c #E7EDEE",
"d 	c #ECE9EC",
"e 	c #ECECEC",
"f 	c #ECCCCE",
"g 	c #ECE3EC",
"h 	c #EAEAEA",
"i 	c #E5EBEB",
"j 	c #E4E4E4",
"k 	c #D1D1D1",
"l 	c #403AD7",
"m 	c #F3F3F3",
"n 	c #F2EFF2",
"o 	c #EEF2F2",
"p 	c #F3F7F7",
"q 	c #79A3B0",
"r 	c #46853A",
"s 	c #EBE8EE",
"t 	c #E8E5EB",
"u 	c #CDCACF",
"v 	c #0000C9",
"w 	c #3B46DE",
"x 	c #F9F9F8",
"y 	c #E3F0F5",
"z 	c #B3A6C6",
"A 	c #DDF3F7",
"B 	c #EFF6F7",
"C 	c #E1E7E7",
"D 	c #CBD0D1",
"E 	c #0600AD",
"F 	c #0600B9",
"G 	c #7087F0",
"H 	c #FAFDFD",
"I 	c #F7FDFD",
"J 	c #E7FDFD",
"K 	c #C5DEE5",
"L 	c #BFD6DD",
"M 	c #D8F6F9",
"N 	c #F7FBFB",
"O 	c #CED4D4",
"P 	c #0600A6",
"Q 	c #0500B1",
"R 	c #0000E5",
"S 	c #560064",
"T 	c #FD0800",
"U 	c #C70000",
"V 	c #BF0000",
"W 	c #C90000",
"X 	c #BB0000",
"Y 	c #B70000",
"Z 	c #AC0000",
"` 	c #9C0000",
" .	c #0000DC",
"..	c #530064",
"+.	c #F90000",
"@.	c #C10000",
"#.	c #0000C4",
"$.	c #F10000",
"%.	c #A40000",
"&.	c #4C0050",
"*.	c #DA0000",
"=.	c #A90000",
"-.	c #A60000",
";.	c #960000",
"          . + @ # # $ $ $ $ $ $ $ $ $ # % & * ",
"          = - ; > , , , , , , , , , , ' ) ! ~ ",
"          { ] ^ / ( _ _ _ _ _ _ _ _ _ : < [ ~ ",
"          } | 1 2 3 4 5 5 6 5 4 7 4 5 8 9 ~ * ",
"          | 0 0 a b c d c e e f f g d h i j k ",
"          0 a = = a l m n o p q r m n s t j u ",
"          0 a = v v w x p p y z z A B o d C D ",
"          E F a ] G H I I H J K L M N p o i O ",
"          P Q R S T U V V V U W U W V X Y Z ` ",
"          }  ...+.@.@.@.V @.V @.@.@.@.V X Y ` ",
"          #...$.@.V V X V X X V X V V V Y Y %.",
"          &.*.=.=.=.-.-.-.-.-.-.-.-.=.=.-.-.;."};
