/* XPM */
static const char * gu_xpm[] = {
"23 12 103 2",
"  	c None",
". 	c #8D2C31",
"+ 	c #88536C",
"@ 	c #B48B9B",
"# 	c #BA97A8",
"$ 	c #B795AB",
"% 	c #B695AD",
"& 	c #B395AE",
"* 	c #BE96A5",
"= 	c #BA8A98",
"- 	c #87536C",
"; 	c #8A2B33",
"> 	c #4B214B",
", 	c #000F86",
"' 	c #7580B9",
") 	c #A8AFD5",
"! 	c #ABB1DA",
"~ 	c #ABB1DD",
"{ 	c #ABB1DC",
"] 	c #5A74BA",
"^ 	c #3D1F51",
"/ 	c #5E224B",
"( 	c #001478",
"_ 	c #3E4A91",
": 	c #7F86B6",
"< 	c #838BBA",
"[ 	c #818ABF",
"} 	c #8785BD",
"| 	c #532150",
"1 	c #582153",
"2 	c #001384",
"3 	c #071679",
"4 	c #243188",
"5 	c #28358B",
"6 	c #222288",
"7 	c #777991",
"8 	c #26358C",
"9 	c #283589",
"0 	c #081779",
"a 	c #4B1F58",
"b 	c #51215D",
"c 	c #001393",
"d 	c #061589",
"e 	c #071687",
"f 	c #452D8C",
"g 	c #2F8C6B",
"h 	c #2C8361",
"i 	c #4F328E",
"j 	c #020B83",
"k 	c #08187D",
"l 	c #081887",
"m 	c #0B108D",
"n 	c #4C2066",
"o 	c #0012A6",
"p 	c #0615A3",
"q 	c #010193",
"r 	c #358FC1",
"s 	c #5E82BD",
"t 	c #0014A4",
"u 	c #00149F",
"v 	c #0615A1",
"w 	c #411D6B",
"x 	c #0012A8",
"y 	c #0615A5",
"z 	c #04069A",
"A 	c #4C51B1",
"B 	c #4D91E1",
"C 	c #4252BC",
"D 	c #6758AD",
"E 	c #001397",
"F 	c #071790",
"G 	c #08188A",
"H 	c #001498",
"I 	c #421866",
"J 	c #54452A",
"K 	c #67354B",
"L 	c #071691",
"M 	c #5A2254",
"N 	c #001487",
"O 	c #081882",
"P 	c #061887",
"Q 	c #000696",
"R 	c #FFA909",
"S 	c #00009B",
"T 	c #4C2059",
"U 	c #61234D",
"V 	c #00147E",
"W 	c #001491",
"X 	c #00108C",
"Y 	c #4A224E",
"Z 	c #0013AC",
"` 	c #001089",
" .	c #3A1F50",
"..	c #8C2C34",
"+.	c #632449",
"@.	c #6F2549",
"#.	c #6B2451",
"$.	c #662559",
"%.	c #64255C",
"&.	c #62255E",
"*.	c #622460",
"=.	c #682554",
"-.	c #812831",
"          . + @ # # $ % % % & # # # * * = - ; ",
"          > , ' ) ! ! ! ~ ! ~ { { { { ! ] , ^ ",
"          / ( _ : < < [ [ } } [ [ < < < _ ( | ",
"          1 2 3 4 5 5 5 6 7 7 6 8 9 9 9 0 2 a ",
"          b c d d e e , f g h i j k l m l c a ",
"          n o p p p p q ] r s s q t u v v o w ",
"          n x p y p y z A B C D z y y y v t w ",
"          b E F F G F H I J J K E L L L L H n ",
"          M N O O O l P Q R R S P l O O O N T ",
"          U V 0 k O l G W X Q W G l O k 0 ( | ",
"          Y X N W H u t t Z Z x t t H X N `  .",
"          ..+.@.#.#.$.%.&.*.*.&.&.$.=.#.@.+.-."};
