/* XPM */
static char * hk_xpm[] = {
"23 12 55 1",
" 	c None",
".	c #CC0000",
"+	c #DD3737",
"@	c #E97878",
"#	c #EB8686",
"$	c #D40000",
"%	c #E00000",
"&	c #EE7575",
"*	c #F4A8A8",
"=	c #F5ABAB",
"-	c #E93939",
";	c #F17B7B",
">	c #F18080",
",	c #F1898B",
"'	c #F1A5AB",
")	c #D80000",
"!	c #E50000",
"~	c #E91E1E",
"{	c #E92222",
"]	c #EAEAEA",
"^	c #EAC1C7",
"/	c #D30000",
"(	c #EB0000",
"_	c #ED0000",
":	c #EC262D",
"<	c #EC6B81",
"[	c #EC2E37",
"}	c #ECE6E7",
"|	c #ECA5B3",
"1	c #ECB2BD",
"2	c #ECACB9",
"3	c #F10000",
"4	c #F30406",
"5	c #F4F4F4",
"6	c #F4D4E0",
"7	c #F42D42",
"8	c #F44B6C",
"9	c #F4D0DE",
"0	c #F3334C",
"a	c #F50000",
"b	c #F90000",
"c	c #F93046",
"d	c #F9CEE0",
"e	c #FD4857",
"f	c #F9628F",
"g	c #F9C3D9",
"h	c #FF0000",
"i	c #FDE2E7",
"j	c #FFFFFF",
"k	c #FDBDCA",
"l	c #FF4249",
"m	c #FF6B78",
"n	c #FF262A",
"o	c #DF0000",
"p	c #C10000",
"     .+@############@+.",
"     $%&****==*==*=*&%$",
"     $%-;>>>>,'>>>>;-%$",
"     )%!~{{{{]^{{{{~!%/",
"     )!!(_:<[}|12___!%/",
"     )!_3345678950a3_!/",
"     )(3abbcdefgabba3(/",
"     )_3bbhhijkjehbb3($",
"     )(3bhhljmhjnhbb3(/",
"     )(abbhhhhhhhhhba($",
"     )_3bbhhbbhbhhba3_$",
"     .o%%%!!!!!!!o!oo$p"};
