/* XPM */
static char * hm_xpm[] = {
"23 12 94 2",
"  	c None",
". 	c #8D4C62",
"+ 	c #B991AB",
"@ 	c #7C89BD",
"# 	c #8686C5",
"$ 	c #EBA0A4",
"% 	c #A69CC4",
"& 	c #8585C1",
"* 	c #A699C5",
"= 	c #EBC5D5",
"- 	c #999ED2",
"; 	c #8585BE",
"> 	c #8686B5",
", 	c #7878AB",
"' 	c #37377E",
") 	c #000052",
"! 	c #353376",
"~ 	c #AF6371",
"{ 	c #EEC2CD",
"] 	c #E4EAF1",
"^ 	c #EAB4AF",
"/ 	c #E0C7D9",
"( 	c #F1D2DE",
"_ 	c #F5E6EF",
": 	c #C8CDE5",
"< 	c #AFAFD5",
"[ 	c #ABABD1",
"} 	c #ABABCD",
"| 	c #C4C6DD",
"1 	c #DDDEE4",
"2 	c #7575A0",
"3 	c #00005A",
"4 	c #000055",
"5 	c #C41E14",
"6 	c #B30A16",
"7 	c #D05F5E",
"8 	c #E8877B",
"9 	c #DA8484",
"0 	c #E7928D",
"a 	c #D88E95",
"b 	c #F18998",
"c 	c #B389A8",
"d 	c #8377A7",
"e 	c #8383B2",
"f 	c #3C3C84",
"g 	c #00005F",
"h 	c #224B9E",
"i 	c #E196E1",
"j 	c #E5A3A7",
"k 	c #7B83C2",
"l 	c #E95338",
"m 	c #AC84A7",
"n 	c #BEB9EA",
"o 	c #EA9EB5",
"p 	c #223187",
"q 	c #22226F",
"r 	c #7679A7",
"s 	c #45458F",
"t 	c #222274",
"u 	c #1E1E6D",
"v 	c #2E2E82",
"w 	c #9DA0B2",
"x 	c #9E74A2",
"y 	c #793972",
"z 	c #000082",
"A 	c #CF3753",
"B 	c #401A6C",
"C 	c #3C4EA3",
"D 	c #E0969C",
"E 	c #38116B",
"F 	c #010163",
"G 	c #898DB3",
"H 	c #00006B",
"I 	c #0B0B76",
"J 	c #1B1D87",
"K 	c #000076",
"L 	c #000086",
"M 	c #000078",
"N 	c #000073",
"O 	c #00006F",
"P 	c #00008A",
"Q 	c #00007D",
"R 	c #0E1093",
"S 	c #1B209F",
"T 	c #0F1197",
"U 	c #F8F8F8",
"V 	c #5C6CCA",
"W 	c #282B99",
"X 	c #C1C4E3",
"Y 	c #3B3F9F",
"Z 	c #888FBC",
"` 	c #000065",
" .	c #414396",
"..	c #7477AA",
"          . + @ # $ % & * = - ; ; ; > > , ' ) ",
"          ! ~ { ] ^ / ( _ : < [ [ } | 1 2 3 4 ",
"          5 6 7 8 9 8 0 a b c @ d @ > e f g 4 ",
"          h i j k l m n o d p q r s t u v w 4 ",
"          x y g z A B g C D E F G C H I J K H ",
"          H z L M N O L K P L L K N Q R S Q M ",
"          Q L z T U V K P L P P P P z M L L M ",
"          N M O W U X 3 K M K K K N Y Z O K N ",
"          H ` H F I H H O N N O O `  ...F H ` ",
"          3 g F ` H O O N N N N N O H F g g 3 ",
"          4 g F H O K Q Q Q z Q M K N H F g 4 ",
"          ) 3 F O K Q Q L L z z z M K O ` 3 ) "};
