/* XPM */
static char * hr_xpm[] = {
"23 12 95 2",
"  	c None",
". 	c #9E0000",
"+ 	c #B63737",
"@ 	c #CD7878",
"# 	c #D28686",
"$ 	c #D08585",
"% 	c #D58585",
"& 	c #A50000",
"* 	c #AE0000",
"= 	c #D37575",
"- 	c #E3A8A8",
"; 	c #E2ABAE",
"> 	c #EDABAB",
", 	c #D8B9BE",
"' 	c #D6BAC2",
") 	c #D8ABB6",
"! 	c #E3ABAB",
"~ 	c #A20000",
"{ 	c #C03939",
"] 	c #D67B7B",
"^ 	c #D78080",
"/ 	c #DD8080",
"( 	c #80F1F1",
"_ 	c #99A0C4",
": 	c #90A7C2",
"< 	c #93D4CD",
"[ 	c #90EEEB",
"} 	c #AA0000",
"| 	c #B81E1E",
"1 	c #BB2222",
"2 	c #C82222",
"3 	c #608D9F",
"4 	c #666784",
"5 	c #895966",
"6 	c #8A636C",
"7 	c #C12222",
"8 	c #9B0000",
"9 	c #D2D7D7",
"0 	c #DFE4E4",
"a 	c #E5E7E6",
"b 	c #E4E9EB",
"c 	c #E7ECEC",
"d 	c #ECECEC",
"e 	c #D10608",
"f 	c #EC6A77",
"g 	c #EC6E7C",
"h 	c #E85163",
"i 	c #EC8795",
"j 	c #EBEDEB",
"k 	c #C9CECF",
"l 	c #EAEFF0",
"m 	c #EAF3F3",
"n 	c #E6F4F4",
"o 	c #CE608D",
"p 	c #D576AB",
"q 	c #D57BAE",
"r 	c #D5D6D6",
"s 	c #EBEBEB",
"t 	c #F2F2F2",
"u 	c #F3F6F4",
"v 	c #F7F9F9",
"w 	c #D42027",
"x 	c #D46D9F",
"y 	c #D20D0C",
"z 	c #CFD0D0",
"A 	c #DADADA",
"B 	c #FBFBFB",
"C 	c #FDFDFC",
"D 	c #FA6249",
"E 	c #E38E9B",
"F 	c #F4583C",
"G 	c #D4D4D4",
"H 	c #00009F",
"I 	c #0000AC",
"J 	c #0000B6",
"K 	c #9D7CC2",
"L 	c #FF7B5A",
"M 	c #AE8BC5",
"N 	c #0000B1",
"O 	c #00009A",
"P 	c #0700A7",
"Q 	c #0700B4",
"R 	c #0600BF",
"S 	c #0400B8",
"T 	c #0500C7",
"U 	c #0700AD",
"V 	c #0600BB",
"W 	c #06009A",
"X 	c #0800B7",
"Y 	c #0700C2",
"Z 	c #0200CB",
"` 	c #060093",
" .	c #06009F",
"..	c #0700A4",
"+.	c #060089",
"          . + @ # # # $ # # % % # # # # @ + . ",
"          & * = - ; - > ; , ' ) > - ! - = * & ",
"          ~ * { ] ^ / ( _ : < : [ ^ ^ ] + * ~ ",
"          . } * | 1 2 3 4 5 6 5 6 7 1 1 * } 8 ",
"          9 0 a b c d e f g h i * j d b b 0 k ",
"          9 0 b c l m n o p q o n m j d b a k ",
"          r a s t u v w x p x q y v t m j a z ",
"          A s t v B C C D i E F C C C v t s G ",
"          H I I I I J I K L D M I J N I I I O ",
"          H P N Q R S R T U U T R V S Q N I W ",
"          W P U X V Y T T Z Z T T Y V Q Q P ` ",
"          `  .P U Q V V R R R R S X Q U .. .+."};
