/* XPM */
static char * ie_xpm[] = {
"23 12 88 1",
" 	c None",
".	c #059F05",
"+	c #3BB83B",
"@	c #7BD07B",
"#	c #88D489",
"$	c #85D385",
"%	c #ECEBEC",
"&	c #ECECEC",
"*	c #EBAD8A",
"=	c #EBA785",
"-	c #EBAC86",
";	c #E9A378",
">	c #DD7737",
",	c #CC4F00",
"'	c #05A605",
")	c #05B005",
"!	c #78D478",
"~	c #AAE4AA",
"{	c #F4F3F4",
"]	c #F4F4F4",
"^	c #F5C9AE",
"/	c #F5C5AB",
"(	c #EEA475",
"_	c #DD5400",
":	c #D35200",
"<	c #05A906",
"[	c #3DC33D",
"}	c #7ED77E",
"|	c #80D880",
"1	c #80D780",
"2	c #F1AE84",
"3	c #F1A87B",
"4	c #E97D39",
"5	c #E15400",
"6	c #22BC22",
"7	c #EBEBEB",
"8	c #EA742B",
"9	c #E96822",
"0	c #E96C1E",
"a	c #E55700",
"b	c #D34E00",
"c	c #04B208",
"d	c #04B507",
"e	c #02B602",
"f	c #EC600C",
"g	c #EC5201",
"h	c #EA5800",
"i	c #05B608",
"j	c #05B908",
"k	c #01B901",
"l	c #F35F0D",
"m	c #F25200",
"n	c #F05800",
"o	c #ED5600",
"p	c #04A607",
"q	c #05BC08",
"r	c #01BD01",
"s	c #F9F9F9",
"t	c #F9610E",
"u	c #F85400",
"v	c #F55900",
"w	c #F05700",
"x	c #04A806",
"y	c #06C007",
"z	c #01C201",
"A	c #FCFBFC",
"B	c #FDFDFD",
"C	c #FD660C",
"D	c #FD5900",
"E	c #F85D00",
"F	c #06C306",
"G	c #01C401",
"H	c #FF690B",
"I	c #F96000",
"J	c #F35E00",
"K	c #06BC07",
"L	c #FA5800",
"M	c #F75E00",
"N	c #D65300",
"O	c #05A205",
"P	c #05AB05",
"Q	c #06AE07",
"R	c #00AD00",
"S	c #E5E4E5",
"T	c #E6E6E6",
"U	c #E4590D",
"V	c #E34D00",
"W	c #C14B00",
"     .+@#$$%&%&&&*=-;>,",
"     ')!~~~{]]]]]^//(_:",
"     <)[}|1&{]&{&23345:",
"     '))66677%&77890a5b",
"     'cddee7&&&&&fgha5b",
"     'cijke{]]]]]lmnoab",
"     pcjqrrsssssstuvwob",
"     xdqyzzABBBBBCDEnhb",
"     <dqFGGBBBBBBHDIJh:",
"     <KFyGGBBBBBBHDIJh:",
"     <KqyzzAABBBsCLMJoN",
"     OPQQRRSTTTTTUV5_NW"};
