/* XPM */
static const char * io_xpm[] = {
"23 12 185 2",
"  	c None",
". 	c #8F5464",
"+ 	c #B498A8",
"@ 	c #9A9ABE",
"# 	c #878BBE",
"$ 	c #B69DB9",
"% 	c #DAA1AC",
"& 	c #8A8EC7",
"* 	c #908CBF",
"= 	c #B5A4C9",
"- 	c #D3B8D3",
"; 	c #A6ABD4",
"> 	c #B7BDDA",
", 	c #ABB0D2",
"' 	c #9FA1C3",
") 	c #9FA2BA",
"! 	c #7B7C9B",
"~ 	c #403571",
"{ 	c #895B7A",
"] 	c #E5C2C5",
"^ 	c #DFDBE5",
"/ 	c #DFC8D5",
"( 	c #E8BEC3",
"_ 	c #D5CBDD",
": 	c #EAD5DF",
"< 	c #E6DCE7",
"[ 	c #C3C5D5",
"} 	c #CACDE4",
"| 	c #CFD2E6",
"1 	c #CFD2E3",
"2 	c #CFD7DB",
"3 	c #A2B9B3",
"4 	c #3E695C",
"5 	c #596481",
"6 	c #BC2F2E",
"7 	c #BB2B2D",
"8 	c #CA5757",
"9 	c #E49694",
"0 	c #DB8585",
"a 	c #E1999B",
"b 	c #DC959A",
"c 	c #D89298",
"d 	c #BB9EB7",
"e 	c #B2B5CD",
"f 	c #B2C9BC",
"g 	c #55955D",
"h 	c #2C6546",
"i 	c #4A5187",
"j 	c #543A7A",
"k 	c #906D96",
"l 	c #BF7889",
"m 	c #BB6675",
"n 	c #C74A50",
"o 	c #BC9CB0",
"p 	c #DC999F",
"q 	c #BB788D",
"r 	c #9FA5D0",
"s 	c #9496BB",
"t 	c #A6A8C5",
"u 	c #79969A",
"v 	c #658A89",
"w 	c #6E79A2",
"x 	c #6D67A5",
"y 	c #B07CA4",
"z 	c #6D4A8C",
"A 	c #201F89",
"B 	c #884A80",
"C 	c #D24E5B",
"D 	c #2A3494",
"E 	c #54569F",
"F 	c #AE87A9",
"G 	c #9D6890",
"H 	c #5D5196",
"I 	c #4C51A1",
"J 	c #44479B",
"K 	c #5D68AE",
"L 	c #6D6AA3",
"M 	c #3F479D",
"N 	c #333992",
"O 	c #4E44A0",
"P 	c #3A38A7",
"Q 	c #4757BC",
"R 	c #596BC5",
"S 	c #5653B4",
"T 	c #4C39A0",
"U 	c #3A44B4",
"V 	c #5765C1",
"W 	c #5D72C8",
"X 	c #5F63BC",
"Y 	c #5B5EB9",
"Z 	c #7785CC",
"` 	c #8E9AD3",
" .	c #7282CF",
"..	c #9D9DCF",
"+.	c #CDB6BC",
"@.	c #B9ADC4",
"#.	c #838BBA",
"$.	c #6677BB",
"%.	c #7282C7",
"&.	c #5867C1",
"*.	c #5360BF",
"=.	c #6577CC",
"-.	c #7F92D6",
";.	c #6E7ECD",
">.	c #5662C1",
",.	c #7C8BD2",
"'.	c #5C6BC5",
").	c #4F5CBF",
"!.	c #5C71CC",
"~.	c #AC7EA7",
"{.	c #D0702A",
"].	c #C8734D",
"^.	c #646DAE",
"/.	c #474FA6",
"(.	c #646DB6",
"_.	c #6E76BB",
":.	c #5F65B4",
"<.	c #4A4FA7",
"[.	c #5D64B3",
"}.	c #717ABC",
"|.	c #545AAD",
"1.	c #4D52A8",
"2.	c #6870B9",
"3.	c #6269B6",
"4.	c #68679F",
"5.	c #A19495",
"6.	c #77728E",
"7.	c #5860A5",
"8.	c #878DB4",
"9.	c #8384B5",
"0.	c #7C7FB5",
"a.	c #989BC6",
"b.	c #A2A5CD",
"c.	c #9B9FCA",
"d.	c #7E82BB",
"e.	c #9092C4",
"f.	c #9296C3",
"g.	c #AB9AAD",
"h.	c #656CA2",
"i.	c #3E4084",
"j.	c #444589",
"k.	c #505193",
"l.	c #5A5FAB",
"m.	c #464795",
"n.	c #4A4D9A",
"o.	c #41469E",
"p.	c #5056A9",
"q.	c #4A4DA2",
"r.	c #6063A9",
"s.	c #4A4C94",
"t.	c #635784",
"u.	c #5C5A91",
"v.	c #4F518E",
"w.	c #8585A5",
"x.	c #8C8FB3",
"y.	c #B7B8C7",
"z.	c #C5C5C8",
"A.	c #9E9FC7",
"B.	c #7A80B4",
"C.	c #959CC2",
"D.	c #B9BDD2",
"E.	c #8D95CA",
"F.	c #6A75C3",
"G.	c #D3D8E9",
"H.	c #F2F2F3",
"I.	c #D8D9E3",
"J.	c #7377AD",
"K.	c #DEDEDF",
"L.	c #5B5B89",
"M.	c #5B5D93",
"N.	c #313485",
"O.	c #242788",
"P.	c #5763B3",
"Q.	c #414BAD",
"R.	c #2127A2",
"S.	c #272FA7",
"T.	c #4652B6",
"U.	c #5969BC",
"V.	c #1E23A1",
"W.	c #00006A",
"X.	c #1C1E90",
"Y.	c #626BA9",
"Z.	c #51579A",
"`.	c #02035E",
" +	c #010152",
"          . + @ # $ % & * = - ; ; > , ' ' ) ! ",
"          ~ { ] ^ / ( _ : < [ } | } 1 2 3 4 5 ",
"          6 7 8 9 9 0 9 a b c d ; , e f g h i ",
"          j k c l m n o p q k k r s t u h v w ",
"          x y z A B C D E F G H I J I K L M N ",
"          O P Q R S T U V W X Y Z `  ...+.@.#.",
"          $.%.&.*.=.-.;.>.&. .,.'.).!.~.{.].^.",
"          M /.(._.:.<.[.}._.|.1.2.}.3.4.5.6.7.",
"          8.s 9.0.a.b.c.d.# r b.e.0.f.r g.9.h.",
"          i.j.k.l.m.n.o.l.p.o.q.q.r.n.s.t.u.v.",
"          w.x.y.z.A.B.C.[ D.E.F.G.H.I.J.x.K.z.",
"          L.M.N.O.M P.Q.R.S.T.U.V.W.X.Y.Z.`. +"};
