/* XPM */
static const char * ir_xpm[] = {
"23 12 89 1",
" 	c None",
".	c #009000",
"+	c #37AC37",
"@	c #78C778",
"#	c #86CD86",
"$	c #85CB85",
"%	c #009600",
"&	c #009F00",
"*	c #75CB75",
"=	c #A8DEA8",
"-	c #ABDFAB",
";	c #ABDEAB",
">	c #00A000",
",	c #39B539",
"'	c #7BCD7B",
")	c #80CF80",
"!	c #059906",
"~	c #42B44F",
"{	c #40B448",
"]	c #4EBA53",
"^	c #5CC163",
"/	c #5EC066",
"(	c #57BD5E",
"_	c #5BC87B",
":	c #59C166",
"<	c #5CBE63",
"[	c #41B34A",
"}	c #4BB55B",
"|	c #09960B",
"1	c #D7D4D7",
"2	c #E4E0E4",
"3	c #E7E5EA",
"4	c #EAE7EA",
"5	c #ECE7EC",
"6	c #EDEBEF",
"7	c #ECECEC",
"8	c #E87695",
"9	c #E46B87",
"0	c #EAE8ED",
"a	c #E2E0E5",
"b	c #D4D1D6",
"c	c #EEEEF1",
"d	c #EEF4F4",
"e	c #D95C8B",
"f	c #DDBFD6",
"g	c #DFCEDC",
"h	c #D7507B",
"i	c #CCCACE",
"j	c #CDD4D4",
"k	c #E1E5E7",
"l	c #E7EBED",
"m	c #EFF3F5",
"n	c #F0F5F7",
"o	c #EFF8F8",
"p	c #D7567F",
"q	c #D05479",
"r	c #D05C84",
"s	c #D44B6E",
"t	c #F3FBFB",
"u	c #CBD0D1",
"v	c #D3DADA",
"w	c #E2EBEB",
"x	c #EDF2F2",
"y	c #F5FDFD",
"z	c #F2FDFD",
"A	c #DA6E85",
"B	c #D86075",
"C	c #E4EBEB",
"D	c #A80000",
"E	c #C34756",
"F	c #CB444C",
"G	c #CC3940",
"H	c #D24951",
"I	c #D64A54",
"J	c #D64953",
"K	c #D86372",
"L	c #D76878",
"M	c #D64F59",
"N	c #D0424B",
"O	c #CC474F",
"P	c #C65060",
"Q	c #A30608",
"R	c #A60000",
"S	c #B60000",
"T	c #BC0000",
"U	c #C20000",
"V	c #A20000",
"W	c #BB0000",
"X	c #960000",
"     .+@####$$$$$$##@+.",
"     %&*=-==;;;;=;;=*&%",
"     %>,')))'))))))',>%",
"     !~{]^^/(__:</(][}|",
"     1234556789705644ab",
"     1a306cdefghdc602ai",
"     jklcmnopqrstdmclku",
"     vwxotyyzABzyyzoxCj",
"     DEFGHIIJKLMJJNGOPQ",
"     RSTUUUUUUUUUUUUTSV",
"     DSTTTTTTWWTTTTTWSR",
"     VDDDDDDRRRRRDDDRRX"};
