/* XPM */
static char * it_xpm[] = {
"23 12 56 1",
" 	c None",
".	c #006200",
"+	c #378A37",
"@	c #78AF78",
"#	c #86B786",
"$	c #85AF85",
"%	c #EAEAEA",
"&	c #ECECEC",
"*	c #EB8585",
"=	c #E97878",
"-	c #DD3737",
";	c #CD0000",
">	c #006600",
",	c #007100",
"'	c #75B275",
")	c #A8CEA8",
"!	c #ABCAAB",
"~	c #F5F5F5",
"{	c #F5ABAB",
"]	c #EE7575",
"^	c #D80000",
"/	c #D70000",
"(	c #399139",
"_	c #7BB57B",
":	c #80B780",
"<	c #F1F1F1",
"[	c #F18080",
"}	c #F17B7B",
"|	c #E93939",
"1	c #1E831E",
"2	c #228322",
"3	c #227822",
"4	c #EA2222",
"5	c #E91E1E",
"6	c #E40000",
"7	c #E20000",
"8	c #D30000",
"9	c #006F00",
"0	c #EC0101",
"a	c #005900",
"b	c #F4F4F4",
"c	c #F30000",
"d	c #F9F9F9",
"e	c #F90000",
"f	c #F50000",
"g	c #007500",
"h	c #007800",
"i	c #006A00",
"j	c #FDFDFD",
"k	c #FF0000",
"l	c #007C00",
"m	c #E5E5E5",
"n	c #DADBE0",
"o	c #D9DADF",
"p	c #DAE6E6",
"q	c #BA0000",
"     .+@##$%%%&%&***=-;",
"     >,'))!~~~~~~{{{]^/",
"     >,(_:$<<<<<<[}}|^^",
"     >,,123%%%%%%445678",
"     .9,,,>%&&&&&000678",
"     a9,,,.~~bb~~ccc068",
"     >9,,,>ddddddeef06/",
"     .gghhijjjjjjkeec08",
"     >ghlh9jjjjjjkkfc08",
"     ighll9jjjjjjkkec08",
"     ighhh9jjjjjdkefc0/",
"     .iii>amnnnop^//8;q"};
