/* XPM */
static const char * jm_xpm[] = {
"23 12 68 1",
" 	c None",
".	c #CCCC00",
"+	c #B5D737",
"@	c #78C278",
"#	c #86C886",
"$	c #85CC85",
"%	c #A7D337",
"&	c #1A1B00",
"*	c #E0E000",
"=	c #EEEE75",
"-	c #C1E7A8",
";	c #ABD8AB",
">	c #ABDDAB",
",	c #BCE5A8",
"'	c #252700",
")	c #000000",
"!	c #B1A939",
"~	c #F1F17B",
"{	c #EFEC80",
"]	c #80CF80",
"^	c #80CA80",
"/	c #E8EB80",
"(	c #BFB739",
"_	c #31331E",
":	c #EAEA22",
"<	c #7ECE22",
"[	c #229D22",
"}	c #22AC22",
"|	c #6FCB22",
"1	c #3D3F1E",
"2	c #838301",
"3	c #ECEC01",
"4	c #ECE201",
"5	c #019D01",
"6	c #019A01",
"7	c #E9DE01",
"8	c #969101",
"9	c #DFCB00",
"0	c #F4F300",
"a	c #F3D900",
"b	c #E8D000",
"c	c #F9F800",
"d	c #F9DE00",
"e	c #8E8E00",
"f	c #FDFD00",
"g	c #FDF100",
"h	c #00AA00",
"i	c #00A500",
"j	c #F2ED00",
"k	c #A39D00",
"l	c #72DC00",
"m	c #00B000",
"n	c #5FD500",
"o	c #A69A00",
"p	c #F1F100",
"q	c #00B300",
"r	c #00AC00",
"s	c #E8ED00",
"t	c #B9AE00",
"u	c #EBEB00",
"v	c #51CB00",
"w	c #40C600",
"x	c #A1D100",
"y	c #009200",
"z	c #009500",
"A	c #008E00",
"B	c #8BC700",
"C	c #C1C100",
"     .+@##$#$$$##$$#@%.",
"     &*=-;>>>>>>>>;,=*'",
"     ))!~{]^]@]]]]/~())",
"     )))_::<[}}}|::1)))",
"     )))))23456738)))))",
"     )))))))900a)))))))",
"     )))))))bccd)))))))",
"     )))))efghijfk)))))",
"     )))&ffl5mm5nff')))",
"     ))ocpmimqmmhrsct))",
"     &upv6rmmmmmmr6wp3'",
"     .xyz5555555555zABC"};
