/* XPM */
static char * jo_xpm[] = {
"23 12 78 1",
" 	c None",
".	c #770000",
"+	c #373737",
"@	c #787878",
"#	c #868686",
"$	c #393939",
"%	c #000000",
"&	c #C30000",
"*	c #CC0000",
"=	c #8E7575",
"-	c #A8A8A8",
";	c #ABABAB",
">	c #757575",
",	c #A40000",
"'	c #B90000",
")	c #E93939",
"!	c #C37B7B",
"~	c #808080",
"{	c #A20000",
"]	c #AC0000",
"^	c #B00000",
"/	c #DC1E1E",
"(	c #D72222",
"_	c #4C2222",
":	c #223032",
"<	c #222222",
"[	c #9F0000",
"}	c #AA0000",
"|	c #D50000",
"1	c #DB4A59",
"2	c #ECECEC",
"3	c #EAEAEA",
"4	c #E6E2E7",
"5	c #CDCECF",
"6	c #DAC9DB",
"7	c #DCD7E3",
"8	c #B60000",
"9	c #DC83B2",
"0	c #F0F4F4",
"a	c #F1EDF3",
"b	c #EEEFF0",
"c	c #EBECEE",
"d	c #E3E4E5",
"e	c #E5F8F8",
"f	c #E9F9F9",
"g	c #FBFBFB",
"h	c #F5F1F7",
"i	c #ECE8EE",
"j	c #D0CCD1",
"k	c #DF0200",
"l	c #E53758",
"m	c #FDFDFD",
"n	c #FDF7FD",
"o	c #F8F8F8",
"p	c #D4D4D4",
"q	c #E90000",
"r	c #327400",
"s	c #00F10F",
"t	c #00C000",
"u	c #00A600",
"v	c #00AA00",
"w	c #00A300",
"x	c #009E00",
"y	c #008C00",
"z	c #F30000",
"A	c #982300",
"B	c #00CA00",
"C	c #00DF00",
"D	c #00B500",
"E	c #00B200",
"F	c #00AE00",
"G	c #009700",
"H	c #C90000",
"I	c #327900",
"J	c #00E400",
"K	c #00BC00",
"L	c #772600",
"M	c #009B00",
"     .+@############@$%",
"     &*=-;--;;-;;-;->%%",
"     ,')!~~~~~~~~~~@$%%",
"     {]^/(_:<<<<<<<<%%%",
"     [}^^'|122222223345",
"     [}]^678890a00bc3d5",
"     [}^^ef''9ghhhabi4j",
"     [}8'&klmmnmmmgoa2p",
"     ,^'qqrstuvvvvvuwxy",
"     }&zABCDEEEEEDEFFuG",
"     H|IJKEFEFFEEFFFvuG",
"     LDKxxxxxxxMxxxxMGy"};
