/* XPM */
static const char * lk_xpm[] = {
"23 12 145 2",
"  	c None",
". 	c #CCC900",
"+ 	c #C7D637",
"@ 	c #DAE578",
"# 	c #EBE886",
"$ 	c #EBE685",
"% 	c #DCDB87",
"& 	c #E3E388",
"* 	c #E0DC7A",
"= 	c #C7B83A",
"- 	c #C0CF00",
"; 	c #B4C900",
"> 	c #008800",
", 	c #75C575",
"' 	c #F4D7A8",
") 	c #F5E9AB",
"! 	c #D4D4AE",
"~ 	c #CFB7AE",
"{ 	c #C9ABAD",
"] 	c #C9A8A9",
"^ 	c #A87577",
"/ 	c #8B7107",
"( 	c #AFA005",
"_ 	c #BDCC00",
": 	c #009600",
"< 	c #39B439",
"[ 	c #F1CA7B",
"} 	c #F1EF80",
"| 	c #B28883",
"1 	c #BC9182",
"2 	c #B48683",
"3 	c #BD8C82",
"4 	c #B68082",
"5 	c #BF9582",
"6 	c #B97B7D",
"7 	c #984A3B",
"8 	c #690005",
"9 	c #B29603",
"0 	c #00A000",
"a 	c #E9A71E",
"b 	c #E9A622",
"c 	c #EAEA23",
"d 	c #7C2A27",
"e 	c #8A2825",
"f 	c #8B3227",
"g 	c #907325",
"h 	c #C3CB27",
"i 	c #C4E225",
"j 	c #9C992B",
"k 	c #98892B",
"l 	c #780603",
"m 	c #5A0006",
"n 	c #B3A404",
"o 	c #EA9C00",
"p 	c #EC9801",
"q 	c #ECEC02",
"r 	c #6A1207",
"s 	c #760705",
"t 	c #895506",
"u 	c #7A3209",
"v 	c #AA8307",
"w 	c #B6CC05",
"x 	c #6B2E0C",
"y 	c #80390A",
"z 	c #701407",
"A 	c #009400",
"B 	c #F29B00",
"C 	c #F5F503",
"D 	c #5F1108",
"E 	c #6F0405",
"F 	c #815F08",
"G 	c #55000A",
"H 	c #B4A205",
"I 	c #D6EC03",
"J 	c #A97206",
"K 	c #C6BD05",
"L 	c #A48F07",
"M 	c #650005",
"N 	c #530006",
"O 	c #BFCD00",
"P 	c #F5A000",
"Q 	c #F89E00",
"R 	c #F9F901",
"S 	c #621208",
"T 	c #7B4D09",
"U 	c #9CA909",
"V 	c #F7F901",
"W 	c #EDF503",
"X 	c #F2F903",
"Y 	c #00A400",
"Z 	c #F9A700",
"` 	c #FBA200",
" .	c #FFFF01",
"..	c #7C0305",
"+.	c #915507",
"@.	c #D0EE07",
"#.	c #C3B206",
"$.	c #7B3D08",
"%.	c #E3FB06",
"&.	c #BC9F05",
"*.	c #5E0006",
"=.	c #C3D100",
"-.	c #009800",
";.	c #00AA00",
">.	c #FDA700",
",.	c #830604",
"'.	c #8D5C07",
").	c #720007",
"!.	c #985F08",
"~.	c #9A5707",
"{.	c #7B0005",
"].	c #AEA607",
"^.	c #9E8209",
"/.	c #620005",
"(.	c #B4A604",
"_.	c #009D00",
":.	c #FFFA01",
"<.	c #710F07",
"[.	c #862606",
"}.	c #7F0B05",
"|.	c #7F0506",
"1.	c #8F6E07",
"2.	c #850005",
"3.	c #871205",
"4.	c #9B7906",
"5.	c #8F3D06",
"6.	c #801205",
"7.	c #B8CD00",
"8.	c #008D00",
"9.	c #F79700",
"0.	c #FA9100",
"a.	c #FCD301",
"b.	c #8C8B0A",
"c.	c #792809",
"d.	c #927807",
"e.	c #CFCC00",
"f.	c #B1CD00",
"g.	c #BBD500",
"h.	c #E3D400",
"i.	c #E4E401",
"j.	c #BFB206",
"k.	c #CFC906",
"l.	c #CCC706",
"m.	c #C6BC06",
"n.	c #BAC103",
"          . + @ # $ # % % & & & & & & & * = - ",
"          ; > , ' ' ) ! ~ { { { { { { ] ^ / ( ",
"          _ : < [ [ } | 1 2 3 4 2 3 5 6 7 8 9 ",
"          _ : 0 a b c d e f g h i j k g l m n ",
"          _ : 0 o p q r s t u v w x y u z m ( ",
"          - A 0 o B C D E F G H I J K L M N ( ",
"          O : 0 P Q R S E T U V W X W C m G H ",
"          - : Y Z `  .z ..+.@.K #.$.%.&.M *.H ",
"          =.-.;.Z >. .z ,.'.).!.~.{.].^.{./.(.",
"          =._.;.Z >.:.<.[.}.|.1.2.3.4.5.6.8 9 ",
"          7.8._.9.0.a.b.c.m M *./.8 /.M 8 d.( ",
"          e.f.g.h.h.i.j.#.k.l.k.l.l.. l.m.H n."};
