/* XPM */
static const char * lt_xpm[] = {
"23 12 43 1",
" 	c None",
".	c #CCCC00",
"+	c #DDDD37",
"@	c #E9E978",
"#	c #EBEB86",
"$	c #D4D400",
"%	c #E0E000",
"&	c #EEEE75",
"*	c #F4F4A8",
"=	c #F5F5AB",
"-	c #E9E939",
";	c #F1F17B",
">	c #F1F180",
",	c #E5E500",
"'	c #E9E91E",
")	c #EAEA22",
"!	c #D1D100",
"~	c #009400",
"{	c #019A01",
"]	c #009F00",
"^	c #008800",
"/	c #00A300",
"(	c #00A500",
"_	c #00AC00",
":	c #008F00",
"<	c #00B000",
"[	c #00BC00",
"}	c #00C200",
"|	c #00C600",
"1	c #00CB00",
"2	c #BC0000",
"3	c #CF0000",
"4	c #D70000",
"5	c #DC0000",
"6	c #DF0000",
"7	c #E10000",
"8	c #B60000",
"9	c #AA0000",
"0	c #C30000",
"a	c #C70000",
"b	c #A60000",
"c	c #A10000",
"d	c #960000",
"     .+@############@+.",
"     $%&*=*========*&%$",
"     $%-;>>>>;>>>>;;-%$",
"     $%,'))))))))))',%!",
"     ~~{~{]]]{]{]{{{~~^",
"     ~]/((((_(_(_((((]:",
"     {/(__<_<<<<<___(/~",
"     _[}|1111111111|}[_",
"     234566767777766438",
"     9220aaaaaaaaaa022b",
"     b8222222222222228b",
"     c999b9bbbbbb99bbcd"};
