/* XPM */
static const char * lu_xpm[] = {
"23 12 69 1",
" 	c None",
".	c #9E0000",
"+	c #B63737",
"@	c #CD7878",
"#	c #D28686",
"$	c #CF8585",
"%	c #A50000",
"&	c #AE0000",
"*	c #D37575",
"=	c #E3A8A8",
"-	c #E2ABAB",
";	c #A20000",
">	c #C03939",
",	c #D67B7B",
"'	c #D78080",
")	c #D68080",
"!	c #AA0000",
"~	c #B81E1E",
"{	c #BB2222",
"]	c #BA2222",
"^	c #D2D7D7",
"/	c #DFE4E4",
"(	c #E4E9EB",
"_	c #EBE8EB",
":	c #E8ECEC",
"<	c #EAEFF0",
"[	c #E4E8E8",
"}	c #C9CECF",
"|	c #EBF0F2",
"1	c #E5E2E5",
"2	c #D5D2D6",
"3	c #F0EDF0",
"4	c #F4F1F4",
"5	c #DADAD5",
"6	c #EBEBE5",
"7	c #F2F2ED",
"8	c #F8F8F2",
"9	c #FDFDF6",
"0	c #FBFBF5",
"a	c #0091CE",
"b	c #009CDE",
"c	c #00A3E6",
"d	c #00A7EA",
"e	c #00AAEE",
"f	c #00ABF1",
"g	c #008CC8",
"h	c #1099CD",
"i	c #12A7DD",
"j	c #13ACE5",
"k	c #16AEE9",
"l	c #16AFED",
"m	c #12B2F2",
"n	c #13B3F1",
"o	c #14AFF1",
"p	c #15B0F0",
"q	c #13B2EE",
"r	c #0F94C7",
"s	c #149ACD",
"t	c #16A6DC",
"u	c #16AAE3",
"v	c #15B0EF",
"w	c #1595C6",
"x	c #1493C3",
"y	c #149CD2",
"z	c #129DD6",
"A	c #119DD8",
"B	c #129EDD",
"C	c #1397C9",
"D	c #1389B6",
"     .+@###$$$$$$$##@+.",
"     %&*=--=-------=*&%",
"     ;&>,''''))))'',+&;",
"     .!&~{{{{]]]]{]~&!.",
"     ^/(_(::::::<:::[/}",
"     ^/(:<<||||<|||:[1}",
"     21_<34444444433_1}",
"     567899999999908762",
"     abcdeeffefffeedcbg",
"     hijklmmmmnompqqjir",
"     stuklloopmoovvkutw",
"     xsyzAtiABBBBAAzsCD"};
