/* XPM */
static const char * ma_xpm[] = {
"23 12 53 1",
" 	c None",
".	c #9E0000",
"+	c #B63737",
"@	c #CD7878",
"#	c #D28686",
"$	c #CF8585",
"%	c #A50000",
"&	c #AE0000",
"*	c #D37575",
"=	c #E3A8A8",
"-	c #E2ABAB",
";	c #A30000",
">	c #C13939",
",	c #D67B7B",
"'	c #D78080",
")	c #D28180",
"!	c #BA1E1E",
"~	c #BC2222",
"{	c #C32222",
"]	c #EA2222",
"^	c #685322",
"/	c #5D5B22",
"(	c #B30000",
"_	c #AA0000",
":	c #662B00",
"<	c #C50100",
"[	c #2D4901",
"}	c #234F01",
"|	c #B60000",
"1	c #811D01",
"2	c #9B0000",
"3	c #394800",
"4	c #085E00",
"5	c #513900",
"6	c #563300",
"7	c #0B5700",
"8	c #315100",
"9	c #960000",
"0	c #BA0000",
"a	c #F90000",
"b	c #622400",
"c	c #3B4800",
"d	c #443B00",
"e	c #562D00",
"f	c #BF0200",
"g	c #E20000",
"h	c #275A00",
"i	c #424600",
"j	c #1D5E00",
"k	c #DE0000",
"l	c #C10000",
"m	c #EF0000",
"n	c #D00000",
"     .+@##$#$$$#$###@+.",
"     %&*=-==-------=*&%",
"     ;&>,''''')'''',+&;",
"     ;&&!~{{]^/]~~~!(_.",
"     ._&&(&:<[}|1&((&_2",
"     2_&((<345678<|&&_9",
"     ._&(|0abcdea||(&_2",
"     ;&|0ffghcijklf0|&.",
"     %(0fl<f:ma:0<ll0(.",
"     %|0ll<ln<lnlllff|;",
"     _|00fff0ffff0ff||%",
"     ;____%%%%%%%___%;9"};
