/* XPM */
static const char * mh_xpm[] = {
"23 12 126 2",
"  	c None",
". 	c #060090",
"+ 	c #3C37B0",
"@ 	c #7B78CC",
"# 	c #8886D4",
"$ 	c #8685D6",
"% 	c #8785D8",
"& 	c #8785DB",
"* 	c #8885D8",
"= 	c #3737CB",
"- 	c #000097",
"; 	c #060097",
"> 	c #0600A0",
", 	c #7575CC",
"' 	c #A8A8E0",
") 	c #B1AEE4",
"! 	c #ACABE4",
"~ 	c #ADABE6",
"{ 	c #A8A8EC",
"] 	c #7575DB",
"^ 	c #580052",
"/ 	c #C40000",
"( 	c #06009B",
"_ 	c #0000A2",
": 	c #5C56BF",
"< 	c #EAEAEC",
"[ 	c #F2F2EE",
"} 	c #A19FDB",
"| 	c #8380D6",
"1 	c #8080E3",
"2 	c #A07BB1",
"3 	c #D13939",
"4 	c #D60000",
"5 	c #A30000",
"6 	c #0000A9",
"7 	c #D5D5DC",
"8 	c #E9E9E7",
"9 	c #2D28B8",
"0 	c #2523B4",
"a 	c #2622B7",
"b 	c #2222D5",
"c 	c #562289",
"d 	c #C72222",
"e 	c #DD1E1E",
"f 	c #B20000",
"g 	c #AC0809",
"h 	c #BB8B99",
"i 	c #0605B6",
"j 	c #DEDDE3",
"k 	c #1610B7",
"l 	c #0500B6",
"m 	c #0000C9",
"n 	c #0101DC",
"o 	c #24019C",
"p 	c #DE0101",
"q 	c #B90101",
"r 	c #B62935",
"s 	c #D4B9C6",
"t 	c #E0E4E4",
"u 	c #D1D1D1",
"v 	c #0000BE",
"w 	c #EBEEEB",
"x 	c #484CD4",
"y 	c #0000D1",
"z 	c #0000E7",
"A 	c #1700B8",
"B 	c #940000",
"C 	c #C60000",
"D 	c #C76292",
"E 	c #E6F2F2",
"F 	c #F0F0F0",
"G 	c #EDEDED",
"H 	c #C0C2CB",
"I 	c #0400C1",
"J 	c #0000C5",
"K 	c #0511DB",
"L 	c #0900C1",
"M 	c #850000",
"N 	c #E30000",
"O 	c #DE1400",
"P 	c #E5A7C3",
"Q 	c #F9F9F9",
"R 	c #F8F8F7",
"S 	c #DCDEED",
"T 	c #6370D9",
"U 	c #1410C4",
"V 	c #0600AD",
"W 	c #0600BB",
"X 	c #0000E2",
"Y 	c #0300AB",
"Z 	c #770005",
"` 	c #ED0000",
" .	c #FD583F",
"..	c #F9FDF0",
"+.	c #FDFDFD",
"@.	c #C9D1F0",
"#.	c #5C5FD5",
"$.	c #0000B8",
"%.	c #0000D4",
"&.	c #0000A6",
"*.	c #6C0033",
"=.	c #FD0200",
"-.	c #FCAB70",
";.	c #C0DAEE",
">.	c #5354D2",
",.	c #0700A9",
"'.	c #0600B0",
").	c #000091",
"!.	c #6A0053",
"~.	c #F35712",
"{.	c #F4E49E",
"].	c #FDDCFD",
"^.	c #ABDBFF",
"/.	c #3E4AD8",
"(.	c #0600BF",
"_.	c #0800B7",
":.	c #A66449",
"<.	c #EB94AF",
"[.	c #93B5F1",
"}.	c #294BD9",
"|.	c #0600C9",
"1.	c #0700C7",
"2.	c #0800AF",
"3.	c #202FB4",
"4.	c #06009C",
"5.	c #060089",
"          . + @ # $ % % % % & $ $ * # # @ = - ",
"          ; > , ' ) ! ~ ~ ~ ~ ~ ~ ~ ~ { ] ^ / ",
"          ( _ : < [ } $ @ | | | | 1 1 2 3 4 5 ",
"          > 6 7 8 8 < 9 0 a a b b c d e f g h ",
"          6 i j 8 < < k l m n o f p q r s t u ",
"          l v = w [ x y z A B p C D E F G 8 H ",
"          l I J m K z L M N O P Q R R S T U 6 ",
"          V W J X Y Z `  ...+.+.@.#.v $.$.l 6 ",
"          6 %.&.*.=.-.+.+.;.>.$.,.$.'.l l V > ",
"          ).!.~.{.].^./.l l v $.(.(.W _.V ,.( ",
"          :.<.[.}.I $.I J |.|.1.1.L (._.2.,.( ",
"          3.6 6 Y Y W W W (.(.(.W W _.V > 4.5."};
