/* XPM */
static const char * mm_xpm[] = {
"23 12 82 1",
" 	c None",
".	c #032B7F",
"+	c #395AA2",
"@	c #798EC4",
"#	c #889BCF",
"$	c #869AD2",
"%	c #8599D5",
"&	c #859BDA",
"*	c #DC8585",
"=	c #D28686",
"-	c #CF8585",
";	c #CD7878",
">	c #B63737",
",	c #A10000",
"'	c #032D84",
")	c #012C8C",
"!	c #7E94C6",
"~	c #C9D3E5",
"{	c #EAECF0",
"]	c #C6D0E8",
"^	c #B1BEE1",
"/	c #ABB9E1",
"(	c #ABBCE6",
"_	c #EBABAB",
":	c #E2ABAB",
"<	c #D37575",
"[	c #AC0000",
"}	c #A50000",
"|	c #022B8A",
"1	c #002B8F",
"2	c #6F87B9",
"3	c #E1E3E8",
"4	c #EFEFED",
"5	c #A1B1D6",
"6	c #8096CE",
"7	c #E38080",
"8	c #D78080",
"9	c #D67B7B",
"0	c #022C93",
"a	c #002C97",
"b	c #4465AC",
"c	c #CBCFD9",
"d	c #E8E2DD",
"e	c #EAEAE4",
"f	c #5D79B6",
"g	c #2348A8",
"h	c #224EB4",
"i	c #D22322",
"j	c #BB2222",
"k	c #BE2222",
"l	c #BA1E1E",
"m	c #B50000",
"n	c #9B0000",
"o	c #002CA0",
"p	c #002BA6",
"q	c #0B3CAD",
"r	c #638DCA",
"s	c #B7CADF",
"t	c #688CCA",
"u	c #0E41AC",
"v	c #0130A7",
"w	c #0138B8",
"x	c #CF0201",
"y	c #B20000",
"z	c #002EB3",
"A	c #0032BF",
"B	c #0031C2",
"C	c #0045C9",
"D	c #103AC8",
"E	c #0034C5",
"F	c #0037CA",
"G	c #0039D1",
"H	c #BA0100",
"I	c #C90100",
"J	c #C20000",
"K	c #C40000",
"L	c #D40000",
"M	c #D80100",
"N	c #D30200",
"O	c #BE0000",
"P	c #9D0000",
"Q	c #960000",
"     .+@#$$$%&*===-=;>,",
"     ')!~{]^/(_:::::<[}",
"     |1233456!7*8889>[}",
"     0abcdefghijkkklm[n",
"     opqrstuvwxmmyyy[[n",
"     zABCDCEFGxmyyyy[}n",
"     HIIJIKLMNOHmmmyy[n",
"     }yHOJJJJJOOOJOHm[P",
"     }mHOJKJJJJJKKJOHm,",
"     }mHJJJJJJJJJKJJOm,",
"     [mmHOOOOHOOOHOHHm}",
"     P[[[[}},}}}}[[[}}Q"};
