/* XPM */
static char * mn_xpm[] = {
"23 12 117 2",
"  	c None",
". 	c #9E0000",
"+ 	c #B63737",
"@ 	c #CD7878",
"# 	c #D28686",
"$ 	c #DC8585",
"% 	c #86D3EB",
"& 	c #8BCDE9",
"* 	c #8DCBE7",
"= 	c #8CCCE8",
"- 	c #85D6EB",
"; 	c #D98585",
"> 	c #A50000",
", 	c #AE0000",
"' 	c #D37575",
") 	c #E3A8A8",
"! 	c #E4ABAB",
"~ 	c #EBABAB",
"{ 	c #ACE4F5",
"] 	c #B0E0F3",
"^ 	c #B1DEF2",
"/ 	c #ABE6F5",
"( 	c #C23939",
"_ 	c #D67B7B",
": 	c #D88080",
"< 	c #E38080",
"[ 	c #82D8F1",
"} 	c #88D1ED",
"| 	c #A10000",
"1 	c #A90000",
"2 	c #C05700",
"3 	c #CA781E",
"4 	c #BA2222",
"5 	c #D12222",
"6 	c #25BFEA",
"7 	c #31B2E2",
"8 	c #34AFDF",
"9 	c #22C3EA",
"0 	c #CC2222",
"a 	c #BF2222",
"b 	c #BA1E1E",
"c 	c #C65C00",
"d 	c #C86600",
"e 	c #B80101",
"f 	c #CC0101",
"g 	c #05B4EC",
"h 	c #11A9E5",
"i 	c #15A6E0",
"j 	c #01BFEC",
"k 	c #C60101",
"l 	c #B50000",
"m 	c #A40900",
"n 	c #DAE400",
"o 	c #D69700",
"p 	c #D99B00",
"q 	c #E9DA00",
"r 	c #DD2400",
"s 	c #009CF4",
"t 	c #0FAEEE",
"u 	c #13A9EA",
"v 	c #00C3F4",
"w 	c #C90000",
"x 	c #B00000",
"y 	c #9A0000",
"z 	c #A40400",
"A 	c #DACF00",
"B 	c #D88D00",
"C 	c #DD9600",
"D 	c #ECC700",
"E 	c #E64000",
"F 	c #00A0F9",
"G 	c #10B3F3",
"H 	c #14ADEF",
"I 	c #00C7F9",
"J 	c #DED900",
"K 	c #DE9C00",
"L 	c #E6AB00",
"M 	c #F2CF00",
"N 	c #E73F00",
"O 	c #00A7FD",
"P 	c #12B8F5",
"Q 	c #16B2F0",
"R 	c #14B7F4",
"S 	c #00CCFD",
"T 	c #D70000",
"U 	c #C20000",
"V 	c #BC0000",
"W 	c #AA0400",
"X 	c #DDCA00",
"Y 	c #DF9900",
"Z 	c #E39700",
"` 	c #F3CA00",
" .	c #EA4300",
"..	c #00A8FF",
"+.	c #13B5F3",
"@.	c #17B4F1",
"#.	c #14B6F5",
"$.	c #D80000",
"%.	c #E1E200",
"&.	c #E2BE00",
"*.	c #E8C700",
"=.	c #F4E100",
"-.	c #EC4700",
";.	c #AE0E00",
">.	c #D9BB00",
",.	c #CB4500",
"'.	c #D15000",
").	c #EAAE00",
"!.	c #E82200",
"~.	c #14AFF1",
"{.	c #00CAFC",
"].	c #D20000",
"^.	c #04B2E5",
"/.	c #0FA1DF",
"(.	c #129EDD",
"_.	c #00B7E6",
":.	c #960000",
"          . + @ # # $ % & * * = - ; # # @ + . ",
"          > , ' ) ! ~ { ] ^ ^ ] / ~ ) ) ' , > ",
"          > , ( _ : < [ } & & } [ < : _ ( , > ",
"          | 1 2 3 4 5 6 7 7 8 7 9 0 a b , 1 . ",
"          | 1 c d e f g h i i h j k l , , 1 . ",
"          m n o p q r s t u u u v w l x , > y ",
"          z A B C D E F G H H G I f e x x 1 y ",
"          1 J K L M N O P Q Q R S T U V l , . ",
"          W X Y Z `  ...R +.@.#.S $.k V V l | ",
"          , %.&.*.=.-...P Q @.#.S T k U V l | ",
"          ;.>.,.'.).!...+.~.~.G {.].U V e l > ",
"          | 1 1 > 1 U ^./.(.(.(._.V , 1 > > :."};
