/* XPM */
static const char * ms_xpm[] = {
"23 12 126 2",
"  	c None",
". 	c #B05C68",
"+ 	c #C8A3AB",
"@ 	c #94A1C5",
"# 	c #8282B4",
"$ 	c #A4A1CB",
"% 	c #E69CA2",
"& 	c #8E9FD6",
"* 	c #8282BF",
"= 	c #A090BB",
"- 	c #E6B5CF",
"; 	c #C5BAD5",
"> 	c #8283C2",
", 	c #8687C0",
"' 	c #8787BD",
") 	c #8788BA",
"! 	c #7878AF",
"~ 	c #3B3C82",
"{ 	c #191961",
"] 	c #1A2D8A",
"^ 	c #73507A",
"/ 	c #EFCDC8",
"( 	c #EADAF5",
"_ 	c #DADFEC",
": 	c #EEADA8",
"< 	c #D3D8F0",
"[ 	c #EECADB",
"} 	c #F5E9F2",
"| 	c #C1D9F0",
"1 	c #A8B1DC",
"2 	c #A8A8CE",
"3 	c #A6A6C9",
"4 	c #7878AA",
"5 	c #01015E",
"6 	c #0B095E",
"7 	c #CD3A3B",
"8 	c #CC2732",
"9 	c #C7545A",
"0 	c #E3887E",
"a 	c #E2847D",
"b 	c #D77A7A",
"c 	c #E67F78",
"d 	c #E19295",
"e 	c #D88A8D",
"f 	c #F0807D",
"g 	c #E58D99",
"h 	c #7474A7",
"i 	c #3A3A79",
"j 	c #00004E",
"k 	c #512F6D",
"l 	c #72649A",
"m 	c #E4B8BC",
"n 	c #E87273",
"o 	c #D18698",
"p 	c #C0211C",
"q 	c #E3CFD2",
"r 	c #EAAAA7",
"s 	c #D7696D",
"t 	c #785D93",
"u 	c #5D4C86",
"v 	c #1C1C76",
"w 	c #1C1C72",
"x 	c #0D328C",
"y 	c #003290",
"z 	c #121F80",
"A 	c #5B6BA8",
"B 	c #E6B3AD",
"C 	c #C55F81",
"D 	c #000078",
"E 	c #5F6BAF",
"F 	c #ED3124",
"G 	c #265BBD",
"H 	c #2E57A8",
"I 	c #EDC3A7",
"J 	c #EB7D8C",
"K 	c #351C74",
"L 	c #00006F",
"M 	c #02299D",
"N 	c #43E8E6",
"O 	c #79E0CB",
"P 	c #1568BC",
"Q 	c #6B3D8A",
"R 	c #27026B",
"S 	c #000089",
"T 	c #000085",
"U 	c #1E1B92",
"V 	c #581068",
"W 	c #0A129B",
"X 	c #000058",
"Y 	c #000094",
"Z 	c #6473BC",
"` 	c #562786",
" .	c #010184",
"..	c #0731B5",
"+.	c #1BBCED",
"@.	c #73B8BF",
"#.	c #156AC6",
"$.	c #000687",
"%.	c #00008E",
"&.	c #01017F",
"*.	c #1E1873",
"=.	c #F0CD00",
"-.	c #EAC100",
";.	c #605449",
">.	c #0B0C7C",
",.	c #000077",
"'.	c #2E265B",
").	c #68562B",
"!.	c #0C0D6F",
"~.	c #010168",
"{.	c #000170",
"].	c #0E0F71",
"^.	c #030360",
"/.	c #000063",
"(.	c #000067",
"_.	c #2F2F74",
":.	c #2A2A7A",
"<.	c #2B2B83",
"[.	c #2A2C8D",
"}.	c #292C96",
"|.	c #292C9D",
"1.	c #282CA3",
"2.	c #272CA7",
"3.	c #272BA9",
"4.	c #010154",
"5.	c #010172",
"          . + @ # $ % & * = - ; > , ' ) ! ~ { ",
"          ] ^ / ( _ : < [ } | 1 2 2 2 3 4 5 6 ",
"          7 8 9 0 a b c d e f g ! ! 4 h i j 6 ",
"          k l m n o p q r s t u v v w v x y z ",
"          A B C D E F G H I J K L L 5 M N O P ",
"          Q R S T U V W X Y Z `  .T D ..+.@.#.",
"          $.T T S S %.T S T &.S S S %.*.=.-.;.",
"          >.,.D D D ,.D ,.,.,.,.,.,.,. .'.).S ",
"          !.~.~.~.L {.{.{.L {.L L L L L L {.].",
"          ^./.(.(.~.{.{.{.,.,.,.{.L ~.(././.^.",
"          _.:.<.[.}.|.1.2.2.3.3.1.|.}.[.<.:._.",
"          4.5 ~.5.D  . .T T T T T  .D {.~.5 4."};
