/* XPM */
static char * mu_xpm[] = {
"23 12 44 1",
" 	c None",
".	c #9E0000",
"+	c #B63737",
"@	c #CD7878",
"#	c #D28686",
"$	c #CF8585",
"%	c #A70000",
"&	c #B10000",
"*	c #D47575",
"=	c #E3A8A8",
"-	c #E4ABAB",
";	c #BA0000",
">	c #C60000",
",	c #D43939",
"'	c #E27B7B",
")	c #E38080",
"!	c #0000B3",
"~	c #0000BB",
"{	c #0000BC",
"]	c #1E1EC4",
"^	c #2222C5",
"/	c #0000AF",
"(	c #0000B8",
"_	c #0000AA",
":	c #0000CD",
"<	c #0000D1",
"[	c #0000D5",
"}	c #D9D900",
"|	c #EBEB00",
"1	c #F5F500",
"2	c #F9F900",
"3	c #F8F800",
"4	c #F2F200",
"5	c #D4D400",
"6	c #FFFF00",
"7	c #009100",
"8	c #009E00",
"9	c #00A300",
"0	c #00A600",
"a	c #00A900",
"b	c #008900",
"c	c #009B00",
"d	c #00AE00",
"e	c #009700",
"     .+@###$$$$$$$$#@+.",
"     %&*=--=-------=*&%",
"     ;>,'))))))))))',>;",
"     !~{]^^^^^^^^^^]{~/",
"     /~~~~(~~(~~{{{~(~_",
"     {:<[<<[[<[[[[[<::{",
"     }||1222122232214|5",
"     }|12266666626224|5",
"     }|42666666666624|5",
"     7890aaaaaaaaaa098b",
"     c9adddddddddddda07",
"     7cc888c88888888ceb"};
