/* XPM */
static const char * mv_xpm[] = {
"23 12 96 2",
"  	c None",
". 	c #9E0000",
"+ 	c #B63737",
"@ 	c #CD7878",
"# 	c #D28686",
"$ 	c #CF8585",
"% 	c #A50000",
"& 	c #AE0000",
"* 	c #DA7575",
"= 	c #F2A8A8",
"- 	c #F0ABAB",
"; 	c #EA7575",
"> 	c #C30000",
", 	c #BD0000",
"' 	c #A34E3B",
") 	c #A0A27E",
"! 	c #AD9D82",
"~ 	c #AA9D82",
"{ 	c #A69A80",
"] 	c #9E9780",
"^ 	c #AB997D",
"/ 	c #71733D",
"( 	c #603806",
"_ 	c #A10000",
": 	c #D90000",
"< 	c #4C4504",
"[ 	c #1EC229",
"} 	c #22A62C",
"| 	c #22AA2C",
"1 	c #22A022",
"2 	c #2AA727",
"3 	c #57D28C",
"4 	c #22AE38",
"5 	c #1EA428",
"6 	c #00B70C",
"7 	c #394F05",
"8 	c #C60000",
"9 	c #D50000",
"0 	c #5C3505",
"a 	c #00960C",
"b 	c #097F0C",
"c 	c #047E04",
"d 	c #017C01",
"e 	c #C3B6BA",
"f 	c #288D2F",
"g 	c #08800A",
"h 	c #08810E",
"i 	c #4B3F05",
"j 	c #543707",
"k 	c #009F0E",
"l 	c #007300",
"m 	c #82BFB7",
"n 	c #66B1A8",
"o 	c #006800",
"p 	c #463F06",
"q 	c #007500",
"r 	c #85C3BC",
"s 	c #68B7AC",
"t 	c #009C0E",
"u 	c #00A20D",
"v 	c #09870C",
"w 	c #048603",
"x 	c #008400",
"y 	c #D0C2C6",
"z 	c #2E9937",
"A 	c #09880C",
"B 	c #087D0D",
"C 	c #4D4105",
"D 	c #E10000",
"E 	c #514A05",
"F 	c #00C90D",
"G 	c #00A80C",
"H 	c #00AD0C",
"I 	c #00A000",
"J 	c #07A700",
"K 	c #45E188",
"L 	c #00B320",
"M 	c #00A50C",
"N 	c #00C30C",
"O 	c #3B5205",
"P 	c #C90000",
"Q 	c #A80000",
"R 	c #921D03",
"S 	c #4D5206",
"T 	c #624305",
"U 	c #604306",
"V 	c #583D01",
"W 	c #433400",
"X 	c #5B4002",
"Y 	c #654005",
"Z 	c #852103",
"` 	c #B20000",
" .	c #B50000",
"..	c #EE0000",
"+.	c #E90000",
"@.	c #960000",
"          . + @ # # # $ $ $ $ $ $ $ # # @ + . ",
"          % & * = - = - - - = = - - - = ; > & ",
"          % , ' ) ! ~ ~ ~ { ] ~ ~ ~ ~ ^ / ( > ",
"          _ : < [ } | | 1 2 3 4 } | | 5 6 7 8 ",
"          . 9 0 a b b c d e f c g h b b a i > ",
"          . 9 j k b b l m n o h h b b b a p , ",
"          . : j k h h q r s o h h h h b t p > ",
"          _ : ( u v v w x y z w A A v B k C > ",
"          % D E F G H H I J K L G H G M N O P ",
"          Q P R S T T U U V W X U U U Y S Z ` ",
"          Q  .P ..+.....+...............+.P % ",
"          _ Q Q Q Q Q Q % % Q % Q Q Q Q % % @."};
