/* XPM */
static const char * mw_xpm[] = {
"23 12 52 1",
" 	c None",
".	c #000000",
"+	c #373737",
"@	c #787878",
"#	c #868686",
"$	c #8B8585",
"%	c #938585",
"&	c #757575",
"*	c #A8A8A8",
"=	c #ABABAB",
"-	c #B8ABAB",
";	c #C2ABAB",
">	c #393939",
",	c #838080",
"'	c #A68080",
")	c #BB8080",
"!	c #F18080",
"~	c #BF8080",
"{	c #7B7B7B",
"]	c #1E1E1E",
"^	c #222222",
"/	c #322222",
"(	c #482222",
"_	c #912222",
":	c #9B2222",
"<	c #BF0101",
"[	c #C80101",
"}	c #CD0000",
"|	c #AC0101",
"1	c #A70101",
"2	c #B60000",
"3	c #A10000",
"4	c #B40000",
"5	c #9E0000",
"6	c #BB0000",
"7	c #D00000",
"8	c #D60000",
"9	c #DA0000",
"0	c #00B000",
"a	c #00BD00",
"b	c #00C400",
"c	c #00C800",
"d	c #00CD00",
"e	c #00AA00",
"f	c #009E00",
"g	c #00B600",
"h	c #009500",
"i	c #009B00",
"j	c #00A600",
"k	c #00AF00",
"l	c #009300",
"m	c #008900",
"     .+@####$%%$####@+.",
"     ..&*==-;;;;-*=*&..",
"     ..>@@,')!!~',,{>..",
"     ...]^/(_:::(/^]...",
"     <[[}}[<|11|<[}}}[2",
"     3||222244244222||5",
"     3|26<6<66<6<6<62|5",
"     6[7899999999998[[2",
"     0abcddddddddddcbae",
"     fe00gggggggggg00eh",
"     ijekk0kkkkkk0kkejh",
"     liiffffffffffiffhm"};
