/* XPM */
static const char * mx_xpm[] = {
"23 12 81 1",
" 	c None",
".	c #009000",
"+	c #37AC37",
"@	c #78C778",
"#	c #86CD86",
"$	c #85CB85",
"%	c #ECECEC",
"&	c #EBEBEB",
"*	c #E9EAE7",
"=	c #CE8585",
"-	c #D28686",
";	c #CD7878",
">	c #B63737",
",	c #9E0000",
"'	c #009600",
")	c #009F00",
"!	c #75CB75",
"~	c #A8DEA8",
"{	c #ABDBAB",
"]	c #F5F5F5",
"^	c #E3ABAB",
"/	c #E3A8A8",
"(	c #D37575",
"_	c #AF0000",
":	c #A30000",
"<	c #00A200",
"[	c #39B639",
"}	c #7BCE7B",
"|	c #80CB80",
"1	c #F1F1F1",
"2	c #F4EAF4",
"3	c #EDF4F4",
"4	c #D78080",
"5	c #D67B7B",
"6	c #1EAD1E",
"7	c #22AE22",
"8	c #22A722",
"9	c #E8EAEA",
"0	c #BB2222",
"a	c #BA1E1E",
"b	c #B10101",
"c	c #00A500",
"d	c #019A01",
"e	c #E5ECEA",
"f	c #6A4816",
"g	c #440101",
"h	c #B2988E",
"i	c #A80000",
"j	c #AFC8CD",
"k	c #643808",
"l	c #642508",
"m	c #6A3C0D",
"n	c #B90000",
"o	c #A50000",
"p	c #9B0000",
"q	c #00A800",
"r	c #00B500",
"s	c #C5CAD3",
"t	c #81A3B3",
"u	c #648371",
"v	c #6C5B25",
"w	c #A8A5BB",
"x	c #A9EBD5",
"y	c #C20001",
"z	c #B70000",
"A	c #00AD00",
"B	c #00B000",
"C	c #FDF5FD",
"D	c #A8C6BD",
"E	c #4B6B5F",
"F	c #345F2A",
"G	c #90CEB4",
"H	c #F5FDFD",
"I	c #C80000",
"J	c #FFFFFF",
"K	c #CFD3C3",
"L	c #D6D6CD",
"M	c #BD0000",
"N	c #FBFCFC",
"O	c #E6E6E6",
"P	c #960000",
"     .+@##$%%&&*%==-;>,",
"     ')!~{{]]]]]]^^/(_:",
"     '<[}}|112312445>_:",
"     ')<678&&&**900ab_,",
"     ')<ccd%efgh%bbb_i,",
"     ')<ccc2jklm3nb__op",
"     '<cqqrstuvwxyzbbip",
"     '<qABACDEFGHInnz_,",
"     dcABBqJJKLJJMyMnb,",
"     dqABB<JJJJJJMyyMz:",
"     dcqABcNJJNNNnMnnzo",
"     .d)d)'OOOOOOoiio:P"};
