/* XPM */
static char * my_xpm[] = {
"23 12 135 2",
"  	c None",
". 	c #060090",
"+ 	c #3937B1",
"@ 	c #7978D1",
"# 	c #8B88D2",
"$ 	c #8685D6",
"% 	c #8585DB",
"& 	c #8585DE",
"* 	c #DF928B",
"= 	c #D59095",
"- 	c #D69093",
"; 	c #D38486",
"> 	c #BF494B",
", 	c #A61616",
"' 	c #04009A",
") 	c #0000B4",
"! 	c #B9B8A5",
"~ 	c #B6B4DA",
"{ 	c #ABABEB",
"] 	c #B8B7DD",
"^ 	c #B1AEE3",
"/ 	c #ABABE7",
"( 	c #F5E4E4",
"_ 	c #EEE0E5",
": 	c #ECDEE5",
"< 	c #ECDEE3",
"[ 	c #E1C9CC",
"} 	c #C89D9E",
"| 	c #BD9595",
"1 	c #9A9539",
"2 	c #777390",
"3 	c #7B7BE3",
"4 	c #D5D494",
"5 	c #F1F180",
"6 	c #8B8BCE",
"7 	c #8080D8",
"8 	c #F0B9B6",
"9 	c #E3B4BC",
"0 	c #E2B3B9",
"a 	c #E2B3B7",
"b 	c #E1B0B3",
"c 	c #D1898C",
"d 	c #C26170",
"e 	c #B85F68",
"f 	c #0000B3",
"g 	c #C1BD2D",
"h 	c #0000C7",
"i 	c #1E1EBF",
"j 	c #EAEA22",
"k 	c #6D6C80",
"l 	c #2223B8",
"m 	c #E67F70",
"n 	c #D07980",
"o 	c #CE7980",
"p 	c #CC757D",
"q 	c #C3626D",
"r 	c #BE6C74",
"s 	c #B14F6F",
"t 	c #0000BB",
"u 	c #75795A",
"v 	c #65676D",
"w 	c #0000CD",
"x 	c #898A4D",
"y 	c #ECEC01",
"z 	c #0501B0",
"A 	c #ECA79F",
"B 	c #D3899A",
"C 	c #CF8699",
"D 	c #CE869B",
"E 	c #CD849C",
"F 	c #CB839E",
"G 	c #B67594",
"H 	c #0000D0",
"I 	c #3D61AC",
"J 	c #1D30BB",
"K 	c #0000E1",
"L 	c #0000D7",
"M 	c #E03A43",
"N 	c #C94A6C",
"O 	c #C6496A",
"P 	c #BB4468",
"Q 	c #0600A7",
"R 	c #0200AE",
"S 	c #0500AE",
"T 	c #0200A7",
"U 	c #0000AA",
"V 	c #F9D0BF",
"W 	c #E0A1C2",
"X 	c #DC9DC3",
"Y 	c #DA9CC3",
"Z 	c #D89AC2",
"` 	c #D95A70",
" .	c #EA6376",
"..	c #F16677",
"+.	c #F56978",
"@.	c #FD6C76",
"#.	c #FB6B76",
"$.	c #FA6B75",
"%.	c #D65C77",
"&.	c #D66177",
"*.	c #CC5B78",
"=.	c #C55978",
"-.	c #BF7387",
";.	c #D67E8A",
">.	c #D8838C",
",.	c #DD868E",
"'.	c #E28992",
").	c #E08492",
"!.	c #DE838D",
"~.	c #DB818C",
"{.	c #CE798A",
"].	c #D4787D",
"^.	c #D97B81",
"/.	c #DC7D87",
"(.	c #DD7D8B",
"_.	c #DD7D8E",
":.	c #DC7C93",
"<.	c #B86970",
"[.	c #B43738",
"}.	c #C83D3E",
"|.	c #CC3E43",
"1.	c #D03F47",
"2.	c #D23F4C",
"3.	c #D13F52",
"4.	c #D13F54",
"5.	c #D2404F",
"6.	c #C9BABC",
"7.	c #CDBCC1",
"8.	c #CEBFC5",
"9.	c #CFBFCA",
"0.	c #CFC0CD",
"a.	c #CFBFD1",
"b.	c #D0C0D2",
"c.	c #CBBBC0",
"d.	c #B3A5A5",
"          . + @ # $ % % % & * = = = - - ; > , ",
"          ' ) ! ~ { ] ^ { / ( _ : < < < [ } | ",
"          ) 1 2 3 4 5 5 6 7 8 9 0 0 a b c d e ",
"          f g h i j j j k l m n o o p p q r s ",
"          t u v w x y y z t A B C B D E F G G ",
"          t H I J K H L L L M N O O O O P P s ",
"          ' Q ) R S ) ) T U V W X Y Y Z Z Z G ",
"          `  ...+.@.@.@.#.$.%.&.&.&.%.*.*.=.s ",
"          -.;.>.,.'.'.'.'.'.).,.).).!.~.;.{.r ",
"          r p ].^./.(._.:.:.:.:.:.(./.^.].p <.",
"          [.}.|.1.2.2.3.4.5.5.4.5.5.2.1.|.|.[.",
"          ! 6.7.8.9.0.0.a.b.b.a.b.0.9.8.c.6.d."};
