/* XPM */
static char * ng_xpm[] = {
"23 12 81 1",
" 	c None",
".	c #55703B",
"+	c #7B9269",
"@	c #A4B49D",
"#	c #ACBCAA",
"$	c #A1B39E",
"%	c #ECECEC",
"&	c #A4B5A4",
"*	c #A9BAAA",
"=	c #506A38",
"-	c #59753F",
";	c #5D7B42",
">	c #A7B89A",
",	c #C6D2C1",
"'	c #C1CEBC",
")	c #F4F4F4",
"!	c #C7D2C3",
"~	c #A8B89C",
"{	c #59743E",
"]	c #567442",
"^	c #81996E",
"/	c #ACBB9F",
"(	c #ADBDA2",
"_	c #A4B597",
":	c #F1F1F1",
"<	c #557342",
"[	c #51724A",
"}	c #597B4B",
"|	c #5B7C48",
"1	c #708C5E",
"2	c #63804A",
"3	c #EAEAEA",
"4	c #688553",
"5	c #4F6F48",
"6	c #4D7151",
"7	c #547954",
"8	c #567C57",
"9	c #587D53",
"0	c #587D4E",
"a	c #496F34",
"b	c #567C54",
"c	c #4B6E4F",
"d	c #476F5A",
"e	c #4E7860",
"f	c #517D62",
"g	c #517B5D",
"h	c #436E3D",
"i	c #4A734C",
"j	c #537E5F",
"k	c #507B5C",
"l	c #47705B",
"m	c #538063",
"n	c #44703F",
"o	c #F9F9F9",
"p	c #5A8158",
"q	c #5D8457",
"r	c #5E8453",
"s	c #4D7637",
"t	c #FDFDFD",
"u	c #537B46",
"v	c #4C6F50",
"w	c #52754B",
"x	c #648549",
"y	c #628650",
"z	c #65884E",
"A	c #537933",
"B	c #5A7E40",
"C	c #64884B",
"D	c #61844D",
"E	c #587744",
"F	c #63844A",
"G	c #67884B",
"H	c #FCFCFC",
"I	c #587541",
"J	c #4C7639",
"K	c #56723C",
"L	c #56774A",
"M	c #4B754E",
"N	c #E5E5E5",
"O	c #E6E6E6",
"P	c #466C46",
"     .+@##$%%%%%%&**@+=",
"     -;>,'')))))),!,~;{",
"     ];^/(_::::::~((^;<",
"     [}|112333333411|}5",
"     67890a%%%%%%.0bb7c",
"     deffgh))))))ijfked",
"     lefmjnooooooipmefd",
"     68pqrsttttttuqqq7v",
"     w9xyzAttttttBCzDD[",
"     EFxGzAtHttttBCCx|I",
"     ;;FDrJHHtttouryx;{",
"     K;LLMhNOOOOOPMbLI="};
