/* XPM */
static char * ni_xpm[] = {
"23 12 79 1",
" 	c None",
".	c #001D77",
"+	c #374F9B",
"@	c #7888C0",
"#	c #8694CA",
"$	c #8593CC",
"%	c #8593D1",
"&	c #8592D3",
"*	c #001F7C",
"=	c #002183",
"-	c #7587BF",
";	c #A8B3D8",
">	c #ABB6DC",
",	c #ABB5DF",
"'	c #001B80",
")	c #001C85",
"!	c #394F9F",
"~	c #808EC4",
"{	c #808EC8",
"]	c #7B89C0",
"^	c #001B7F",
"/	c #000E85",
"(	c #000E89",
"_	c #1E2A93",
":	c #222E96",
"<	c #22319C",
"[	c #222F9B",
"}	c #222E95",
"|	c #000C82",
"1	c #D7D7D7",
"2	c #E4E4E4",
"3	c #E9E9E9",
"4	c #EDEDED",
"5	c #ECECDC",
"6	c #ECECD4",
"7	c #ECECEC",
"8	c #E8E8E8",
"9	c #D3D3D3",
"0	c #D9D9D9",
"a	c #F0F0F0",
"b	c #F3F3F3",
"c	c #F4F1E6",
"d	c #55C8CE",
"e	c #49C2C9",
"f	c #D1D1D1",
"g	c #F5F5F5",
"h	c #FBFBFB",
"i	c #F9F9F8",
"j	c #F9F3E6",
"k	c #37A7B7",
"l	c #2FA5B1",
"m	c #F9EFE8",
"n	c #F8F8F8",
"o	c #D4D4D4",
"p	c #FDFDFD",
"q	c #FDFDE6",
"r	c #FDFDEE",
"s	c #FDFDF7",
"t	c #FDFDF9",
"u	c #000683",
"v	c #000789",
"w	c #00078E",
"x	c #000B9A",
"y	c #000993",
"z	c #001F8E",
"A	c #002289",
"B	c #002093",
"C	c #002399",
"D	c #00209F",
"E	c #001F9F",
"F	c #0020A2",
"G	c #001FA5",
"H	c #0024A9",
"I	c #0023AD",
"J	c #0023B1",
"K	c #002097",
"L	c #001FAA",
"M	c #001EAE",
"N	c #001C71",
"     .+@#$%%%&&&&%$#@+.",
"     *=-;>;>,,,,>>>;-=*",
"     ')!@~~~~{{{~~~]!)^",
"     /(/_:::<<[<:}}}/(|",
"     123344445644743829",
"     024aaabcdecabaa72f",
"     03aghhijklmhnnga3o",
"     04ahhphhqrsppthb39",
"     uvvvvwwxyyxwwuuvvu",
"     )zABCDEFGGGEEEBBz'",
"     *ABCFHIJJJJIHDCBA*",
"     *=zKEGLLMMMLGGCA*N"};
