/* XPM */
static const char * nl_xpm[] = {
"23 12 60 1",
" 	c None",
".	c #9E0000",
"+	c #B63737",
"@	c #CD7878",
"#	c #D28686",
"$	c #CF8585",
"%	c #A50000",
"&	c #AE0000",
"*	c #D37575",
"=	c #E3A8A8",
"-	c #E3ABAB",
";	c #E2ABAB",
">	c #A20000",
",	c #C03939",
"'	c #D67B7B",
")	c #D68080",
"!	c #AA0000",
"~	c #B81E1E",
"{	c #BA2222",
"]	c #9B0000",
"^	c #D2D7D7",
"/	c #DFE4E4",
"(	c #E4E9EB",
"_	c #EBEDEB",
":	c #E8ECEC",
"<	c #ECF0F1",
"[	c #E6EAEA",
"}	c #C9CECF",
"|	c #EBF0F1",
"1	c #D5D6D6",
"2	c #E5E7E6",
"3	c #EBEBEB",
"4	c #F4F6F4",
"5	c #F2F2F2",
"6	c #CFD0D0",
"7	c #DADADA",
"8	c #F8F8F8",
"9	c #FDFDFD",
"0	c #00009A",
"a	c #0000A9",
"b	c #0400AE",
"c	c #0000B4",
"d	c #03009F",
"e	c #0700B4",
"f	c #0400BB",
"g	c #0600BD",
"h	c #0700C2",
"i	c #06009A",
"j	c #0700A4",
"k	c #0800AF",
"l	c #0800B7",
"m	c #0700C5",
"n	c #0700C9",
"o	c #0600BB",
"p	c #060096",
"q	c #060093",
"r	c #0700B8",
"s	c #0400C0",
"t	c #0700AE",
"u	c #060089",
"     .+@###$$$$$$$$#@+.",
"     %&*=--=-----;;=*&%",
"     >&,')))))))))''+&>",
"     .!&~{{{{{{{{{{{&!]",
"     ^/((__::::::<:[(/}",
"     ^/(::||<<<<<<<[(/}",
"     123<44444444455:26",
"     7358899999999945_1",
"     0abbccccccccccbbb0",
"     dbbecfghhhggfccbbi",
"     ijklghmmmnnmhoeejp",
"     qdjereggssggeetjiu"};
