/* XPM */
static const char * om_xpm[] = {
"23 12 62 1",
" 	c None",
".	c #9E0000",
"+	c #B83E3F",
"@	c #CF7878",
"#	c #D38686",
"$	c #CE8585",
"%	c #E8EBEB",
"&	c #E7E7E9",
"*	c #E7E8E9",
"=	c #E4E6E6",
"-	c #D9D9D9",
";	c #C5C5C5",
">	c #A40000",
",	c #B20303",
"'	c #E2C0C1",
")	c #EBCFD3",
"!	c #E1ABAB",
"~	c #F3F5F5",
"{	c #F0F1F1",
"]	c #EEF0F0",
"^	c #F2F2F3",
"/	c #CECECE",
"(	c #A10000",
"_	c #E0E9E9",
":	c #E5C8C9",
"<	c #D78080",
"[	c #EDEFEF",
"}	c #DBDEDE",
"|	c #B6353B",
"1	c #B50709",
"2	c #C03435",
"3	c #C13F3F",
"4	c #BB2222",
"5	c #DEE2E2",
"6	c #CDD1D1",
"7	c #AB0203",
"8	c #B60000",
"9	c #980000",
"0	c #BA0000",
"a	c #BE0000",
"b	c #C20000",
"c	c #D90000",
"d	c #DF0000",
"e	c #E30000",
"f	c #D40000",
"g	c #CC0000",
"h	c #C50000",
"i	c #00D800",
"j	c #00CB00",
"k	c #00CD00",
"l	c #00C400",
"m	c #00BD00",
"n	c #00AA00",
"o	c #00B600",
"p	c #00B300",
"q	c #00AF00",
"r	c #009700",
"s	c #00A600",
"t	c #00A100",
"u	c #009E00",
"v	c #009B00",
"w	c #008900",
"     .+@##$%&**&&&*%=-;",
"     >,')!!~~{{~]{^^%-/",
"     (,_:<<{{{]]]]][=}/",
"     (|1234**%&%%***556",
"     .77,,8877,,77,7779",
"     .77,,,,,8,8,,,,7>9",
"     .7,,8800000000887.",
"     .780abcdddddeccfg0",
"     >,0ahdiijkkkkkjlmn",
"     >8abhejmoooooopqnr",
"     7800bdmpqqqqqqqnsr",
"     .77>7hqtuuuuuuvvrw"};
