/* XPM */
static char * pf_xpm[] = {
"23 12 70 1",
" 	c None",
".	c #CC0000",
"+	c #DD3636",
"@	c #E97777",
"#	c #EB8686",
"$	c #D40000",
"%	c #E00000",
"&	c #EE7474",
"*	c #F4A8A8",
"=	c #F5ABAB",
"-	c #DF0000",
";	c #D30000",
">	c #E93838",
",	c #F17B7B",
"'	c #F18080",
")	c #F18084",
"!	c #F08388",
"~	c #F17F7F",
"{	c #D6D6D6",
"]	c #E2E2E2",
"^	c #E5E5E5",
"/	c #E9E9E9",
"(	c #EAEAE7",
"_	c #DCC693",
":	c #D5D7E2",
"<	c #EAEADA",
"[	c #EDEDED",
"}	c #D1D1D1",
"|	c #ECECE5",
"1	c #ECEC52",
"2	c #DC2E3C",
"3	c #D63332",
"4	c #ECEC43",
"5	c #ECECCF",
"6	c #D4D4D4",
"7	c #D9D9D9",
"8	c #F0F0F0",
"9	c #F4F471",
"0	c #F4DC00",
"a	c #C68FDC",
"b	c #D09BC9",
"c	c #E69E35",
"d	c #F4F442",
"e	c #F5F5F5",
"f	c #F9F9F9",
"g	c #6889F9",
"h	c #6C40E4",
"i	c #5939DA",
"j	c #4851F9",
"k	c #6503C0",
"l	c #507BF9",
"m	c #FDFDFD",
"n	c #E0E6FD",
"o	c #445AFC",
"p	c #6568FA",
"q	c #3A51FB",
"r	c #C2CAFD",
"s	c #E3FFFF",
"t	c #5684FF",
"u	c #BFEEFF",
"v	c #DA0000",
"w	c #EB0000",
"x	c #F10000",
"y	c #FA0000",
"z	c #FC0000",
"A	c #FF1500",
"B	c #FF1A00",
"C	c #F70000",
"D	c #E60000",
"E	c #C10000",
"     .+@############@+.",
"     $%&****====**=*&-;",
"     $%>,''')!')'~~'>-;",
"     {]^////(_:<[[/(^]}",
"     {^//[[|12345[[//]6",
"     7^[88890abcd888[^6",
"     7/8effghijklefe8/6",
"     7[8fmmnoppqrmffe/6",
"     7[8fmmmsgtummmfe[{",
"     vwxyzzzABBBzzzyCw;",
"     vwxCzzyyCzzyyyCww$",
"     .v-%DDDD%DDDDD%-vE"};
