/* XPM */
static const char * ph_xpm[] = {
"23 12 105 2",
"  	c None",
". 	c #9694CB",
"+ 	c #3737B5",
"@ 	c #7878CB",
"# 	c #8886D4",
"$ 	c #8885D8",
"% 	c #8785DA",
"& 	c #8785DB",
"* 	c #7B78CC",
"= 	c #3C37B0",
"- 	c #060090",
"; 	c #D4D489",
"> 	c #E0E087",
", 	c #9794E4",
"' 	c #A8A8DB",
") 	c #ABABE3",
"! 	c #ADABE4",
"~ 	c #7975CD",
"{ 	c #0700A2",
"] 	c #060097",
"^ 	c #CFCEB3",
"/ 	c #E1E1BB",
"( 	c #E9E9E9",
"_ 	c #D6D6EB",
": 	c #8080D0",
"< 	c #8380D6",
"[ 	c #8380D3",
"} 	c #7F7BCF",
"| 	c #3E39B7",
"1 	c #06009A",
"2 	c #CECFD3",
"3 	c #DADBE0",
"4 	c #DEDDE2",
"5 	c #E9E9D9",
"6 	c #E9E9E4",
"7 	c #605DC1",
"8 	c #2222AC",
"9 	c #2222B3",
"0 	c #2822B5",
"a 	c #241EB3",
"b 	c #0600A9",
"c 	c #06009F",
"d 	c #CFD0D7",
"e 	c #DED8B1",
"f 	c #E5DE8F",
"g 	c #E7E25E",
"h 	c #ECECA3",
"i 	c #ECECE9",
"j 	c #B4B5E5",
"k 	c #0101C1",
"l 	c #0101B2",
"m 	c #0501B6",
"n 	c #0300B6",
"o 	c #0300A8",
"p 	c #D0CFD4",
"q 	c #E2DCB5",
"r 	c #EDEC00",
"s 	c #F0F000",
"t 	c #F4EF4C",
"u 	c #F4F4EC",
"v 	c #F4F4B8",
"w 	c #3C61F4",
"x 	c #0000D1",
"y 	c #0000D6",
"z 	c #0000CE",
"A 	c #0000BB",
"B 	c #E4DEB6",
"C 	c #F0EF00",
"D 	c #F5F500",
"E 	c #EDECF0",
"F 	c #F5F9F9",
"G 	c #F9F9AA",
"H 	c #F9647B",
"I 	c #CB0000",
"J 	c #D40000",
"K 	c #D00000",
"L 	c #C40000",
"M 	c #B60000",
"N 	c #D1D2DA",
"O 	c #E4DEB8",
"P 	c #EFE895",
"Q 	c #F5EF5F",
"R 	c #F7FBBA",
"S 	c #F9FDFD",
"T 	c #E6BDD9",
"U 	c #B80003",
"V 	c #BD0000",
"W 	c #C10000",
"X 	c #B20000",
"Y 	c #A70000",
"Z 	c #D2D3D7",
"` 	c #E3E4E9",
" .	c #F6F9F4",
"..	c #D44749",
"+.	c #960000",
"@.	c #D4D3B2",
"#.	c #E7EBCD",
"$.	c #F0F3F3",
"%.	c #E7BFD0",
"&.	c #A20000",
"*.	c #D7D995",
"=.	c #E8EB95",
"-.	c #C84166",
";.	c #BE94A8",
">.	c #A90000",
"          . + @ # # $ % % & & & % $ $ # * = - ",
"          ; > , ' ) ! ! ! ! ! ! ! ! ! ) ~ { ] ",
"          ^ / ( _ : : < < < < < < [ [ } | { 1 ",
"          2 3 4 5 6 7 8 9 0 0 0 0 0 0 a b b c ",
"          d e f g h i j k l m m m m m m m n o ",
"          p q r s t ( u v w x y y y y y y z A ",
"          p B C D t E F G H I J J J K I I L M ",
"          N O P Q R S T U V W L L W W V V X Y ",
"          Z ` E  .S ..U W W L L L L W W U X +.",
"          @.#.$.%.W V L W W W W W L W W W M &.",
"          *.=.-.M V V U V V U V U V V U U M Y ",
"          ;.>.&.>.>.>.Y >.Y Y >.Y >.>.>.>.&.+."};
