/* XPM */
static char * pk_xpm[] = {
"23 12 101 2",
"  	c None",
". 	c #C5C5C5",
"+ 	c #D9D9D9",
"@ 	c #E5E5E6",
"# 	c #EAEAEA",
"$ 	c #AFC6C9",
"% 	c #859585",
"& 	c #86A58E",
"* 	c #789B80",
"= 	c #376C42",
"- 	c #00430F",
"; 	c #CECECE",
"> 	c #F4F4F4",
", 	c #CCDAD8",
"' 	c #ABB7AB",
") 	c #ABC0AD",
"! 	c #ABC2B1",
"~ 	c #A8C0AD",
"{ 	c #759B7D",
"] 	c #00480E",
"^ 	c #00440E",
"/ 	c #CECFD0",
"( 	c #E3E3E3",
"_ 	c #F1F1F1",
": 	c #809280",
"< 	c #81A488",
"[ 	c #7BA081",
"} 	c #809980",
"| 	c #7EA392",
"1 	c #397245",
"2 	c #DDDDDE",
"3 	c #224422",
"4 	c #22602E",
"5 	c #224922",
"6 	c #ECECED",
"7 	c #64937C",
"8 	c #225925",
"9 	c #226130",
"0 	c #2C693C",
"a 	c #004D11",
"b 	c #DEDFE3",
"c 	c #679691",
"d 	c #012A01",
"e 	c #92B5AF",
"f 	c #D4DCDC",
"g 	c #011901",
"h 	c #004A10",
"i 	c #286645",
"j 	c #4C7D75",
"k 	c #004004",
"l 	c #004612",
"m 	c #003F13",
"n 	c #E3E4E8",
"o 	c #5E9AAC",
"p 	c #002300",
"q 	c #003500",
"r 	c #F5F5F5",
"s 	c #33746B",
"t 	c #003100",
"u 	c #004B16",
"v 	c #00460A",
"w 	c #004716",
"x 	c #D0D1D6",
"y 	c #E2E2E5",
"z 	c #E6E7EB",
"A 	c #609DB0",
"B 	c #003800",
"C 	c #FFF6FF",
"D 	c #2D7063",
"E 	c #002C00",
"F 	c #004D15",
"G 	c #EAEBED",
"H 	c #F9F9F9",
"I 	c #D2E1E0",
"J 	c #FFFFFF",
"K 	c #000F00",
"L 	c #004A09",
"M 	c #004112",
"N 	c #D3D3D3",
"O 	c #E4E4E4",
"P 	c #74A48E",
"Q 	c #004600",
"R 	c #EFF7F7",
"S 	c #11591C",
"T 	c #004100",
"U 	c #27703D",
"V 	c #26693B",
"W 	c #014E0F",
"X 	c #005013",
"Y 	c #004605",
"Z 	c #E2EBEA",
"` 	c #F8E8F6",
" .	c #AAC6B9",
"..	c #04540F",
"+.	c #6EA098",
"@.	c #003E00",
"#.	c #C9C9C9",
"$.	c #D6D7D8",
"%.	c #5C9096",
"&.	c #002400",
"*.	c #003E0D",
"          . + @ # $ % & & & & & & & & & * = - ",
"          ; + # > , ' ) ) ! ) ! ! ! ! ~ { ] ^ ",
"          / + ( _ $ : < [ } ' | < < [ [ 1 ] - ",
"          / + 2 # | 3 4 5 6 7 8 4 9 0 0 a ^ - ",
"          / b b # c d d e f g h h ] i j k l m ",
"          / b n _ o p q r s t u u u v v w w m ",
"          x y z > A d B C D E F F u u l u w m ",
"          x y G H c t d I J K B ] L a h h l M ",
"          N O 6 H P E Q Q J R S T U V W a ] - ",
"          x @ 6 H P d X q Y Z C `  ...W W W - ",
"          N O # > +.d u h T d B @.t L a W W - ",
"          #.N $.y %.&.w w w M - M l l l l ^ *."};
