/* XPM */
static char * pl_xpm[] = {
"23 12 25 1",
" 	c None",
".	c #CCCCCC",
"+	c #DDDDDD",
"@	c #E9E9E9",
"#	c #EEEEEE",
"$	c #E5E5E5",
"%	c #D4D4D4",
"&	c #E0E0E0",
"*	c #F5F5F5",
"=	c #F2F2F2",
"-	c #D8D8D8",
";	c #D1D1D1",
">	c #ECECEC",
",	c #F4F4F4",
"'	c #DA0000",
")	c #EB0000",
"!	c #F50000",
"~	c #F90000",
"{	c #F10000",
"]	c #D30000",
"^	c #FF0000",
"/	c #D40000",
"(	c #DD0000",
"_	c #E40000",
":	c #C10000",
"     .+@@@@@#@#@#@#$@+.",
"     %&#************#&%",
"     %&@============@&%",
"     -&$@@@@@@@@@@@@$&;",
"     -$$@##@#>>>>##@@$;",
"     -$#===**,,,*==##$;",
"     '))!!~~!~~~~~~!{)]",
"     ')!~~^^^~^~^^~~{)/",
"     ()!~^^^^^^^^^~~!)]",
"     '){~~^^^^^^^^^~{)]",
"     '))!~^^~^^~^^~~{)/",
"     ]'_(_________(_(/:"};
