/* XPM */
static char * pn_xpm[] = {
"23 12 140 2",
"  	c None",
". 	c #965762",
"+ 	c #C3A6B4",
"@ 	c #91A5CD",
"# 	c #8696D7",
"$ 	c #EBACAD",
"% 	c #C8A7BE",
"& 	c #8595D9",
"* 	c #A29FD1",
"= 	c #DBBDD1",
"- 	c #C3C4DA",
"; 	c #8591D5",
"> 	c #8997D3",
", 	c #8494CF",
"' 	c #8B99CD",
") 	c #7E8DC4",
"! 	c #44599F",
"~ 	c #11297C",
"{ 	c #2F5CAA",
"] 	c #A87D92",
"^ 	c #EED5C8",
"/ 	c #ECF2F4",
"( 	c #EEC4C4",
"_ 	c #E8CAD5",
": 	c #EEDBE6",
"< 	c #F5ECED",
"[ 	c #D9E7F4",
"} 	c #B6C4E8",
"| 	c #AFB9DF",
"1 	c #ABB6D2",
"2 	c #7E8BBB",
"3 	c #092894",
"4 	c #0D288C",
"5 	c #CA3526",
"6 	c #C41D1F",
"7 	c #D86B63",
"8 	c #EB8C80",
"9 	c #E48E86",
"0 	c #E68D81",
"a 	c #EB9288",
"b 	c #E39D9C",
"c 	c #F18F96",
"d 	c #F19997",
"e 	c #8095CE",
"f 	c #99A5B4",
"g 	c #8796C6",
"h 	c #9EA7AD",
"i 	c #696FAD",
"j 	c #072E77",
"k 	c #0B346F",
"l 	c #2662BB",
"m 	c #C8D0E2",
"n 	c #E5B6B4",
"o 	c #B6A2CA",
"p 	c #E27167",
"q 	c #CE808C",
"r 	c #D6D9EA",
"s 	c #EAC1B0",
"t 	c #AB99B6",
"u 	c #3F72C5",
"v 	c #2243A5",
"w 	c #2E42B1",
"x 	c #477E2F",
"y 	c #276352",
"z 	c #636548",
"A 	c #3A5136",
"B 	c #968B17",
"C 	c #254262",
"D 	c #C294A8",
"E 	c #D67496",
"F 	c #1D259E",
"G 	c #002AB9",
"H 	c #EC665C",
"I 	c #AF4F69",
"J 	c #011CB6",
"K 	c #4C76B9",
"L 	c #ECC7B0",
"M 	c #AF6496",
"N 	c #01239E",
"O 	c #0625B0",
"P 	c #184377",
"Q 	c #83852E",
"R 	c #4A504F",
"S 	c #3A6743",
"T 	c #14329A",
"U 	c #0617A4",
"V 	c #001AB3",
"W 	c #0023B7",
"X 	c #082AB9",
"Y 	c #0626B8",
"Z 	c #000AB5",
"` 	c #0027BE",
" .	c #0A2DB8",
"..	c #0422CA",
"+.	c #4A5E15",
"@.	c #3C9897",
"#.	c #518EB0",
"$.	c #4296C8",
"%.	c #466E53",
"&.	c #223C7B",
"*.	c #0C28AA",
"=.	c #0929B5",
"-.	c #0D2DBD",
";.	c #0B2CBD",
">.	c #0729C5",
",.	c #233998",
"'.	c #578C6A",
").	c #386615",
"!.	c #367160",
"~.	c #1D5067",
"{.	c #122EA6",
"].	c #10299D",
"^.	c #0D2DAA",
"/.	c #0F30AC",
"(.	c #0E2FAD",
"_.	c #1130AA",
":.	c #0C2CBB",
"<.	c #3B4668",
"[.	c #3D7000",
"}.	c #2C5224",
"|.	c #264392",
"1.	c #0F2D93",
"2.	c #0F2F9F",
"3.	c #0F2FA1",
"4.	c #0F30A4",
"5.	c #0F30A6",
"6.	c #0F30A8",
"7.	c #0D2788",
"8.	c #0E2C94",
"9.	c #0E2E9A",
"0.	c #0E2988",
"a.	c #0E2A8B",
"b.	c #0E2FB3",
"c.	c #0E2FB6",
"d.	c #0E2883",
"e.	c #0C299D",
"f.	c #0D2AA4",
"g.	c #0C29AF",
"h.	c #0C29B1",
"i.	c #0D2577",
"          . + @ # $ % & * = - ; > > , ' ) ! ~ ",
"          { ] ^ / ( _ : < [ } | | | | 1 2 3 4 ",
"          5 6 7 8 9 0 a b c d e > f g h i j k ",
"          l m n o p q r s t u v w x y z A B C ",
"          D E F G H I J K L M N O P Q R S A T ",
"          U V W X G G Y Z `  .X ..+.@.#.$.%.&.",
"          *.=.=.-.;.-.-.-.-.X -.>.,.'.).!.~.{.",
"          ].*.^./.(.(.^._./._._.(.:.<.[.}.|.U ",
"          1.2.2.3.4.5.5.5.6.5.5.5.4._.3.{.T 4 ",
"          7.1.8.9.4.5.5.6././._.6.5.4.2.9.1.0.",
"          0.a.9.3.5.6.b.c.-.:.c.b.(.^.3.1.1.d.",
"          d.a.1.e.f.g.g.h.h.h.g.g.*.f.e.8.0.i."};
