/* XPM */
static const char * ps_xpm[] = {
"23 12 70 1",
" 	c None",
".	c #6B0000",
"+	c #373737",
"@	c #787878",
"#	c #868686",
"$	c #000000",
"%	c #D40000",
"&	c #740000",
"*	c #757575",
"=	c #A8A8A8",
"-	c #ABABAB",
";	c #E20000",
">	c #933939",
",	c #808080",
"'	c #7B7B7B",
")	c #393939",
"!	c #E70000",
"~	c #841E1E",
"{	c #2D3030",
"]	c #2D2E2F",
"^	c #292A2B",
"/	c #0D0E0F",
"(	c #0D0E10",
"_	c #D90000",
":	c #EA0101",
"<	c #DC6177",
"[	c #DDDFE2",
"}	c #DADCDF",
"|	c #D6D6DB",
"1	c #C2C3C7",
"2	c #ED0000",
"3	c #F00000",
"4	c #F36B9E",
"5	c #F4F4F4",
"6	c #F2F2F2",
"7	c #EDEDED",
"8	c #E7E7E7",
"9	c #D3D3D3",
"0	c #F50000",
"a	c #F80001",
"b	c #F9689B",
"c	c #F9F9F9",
"d	c #F8F8F8",
"e	c #E9E9E9",
"f	c #EA6E7D",
"g	c #EDF8F1",
"h	c #EDF7F0",
"i	c #F3F3F3",
"j	c #EAF5EF",
"k	c #E7F2EC",
"l	c #E2EDE7",
"m	c #DBE5E1",
"n	c #D1D1D1",
"o	c #7E4600",
"p	c #10A516",
"q	c #0E9E10",
"r	c #0E9A10",
"s	c #0D960F",
"t	c #0D9010",
"u	c #007F00",
"v	c #009A00",
"w	c #009400",
"x	c #009300",
"y	c #008F00",
"z	c #008B00",
"A	c #794300",
"B	c #6D3B00",
"C	c #008400",
"D	c #008300",
"E	c #007400",
"     .+@############@+$",
"     %&*=--=--=--=-=*$$",
"     %;>@@,,,,,,,,,')$$",
"     %;!~+{]]{]]]]]^/((",
"     _!::<[[}}}[[[[}}|1",
"     %!2334555555567789",
"     _:30abccccdcdd56e9",
"     _23afghhighhjjklmn",
"     _:0oppqqqqqqqqrstu",
"     _2ovwwwwwwwwwwxyzu",
"     _Awwwwwxwwxwxxxxyu",
"     BzCDCCCDCCDCCDDDuE"};
