/* XPM */
static const char * pt_xpm[] = {
"23 12 95 2",
"  	c None",
". 	c #009000",
"+ 	c #37AC37",
"@ 	c #78C778",
"# 	c #86CD86",
"$ 	c #85D685",
"% 	c #DA8585",
"& 	c #D18585",
"* 	c #CF8585",
"= 	c #CD7878",
"- 	c #B63737",
"; 	c #9E0000",
"> 	c #009600",
", 	c #009F00",
"' 	c #75CB75",
") 	c #A8DEA8",
"! 	c #ABE0AB",
"~ 	c #ABE4AB",
"{ 	c #E7ABAB",
"] 	c #E2ABAB",
"^ 	c #D37575",
"/ 	c #AE0000",
"( 	c #A60000",
"_ 	c #00A100",
": 	c #39B639",
"< 	c #7BCD7B",
"[ 	c #80D380",
"} 	c #91E680",
"| 	c #E49B80",
"1 	c #D98080",
"2 	c #D68080",
"3 	c #D67B7B",
"4 	c #C13939",
"5 	c #A00000",
"6 	c #3DB51E",
"7 	c #D2CF22",
"8 	c #88C022",
"9 	c #DC7C22",
"0 	c #C9B222",
"a 	c #C24222",
"b 	c #BB2222",
"c 	c #BC2222",
"d 	c #BA1E1E",
"e 	c #AA0000",
"f 	c #00A400",
"g 	c #70C200",
"h 	c #BC6B01",
"i 	c #CD4756",
"j 	c #C04E54",
"k 	c #D57408",
"l 	c #CCEC01",
"m 	c #B30101",
"n 	c #9B0000",
"o 	c #26AE00",
"p 	c #C7E500",
"q 	c #AA600E",
"r 	c #2938F3",
"s 	c #0E3DF4",
"t 	c #C35F2B",
"u 	c #CB9000",
"v 	c #BD3B00",
"w 	c #2BB000",
"x 	c #AFE300",
"y 	c #965F00",
"z 	c #242BF9",
"A 	c #0637F9",
"B 	c #C94808",
"C 	c #DCF800",
"D 	c #B50000",
"E 	c #BA0000",
"F 	c #00AA00",
"G 	c #85C700",
"H 	c #C7A400",
"I 	c #C84B53",
"J 	c #AA4F5F",
"K 	c #EF9500",
"L 	c #D4A600",
"M 	c #C10000",
"N 	c #BE0000",
"O 	c #009A00",
"P 	c #24B700",
"Q 	c #EDEF00",
"R 	c #A0AA00",
"S 	c #F17E00",
"T 	c #E3FF00",
"U 	c #C91E00",
"V 	c #C50000",
"W 	c #00AE00",
"X 	c #00B500",
"Y 	c #21EB00",
"Z 	c #E13900",
"` 	c #00B200",
" .	c #00C300",
"..	c #CD0000",
"+.	c #960000",
"          . + @ # # $ % & * * * * & & & = - ; ",
"          > , ' ) ! ~ { ] ] ] ] ] ] ] { ^ / ( ",
"          > _ : < [ } | 1 2 2 2 2 2 3 3 4 / 5 ",
"          > , _ 6 7 8 9 0 a b b c c b d / e ; ",
"          > , f g h i j k l m m m m m / / e n ",
"          > , o p q r s t u v m m m m m / ( n ",
"          > _ w x y z A B C v D E D D m / e n ",
"          > _ F G H I J K L M M N M N E D / ; ",
"          O _ F P Q R S T U M M V V V N E m 5 ",
"          O F W W X Y Z V M M M M M M M N D 5 ",
"          O f F W `  ...N N E N N E N E E D ( ",
"          > O O , _ X N e ( ( ( ( e e e ( ( +."};
