/* XPM */
static const char * qa_xpm[] = {
"23 12 89 1",
" 	c None",
".	c #CCCCCC",
"+	c #DDDDDD",
"@	c #E9E9E9",
"#	c #E5E1E5",
"$	c #C1AAB9",
"%	c #AD8986",
"&	c #B09192",
"*	c #AF9193",
"=	c #B59391",
"-	c #B38581",
";	c #8A4D48",
">	c #691B14",
",	c #D4D4D4",
"'	c #E0E0E0",
")	c #EEEEEE",
"!	c #F5F5F5",
"~	c #EDE8EA",
"{	c #D1BBBD",
"]	c #CBB0AE",
"^	c #CEB4B4",
"/	c #CEB2B0",
"(	c #B48681",
"_	c #731D16",
":	c #6E1C15",
"<	c #F2F2F2",
"[	c #E9E2E3",
"}	c #C6A7A9",
"|	c #B68E8C",
"1	c #B98E8B",
"2	c #B78A86",
"3	c #92504A",
"4	c #6B1C15",
"5	c #D8D8D8",
"6	c #E5E5E5",
"7	c #E0D6D6",
"8	c #9F6668",
"9	c #802D25",
"0	c #853A35",
"a	c #863C36",
"b	c #833832",
"c	c #6F1C18",
"d	c #631A16",
"e	c #D0BEC6",
"f	c #7B3132",
"g	c #6D110C",
"h	c #721E1B",
"i	c #701E1C",
"j	c #681E1F",
"k	c #671E1F",
"l	c #5D191A",
"m	c #E2D7E2",
"n	c #8B526D",
"o	c #650D04",
"p	c #6B1E20",
"q	c #671E21",
"r	c #631D20",
"s	c #641B1C",
"t	c #56181C",
"u	c #F8F8F8",
"v	c #E5DAE6",
"w	c #8F516E",
"x	c #58181D",
"y	c #E0D1D9",
"z	c #8A383B",
"A	c #731209",
"B	c #79201C",
"C	c #EBEBEB",
"D	c #FDFDFD",
"E	c #F1E6E7",
"F	c #A25F60",
"G	c #780C03",
"H	c #7D201B",
"I	c #781E16",
"J	c #7C1F18",
"K	c #641A16",
"L	c #F3F3F3",
"M	c #ECDDE0",
"N	c #9D565A",
"O	c #750E05",
"P	c #791F1B",
"Q	c #781E17",
"R	c #82343B",
"S	c #761F1D",
"T	c #D5CAD4",
"U	c #895474",
"V	c #580903",
"W	c #611B1E",
"X	c #5F1A1F",
"     .+@@@#$%&&***&=-;>",
"     ,')!!~{]^^^^^^/(_:",
"     ,'@<<[}(||||1123_4",
"     5'6@@7890000aabc:d",
"     56@@)efghhiiiicjkl",
"     56@<<mnokkpqjkqrst",
"     5@<!uvwocpppppqqsx",
"     5)<uuyzABBBBBiBcjl",
"     5C!uDEFGHHH99IIJhK",
"     +~LuDMNOPBHPJ99JQ>",
"     5@<uuyRgiiiiSBGHQ:",
"     ,5''vTUVWXrWWkgg>d"};
