/* XPM */
static const char * rw_xpm[] = {
"23 12 69 1",
" 	c None",
".	c #287ACC",
"+	c #569ADD",
"@	c #8DBAE9",
"#	c #98C1EB",
"$	c #96C0EB",
"%	c #95BFEB",
"&	c #90C1EB",
"*	c #88BAE9",
"=	c #2A7FD4",
"-	c #2D86E0",
";	c #8DBEEE",
">	c #B6D5F4",
",	c #B9D6F5",
"'	c #D0DBD8",
")	c #9EC2DA",
"!	c #2187E0",
"~	c #5CA2E9",
"{	c #92C1F1",
"]	c #95C2F1",
"^	c #8BC3F1",
"/	c #CBCFB2",
"(	c #F1D77B",
"_	c #E6C13C",
":	c #408CCC",
"<	c #227CD3",
"[	c #267ED6",
"}	c #2B87E2",
"|	c #2C87E5",
"1	c #4597E9",
"2	c #489AEA",
"3	c #479AEA",
"4	c #369AEA",
"5	c #A7AE7A",
"6	c #E9BD1E",
"7	c #E4B002",
"8	c #217AD7",
"9	c #2484E4",
"0	c #2586E8",
"a	c #2989EC",
"b	c #2489EC",
"c	c #218BEC",
"d	c #6F9A9F",
"e	c #428FCB",
"f	c #1786E4",
"g	c #2077D1",
"h	c #106DD8",
"i	c #0F77E7",
"j	c #117AED",
"k	c #117CF2",
"l	c #117EF4",
"m	c #0A79F2",
"n	c #0075F0",
"o	c #0275ED",
"p	c #0F6AD1",
"q	c #D9D900",
"r	c #EBEB00",
"s	c #F5F500",
"t	c #F9F900",
"u	c #F3F300",
"v	c #D3D300",
"w	c #FFFF00",
"x	c #007600",
"y	c #008300",
"z	c #008400",
"A	c #008800",
"B	c #008E00",
"C	c #009000",
"D	c #007C00",
"     .+@#$$$$%%$$$$&*+.",
"     =-;>,,>,,>>,>>')!=",
"     =-~{]]]]]]]]^/(_:<",
"     [}|1222233234567:<",
"     8900aaaaaaaabcdefg",
"     hijkklllllllmmnoip",
"     qrrstttsttttttturv",
"     qruttwwwtwtwwtturv",
"     qrutwwwwwwwwwwturv",
"     xyzAAAAAAAAAAAzyyx",
"     yABCCCCCCCCCCCCBAD",
"     DyzzzzzzyyyzzzzzDx"};
