/* XPM */
static const char * sg_xpm[] = {
"23 12 79 1",
" 	c None",
".	c #9E0000",
"+	c #B53737",
"@	c #D49497",
"#	c #D69EA4",
"$	c #D18585",
"%	c #CF8585",
"&	c #D18686",
"*	c #CD7878",
"=	c #A20000",
"-	c #C06364",
";	c #DFDBDC",
">	c #E3A8A8",
",	c #E5B2B4",
"'	c #E7C1C7",
")	c #DBA3A6",
"!	c #E1ABAB",
"~	c #D37575",
"{	c #AE0000",
"]	c #A50000",
"^	c #CFD4D5",
"/	c #C33939",
"(	c #D78383",
"_	c #D68080",
":	c #DC9DA1",
"<	c #D88D8F",
"[	c #D67B7B",
"}	c #D0D5D9",
"|	c #B30000",
"1	c #BD2D2D",
"2	c #BC2627",
"3	c #BC2323",
"4	c #BB2222",
"5	c #9B0000",
"6	c #BD5B78",
"7	c #C7AABB",
"8	c #B50303",
"9	c #BF4452",
"0	c #B8191E",
"a	c #BD2B42",
"b	c #AA0000",
"c	c #BA1F2D",
"d	c #950000",
"e	c #D5D9D9",
"f	c #E3E9E9",
"g	c #E5E7EB",
"h	c #E9F5F5",
"i	c #EFF8F8",
"j	c #F3F8F8",
"k	c #F5FAFA",
"l	c #F2F9F9",
"m	c #EAF0F0",
"n	c #CCD1D2",
"o	c #E4E9E9",
"p	c #EBEFEF",
"q	c #F0F5F5",
"r	c #EFF5F5",
"s	c #E3E8E9",
"t	c #D3D3D4",
"u	c #E4E4E4",
"v	c #ECECED",
"w	c #F1F1F2",
"x	c #F5F5F6",
"y	c #F7F7F8",
"z	c #F3F4F6",
"A	c #E3E4E5",
"B	c #CCCCCD",
"C	c #E3E3E3",
"D	c #D2D2D2",
"E	c #EAEAEA",
"F	c #EFEFF0",
"G	c #CFCFCF",
"H	c #C9C9C9",
"I	c #D4D5D6",
"J	c #D8D9DB",
"K	c #DADADD",
"L	c #DCDDE2",
"M	c #DBDCE1",
"N	c #BCBCBC",
"     .+@#$$$%%%&&&&&*+.",
"     =-;>,'>>)>)>!!>~{]",
"     =^/)(_:<((____[/{=",
"     .}|1/2+12344334|{.",
"     567890a8||{||{{{b5",
"     5]ac{|||{|{8|{{b]d",
"     efghijjjjkjljlimgn",
"     }opqjkjkkkkkklrmsn",
"     tuvwxyyykkyyyzwvAB",
"     tuvwxyyyxxyyyywvCB",
"     DCEFzzrzxqqzxwvvuG",
"     HDIJKLMKLL;LLKJIGN"};
