/* XPM */
static char * sk_xpm[] = {
"23 12 79 1",
" 	c None",
".	c #CCCCCC",
"+	c #DDDDDD",
"@	c #E9E9E9",
"#	c #EEEEEE",
"$	c #EBEBEB",
"%	c #D4D4D4",
"&	c #E0E0E0",
"*	c #F5F5F5",
"=	c #E0B8B8",
"-	c #E0ACAF",
";	c #DCC1CB",
">	c #E8CCD0",
",	c #E1ACB2",
"'	c #E6BEC7",
")	c #F1F1F1",
"!	c #D3D3D3",
"~	c #BE1C1A",
"{	c #B81E1E",
"]	c #CF6F75",
"^	c #D59DA4",
"/	c #BF2222",
"(	c #B32222",
"_	c #E5E5E5",
":	c #000081",
"<	c #0000A0",
"[	c #8D031D",
"}	c #D73E41",
"|	c #D6A4B5",
"1	c #D06574",
"2	c #CD1201",
"3	c #010197",
"4	c #01017F",
"5	c #00019B",
"6	c #0006B5",
"7	c #970D24",
"8	c #E9627A",
"9	c #F2B6C7",
"0	c #F3D9D6",
"a	c #E185AD",
"b	c #DF1509",
"c	c #0000A9",
"d	c #0000A4",
"e	c #00009E",
"f	c #0006B9",
"g	c #912061",
"h	c #F50007",
"i	c #8A0934",
"j	c #6D3A98",
"k	c #E30000",
"l	c #F32216",
"m	c #000CC3",
"n	c #0000AC",
"o	c #0000B0",
"p	c #3B2099",
"q	c #0A0A97",
"r	c #5A257E",
"s	c #BC0000",
"t	c #CE0000",
"u	c #E20400",
"v	c #4F28A1",
"w	c #0A22C3",
"x	c #E5170B",
"y	c #DF0000",
"z	c #D70000",
"A	c #BB0000",
"B	c #A80000",
"C	c #C30000",
"D	c #F91000",
"E	c #5E2B99",
"F	c #222BC2",
"G	c #F71E09",
"H	c #D30000",
"I	c #C60000",
"J	c #A60000",
"K	c #E90B00",
"L	c #B60000",
"M	c #A10000",
"N	c #960000",
"     .+@@@#@$$$#@#@$@+.",
"     %&#************#&%",
"     %&=-;>,')))))))@&!",
"     %&~{]^/(@@$@@@@_&!",
"     :<[}|;123:44444:::",
"     567890ab6cdcddcdd3",
"     efghijklmnnoooonc5",
"     edpq<eer6dcccccd<5",
"     stuvd3wxkkkkyyyztA",
"     BACDEFGHItIIIICAAJ",
"     BAAsuKCssAsssssALM",
"     MBBBBBBJJJJJBBBJJN"};
