/* XPM */
static char * sm_xpm[] = {
"23 12 101 2",
"  	c None",
". 	c #BEBEBE",
"+ 	c #DADADA",
"@ 	c #E5E5E6",
"# 	c #E7E7E9",
"$ 	c #EAE6EA",
"% 	c #E7E8E9",
"& 	c #D8D8D8",
"* 	c #C6C6C6",
"= 	c #E9EAEA",
"- 	c #F2F2F2",
"; 	c #F2F2F4",
"> 	c #CDCDCE",
", 	c #C6C7C8",
"' 	c #E3E3E3",
") 	c #EDEDED",
"! 	c #ECF1F1",
"~ 	c #DADBDC",
"{ 	c #DDDDDE",
"] 	c #E5E4E4",
"^ 	c #BF8980",
"/ 	c #E3E3E4",
"( 	c #C9CACB",
"_ 	c #C9C9CD",
": 	c #E8E7E7",
"< 	c #808083",
"[ 	c #B35A02",
"} 	c #B65608",
"| 	c #6F8A5C",
"1 	c #D2E7E6",
"2 	c #ECEBEC",
"3 	c #D8D8D5",
"4 	c #3A4D52",
"5 	c #3D450E",
"6 	c #3374C9",
"7 	c #2F73C9",
"8 	c #4F611B",
"9 	c #287100",
"0 	c #F0F0F0",
"a 	c #D1D1D1",
"b 	c #00359C",
"c 	c #003CAC",
"d 	c #003FB3",
"e 	c #0041B9",
"f 	c #001000",
"g 	c #4B6454",
"h 	c #3372CF",
"i 	c #336DD3",
"j 	c #496A6F",
"k 	c #0C6500",
"l 	c #003BA9",
"m 	c #00359A",
"n 	c #004597",
"o 	c #004DA2",
"p 	c #0050A3",
"q 	c #0053A5",
"r 	c #0053B5",
"s 	c #002643",
"t 	c #00221A",
"u 	c #3D6E1C",
"v 	c #3B6918",
"w 	c #1C6107",
"x 	c #006024",
"y 	c #004FB8",
"z 	c #00488D",
"A 	c #005196",
"B 	c #00579B",
"C 	c #005795",
"D 	c #0C61A2",
"E 	c #6989A5",
"F 	c #7298C4",
"G 	c #6A7B73",
"H 	c #78A0BA",
"I 	c #789D98",
"J 	c #0B5EA5",
"K 	c #004A8A",
"L 	c #004A80",
"M 	c #00538E",
"N 	c #005592",
"O 	c #0A5EA0",
"P 	c #3578B0",
"Q 	c #0665AF",
"R 	c #0E61A5",
"S 	c #0259B1",
"T 	c #2F71B1",
"U 	c #004B7D",
"V 	c #004A7B",
"W 	c #00538B",
"X 	c #0058A2",
"Y 	c #0056A9",
"Z 	c #0052AD",
"` 	c #0053B1",
" .	c #00487E",
"..	c #004472",
"+.	c #004A95",
"@.	c #004A9C",
"#.	c #0048A7",
"$.	c #0048AB",
"%.	c #0048AC",
"&.	c #0049A4",
"*.	c #00416D",
"          . + @ # $ % # # # # $ # # # % @ & * ",
"          * + = - ; ; - - ; ; - ; - ; - = + > ",
"          , + ' ) ) ) ) ! ! ! ! ) ) ) ) ' + > ",
"          , ~ { ' ' ] = = ^ ^ $ = @ / ' { + ( ",
"          _ ' @ @ : ) ) < [ } | 1 2 $ @ ] ' > ",
"          3 @ ) - - - 4 5 6 7 8 9 - - 0 ) @ a ",
"          b c c c d e f g h i j k d d c c l m ",
"          n o p q p r s t u v w x y q q q o n ",
"          z A B C B D E F G G H I J B B C A K ",
"          L M M N B O P Q J R S T O B C M M U ",
"          V W N B X Y Z Z r r ` Z Y X B N W  .",
"          ..L K +.@.#.#.$.%.%.$.#.&.@.+.K  .*."};
