/* XPM */
static const char * sn_xpm[] = {
"23 12 68 1",
" 	c None",
".	c #006200",
"+	c #378637",
"@	c #78AD78",
"#	c #86B586",
"$	c #85AC85",
"%	c #EBEB85",
"&	c #CE8585",
"*	c #D08585",
"=	c #CD7878",
"-	c #B63737",
";	c #9E0000",
">	c #006600",
",	c #006C00",
"'	c #75AF75",
")	c #A8CDA8",
"!	c #ABC8AB",
"~	c #F5F5AB",
"{	c #E1ABAB",
"]	c #E3A8A8",
"^	c #D37575",
"/	c #AF0101",
"(	c #A30000",
"_	c #398D39",
":	c #7BB37B",
"<	c #80B580",
"[	c #80AD80",
"}	c #F1F180",
"|	c #D78080",
"1	c #D67B7B",
"2	c #C13939",
"3	c #006B00",
"4	c #1E7E1E",
"5	c #228022",
"6	c #227322",
"7	c #EAEA22",
"8	c #BB2222",
"9	c #BA1E1E",
"0	c #B00000",
"a	c #005F00",
"b	c #ECEC01",
"c	c #B3D001",
"d	c #EAEC01",
"e	c #A90000",
"f	c #9B0000",
"g	c #F4F400",
"h	c #7FBF00",
"i	c #72BE00",
"j	c #EFF400",
"k	c #960000",
"l	c #F9F900",
"m	c #004C00",
"n	c #004800",
"o	c #B60000",
"p	c #007000",
"q	c #007400",
"r	c #FDFD00",
"s	c #E4F200",
"t	c #D7EC00",
"u	c #DBEC00",
"v	c #D9F200",
"w	c #FBFC00",
"x	c #BF0000",
"y	c #BA0000",
"z	c #C10000",
"A	c #A70000",
"B	c #005800",
"C	c #E6E600",
"     .+@##$%%%%%%&**=-;",
"     >,'))!~~~~~~{{]^/(",
"     >,_:<[}}}}}}||12/(",
"     >3,4567777778890/;",
"     .33,,abbccdd0000ef",
"     .>,,3.gh..ij00//ek",
"     a3,,,allmnll0o00ef",
"     .,pqp>rstuvwxxyo/f",
"     >pqqq3rrrrrrzzxy0(",
"     ,pqqq>rrrrrrzzxxo(",
"     ,ppqq>wwrrrlyxyyoA",
"     >>33>BCCCCCC(AeAAk"};
