/* XPM */
static const char * so_xpm[] = {
"23 12 84 1",
" 	c None",
".	c #1D5675",
"+	c #4F7D9A",
"@	c #87A7BF",
"#	c #93AFC9",
"$	c #8FAFC6",
"%	c #90ADD2",
"&	c #8FAFC8",
"*	c #83A9C4",
"=	c #1F5A79",
"-	c #215E81",
";	c #86A8BD",
">	c #B3C8D7",
",	c #B4C9DF",
"'	c #1E597F",
")	c #205F84",
"!	c #52839F",
"~	c #8CACC0",
"{	c #90AFC4",
"]	c #1F5C82",
"^	c #1C588A",
"/	c #1F5F8C",
"(	c #3B7399",
"_	c #3D759B",
":	c #3F79A0",
"<	c #3C749B",
"[	c #21638A",
"}	c #1B5687",
"|	c #1A5697",
"1	c #1D5D9D",
"2	c #1E609A",
"3	c #206299",
"4	c #012E70",
"5	c #729EBD",
"6	c #75A7C8",
"7	c #195493",
"8	c #1854A4",
"9	c #1B5BAE",
"0	c #1C5FB3",
"a	c #1D60B3",
"b	c #1B5CAF",
"c	c #3A77BD",
"d	c #B6D0E4",
"e	c #F4F4F4",
"f	c #588EB0",
"g	c #185EB1",
"h	c #17529F",
"i	c #1D61B5",
"j	c #1B62B6",
"k	c #0651AF",
"l	c #5895CC",
"m	c #F9F9F9",
"n	c #68A3D2",
"o	c #054EAE",
"p	c #1A5799",
"q	c #1D5FA1",
"r	c #1F63A2",
"s	c #2065A3",
"t	c #2268A4",
"u	c #00579B",
"v	c #639AC0",
"w	c #E1ECF4",
"x	c #D8E5EF",
"y	c #005298",
"z	c #216595",
"A	c #246B9A",
"B	c #1F689A",
"C	c #004D88",
"D	c #226797",
"E	c #236A9E",
"F	c #236896",
"G	c #206292",
"H	c #226387",
"I	c #22668D",
"J	c #236892",
"K	c #1D669F",
"L	c #236A9C",
"M	c #205C7C",
"N	c #1F65B1",
"O	c #1E5777",
"P	c #1D5B96",
"Q	c #1A5AA9",
"R	c #1B5BA4",
"S	c #1C516F",
"     .+@#$%%%%%%%&&&*+.",
"     =-;>,,,,,,,,,,>@-=",
"     ')!~~~$&$&&&{{@!]]",
"     ^//(+___+:(<+_([/}",
"     |11233245641122117",
"     8900abcdeedfbgag9h",
"     8b0ijiklmmnojjaa9h",
"     pqrsstuvwx6yttrrr7",
"     ^z2zAABfCCfDEFFzG}",
"     -HIJAEErstKLEFJII'",
"     MHIDKtrNNNNNrEFIH=",
"     O]/P1QQb99QRQ1P^'S"};
