/* XPM */
static const char * td_xpm[] = {
"23 12 132 2",
"  	c None",
". 	c #14145D",
"+ 	c #474786",
"@ 	c #8283B2",
"# 	c #8F8FBE",
"$ 	c #8C8DC1",
"% 	c #8585CA",
"& 	c #EBDD88",
"* 	c #EBD78F",
"= 	c #EBD88D",
"- 	c #D88789",
"; 	c #D88D89",
"> 	c #D5837C",
", 	c #C3473C",
"' 	c #AB1406",
") 	c #151560",
"! 	c #161666",
"~ 	c #8081AF",
"{ 	c #AFB0CF",
"] 	c #B0B1D3",
"^ 	c #ABABD8",
"/ 	c #F5EBAE",
"( 	c #F5E7B0",
"_ 	c #F5E6B1",
": 	c #F4EEB1",
"< 	c #E8ADAE",
"[ 	c #E8B1AE",
"} 	c #DA8179",
"| 	c #BC1607",
"1 	c #B41406",
"2 	c #16166A",
"3 	c #4A4A8B",
"4 	c #8686B2",
"5 	c #8889B7",
"6 	c #8080BF",
"7 	c #F1E383",
"8 	c #F1DD87",
"9 	c #F1DB88",
"0 	c #F1E788",
"a 	c #DE8384",
"b 	c #DE8984",
"c 	c #CC4A3E",
"d 	c #AD1307",
"e 	c #131471",
"f 	c #141574",
"g 	c #151671",
"h 	c #313181",
"i 	c #313285",
"j 	c #222290",
"k 	c #EAD028",
"l 	c #EAC62E",
"m 	c #EAC230",
"n 	c #E9D930",
"o 	c #C8272A",
"p 	c #C73229",
"q 	c #C73125",
"r 	c #AA1309",
"s 	c #11147E",
"t 	c #131584",
"u 	c #13157D",
"v 	c #141687",
"w 	c #00008E",
"x 	c #ECCE08",
"y 	c #ECC210",
"z 	c #ECBE12",
"A 	c #ECC112",
"B 	c #EBD712",
"C 	c #C3070A",
"D 	c #BF150A",
"E 	c #C11509",
"F 	c #BE1509",
"G 	c #BC140A",
"H 	c #A8120A",
"I 	c #10138C",
"J 	c #111494",
"K 	c #12159A",
"L 	c #0000A9",
"M 	c #F4D309",
"N 	c #F4C612",
"O 	c #F4C215",
"P 	c #F4C515",
"Q 	c #F3DC15",
"R 	c #C7110B",
"S 	c #C1120A",
"T 	c #111493",
"U 	c #0F129A",
"V 	c #0000AD",
"W 	c #F9D809",
"X 	c #F9CA13",
"Y 	c #F9C616",
"Z 	c #F9C916",
"` 	c #F8E216",
" .	c #C9060C",
"..	c #C7160A",
"+.	c #0F1186",
"@.	c #121489",
"#.	c #00009B",
"$.	c #FDDC08",
"%.	c #FDCF10",
"&.	c #FDCB13",
"*.	c #FDCE13",
"=.	c #FBE514",
"-.	c #D0070A",
";.	c #CE1309",
">.	c #CA1709",
",.	c #171879",
"'.	c #16177B",
").	c #13157C",
"!.	c #FFDE08",
"~.	c #FFD10F",
"{.	c #FFD012",
"].	c #FEE912",
"^.	c #D4070A",
"/.	c #D21409",
"(.	c #CF1809",
"_.	c #16166E",
":.	c #171875",
"<.	c #D01808",
"[.	c #FCDA09",
"}.	c #FCC915",
"|.	c #CF070B",
"1.	c #CC160A",
"2.	c #C31508",
"3.	c #12147C",
"4.	c #E5C508",
"5.	c #E5B912",
"6.	c #E6B615",
"7.	c #E5CF14",
"8.	c #B8060B",
"9.	c #B71009",
"0.	c #BB1509",
"a.	c #A21306",
"          . + @ # $ % & * * * * = - ; ; > , ' ",
"          ) ! ~ { ] ^ / ( ( ( _ : < [ [ } | 1 ",
"          ! 2 3 4 5 6 7 8 9 9 9 0 a b b c | d ",
"          e f g h i j k l l l m n o p q | | r ",
"          s t u v s w x y z z A B C D E F G H ",
"          I J J K K L M N O O P Q C R S F G H ",
"          I T J K U V W X Y Y Z `  .R ..E F r ",
"          +.t v v @.#.$.%.&.&.*.=.-.;.>.>.E r ",
"          f f ,.'.).w !.~.*.*.{.].^./.(.>.E ' ",
"          2 _.:.f ).w !.~.*.&.{.].^./.<.>.E 1 ",
"          ) 2 g '.t #.[.*.&.}.&.` |.;.1.>.2.1 ",
"          ) 2 g 3.+.#.4.5.6.6.6.7.8.9.0.1 1 a."};
