/* XPM */
static const char * tf_xpm[] = {
"23 12 108 2",
"  	c None",
". 	c #060090",
"+ 	c #3C37B0",
"@ 	c #7B78CC",
"# 	c #8986D4",
"$ 	c #8685D6",
"% 	c #8C89D9",
"& 	c #DCE1E3",
"* 	c #EBEBEF",
"= 	c #E7E7E9",
"- 	c #E7E9EA",
"; 	c #E6E1E6",
"> 	c #D28E91",
", 	c #D08585",
"' 	c #CD7878",
") 	c #B63737",
"! 	c #9E0000",
"~ 	c #060097",
"{ 	c #0700A0",
"] 	c #7975CD",
"^ 	c #AAA8E1",
"/ 	c #B1AFE5",
"( 	c #ECECF2",
"_ 	c #F1F5F6",
": 	c #F2F2F3",
"< 	c #F0F1EF",
"[ 	c #E4B2B3",
"} 	c #E3ABAB",
"| 	c #D37575",
"1 	c #AE0000",
"2 	c #A70000",
"3 	c #06009B",
"4 	c #3E39B7",
"5 	c #7F7BCF",
"6 	c #8180D2",
"7 	c #E4E4EC",
"8 	c #EDEEEE",
"9 	c #EDE8E9",
"0 	c #D98A8B",
"a 	c #D67B7B",
"b 	c #C13939",
"c 	c #A30000",
"d 	c #0700A9",
"e 	c #241EB3",
"f 	c #2522B4",
"g 	c #322CB8",
"h 	c #DAD0D9",
"i 	c #E9E9E7",
"j 	c #E3E3E4",
"k 	c #E4E7E7",
"l 	c #E2DADB",
"m 	c #C03435",
"n 	c #BB2222",
"o 	c #BA1E1E",
"p 	c #B10000",
"q 	c #0600AD",
"r 	c #0500B6",
"s 	c #0600B4",
"t 	c #120DB7",
"u 	c #D0D0E2",
"v 	c #E2D8DC",
"w 	c #B7151A",
"x 	c #A80000",
"y 	c #9B0000",
"z 	c #0500C0",
"A 	c #0600C6",
"B 	c #0300C7",
"C 	c #100BCA",
"D 	c #D4D6EC",
"E 	c #ECF0F1",
"F 	c #E8DDE7",
"G 	c #B8141E",
"H 	c #0700BF",
"I 	c #0600CA",
"J 	c #0300CB",
"K 	c #110CCF",
"L 	c #D9DBF1",
"M 	c #F5F6F4",
"N 	c #EEE3ED",
"O 	c #BC151E",
"P 	c #B60000",
"Q 	c #0400B9",
"R 	c #130DC4",
"S 	c #DFDFF2",
"T 	c #F8F9F7",
"U 	c #F4F5F6",
"V 	c #F5F9FA",
"W 	c #F5EAEC",
"X 	c #C4161B",
"Y 	c #BD0000",
"Z 	c #BA0000",
"` 	c #0800B4",
" .	c #140DBF",
"..	c #E2E2F3",
"+.	c #FCFCF9",
"@.	c #F8FBFB",
"#.	c #C91719",
"$.	c #C10000",
"%.	c #F7F7F8",
"&.	c #F3F3F6",
"*.	c #C2161C",
"=.	c #100BBC",
"-.	c #C5C8DD",
";.	c #E1E2E1",
">.	c #DCDDE2",
",.	c #DBDCE1",
"'.	c #AD141B",
").	c #970000",
"          . + @ # $ % & * = = - ; > , , ' ) ! ",
"          ~ { ] ^ ^ / ( _ : : _ < [ } } | 1 2 ",
"          3 { 4 5 6 $ 7 < 8 8 ( 9 0 a a b 1 c ",
"          { d d e f g h i j j k l m n o p 1 ! ",
"          q r r s s t u i k k - v w p p 1 x y ",
"          r z A A B C D < * ( E F G p 1 1 2 y ",
"          r H A I J K L M ( : _ N O P p p x y ",
"          q Q H H H R S T U _ V W X Y Z P 1 y ",
"          { q ` ` r  ...+.U @.@.W #.$.Y Z p c ",
"          { d ` ` r R ..V %.%.V W #.$.$.Y P c ",
"          3 d r r H R S T &.&.%.N *.Y Y Z P c ",
"          ~ 3 { q s =.-.;.>.,.& h '.x x x 2 )."};
