/* XPM */
static char * tm_xpm[] = {
"23 12 85 1",
" 	c None",
".	c #006A00",
"+	c #407338",
"@	c #CD80BD",
"#	c #D98ABF",
"$	c #AA8DA0",
"%	c #85BC85",
"&	c #87B488",
"*	c #85B385",
"=	c #86B586",
"-	c #78AD78",
";	c #378637",
">	c #056100",
",	c #007000",
"'	c #1F4917",
")	c #D58BAE",
"!	c #D9BDCB",
"~	c #D8B7CD",
"{	c #ABD0AB",
"]	c #B2D2B6",
"^	c #ACCDAC",
"/	c #ABCDAB",
"(	c #75AF75",
"_	c #006E00",
":	c #006700",
"<	c #075B02",
"[	c #B83C70",
"}	c #DB86B5",
"|	c #A98C92",
"1	c #8BCC93",
"2	c #85B987",
"3	c #80B680",
"4	c #A3C3AC",
"5	c #80B380",
"6	c #7BB37B",
"7	c #398D39",
"8	c #1C4C16",
"9	c #A4287C",
"0	c #A7527B",
"a	c #7C3960",
"b	c #229A32",
"c	c #258725",
"d	c #6AA276",
"e	c #67A073",
"f	c #227C22",
"g	c #228022",
"h	c #1E7E1E",
"i	c #0E5107",
"j	c #A31081",
"k	c #AF2385",
"l	c #59183A",
"m	c #017E09",
"n	c #5B9776",
"o	c #5C9975",
"p	c #005F00",
"q	c #105410",
"r	c #9D046F",
"s	c #A5208C",
"t	c #5C1C52",
"u	c #008100",
"v	c #990471",
"w	c #A52392",
"x	c #5A1C53",
"y	c #008400",
"z	c #0F5504",
"A	c #AE0F84",
"B	c #BA218E",
"C	c #641C40",
"D	c #008A00",
"E	c #007700",
"F	c #A84671",
"G	c #922171",
"H	c #007900",
"I	c #016A01",
"J	c #AC044D",
"K	c #CD147A",
"L	c #5A1D25",
"M	c #008D00",
"N	c #1F4E19",
"O	c #B9236B",
"P	c #9A4B73",
"Q	c #265117",
"R	c #D1419C",
"S	c #B71972",
"T	c #93366C",
"     .+@#$%&***=***=-;>",
"     ,')!~{]]^^//^//(_:",
"     _<[}|12345533667_>",
"     _890abcdeffgggh..>",
"     .ijklmno.,,,,__..p",
"     .qrstu.:__,_,__.:p",
"     :qvwxy,,,,_,,,__:p",
"     _zABCDEEEEEEE,E__p",
"     _8kFGDHHHHHHHHE,_:",
"     ,IJKLMHHEHEEHHEE_.",
"     ,NOPGyE,E,EEEE,E,.",
"     _QRSTE.......__..>"};
