/* XPM */
static char * tp_xpm[] = {
"23 12 69 1",
" 	c None",
".	c #441E02",
"+	c #DD6339",
"@	c #E97879",
"#	c #EB8686",
"$	c #EB8585",
"%	c #DD3737",
"&	c #CC0000",
"*	c #000000",
"=	c #003701",
"-	c #EEDB76",
";	c #F4C9A9",
">	c #F5ABAB",
",	c #EE7575",
"'	c #DD0000",
")	c #D60000",
"!	c #393939",
"~	c #CCEA7C",
"{	c #F1F181",
"]	c #F19A81",
"^	c #F18080",
"/	c #F17B7B",
"(	c #E93939",
"_	c #E00000",
":	c #D30000",
"<	c #1E1E1E",
"[	c #597522",
"}	c #EAE723",
"|	c #EAEA23",
"1	c #EA4524",
"2	c #EA2223",
"3	c #E91E1E",
"4	c #E60000",
"5	c #030304",
"6	c #1C1E26",
"7	c #01010C",
"8	c #ECEC02",
"9	c #ECD603",
"0	c #EC2A03",
"a	c #ED0000",
"b	c #EB0000",
"c	c #2D3551",
"d	c #EDEDED",
"e	c #BDC3D6",
"f	c #657401",
"g	c #F4F403",
"h	c #F35A04",
"i	c #F30000",
"j	c #6373A9",
"k	c #F0F0F0",
"l	c #CACFDE",
"m	c #5C6901",
"n	c #F9F903",
"o	c #F86804",
"p	c #F50000",
"q	c #FA0000",
"r	c #3E4458",
"s	c #FDFD02",
"t	c #FDE502",
"u	c #FD2D02",
"v	c #FF0001",
"w	c #456900",
"x	c #ABEB01",
"y	c #FF3A02",
"z	c #003901",
"A	c #F1CA02",
"B	c #F76B02",
"C	c #DA3B02",
"D	c #C10000",
"     .+@######$#####@%&",
"     *=-;>>>>>>>>>>>,')",
"     **!~{]^^//^^^//(_:",
"     ***<[}|122222234_:",
"     *56*7*8890aabbb4_:",
"     *cde***fggghiiiab&",
"     *jkl***mnnnopqiib:",
"     **r***sstuqvvqpib:",
"     ****wssuvvvvvqqib:",
"     ***xsyvvvvvvvvqib:",
"     *zABqvvqqvqqvqpia)",
"     .C___44_44444_'')D"};
