/* XPM */
static char * tw_xpm[] = {
"23 12 77 1",
" 	c None",
".	c #060090",
"+	c #3C37B0",
"@	c #7978CC",
"#	c #8686D4",
"$	c #8685DB",
"%	c #8080E0",
"&	c #E28080",
"*	c #D28686",
"=	c #CF8585",
"-	c #CD7878",
";	c #B63737",
">	c #9D0000",
",	c #060097",
"'	c #03009F",
")	c #7D78CF",
"!	c #CFCFEA",
"~	c #EAEAF1",
"{	c #D1D2EC",
"]	c #ABABE6",
"^	c #ABABEB",
"/	c #EAABAB",
"(	c #E2ABAB",
"_	c #E3A8A8",
":	c #D37575",
"<	c #AF0000",
"[	c #A50000",
"}	c #06009B",
"|	c #0000A2",
"1	c #6F69C5",
"2	c #F1F1EF",
"3	c #F1F1F0",
"4	c #A4A3DD",
"5	c #8080D5",
"6	c #DC8585",
"7	c #D78080",
"8	c #D67B7B",
"9	c #C13939",
"0	c #A10000",
"a	c #0500A3",
"b	c #0000A9",
"c	c #433EB9",
"d	c #E9E9E5",
"e	c #EAEAE8",
"f	c #645FC3",
"g	c #2222B6",
"h	c #2222C8",
"i	c #D02222",
"j	c #BC2222",
"k	c #BA1E1E",
"l	c #0300AD",
"m	c #0100B6",
"n	c #0908BB",
"o	c #6772D3",
"p	c #C6CEE7",
"q	c #707AD4",
"r	c #1110BC",
"s	c #0101B8",
"t	c #0000CE",
"u	c #CC0000",
"v	c #B60101",
"w	c #B20000",
"x	c #A90000",
"y	c #9B0000",
"z	c #0000C1",
"A	c #0000D0",
"B	c #0000D4",
"C	c #1500D4",
"D	c #0000DB",
"E	c #0000E3",
"F	c #B80000",
"G	c #C50000",
"H	c #C90000",
"I	c #D50000",
"J	c #BE0000",
"K	c #C20000",
"L	c #960000",
"     .+@##$$$%&*==**-;>",
"     ,')!~{]]^/((((_:<[",
"     }|123345%&677789<0",
"     abcddefghijjjjk<<>",
"     lmnopqrstuvvwww<xy",
"     ztABCBBDEuvwww<<[y",
"     FGuGGHIIIvFvvvw<xy",
"     [wFJKKKGGJJKJJFv<>",
"     [vFJKGKKKKKGGKJFw0",
"     [vJJKGKKKKKKKKKJv0",
"     xvFJJJJJJFJJJJFFv[",
"     0xxxx[[[[[[xxxxx[L"};
