/* XPM */
static const char * us_xpm[] = {
"23 12 121 2",
"  	c None",
". 	c #181395",
"+ 	c #4844B3",
"@ 	c #8582CF",
"# 	c #908FD7",
"$ 	c #8C89D4",
"% 	c #908ED9",
"& 	c #8D8CDB",
"* 	c #888CDF",
"= 	c #D98785",
"- 	c #D48786",
"; 	c #D28688",
"> 	c #D48888",
", 	c #D07A7B",
"' 	c #BB3A3A",
") 	c #A60404",
"! 	c #1E189D",
"~ 	c #2621A9",
"{ 	c #8A87D2",
"] 	c #B5B3E3",
"^ 	c #B7B6E7",
"/ 	c #B5B4E8",
"( 	c #AEB0E9",
"_ 	c #F5F1EF",
": 	c #EEE9EC",
"< 	c #EEE9EB",
"[ 	c #E3DBDC",
"} 	c #CDBDBE",
"| 	c #C1B2B2",
"1 	c #1714A0",
"2 	c #1F1AA9",
"3 	c #534FBC",
"4 	c #8184DC",
"5 	c #E59892",
"6 	c #E0A1A6",
"7 	c #DFA1A3",
"8 	c #DD9D9F",
"9 	c #CD6D6F",
"0 	c #BD4244",
"a 	c #B23E42",
"b 	c #1916A8",
"c 	c #2620B0",
"d 	c #3F3BB9",
"e 	c #413EBB",
"f 	c #443FBC",
"g 	c #2A2DC1",
"h 	c #E8AEA7",
"i 	c #D6969D",
"j 	c #D3949C",
"k 	c #D3949A",
"l 	c #D19299",
"m 	c #CB818C",
"n 	c #BA7B8C",
"o 	c #1510AF",
"p 	c #1C18B9",
"q 	c #201BBA",
"r 	c #1E1ABB",
"s 	c #0000B5",
"t 	c #DB5852",
"u 	c #C85E73",
"v 	c #C55C74",
"w 	c #B15171",
"x 	c #0200C3",
"y 	c #0400C7",
"z 	c #0200C8",
"A 	c #0500C9",
"B 	c #E581A3",
"C 	c #D478A8",
"D 	c #D075AC",
"E 	c #CF74A9",
"F 	c #CC73A8",
"G 	c #C971A8",
"H 	c #C570A7",
"I 	c #B16396",
"J 	c #79A6D9",
"K 	c #72A2E9",
"L 	c #7EAFF0",
"M 	c #83B2F5",
"N 	c #79B2F9",
"O 	c #88B9F9",
"P 	c #84B6F9",
"Q 	c #83B8F9",
"R 	c #E178A3",
"S 	c #D477AD",
"T 	c #B36398",
"U 	c #D55335",
"V 	c #E75C38",
"W 	c #EF5F38",
"X 	c #F46137",
"Y 	c #FA6438",
"Z 	c #FD6537",
"` 	c #F76441",
" .	c #D66579",
"..	c #D6647A",
"+.	c #D1617A",
"@.	c #CC5F7A",
"#.	c #C55C7A",
"$.	c #C7808E",
"%.	c #D08996",
"&.	c #D98D98",
"*.	c #DE929B",
"=.	c #E3969F",
"-.	c #E395A1",
";.	c #B74045",
">.	c #C54649",
",.	c #CC494B",
"'.	c #D1494D",
").	c #D54B53",
"!.	c #D44A58",
"~.	c #D54B55",
"{.	c #D44A50",
"].	c #C6B6B6",
"^.	c #D6C5C6",
"/.	c #DBCACC",
"(.	c #E0CED3",
"_.	c #E3D1D9",
":.	c #E3D1DF",
"<.	c #AC0507",
"[.	c #AF0506",
"}.	c #AE0507",
"|.	c #9B0404",
"          . + @ # $ % & & * = - ; > - > , ' ) ",
"          ! ~ { ] ^ ^ ^ / ( _ : : : < < [ } | ",
"          1 2 3 $ $ % % & 4 5 6 6 7 7 8 9 0 a ",
"          b c c d e e f e g h i i j k l m m n ",
"          o p p p p p q r s t u u u v v v w w ",
"          s x y z z z z z A B C D E E F G H I ",
"          J K L M N O P N Q R S S S S D G H T ",
"          U V W X Y Y Y Z `  .........+.@.#.w ",
"          $.%.&.*.*.=.=.=.-.-.-.-.-.=.*.k %.n ",
"          ;.>.,.'.'.).!.!.!.!.!.~.~.{.'.,.>.a ",
"          ].^./.(._._.:.:.:.:.:.:._._.(./.^.| ",
"          ) <.[.[.[.[.<.[.[.}.}.}.[.[.[.[.) |."};
