/* XPM */
static const char * uz_xpm[] = {
"23 12 98 2",
"  	c None",
". 	c #005C9F",
"+ 	c #6197C3",
"@ 	c #7EADD4",
"# 	c #86B1D9",
"$ 	c #8CB5DD",
"% 	c #80B3E3",
"& 	c #89B2DE",
"* 	c #85AFDE",
"= 	c #85B0DD",
"- 	c #78AAD3",
"; 	c #3781BA",
"> 	c #6A93B5",
", 	c #277AB8",
"' 	c #75A8D4",
") 	c #A9CBE5",
"! 	c #B4D1E9",
"~ 	c #ABCAE9",
"{ 	c #ABCCE7",
"] 	c #0064AF",
"^ 	c #3F9BCB",
"/ 	c #238ECE",
"( 	c #398CCE",
"_ 	c #83BBE4",
": 	c #8CC2E7",
"< 	c #84BDE6",
"[ 	c #80B4E3",
"} 	c #7BB2E0",
"| 	c #0063B8",
"1 	c #024080",
"2 	c #57598F",
"3 	c #293E88",
"4 	c #415495",
"5 	c #3F5996",
"6 	c #435A97",
"7 	c #334799",
"8 	c #354998",
"9 	c #354997",
"0 	c #314694",
"a 	c #152D8A",
"b 	c #142984",
"c 	c #D79CA9",
"d 	c #E49DAE",
"e 	c #E8A6B0",
"f 	c #EAA8AF",
"g 	c #ECABAF",
"h 	c #ECAEAF",
"i 	c #E4A7B1",
"j 	c #D199A4",
"k 	c #D4D8D8",
"l 	c #E3E7E7",
"m 	c #E8EDED",
"n 	c #E9F0F0",
"o 	c #EFF3F3",
"p 	c #F1F8F8",
"q 	c #EFF4F4",
"r 	c #EEF5F5",
"s 	c #E3E9E9",
"t 	c #CDD1D1",
"u 	c #D3D9D9",
"v 	c #F2F9F9",
"w 	c #CDD3D3",
"x 	c #D190AE",
"y 	c #E29ABA",
"z 	c #EAA0BD",
"A 	c #EFA4BF",
"B 	c #F2A6C1",
"C 	c #F4A9C1",
"D 	c #CB8CA9",
"E 	c #7C724F",
"F 	c #897D52",
"G 	c #958754",
"H 	c #968855",
"I 	c #786E4D",
"J 	c #7CA97A",
"K 	c #8DBE84",
"L 	c #91C488",
"M 	c #94C88D",
"N 	c #95CC96",
"O 	c #93CC9C",
"P 	c #94CC99",
"Q 	c #809D75",
"R 	c #8EAD7B",
"S 	c #91B184",
"T 	c #92B696",
"U 	c #91B79C",
"V 	c #8FB7A1",
"W 	c #8DB7A5",
"X 	c #8CB6A8",
"Y 	c #93B58D",
"Z 	c #829C6E",
"` 	c #83A077",
" .	c #82A282",
"..	c #7EA395",
"+.	c #7CA49C",
"@.	c #7BA4A1",
"#.	c #79A4A6",
"$.	c #778F65",
"          . + @ # # $ $ % & * & = = # # - ; . ",
"          > , ' ) ! ! ! ! ~ ~ ~ ~ { { ) ' ] ] ",
"          ^ / ( _ : : : < % % [ [ [ [ } ( | | ",
"          1 2 3 4 5 6 6 4 7 7 8 8 9 9 0 a a b ",
"          c d e f g g g g h h h h h g h f i j ",
"          k l m n o o o p q q p q r p n m s t ",
"          u s n r p v v v p p v v v p q n s w ",
"          x y z A B B C A A A C C A A A z y D ",
"          E F F G G G H G H H H H H H H G F I ",
"          J K L M N N O O O O O P P N M L K J ",
"          Q R S T T U V W W X W V U T Y S R Z ",
"          Z `  ... .+.@.#.#.#.#.@.+.+. .J Q $."};
