/* XPM */
static const char * va_xpm[] = {
"23 12 99 2",
"  	c None",
". 	c #CCCC00",
"+ 	c #DDDD36",
"@ 	c #E9E977",
"# 	c #EBEB86",
"$ 	c #E9E9EC",
"% 	c #E7E7EA",
"& 	c #CDCFDE",
"* 	c #EBEBEB",
"= 	c #E7E7E7",
"- 	c #D8D8D8",
"; 	c #C5C5C5",
"> 	c #D4D400",
", 	c #E0E000",
"' 	c #EEEE74",
") 	c #F4F4A8",
"! 	c #F5F5AB",
"~ 	c #F2F2F5",
"{ 	c #F5F5F5",
"] 	c #B9B4AB",
"^ 	c #D7D6D2",
"/ 	c #EEEEEE",
"( 	c #E0E0E0",
"_ 	c #CCCCCD",
": 	c #E9E938",
"< 	c #F1F17B",
"[ 	c #F1F180",
"} 	c #E4E4EE",
"| 	c #9B9B9A",
"1 	c #9E977B",
"2 	c #B5AF7F",
"3 	c #80794C",
"4 	c #48454B",
"5 	c #D3D3D3",
"6 	c #D8D800",
"7 	c #E5E500",
"8 	c #E9E91E",
"9 	c #E9E922",
"0 	c #A0A2B4",
"a 	c #434337",
"b 	c #615630",
"c 	c #3F3022",
"d 	c #69644D",
"e 	c #322800",
"f 	c #0C0500",
"g 	c #CDD2D6",
"h 	c #EBEB00",
"i 	c #EDED00",
"j 	c #6A7066",
"k 	c #6A6B6E",
"l 	c #A3A393",
"m 	c #867500",
"n 	c #3D3C02",
"o 	c #CFD0CA",
"p 	c #F1F100",
"q 	c #F5F500",
"r 	c #EBEBF4",
"s 	c #F3F3F3",
"t 	c #EDF2E9",
"u 	c #000003",
"v 	c #4E5B8A",
"w 	c #DFE0E2",
"x 	c #CACACA",
"y 	c #F9F900",
"z 	c #F9F9F9",
"A 	c #DBDCE3",
"B 	c #8C7D0F",
"C 	c #140C07",
"D 	c #4C4962",
"E 	c #C3CDDD",
"F 	c #ABAFCB",
"G 	c #FFFF00",
"H 	c #FDFDFD",
"I 	c #68643C",
"J 	c #351E0A",
"K 	c #584D55",
"L 	c #8980A9",
"M 	c #9E8C9C",
"N 	c #513837",
"O 	c #999EB1",
"P 	c #BDBA9B",
"Q 	c #686968",
"R 	c #A793A4",
"S 	c #4B3230",
"T 	c #A8929A",
"U 	c #84777C",
"V 	c #F7F8FF",
"W 	c #745D61",
"X 	c #F3F3FA",
"Y 	c #FAFCFC",
"Z 	c #1E0C0E",
"` 	c #DAD7DB",
" .	c #EFF0F0",
"..	c #DFDF00",
"+.	c #DBDCE5",
"@.	c #DDDADF",
"#.	c #9CA2B2",
"$.	c #E1E1E1",
"%.	c #BCBCBC",
"          . + @ # # # # # # $ % $ $ & * = - ; ",
"          > , ' ) ! ) ) ! ) ~ { { { ] ^ / ( _ ",
"          > , : < [ [ [ [ [ { } | 1 2 1 3 4 5 ",
"          6 , 7 8 9 9 9 9 9 $ 0 a b c d e f g ",
"          6 7 7 h i i h i i $ } j k l m n o g ",
"          6 7 i p p p q q p r s ~ t u v t w x ",
"          6 h p q y y y q y z A g B C D E F g ",
"          6 i p y y G G G G H I J K L M N k O ",
"          6 h p y G G G G G H P Q R S T U L o ",
"          6 h q y y G G G G V H H H W z { $ _ ",
"          6 i p y y G G y y V X z Y Z `  .= x ",
"          . .., , , 7 7 7 7 +.A A @.#.$.- 5 %."};
