/* XPM */
static char * vc_xpm[] = {
"23 12 94 2",
"  	c None",
". 	c #060090",
"+ 	c #3C37B0",
"@ 	c #7B78CC",
"# 	c #8686E1",
"$ 	c #B3B5B2",
"% 	c #EBEB85",
"& 	c #B1D085",
"* 	c #86A986",
"= 	c #78AD78",
"- 	c #378637",
"; 	c #006000",
"> 	c #060097",
", 	c #0700A0",
"' 	c #7975CD",
") 	c #A8A8EC",
"! 	c #CFD0C9",
"~ 	c #F5F5AB",
"{ 	c #CDE2AB",
"] 	c #A8C4A8",
"^ 	c #75AF75",
"/ 	c #006C00",
"( 	c #006500",
"_ 	c #06009B",
": 	c #3E39B7",
"< 	c #7B7BE2",
"[ 	c #BAB8A9",
"} 	c #F1F180",
"| 	c #B7D480",
"1 	c #7BA57B",
"2 	c #398D39",
"3 	c #0700A9",
"4 	c #1E1ED1",
"5 	c #87856D",
"6 	c #EAEA22",
"7 	c #82B622",
"8 	c #1E671E",
"9 	c #006B00",
"0 	c #0600AD",
"a 	c #0500B6",
"b 	c #0600B4",
"c 	c #0000D3",
"d 	c #727462",
"e 	c #ECEC01",
"f 	c #72B001",
"g 	c #CCDC01",
"h 	c #E4E901",
"i 	c #63A901",
"j 	c #6CAF01",
"k 	c #005300",
"l 	c #005F00",
"m 	c #0500C1",
"n 	c #0600C6",
"o 	c #0000DF",
"p 	c #697274",
"q 	c #F3F300",
"r 	c #F4F400",
"s 	c #004800",
"t 	c #449C00",
"u 	c #57A800",
"v 	c #003E00",
"w 	c #63B200",
"x 	c #0000E2",
"y 	c #6C7576",
"z 	c #F9F900",
"A 	c #2A8C00",
"B 	c #309100",
"C 	c #005800",
"D 	c #65B600",
"E 	c #0600B9",
"F 	c #0700BD",
"G 	c #787A67",
"H 	c #FDFD00",
"I 	c #E0EF00",
"J 	c #007400",
"K 	c #007000",
"L 	c #CDE400",
"M 	c #72BA00",
"N 	c #005700",
"O 	c #0800B4",
"P 	c #817E5D",
"Q 	c #7BBC00",
"R 	c #0800AF",
"S 	c #0000DA",
"T 	c #83C200",
"U 	c #6EB700",
"V 	c #0600A3",
"W 	c #74B900",
"X 	c #0000CA",
"Y 	c #676C66",
"Z 	c #E6E600",
"` 	c #E4E400",
" .	c #62A700",
"..	c #004F00",
"          . + @ # $ % % % % % % % % & * = - ; ",
"          > , ' ) ! ~ ~ ~ ~ ~ ~ ~ ~ { ] ^ / ( ",
"          _ , : < [ } } } } } } } } | 1 2 / ( ",
"          , 3 3 4 5 6 6 6 6 6 6 6 6 7 8 / 9 ; ",
"          0 a b c d e e f g h i e e j k 9 9 l ",
"          a m n o p q r s t u v r q w k 9 ( l ",
"          a m n x y z z l A B C z z D k 9 9 l ",
"          3 E F x G H H I J K L H H M N K / ; ",
"          , a O x P H H H / C H H H Q C J K ( ",
"          , , R S P H H H T U H H H Q l J K ( ",
"          _ V O S G H z H H H z H H W N J K ( ",
"          _ , , X Y Z Z ` Z Z Z Z `  ...9 ( ; "};
