/* XPM */
static char * vi_xpm[] = {
"23 12 126 2",
"  	c None",
". 	c #CCCCCC",
"+ 	c #DDDDDD",
"@ 	c #E9E9E9",
"# 	c #EEEEEE",
"$ 	c #EBEBEB",
"% 	c #D4D4D4",
"& 	c #D8D8D1",
"* 	c #F5F5F5",
"= 	c #F2F2F1",
"- 	c #F8F8F8",
"; 	c #DBDBDB",
"> 	c #C3C436",
", 	c #CBCB38",
"' 	c #E1E19C",
") 	c #E7E8C9",
"! 	c #ECEDEA",
"~ 	c #DCDD90",
"{ 	c #D0CF7F",
"] 	c #EEEEF1",
"^ 	c #ECECE1",
"/ 	c #E4E4BC",
"( 	c #D0D14F",
"_ 	c #B9BA00",
": 	c #C3C4A1",
"< 	c #E0E0E2",
"[ 	c #CBCC6C",
"} 	c #C0C11E",
"| 	c #BDBD22",
"1 	c #DCDD22",
"2 	c #D5D42A",
"3 	c #EAEA39",
"4 	c #D5D722",
"5 	c #ECEDAA",
"6 	c #DDDFEC",
"7 	c #E2E222",
"8 	c #D1D222",
"9 	c #BABB1E",
"0 	c #D0D0AB",
"a 	c #D1D1D0",
"b 	c #B6B8CE",
"c 	c #AFB3D9",
"d 	c #A7AFE8",
"e 	c #E7D3EA",
"f 	c #D0C018",
"g 	c #C9C701",
"h 	c #ECEC2C",
"i 	c #0101EC",
"j 	c #0301E2",
"k 	c #0401EA",
"l 	c #0101E6",
"m 	c #373FD1",
"n 	c #ECEC01",
"o 	c #C2C501",
"p 	c #C9CB50",
"q 	c #DADBE8",
"r 	c #A6ABE4",
"s 	c #D8D8D5",
"t 	c #6272D8",
"u 	c #8F8EE4",
"v 	c #BCD0DB",
"w 	c #005025",
"x 	c #EED59A",
"y 	c #D4F400",
"z 	c #A2597B",
"A 	c #A74CA9",
"B 	c #B0527E",
"C 	c #A13AAF",
"D 	c #AA9448",
"E 	c #CEDC00",
"F 	c #BDC2BC",
"G 	c #ACB4F0",
"H 	c #E3E3EC",
"I 	c #939DD9",
"J 	c #4957DA",
"K 	c #9E9FEA",
"L 	c #002B00",
"M 	c #7EB2D8",
"N 	c #F9F4E6",
"O 	c #CA764B",
"P 	c #D35EA3",
"Q 	c #D05F8C",
"R 	c #CC476C",
"S 	c #CBBD4E",
"T 	c #F5F1F9",
"U 	c #5460F5",
"V 	c #3E48D3",
"W 	c #E1E2EA",
"X 	c #8D96DA",
"Y 	c #D2D2D3",
"Z 	c #C9CAE2",
"` 	c #397E47",
" .	c #003D14",
"..	c #DAF521",
"+.	c #C47EA0",
"@.	c #C3297A",
"#.	c #C59B77",
"$.	c #D9FD00",
"%.	c #EBE6F6",
"&.	c #5259E1",
"*.	c #D5D7E9",
"=.	c #B6BBDF",
"-.	c #ECEEFD",
";.	c #226F00",
">.	c #A5BD34",
",.	c #EFF4F8",
"'.	c #B3C200",
").	c #B29E00",
"!.	c #C8D300",
"~.	c #F9F3FF",
"{.	c #B0B100",
"].	c #C1C2B7",
"^.	c #FDFDFD",
"/.	c #81B1AB",
"(.	c #D9DC52",
"_.	c #CAD500",
":.	c #747AFF",
"<.	c #6366E9",
"[.	c #FBFCFC",
"}.	c #FAFAFC",
"|.	c #F5F6FC",
"1.	c #9FA6E5",
"2.	c #D3D6F4",
"3.	c #E6E6E6",
"4.	c #D8D8D8",
"5.	c #C1C1C1",
"          . + @ @ @ @ # @ @ # $ $ $ $ $ @ + . ",
"          % & # * * * * * = = - - * * * # ; . ",
"          % > , ' ) ! = = ~ { - * ] ^ / ( _ : ",
"          % < [ } | 1 2 < 3 4 5 6 7 8 9 _ 0 a ",
"          b c d e f g h i j k l m n o p q r a ",
"          s t u v w x y z A B C D E F G H I a ",
"          ; J K * L M N O P Q R S T U V W X Y ",
"          ; Z 6 - `  .{ ..+.@.#.$.%.&.*.= =.Y ",
"          ; # * - -.;.>.,.'.).!.~.{.].- = # Y ",
"          ; @ * - ^.^./.^.(._.5 :.<.[.- * @ % ",
"          s @ = * - ^.- ^.}.|.[.1.2.- - = @ % ",
"          a ; + < 3.3.3.3.3.3.3.3.3.< < + 4.5."};
