/* XPM */
static char * vn_xpm[] = {
"23 12 45 1",
" 	c None",
".	c #9E0000",
"+	c #B63737",
"@	c #CD7878",
"#	c #D28686",
"$	c #CF8585",
"%	c #A50000",
"&	c #AE0000",
"*	c #D37575",
"=	c #E3A8A8",
"-	c #E3ABAB",
";	c #E2ABAB",
">	c #A30000",
",	c #C13939",
"'	c #D67B7B",
")	c #D68080",
"!	c #BA1E1E",
"~	c #BB2222",
"{	c #BE2422",
"]	c #BD2222",
"^	c #B30000",
"/	c #AA0000",
"(	c #CA6201",
"_	c #CF7701",
":	c #9B0000",
"<	c #BD2600",
"[	c #DDBB00",
"}	c #EFF300",
"|	c #F0F400",
"1	c #E0BB00",
"2	c #BE3100",
"3	c #960000",
"4	c #BA0000",
"5	c #B60000",
"6	c #CF4B00",
"7	c #F9F900",
"8	c #D46100",
"9	c #BD0000",
"0	c #D44F00",
"a	c #F2E000",
"b	c #F1D500",
"c	c #D86500",
"d	c #C00000",
"e	c #C40000",
"f	c #CE3E00",
"     .+@###$$$$$$$##@+.",
"     %&*=-=----;-=-=*&%",
"     >&,'))))))))))'+&>",
"     >&&!~~{~~{~~]~{^/.",
"     ./&&^^^/(_%^^^&&/:",
"     :/&^^^<[}|12^^^&/3",
"     ./&^^456778555^&/:",
"     >&549940abc99945&.",
"     %^49dedfd9feedd9^.",
"     %59deeeddddeedd95>",
"     /5499999999994945%",
"     >/%///%%%%%%///%>3"};
