/* XPM */
static char * about_16_xpm[] = {
"16 16 105 2",
"  	c None",
". 	c #144199",
"+ 	c #133F95",
"@ 	c #144095",
"# 	c #375CA4",
"$ 	c #748CBC",
"% 	c #B2BDD3",
"& 	c #133D91",
"* 	c #184295",
"= 	c #5473B1",
"- 	c #9EAFD0",
"; 	c #A0B1D2",
"> 	c #A1B1D2",
", 	c #113A8A",
"' 	c #123D90",
") 	c #4567AC",
"! 	c #7992C4",
"~ 	c #7E97C9",
"{ 	c #7D97C9",
"] 	c #F8F8F8",
"^ 	c #103988",
"/ 	c #27509E",
"( 	c #6482BD",
"_ 	c #6F8CC5",
": 	c #7390C9",
"< 	c #718EC7",
"[ 	c #FDFDFD",
"} 	c #0E347E",
"| 	c #123B8C",
"1 	c #3A61AC",
"2 	c #5B7CBD",
"3 	c #6081C2",
"4 	c #6182C2",
"5 	c #6081C1",
"6 	c #5E7FBF",
"7 	c #5F80C1",
"8 	c #6485C5",
"9 	c #6485C6",
"0 	c #6182C3",
"a 	c #0E3278",
"b 	c #153F93",
"c 	c #4066B0",
"d 	c #5175BB",
"e 	c #5276BC",
"f 	c #DCE3F1",
"g 	c #FFFFFF",
"h 	c #5579BF",
"i 	c #597DC3",
"j 	c #567AC0",
"k 	c #0E3071",
"l 	c #174399",
"m 	c #3E65B0",
"n 	c #476DB8",
"o 	c #496FBA",
"p 	c #BCC9E5",
"q 	c #DAE1F0",
"r 	c #486EB9",
"s 	c #4E74BF",
"t 	c #4C72BD",
"u 	c #0E2D6B",
"v 	c #345DAD",
"w 	c #3C65B4",
"x 	c #4068B8",
"y 	c #3962B1",
"z 	c #3D66B5",
"A 	c #436CBB",
"B 	c #416AB9",
"C 	c #0E2B65",
"D 	c #153E8F",
"E 	c #2852A7",
"F 	c #325CB0",
"G 	c #3761B5",
"H 	c #3A64B8",
"I 	c #335EB1",
"J 	c #0E295E",
"K 	c #13377D",
"L 	c #1E4BA2",
"M 	c #2754AA",
"N 	c #2B58AE",
"O 	c #2653A9",
"P 	c #112F68",
"Q 	c #174092",
"R 	c #1F4CA4",
"S 	c #214EA6",
"T 	c #CED7E8",
"U 	c #FCFCFC",
"V 	c #102755",
"W 	c #183877",
"X 	c #2450A6",
"Y 	c #2855AD",
"Z 	c #B2C2E2",
"` 	c #D8E1F2",
" .	c #D9E2F3",
"..	c #122853",
"+.	c #1F3F7C",
"@.	c #2E58A8",
"#.	c #3663BB",
"$.	c #3764BC",
"%.	c #3966BE",
"&.	c #12264E",
"*.	c #1E3769",
"=.	c #305090",
"-.	c #3F66B2",
";.	c #4A75CA",
">.	c #14274C",
"          . . . . . .           ",
"      + @ # $ % % $ # @ +       ",
"    & * = - ; > > ; - = * &     ",
"  , ' ) ! ~ { ] ] { ~ ! ) ' ,   ",
"  ^ / ( _ : < [ [ < : _ ( / ^   ",
"} | 1 2 3 4 5 6 7 8 9 0 2 1 | } ",
"a b c d e f g g f h i j d c b a ",
"k l m n o p q g g r s t n m l k ",
"u l v w x x y g g z A B w v l u ",
"C D E F G H I g g I H G F E D C ",
"J K L M N N O g g O N N M L K J ",
"  P Q R S T U [ [ U T S R Q P   ",
"  V W X Y Z `  . .` Z Y X W V   ",
"    ..+.@.#.$.%.%.$.#.@.+...    ",
"      &.*.=.-.;.;.-.=.*.&.      ",
"          >.>.>.>.>.>.          "};
