/* XPM */
static char * ac_16_xpm[] = {
"16 16 87 1",
" 	c None",
".	c #000000",
"+	c #1C1810",
"@	c #292418",
"#	c #8C8262",
"$	c #988660",
"%	c #867556",
"&	c #38362C",
"*	c #9A8662",
"=	c #94805B",
"-	c #9C8858",
";	c #A18D66",
">	c #685A3F",
",	c #030201",
"'	c #E2DCC9",
")	c #DED3BE",
"!	c #DED8C2",
"~	c #0B0804",
"{	c #48433A",
"]	c #E8E2D8",
"^	c #D9D0B0",
"/	c #5B5642",
"(	c #625D49",
"_	c #D1C8B7",
":	c #767676",
"<	c #E8E3D8",
"[	c #83745B",
"}	c #E8E5D8",
"|	c #777676",
"1	c #7C7A77",
"2	c #ECECEC",
"3	c #757573",
"4	c #040201",
"5	c #C7BC9F",
"6	c #A8956D",
"7	c #AA9874",
"8	c #B4A07A",
"9	c #807966",
"0	c #BAAA87",
"a	c #342A19",
"b	c #25221A",
"c	c #9E8F68",
"d	c #7C6D52",
"e	c #353027",
"f	c #83765A",
"g	c #AC9874",
"h	c #443B2A",
"i	c #685E48",
"j	c #B7A47E",
"k	c #393222",
"l	c #060606",
"m	c #6A6459",
"n	c #877756",
"o	c #B29E7A",
"p	c #BAA67E",
"q	c #BBAA88",
"r	c #AA9976",
"s	c #7E7053",
"t	c #5E5A4A",
"u	c #A89774",
"v	c #897E62",
"w	c #4B4436",
"x	c #87734C",
"y	c #6C5936",
"z	c #685633",
"A	c #705E39",
"B	c #010000",
"C	c #706040",
"D	c #6E5C37",
"E	c #625232",
"F	c #463C25",
"G	c #6A593C",
"H	c #655332",
"I	c #0E0C08",
"J	c #504127",
"K	c #2E2516",
"L	c #393A3B",
"M	c #251E12",
"N	c #4B3E22",
"O	c #0A0704",
"P	c #251E10",
"Q	c #352B18",
"R	c #40351C",
"S	c #3D321D",
"T	c #221C10",
"U	c #101114",
"V	c #47494F",
"                ",
"                ",
"                ",
"   ...    .+@.. ",
"  .#$%.  &*=-;>.",
"  ,')!~ {]^/.(_.",
"  :<[}|.123   4 ",
" .56.78.90a     ",
" bcdefghijk     ",
"lmnopqrstuv...w.",
".xy...zABCDEFGH.",
"IJKL  MNO.PQRST ",
" UV   ..   ...  ",
"                ",
"                ",
"                "};
