/* XPM */
static char * ac_32_xpm[] = {
"32 32 227 2",
"  	c None",
". 	c #000000",
"+ 	c #261F15",
"@ 	c #4B3F29",
"# 	c #4B402B",
"$ 	c #594E37",
"% 	c #DFDCAB",
"& 	c #A28E66",
"* 	c #B7A37A",
"= 	c #D7BD8D",
"- 	c #8D7D5F",
"; 	c #AA946E",
"> 	c #89754D",
", 	c #857049",
"' 	c #7B673D",
") 	c #8E7953",
"! 	c #B8A279",
"~ 	c #7E6F50",
"{ 	c #A08E6C",
"] 	c #B09C72",
"^ 	c #766340",
"/ 	c #91825F",
"( 	c #A18E69",
"_ 	c #A28A61",
": 	c #E0DAB1",
"< 	c #B29C75",
"[ 	c #7D6D48",
"} 	c #958462",
"| 	c #AE9974",
"1 	c #BCA771",
"2 	c #C0AA75",
"3 	c #AA9670",
"4 	c #94825E",
"5 	c #AE986B",
"6 	c #756140",
"7 	c #E4E4C3",
"8 	c #CAB28A",
"9 	c #CBB791",
"0 	c #D7C19E",
"a 	c #C1AB85",
"b 	c #E1E1B4",
"c 	c #ECECEC",
"d 	c #DBC49A",
"e 	c #BAA379",
"f 	c #DFD2AF",
"g 	c #E1DFB5",
"h 	c #8C7754",
"i 	c #A4926A",
"j 	c #E2E2BB",
"k 	c #E6DACD",
"l 	c #8F8163",
"m 	c #090602",
"n 	c #EAEAE4",
"o 	c #EAEAE5",
"p 	c #EAE9E5",
"q 	c #2C2110",
"r 	c #D8C9AE",
"s 	c #E5E5CA",
"t 	c #E6E6CF",
"u 	c #E3D8BF",
"v 	c #CEBFAA",
"w 	c #D3C19F",
"x 	c #E8E8D9",
"y 	c #0D0702",
"z 	c #DBC79B",
"A 	c #43341B",
"B 	c #271B07",
"C 	c #EAEAE2",
"D 	c #E2D6BA",
"E 	c #050101",
"F 	c #160F04",
"G 	c #E9E9E0",
"H 	c #C4BAA0",
"I 	c #E9E9DE",
"J 	c #B5A279",
"K 	c #DBC596",
"L 	c #DCCA9D",
"M 	c #C9B791",
"N 	c #D3BB92",
"O 	c #A19273",
"P 	c #201B14",
"Q 	c #E7E7D6",
"R 	c #BBA473",
"S 	c #E8E8D7",
"T 	c #7B6645",
"U 	c #DECFAC",
"V 	c #927D52",
"W 	c #86734E",
"X 	c #8C7B58",
"Y 	c #675A41",
"Z 	c #9B8760",
"` 	c #907E5A",
" .	c #CCB488",
"..	c #1D1A14",
"+.	c #DBC798",
"@.	c #83714F",
"#.	c #C4AD84",
"$.	c #534220",
"%.	c #8D7446",
"&.	c #4F4223",
"*.	c #7C6844",
"=.	c #140B04",
"-.	c #988358",
";.	c #7A6948",
">.	c #AD976C",
",.	c #5B4F37",
"'.	c #090502",
").	c #B69F73",
"!.	c #A8946C",
"~.	c #584A2C",
"{.	c #95886A",
"].	c #E1DEB5",
"^.	c #BCA883",
"/.	c #C3B18F",
"(.	c #9F8F6F",
"_.	c #7A6F5C",
":.	c #595140",
"<.	c #A29272",
"[.	c #D1C39F",
"}.	c #BBA885",
"|.	c #CCBA97",
"1.	c #B39C70",
"2.	c #040201",
"3.	c #DFD4AA",
"4.	c #C5B38E",
"5.	c #DECDA6",
"6.	c #8D7D5E",
"7.	c #D9CBAD",
"8.	c #8D7C59",
"9.	c #D5C19F",
"0.	c #D0BD9E",
"a.	c #D1BB97",
"b.	c #D7C69F",
"c.	c #E4DBC6",
"d.	c #D9CBAB",
"e.	c #DACAA6",
"f.	c #CCBB98",
"g.	c #C9B289",
"h.	c #C5B28F",
"i.	c #BBA985",
"j.	c #E1DDB6",
"k.	c #0B0C0C",
"l.	c #BBA377",
"m.	c #433213",
"n.	c #74623E",
"o.	c #8A744B",
"p.	c #98855E",
"q.	c #998156",
"r.	c #A9956A",
"s.	c #957D53",
"t.	c #99845B",
"u.	c #7E6D4A",
"v.	c #837150",
"w.	c #B4A27A",
"x.	c #7D6A49",
"y.	c #94825F",
"z.	c #A4926D",
"A.	c #7D6F4E",
"B.	c #AE9973",
"C.	c #A6987E",
"D.	c #86795A",
"E.	c #8B7853",
"F.	c #7E6A46",
"G.	c #645333",
"H.	c #735E37",
"I.	c #604E2A",
"J.	c #6B5835",
"K.	c #6F5D3A",
"L.	c #6C5D3C",
"M.	c #B19868",
"N.	c #70603E",
"O.	c #695735",
"P.	c #75633C",
"Q.	c #A68F5D",
"R.	c #AD9773",
"S.	c #9E835A",
"T.	c #41361E",
"U.	c #A59160",
"V.	c #6D5A37",
"W.	c #867046",
"X.	c #534327",
"Y.	c #584C2F",
"Z.	c #7B643D",
"`.	c #61512F",
" +	c #826E40",
".+	c #030000",
"++	c #A08759",
"@+	c #8C7646",
"#+	c #4F4025",
"$+	c #514327",
"%+	c #8E7444",
"&+	c #8F794B",
"*+	c #8A764A",
"=+	c #8C7243",
"-+	c #6D5B38",
";+	c #705B32",
">+	c #45371F",
",+	c #1C170F",
"'+	c #A58A54",
")+	c #7D653B",
"!+	c #947A4A",
"~+	c #221B0E",
"{+	c #8E7647",
"]+	c #6F5D35",
"^+	c #9B834A",
"/+	c #261D11",
"(+	c #100C03",
"_+	c #846E3D",
":+	c #64512D",
"<+	c #62532E",
"[+	c #736136",
"}+	c #6E5B35",
"|+	c #756339",
"1+	c #7F673C",
"2+	c #6F5E39",
"3+	c #181309",
"4+	c #0F0A03",
"5+	c #110B0A",
"6+	c #ACADB0",
"7+	c #070401",
"8+	c #130E06",
"9+	c #050201",
"0+	c #120F03",
"a+	c #0B0C0D",
"b+	c #202227",
"c+	c #555962",
"d+	c #39393C",
"                                                                ",
"                                                                ",
"                                                                ",
"                                                                ",
"                                                                ",
"                                                                ",
"                                          . . . . . .           ",
"            . . . . . . .               . . + @ # $ . . . .     ",
"          . . % & * = . .           . . - ; > , ' ' ) ! ~ . .   ",
"          . { ] ^ / ( _ .         . . : < [ } | 1 2 3 4 5 6 .   ",
"          . 7 8 9 0 a b . .       . c d e f g h . . i j k l .   ",
"        . m c c n o p c q .     . r c c s t . . . . . . c u .   ",
"        . c c c v w c x c . .   . c c c c . .         . . y .   ",
"      . . c z c A B C D c E . . F c c c G .               .     ",
"      . H I J K . . L M N O . . P Q R S T .                     ",
"      . U V W X . . Y Z `  .. . ..+.@.#.$..                     ",
"    . . %.&.*.=.. . . -.;.>.,.. '.).` !.~..                     ",
"    . {.].^./.(._.:.<.[.}.|.1.. 2.3.4.5.6..                     ",
"  . . c 7.8.9.0.a.b.c.d.e.f.g.. . s h.i.j.. .         . . . .   ",
"  k.. l.m.n.o.p.q.r.s.t.u.v.w.x.. y.z.A.B.4 . . . . . . C.D..   ",
"  . E.F.G.H.. . . . . . I.J.K.L.. . M.N.O.P.Q.2.. . . R.S.T..   ",
"  . U.V.W.X.. .   . . . Y.Z.`. +.+. . ++@+#+$+%+&+*+=+-+;+>+.   ",
"  ,+'+)+!+~+. .       . . {+]+^+/+. . . (+_+:+<+[+}+|+1+2+3+.   ",
"  . 4+5+. . 6+          . 7+(+8+. .   . . . 9+m 0+4+. . . .     ",
"  a+. b+c+d+            . . . . .         . . . . . . .         ",
"                                                                ",
"                                                                ",
"                                                                ",
"                                                                ",
"                                                                ",
"                                                                ",
"                                                                "};
