/* XPM */
static const char * ac_ext_16_xpm[] = {
"16 16 73 1",
" 	c None",
".	c #000000",
"+	c #1C1810",
"@	c #292418",
"#	c #8C8262",
"$	c #988660",
"%	c #867556",
"&	c #38362C",
"*	c #9A8662",
"=	c #94805B",
"-	c #9C8858",
";	c #A18D66",
">	c #685A3F",
",	c #030201",
"'	c #E2DCC9",
")	c #DED3BE",
"!	c #DED8C2",
"~	c #0B0804",
"{	c #48433A",
"]	c #E8E2D8",
"^	c #D9D0B0",
"/	c #5B5642",
"(	c #625D49",
"_	c #D1C8B7",
":	c #767676",
"<	c #E8E3D8",
"[	c #83745B",
"}	c #E8E5D8",
"|	c #777676",
"1	c #7C7A77",
"2	c #ECECEC",
"3	c #757573",
"4	c #040201",
"5	c #C7BC9F",
"6	c #A8956D",
"7	c #AA9874",
"8	c #B4A07A",
"9	c #807966",
"0	c #BAAA87",
"a	c #342A19",
"b	c #25221A",
"c	c #9E8F68",
"d	c #7C6D52",
"e	c #353027",
"f	c #83765A",
"g	c #AC9874",
"h	c #443B2A",
"i	c #685E48",
"j	c #B7A47E",
"k	c #060606",
"l	c #6A6459",
"m	c #877756",
"n	c #B29E7A",
"o	c #BAA67E",
"p	c #BBAA88",
"q	c #AA9976",
"r	c #7E7053",
"s	c #5E5A4A",
"t	c #A89774",
"u	c #00FF00",
"v	c #4B4436",
"w	c #87734C",
"x	c #6C5936",
"y	c #685633",
"z	c #705E39",
"A	c #0E0C08",
"B	c #504127",
"C	c #2E2516",
"D	c #393A3B",
"E	c #251E12",
"F	c #4B3E22",
"G	c #101114",
"H	c #47494F",
"                ",
"                ",
"                ",
"   ...    .+@.. ",
"  .#$%.  &*=-;>.",
"  ,')!~ {]^/.(_.",
"  :<[}|.123   4 ",
" .56.78.90a     ",
" bcdefghij....  ",
"klmnopqrst.uu.v.",
".wx...yz...uu...",
"ABCD  EF.uuuuuu.",
" GH   ...uuuuuu.",
"        ...uu...",
"          .uu.  ",
"          ....  "};
