/* XPM */
static const char * add_16_xpm[] = {
"16 16 85 1",
" 	c None",
".	c #086200",
"+	c #075F00",
"@	c #086000",
"#	c #2D7722",
"$	c #6E9E65",
"%	c #AFC5AA",
"&	c #075B00",
"*	c #0C6000",
"=	c #4C8A3F",
"-	c #9ABB91",
";	c #9DBE94",
">	c #9FC096",
",	c #055500",
"'	c #065A00",
")	c #3B812B",
"!	c #72A565",
"~	c #77AA6A",
"{	c #78AB6B",
"]	c #77AB6A",
"^	c #045200",
"/	c #1C6C09",
"(	c #5C984D",
"_	c #67A158",
":	c #6BA55C",
"<	c #69A35A",
"[	c #FDFDFD",
"}	c #024900",
"|	c #065600",
"1	c #317D1D",
"2	c #539542",
"3	c #599B48",
"4	c #5C9E4B",
"5	c #FFFFFF",
"6	c #024400",
"7	c #095D00",
"8	c #368223",
"9	c #458D33",
"0	c #489036",
"a	c #4A9238",
"b	c #468E34",
"c	c #023E00",
"d	c #0B6200",
"e	c #348120",
"f	c #388424",
"g	c #023800",
"h	c #2A7B15",
"i	c #2C7D17",
"j	c #023200",
"k	c #095900",
"l	c #1C7205",
"m	c #23790E",
"n	c #267B10",
"o	c #287D12",
"p	c #23780D",
"q	c #022C00",
"r	c #074900",
"s	c #126B00",
"t	c #1B7405",
"u	c #217A0B",
"v	c #247D0E",
"w	c #207809",
"x	c #063600",
"y	c #0B5C00",
"z	c #136D00",
"A	c #1A7403",
"B	c #1E7807",
"C	c #042500",
"D	c #0C4400",
"E	c #186F02",
"F	c #207A09",
"G	c #257F0E",
"H	c #237D0C",
"I	c #062200",
"J	c #134806",
"K	c #247410",
"L	c #2E8817",
"M	c #318B1A",
"N	c #338D1C",
"O	c #061E00",
"P	c #123808",
"Q	c #245D15",
"R	c #337D20",
"S	c #3E9328",
"T	c #081C03",
"     ......     ",
"   +@#$%%$#@+   ",
"  &*=-;>>;-=*&  ",
" ,')!~{]]{~!)', ",
" ^/(_:<[[<:_(/^ ",
"}|123435534321|}",
"67890ab55ba09876",
"cdef[555555[fedc",
"gdhi[555555[ihdg",
"jklmnop55ponmlkj",
"qrstuvw55wvutsrq",
" xyzABA[[ABAzyx ",
" CDEFGGHHGGFEDC ",
"  IJKLMNNMLKJI  ",
"   OPQRSSRQPO   ",
"     TTTTTT     "};
