/* XPM */
static const char * bf_16_xpm[] = {
"16 16 182 2",
"  	c None",
". 	c #52504E",
"+ 	c #63615E",
"@ 	c #706D6A",
"# 	c #6D6A67",
"$ 	c #64625F",
"% 	c #41403E",
"& 	c #4A4846",
"* 	c #716F6C",
"= 	c #7E7B77",
"- 	c #5C5956",
"; 	c #494745",
"> 	c #585653",
", 	c #787572",
"' 	c #777471",
") 	c #474543",
"! 	c #565452",
"~ 	c #807D79",
"{ 	c #1B1B1A",
"] 	c #1A1C1C",
"^ 	c #282A2B",
"/ 	c #30363C",
"( 	c #191D20",
"_ 	c #131313",
": 	c #3F3D3B",
"< 	c #7C7975",
"[ 	c #565451",
"} 	c #73706C",
"| 	c #3F3E3C",
"1 	c #222427",
"2 	c #333E45",
"3 	c #58626A",
"4 	c #817D79",
"5 	c #927D68",
"6 	c #8B7457",
"7 	c #5C4D37",
"8 	c #1F1C17",
"9 	c #2D2B2A",
"0 	c #83807C",
"a 	c #524F4D",
"b 	c #3B3A38",
"c 	c #64615E",
"d 	c #232220",
"e 	c #2F2F2B",
"f 	c #4F4A3F",
"g 	c #83674C",
"h 	c #AD784B",
"i 	c #CC8951",
"j 	c #D29055",
"k 	c #C68A52",
"l 	c #7F5D3D",
"m 	c #251F19",
"n 	c #7A7773",
"o 	c #464442",
"p 	c #393836",
"q 	c #75726F",
"r 	c #383531",
"s 	c #23211F",
"t 	c #433B31",
"u 	c #6C5743",
"v 	c #B07348",
"w 	c #D78C4F",
"x 	c #F6A75B",
"y 	c #F8AA5D",
"z 	c #E9A05A",
"A 	c #AC7C4D",
"B 	c #383529",
"C 	c #262523",
"D 	c #7B7774",
"E 	c #4C4A47",
"F 	c #3C3B39",
"G 	c #272523",
"H 	c #211B16",
"I 	c #594231",
"J 	c #7C5A3F",
"K 	c #AA7348",
"L 	c #CD874C",
"M 	c #E8A057",
"N 	c #EFA65B",
"O 	c #E7A159",
"P 	c #BB864F",
"Q 	c #404032",
"R 	c #21211F",
"S 	c #6F6C69",
"T 	c #363433",
"U 	c #13100D",
"V 	c #392F25",
"W 	c #574533",
"X 	c #7B5C3F",
"Y 	c #775B3F",
"Z 	c #B7804B",
"` 	c #C28A50",
" .	c #C98E50",
"..	c #966F44",
"+.	c #3F3C2D",
"@.	c #252422",
"#.	c #6C6966",
"$.	c #4A4845",
"%.	c #292827",
"&.	c #787471",
"*.	c #3F3D3A",
"=.	c #090808",
"-.	c #1D1B16",
";.	c #362F26",
">.	c #544431",
",.	c #664F36",
"'.	c #76593B",
").	c #765B3D",
"!.	c #745A3D",
"~.	c #645136",
"{.	c #2F2B20",
"].	c #3B3A37",
"^.	c #787571",
"/.	c #3C3A39",
"(.	c #21201F",
"_.	c #504E4C",
":.	c #797672",
"<.	c #141312",
"[.	c #050504",
"}.	c #1C1914",
"|.	c #332A20",
"1.	c #473726",
"2.	c #523F2B",
"3.	c #51402C",
"4.	c #413728",
"5.	c #312B1F",
"6.	c #252321",
"7.	c #676461",
"8.	c #656360",
"9.	c #2F2E2C",
"0.	c #10100F",
"a.	c #030302",
"b.	c #0F0C09",
"c.	c #18140F",
"d.	c #1D1812",
"e.	c #1C1711",
"f.	c #15120E",
"g.	c #1E1D1C",
"h.	c #5F5C5A",
"i.	c #7A7673",
"j.	c #302E2D",
"k.	c #232221",
"l.	c #706E6A",
"m.	c #777470",
"n.	c #42403E",
"o.	c #070707",
"p.	c #0B0B0B",
"q.	c #1A1918",
"r.	c #454342",
"s.	c #6B6865",
"t.	c #6A6865",
"u.	c #2E2D2C",
"v.	c #131312",
"w.	c #545250",
"x.	c #908C88",
"y.	c #54514F",
"z.	c #7C7976",
"A.	c #201F1F",
"B.	c #3E3C3B",
"C.	c #6D6B68",
"D.	c #767370",
"E.	c #878480",
"F.	c #4D4B49",
"G.	c #3F3D3C",
"H.	c #8D8A86",
"I.	c #8B8883",
"J.	c #696663",
"K.	c #43423F",
"L.	c #3A3937",
"M.	c #75726E",
"N.	c #343331",
"O.	c #2D2C2A",
"P.	c #272625",
"Q.	c #252423",
"R.	c #353332",
"S.	c #31302F",
"T.	c #383635",
"U.	c #726F6C",
"V.	c #191918",
"W.	c #1D1C1B",
"X.	c #111010",
"Y.	c #242322",
"          . + @ # $ %           ",
"      & * = - ; ; > , ' )       ",
"    ! ~ & { ] ^ / ( _ : < [     ",
"  & } | 1 2 3 4 5 6 7 8 9 0 a   ",
"b c > d e f g h i j k l m ) n o ",
"p q r s t u v w x y z A B C D E ",
"F = G H I J K L M N O P Q R S E ",
"T n G U V W X Y Z `  ...+.@.#.$.",
"%.&.*.=.-.;.>.,.'.).!.~.{.].^./.",
"(._.:.<.[.}.|.1.2.3.4.5.6.7.8.9.",
"  { = + 0.a.b.c.d.e.f.g.h.i.j.  ",
"    k.l.m.n.0.o.p.q.r.s.t.u.    ",
"      v.w.x.y.    r.z.h.A.      ",
"B.s.C.D.^.E.F.    G.H.I.s.J.S K.",
"L.M.L.N.O.P.      o.Q.R.S.T.U.F.",
"V.W.                        X.Y."};
