/* XPM */
static const char * bf_16_xpm[] = {
"16 16 41 1",
" 	c None",
".	c #D79771",
"+	c #D89E7B",
"@	c #D78758",
"#	c #FBA674",
"$	c #FDB184",
"%	c #FEBA92",
"&	c #FCC2A0",
"*	c #D7AD94",
"=	c #D7773F",
"-	c #FB9457",
";	c #FD9E66",
">	c #FDA875",
",	c #FEC4A1",
"'	c #FECDB0",
")	c #FCD4BD",
"!	c #D7BDAD",
"~	c #000000",
"{	c #DE3116",
"]	c #0A0A0A",
"^	c #FFFFFF",
"/	c #D81B13",
"(	c #171717",
"_	c #E8E8E8",
":	c #DC1B13",
"<	c #161616",
"[	c #EE6213",
"}	c #EA6113",
"|	c #CD4111",
"1	c #F86714",
"2	c #E15D12",
"3	c #E05C12",
"4	c #D55811",
"5	c #C41911",
"6	c #E41D14",
"7	c #E51D14",
"8	c #E51E14",
"9	c #F76614",
"0	c #D45811",
"a	c #C31911",
"b	c #C41A11",
"       .+       ",
"     @#$%&*     ",
"   =-;>$%,')!   ",
" ~~~~~~~~~~~~~~ ",
"{]^^^^^~^^^^^^^~",
"/~(^~~^^~^^~~_^~",
"/:<^~~^^~^^~~~~~",
"/:<^^^^~~^^^^<[}",
"/:<^~~^^~^^~~~[}",
"/:<^~~^^~^^~|11}",
"/~(^~~^^~^^~~21}",
"/]^^^^^~^^^^~21}",
" ~~~~~~~~~~~~34 ",
"   5677811190   ",
"     a68190     ",
"       b0       "};
