/* XPM */
static const char * bf_ext_16_xpm[] = {
"16 16 38 1",
" 	c None",
".	c #D79771",
"+	c #D89E7B",
"@	c #D78758",
"#	c #FBA674",
"$	c #FDB184",
"%	c #FEBA92",
"&	c #FCC2A0",
"*	c #D7AD94",
"=	c #D7773F",
"-	c #FB9457",
";	c #FD9E66",
">	c #FDA875",
",	c #FEC4A1",
"'	c #FECDB0",
")	c #FCD4BD",
"!	c #D7BDAD",
"~	c #000000",
"{	c #DE3116",
"]	c #0A0A0A",
"^	c #FFFFFF",
"/	c #D81B13",
"(	c #171717",
"_	c #E8E8E8",
":	c #DC1B13",
"<	c #161616",
"[	c #EE6213",
"}	c #EA6113",
"|	c #00FF00",
"1	c #F86714",
"2	c #C41911",
"3	c #E41D14",
"4	c #E51D14",
"5	c #E51E14",
"6	c #C31911",
"7	c #F76614",
"8	c #C41A11",
"9	c #D45811",
"       .+       ",
"     @#$%&*     ",
"   =-;>$%,')!   ",
" ~~~~~~~~~~~~~~ ",
"{]^^^^^~^^^^^^^~",
"/~(^~~^^~^^~~_^~",
"/:<^~~^^~^^~~~~~",
"/:<^^^^~~^^^^<[}",
"/:<^~~^^~^~~~~[}",
"/:<^~~^^~^~||~1}",
"/~(^~~^^~~~||~~~",
"/]^^^^^~~||||||~",
" ~~~~~~~~||||||~",
"   23445~~~||~~~",
"     63517~||~  ",
"       89 ~~~~  "};
