/* XPM */
static char * close_high_14_xpm[] = {
"14 14 139 2",
"  	c None",
". 	c #E9B8B2",
"+ 	c #E54D50",
"@ 	c #E4363A",
"# 	c #E44448",
"$ 	c #E99E9B",
"% 	c #EA5B5E",
"& 	c #FFCED3",
"* 	c #FFE4EA",
"= 	c #FFE3E8",
"- 	c #FFD6DB",
"; 	c #EA5A5C",
"> 	c #E8928F",
", 	c #E55152",
"' 	c #FAA5AF",
") 	c #FBAEB8",
"! 	c #FAACB6",
"~ 	c #FAA9B5",
"{ 	c #FAAAB6",
"] 	c #FBADB7",
"^ 	c #FAACB7",
"/ 	c #E53F44",
"( 	c #E43B3F",
"_ 	c #FAA5B3",
": 	c #F89EAA",
"< 	c #F696A4",
"[ 	c #FBAAB5",
"} 	c #F79BA8",
"| 	c #F79CA9",
"1 	c #F89FAC",
"2 	c #F8A3AF",
"3 	c #E95A5E",
"4 	c #E53B3F",
"5 	c #F697A5",
"6 	c #FFF1F3",
"7 	c #FFFFFF",
"8 	c #FBACB6",
"9 	c #F697A4",
"0 	c #F8A1AD",
"a 	c #F8A1AE",
"b 	c #F8A4B2",
"c 	c #EA565C",
"d 	c #D33A3A",
"e 	c #FAA3AF",
"f 	c #F89CA8",
"g 	c #FAA9B3",
"h 	c #F29AA4",
"i 	c #EF6176",
"j 	c #FA96A3",
"k 	c #DD595B",
"l 	c #BB3635",
"m 	c #FC9EA9",
"n 	c #F897A1",
"o 	c #F6939F",
"p 	c #E8A6A8",
"q 	c #CF8489",
"r 	c #DF2539",
"s 	c #EE2744",
"t 	c #F12541",
"u 	c #C9373E",
"v 	c #A63130",
"w 	c #FD9298",
"x 	c #F88D92",
"y 	c #F88D91",
"z 	c #F7858A",
"A 	c #FFFDFB",
"B 	c #E94C57",
"C 	c #FA2841",
"D 	c #FC3148",
"E 	c #FF3148",
"F 	c #BC363A",
"G 	c #922D2A",
"H 	c #FF858A",
"I 	c #F88084",
"J 	c #F88385",
"K 	c #FFF8F7",
"L 	c #FFFDFC",
"M 	c #FF5A69",
"N 	c #FF3143",
"O 	c #FF3648",
"P 	c #B13535",
"Q 	c #7F2823",
"R 	c #FF7376",
"S 	c #F87071",
"T 	c #F36C70",
"U 	c #E8E0E1",
"V 	c #F8FDFC",
"W 	c #C5777E",
"X 	c #C0484E",
"Y 	c #F3F7F6",
"Z 	c #F1F7F6",
"` 	c #F35A64",
" .	c #FF3144",
"..	c #A1302E",
"+.	c #7B2923",
"@.	c #FF6163",
"#.	c #FA5F60",
"$.	c #E94051",
"%.	c #B1313A",
"&.	c #BE7377",
"*.	c #E4253B",
"=.	c #C0525A",
"-.	c #B25059",
";.	c #FB2D3E",
">.	c #FF3647",
",.	c #A1312E",
"'.	c #853B36",
").	c #F3404D",
"!.	c #F84050",
"~.	c #E12748",
"{.	c #DA2248",
"].	c #DF2443",
"^.	c #EE2748",
"/.	c #FC2C48",
"(.	c #FF2D44",
"_.	c #FF3649",
":.	c #832C29",
"<.	c #BF968E",
"[.	c #953129",
"}.	c #FF433E",
"|.	c #FF5F3A",
"1.	c #FC643A",
"2.	c #FF673A",
"3.	c #FF693A",
"4.	c #FF6A3A",
"5.	c #FF6D39",
"6.	c #FF6C3B",
"7.	c #B6412E",
"8.	c #AD7B72",
"9.	c #B68881",
"0.	c #7E332D",
"a.	c #9F372E",
"b.	c #9C372D",
"c.	c #9C3A2D",
"d.	c #9E372D",
"e.	c #A03B2A",
"f.	c #A13A2A",
"g.	c #A43B2A",
"h.	c #832829",
"  . + @ @ @ @ @ @ @ @ # $   ",
". % & * = = = = = = * - ; > ",
", ' ) ! ! ~ ! ! { { ! ] ^ / ",
"( _ : : < [ } | 1 1 | : 2 3 ",
"4 _ 1 5 6 7 8 9 7 7 0 a b c ",
"d e f g 7 7 7 7 7 7 h i j k ",
"l m n o p 7 7 7 7 q r s t u ",
"v w x y z A 7 7 7 B C D E F ",
"G H I J K 7 7 L 7 7 M N O P ",
"Q R S T U V W X Y Z `  .O ..",
"+.@.#.$.%.&.*.C =.-.;.>.O ,.",
"'.).!.~.{.].^./.(.(.E E _.:.",
"<.[.}.|.1.2.3.4.5.5.5.6.7.8.",
"  9.0.a.b.c.d.e.f.f.g.h.8.  "};
