/* XPM */
static const char * connect_pw_16_xpm[] = {
"16 16 74 1",
" 	c None",
".	c #FFFFFF",
"+	c #BE9186",
"@	c #791903",
"#	c #761600",
"$	c #893623",
"%	c #F4EDEC",
"&	c #701500",
"*	c #AF7A6D",
"=	c #E9D9D5",
"-	c #883A28",
";	c #BE9288",
">	c #AE7C70",
",	c #6A1400",
"'	c #924738",
")	c #BF8379",
"!	c #C88F88",
"~	c #AE6B60",
"{	c #8C402E",
"]	c #974E3F",
"^	c #661300",
"/	c #AD6357",
"(	c #B97367",
"_	c #B87166",
":	c #7C2918",
"<	c #641300",
"[	c #5E1400",
"}	c #601200",
"|	c #AC5448",
"1	c #6A1504",
"2	c #5C1600",
"3	c #D1A19B",
"4	c #AC584A",
"5	c #A03D30",
"6	c #620E00",
"7	c #CD9A93",
"8	c #942516",
"9	c #982B1C",
"0	c #5D0C01",
"a	c #942314",
"b	c #481100",
"c	c #4A1000",
"d	c #4C0E00",
"e	c #500D00",
"f	c #911E0F",
"g	c #5C1206",
"h	c #4A0A00",
"i	c #871B0D",
"j	c #601408",
"k	c #480A00",
"l	c #3D0901",
"m	c #701D12",
"n	c #A03324",
"o	c #AA3728",
"p	c #8F2F1F",
"q	c #6B1C11",
"r	c #3A0800",
"s	c #CDC4C3",
"t	c #3F0A03",
"u	c #863328",
"v	c #C4584A",
"w	c #5D1C13",
"x	c #984132",
"y	c #863528",
"z	c #6A443E",
"A	c #6C4C48",
"B	c #3D0D05",
"C	c #400E06",
"D	c #491C15",
"E	c #320902",
"F	c #FEFEFE",
"G	c #F1F1F1",
"H	c #D4D4D4",
"I	c #DFDFDF",
"    .  .  .     ",
" .   . . .   .  ",
"  .  +@##$  .   ",
"   %&*=-;=*>    ",
"   ,')!~{!)]    ",
"   ^/((_:((/<   ",
"[[[}||||1|||}[[2",
"3333455565557333",
"888899990999a888",
"bcdeffffgfffedcb",
"   hifffjffik   ",
"   lmnopqonmr   ",
"   stuvwxvyz    ",
"  .  ABCCDE F   ",
" .   G H I   .  ",
"    .  .  .     "};
