/* XPM */
static const char * connect_16_xpm[] = {
"16 16 77 1",
" 	c None",
".	c #FFFFFF",
"+	c #99BE86",
"@	c #2A7803",
"#	c #277600",
"$	c #458923",
"%	c #EEF4EB",
"&	c #246F00",
"*	c #83AF6D",
"=	c #DBE9D4",
"-	c #488828",
";	c #9ABE88",
">	c #84AE70",
",	c #226900",
"'	c #579238",
")	c #94BF79",
"!	c #A1C887",
"~	c #7DAE60",
"{	c #4E8C2E",
"]	c #5D963F",
"^	c #216600",
"/	c #77AD57",
"(	c #86B966",
"_	c #85B865",
":	c #3B7C18",
"<	c #206400",
"[	c #1C5D00",
"}	c #1D5E00",
"|	c #1F6000",
"1	c #6FAB48",
"2	c #286904",
"3	c #1B5C00",
"4	c #B0D19A",
"5	c #70AC4A",
"6	c #5CA030",
"7	c #256100",
"8	c #A9CD92",
"9	c #479416",
"0	c #4C971C",
"a	c #255C01",
"b	c #469414",
"c	c #144700",
"d	c #164900",
"e	c #194C00",
"f	c #1D5000",
"g	c #42910F",
"h	c #275B06",
"i	c #1C4F00",
"j	c #1C4A00",
"k	c #3D870D",
"l	c #42900F",
"m	c #2A6008",
"n	c #1B4700",
"o	c #183D01",
"p	c #377012",
"q	c #55A024",
"r	c #5BAA28",
"s	c #4A8F1F",
"t	c #346A11",
"u	c #163A00",
"v	c #C6CDC2",
"w	c #1A3E03",
"x	c #4D8628",
"y	c #79C449",
"z	c #305D13",
"A	c #599732",
"B	c #4C8528",
"C	c #4E693E",
"D	c #566C48",
"E	c #1A3C05",
"F	c #1C3F06",
"G	c #284815",
"H	c #143102",
"I	c #FEFEFE",
"J	c #F1F1F1",
"K	c #D4D4D4",
"L	c #DFDFDF",
"    .  .  .     ",
" .   . . .   .  ",
"  .  +@##$  .   ",
"   %&*=-;=*>    ",
"   ,')!~{!)]    ",
"   ^/((_:((/<   ",
"[[}|11112111|}[3",
"4444566676668444",
"99990000a000b999",
"cdefgggghgggiedc",
"   jkgglmggkn   ",
"   opqrstrqpu   ",
"   vwxyzAyBC    ",
"  .  DEFFGH I   ",
" .   J K L   .  ",
"    .  .  .     "};
