/* XPM */
static char * csl_32_xpm[] = {
"32 32 241 2",
"  	c None",
". 	c #BA8464",
"+ 	c #BB8769",
"@ 	c #BA7D59",
"# 	c #F6AA7C",
"$ 	c #FDB387",
"% 	c #FEB88F",
"& 	c #F7B792",
"* 	c #BA8E73",
"= 	c #BA764E",
"- 	c #F6A16E",
"; 	c #FDAA78",
"> 	c #FDAE80",
", 	c #FEBC96",
"' 	c #FEC19D",
") 	c #F7C0A0",
"! 	c #BA947E",
"~ 	c #BA7043",
"{ 	c #F69760",
"] 	c #FDA06A",
"^ 	c #FDA571",
"/ 	c #FEC6A5",
"( 	c #FECAAC",
"_ 	c #F7C9AE",
": 	c #BA9A88",
"< 	c #BA6939",
"[ 	c #F68F52",
"} 	c #FD985B",
"| 	c #FD9C62",
"1 	c #F89C67",
"2 	c #AA6F4C",
"3 	c #5A3C2A",
"4 	c #271B14",
"5 	c #0E0A07",
"6 	c #020201",
"7 	c #0C0907",
"8 	c #291F19",
"9 	c #5F4A3E",
"0 	c #B48F7A",
"a 	c #FDCEB2",
"b 	c #FED4BB",
"c 	c #F7D2BC",
"d 	c #BAA193",
"e 	c #BB622E",
"f 	c #F68643",
"g 	c #FD8E4C",
"h 	c #FD9254",
"i 	c #B97247",
"j 	c #21150E",
"k 	c #000000",
"l 	c #322923",
"m 	c #D3B09B",
"n 	c #FED8C2",
"o 	c #FEDDCA",
"p 	c #F7DBCB",
"q 	c #B9A89D",
"r 	c #BB5C23",
"s 	c #F67D35",
"t 	c #FD843E",
"u 	c #FD8A45",
"v 	c #9B5D38",
"w 	c #010100",
"x 	c #0C0A09",
"y 	c #C4A695",
"z 	c #FEE2D1",
"A 	c #FEE6D8",
"B 	c #F6E4D9",
"C 	c #B9AEA8",
"D 	c #BB5518",
"E 	c #F67327",
"F 	c #FD7C2F",
"G 	c #FD8036",
"H 	c #CD7644",
"I 	c #030201",
"J 	c #221710",
"K 	c #99684B",
"L 	c #DB7E4A",
"M 	c #EF7358",
"N 	c #EEAE8A",
"O 	c #B78B71",
"P 	c #392D25",
"Q 	c #14110F",
"R 	c #E8C9B8",
"S 	c #FEEBE0",
"T 	c #FEF0E7",
"U 	c #F6EDE7",
"V 	c #B9B5B2",
"W 	c #CC2D13",
"X 	c #F65D1D",
"Y 	c #FD7728",
"Z 	c #53301B",
"` 	c #322016",
" .	c #ED8448",
"..	c #F86D1D",
"+.	c #F86514",
"@.	c #E51D14",
"#.	c #E72C20",
"$.	c #F37A62",
"%.	c #F8BD9E",
"&.	c #42352D",
"*.	c #71625A",
"=.	c #FEF4EE",
"-.	c #FCD8C3",
";.	c #D6804E",
">.	c #C91911",
",.	c #EB3319",
"'.	c #F76529",
").	c #FD8037",
"!.	c #100905",
"~.	c #C35516",
"{.	c #F86714",
"].	c #F9762B",
"^.	c #FC9D66",
"/.	c #F78B6B",
"(.	c #EA3E2F",
"_.	c #E72C21",
":.	c #C26555",
"<.	c #211D1A",
"[.	c #FDD1B8",
"}.	c #FA8C4C",
"|.	c #DA5A11",
"1.	c #EB351D",
"2.	c #F76C34",
"3.	c #FD9152",
"4.	c #FB823C",
"5.	c #F86C1B",
"6.	c #F97428",
"7.	c #FC965C",
"8.	c #FCA373",
"9.	c #ED4121",
"0.	c #DF1C13",
"a.	c #030303",
"b.	c #FDCAAB",
"c.	c #FA8948",
"d.	c #EB3720",
"e.	c #F87231",
"f.	c #F86B1A",
"g.	c #F97225",
"h.	c #FC9052",
"i.	c #FC9F69",
"j.	c #F97731",
"k.	c #EE3F14",
"l.	c #AD150F",
"m.	c #180D0B",
"n.	c #FA8644",
"o.	c #F25214",
"p.	c #F66D34",
"q.	c #FA8541",
"r.	c #BF1810",
"s.	c #1B0302",
"t.	c #641508",
"u.	c #E62014",
"v.	c #EB3E27",
"w.	c #F88154",
"x.	c #FDAE7F",
"y.	c #FB9A62",
"z.	c #F8732A",
"A.	c #90250C",
"B.	c #090100",
"C.	c #D92E12",
"D.	c #EC402A",
"E.	c #F8885F",
"F.	c #ECAA83",
"G.	c #4E3121",
"H.	c #C31811",
"I.	c #EA3214",
"J.	c #EC432F",
"K.	c #D47B5A",
"L.	c #330604",
"M.	c #CF1A12",
"N.	c #D31A12",
"O.	c #190302",
"P.	c #6B3E23",
"Q.	c #ED6131",
"R.	c #E82D19",
"S.	c #DA5B11",
"T.	c #640C08",
"U.	c #060302",
"V.	c #A36744",
"W.	c #FA9254",
"X.	c #F87E37",
"Y.	c #F7681B",
"Z.	c #1E0302",
"`.	c #945530",
" +	c #FA9559",
".+	c #F87429",
"++	c #F76414",
"@+	c #F9874A",
"#+	c #EC574D",
"$+	c #E51E14",
"%+	c #010000",
"&+	c #E4671F",
"*+	c #F96C1C",
"=+	c #EC371A",
"-+	c #ED5B4B",
";+	c #FCE1DB",
">+	c #FEECE1",
",+	c #F8B7A9",
"'+	c #EC5246",
")+	c #E31C13",
"!+	c #F76613",
"~+	c #F97223",
"{+	c #FC7F36",
"]+	c #FD7F35",
"^+	c #FD7526",
"/+	c #F76116",
"(+	c #E6251C",
"_+	c #F0796F",
":+	c #FCD2C2",
"<+	c #FEDBC7",
"[+	c #F8AA94",
"}+	c #EC4D3E",
"|+	c #E62015",
"1+	c #FC8C4B",
"2+	c #FD904F",
"3+	c #FA7223",
"4+	c #F86815",
"5+	c #E6251B",
"6+	c #F07163",
"7+	c #FCC2AA",
"8+	c #F89C7F",
"9+	c #EC4A36",
"0+	c #F97B32",
"a+	c #FC9A60",
"b+	c #FD9456",
"c+	c #FA7A2F",
"d+	c #F86816",
"e+	c #C71911",
"f+	c #E6241A",
"g+	c #F06A57",
"h+	c #FA813B",
"i+	c #F86917",
"j+	c #D85A11",
"k+	c #AB160F",
"l+	c #F26514",
"m+	c #BB4E0F",
"n+	c #AA160F",
"o+	c #BA4E0F",
"p+	c #BA4D0F",
"q+	c #E52014",
"r+	c #AB190F",
"                              . +                               ",
"                          @ # $ % & *                           ",
"                      = - ; > $ % , ' ) !                       ",
"                  ~ { ] ^ ; > $ % , ' / ( _ :                   ",
"              < [ } | 1 2 3 4 5 6 7 8 9 0 a b c d               ",
"          e f g h } i j k k k k k k k k k l m n o p q           ",
"      r s t u g h v w k k k k k k k k k k k x y o z A B C       ",
"  D E F G t u g H I k k k J K L M N O P k k k Q R z A S T U V   ",
"W X Y F G t u g Z k k k `  ...+.@.#.$.%.&.k k k *.z A S T =.-.;.",
">.@.,.'.).t u g !.k k k ~.{.].^./.(.@._.:.k k k <.z A S [.}.{.|.",
">.@.@.@.1.2.u g 3.4.5.{.6.7.> $ % 8.9.@.0.k k k a.z b.c.{.{.{.|.",
">.@.@.@.@.@.d.e.f.{.g.h.^ ; > i.j.{.k.@.l.k k k m.n.{.{.{.{.{.|.",
">.@.@.@.@.@.@.o.{.p.| ] ^ ; q.{.{.{.k.r.s.k k k t.{.{.{.{.{.{.|.",
">.@.@.@.@.@.@.o.{.u.v.w.^ ; x.y.z.{.A.B.k k k s.C.{.{.{.{.{.{.|.",
">.@.@.@.@.@.@.o.{.u.@.@.D.E.> $ F.G.k k k k s.H.I.{.{.{.{.{.{.|.",
">.@.@.@.@.@.@.o.{.u.@.@.@.@.J.K.j k k k k L.M.@.I.{.{.{.{.{.{.|.",
">.@.@.@.@.@.@.o.{.u.@.@.@.@.N.O.k k k k P.Q.R.@.I.{.{.{.{.{.{.S.",
">.@.@.@.@.@.@.o.{.u.@.@.@.@.T.k k k U.V.W.X.Y.@.I.{.{.{.{.{.{.S.",
">.@.@.@.@.@.@.o.{.u.@.@.@.@.Z.k k k `. +.+{.++@.I.{.{.{.{.{.{.S.",
">.@.@.@.@.@.@.o.@+#+$+@.@.@.%+k k k &+{.{.{.*+=+I.{.{.{.{.{.{.S.",
">.@.@.@.@.@.@.-+;+>+,+'+@.)+k k k k !+{.~+{+]+^+/+{.{.{.{.{.{.S.",
">.@.@.@.@.@.@.@.(+_+:+<+[+}+@.|+{.{.].1+2+t 3+4+{.{.{.{.{.{.{.S.",
">.@.@.@.@.@.@.@.@.@.5+6+7+( 8+9+0+a+] b+c+d+{.{.{.{.{.{.{.{.{.S.",
"e+@.@.@.@.@.@.@.@.@.@.@.f+g+k k k k h+i+{.{.{.{.{.{.{.{.{.{.{.j+",
"  k+0.@.@.@.@.@.@.@.@.@.@.@.k k k k {.{.{.{.{.{.{.{.{.{.{.l+m+  ",
"      k+0.@.@.@.@.@.@.@.@.@.k k k k {.{.{.{.{.{.{.{.{.l+m+      ",
"          k+0.@.@.@.@.@.@.@.k k k k {.{.{.{.{.{.{.l+m+          ",
"              k+0.@.@.@.@.@.@.u.{.{.{.{.{.{.{.l+m+              ",
"                  n+0.@.@.@.@.u.{.{.{.{.{.l+o+                  ",
"                      k+0.@.@.u.{.{.{.l+p+                      ",
"                          k+0.q+{.l+o+                          ",
"                              r+m+                              "};
