/* XPM */
static const char * csl_22_xpm[] = {
"24 24 63 1",
" 	c None",
".	c #00D300",
"+	c #0FF200",
"@	c #1BF204",
"#	c #24D911",
"$	c #00D900",
"%	c #00EB00",
"&	c #00F200",
"*	c #2BF815",
"=	c #39F824",
"-	c #43DF31",
";	c #4DF239",
">	c #59F848",
",	c #5EDF52",
"'	c #67F859",
")	c #7CF86E",
"!	c #80DF7A",
"~	c #001E00",
"{	c #00AB00",
"]	c #24E507",
"^	c #8CF882",
"/	c #A4F89B",
"(	c #ADDFA8",
"_	c #002300",
":	c #006700",
"<	c #00A600",
"[	c #00DF00",
"}	c #00B500",
"|	c #009600",
"1	c #44EB27",
"2	c #76F269",
"3	c #008A00",
"4	c #00A400",
"5	c #00E500",
"6	c #0CF200",
"7	c #00B900",
"8	c #009400",
"9	c #0CAB00",
"0	c #5AEB44",
"a	c #5CF24D",
"b	c #00CD00",
"c	c #00C800",
"d	c #00BE00",
"e	c #00B100",
"f	c #009900",
"g	c #009F00",
"h	c #00A800",
"i	c #009B00",
"j	c #07D900",
"k	c #00C200",
"l	c #15AB00",
"m	c #039F00",
"n	c #57C821",
"o	c #5CD93F",
"p	c #14AD00",
"q	c #009D00",
"r	c #32C200",
"s	c #2CDF0C",
"t	c #001100",
"u	c #008C00",
"v	c #0CCD00",
"w	c #003100",
"x	c #008E00",
"                        ",
"                        ",
"          .+@#          ",
"        $%&+@*=-        ",
"      $%&%&+@*=;>,      ",
"    $%&%&%&+@*=;>')!    ",
" ~.&&%&%&%%.{]=;>')^/(_ ",
" :<[&%&%%$.[}|{1>')^2$3 ",
" :||4[5$.[&6.7|890a$bb3 ",
" :||||cd%%%$be|||fbbbb3 ",
" :||||cgh[&%b7|||fbbbb3 ",
" :||||ci||h$jc<f|fbbbb3 ",
" :||||ci|||ibb$c4fbbbb3 ",
" :||||ci|||ib[[k}fbbbb3 ",
" :||||clf||ib$b.$<bbbb3 ",
" :||||mnop|ib..%%.bbbb3 ",
" :||||||qrs}[&%$bbbbbb3 ",
" tu|||||||gv%.bbbbbbb}w ",
"   8u||||||ibbbbbbb}b   ",
"     fu||||ibbbbb7b     ",
"       8x||ibbb7$       ",
"         ixfbdb         ",
"           |.           ",
"                        "};
