/* XPM */
static const char * csl_16_xpm[] = {
"16 16 73 1",
" 	c None",
".	c #77D669",
"+	c #7FD873",
"@	c #64D055",
"#	c #92DE87",
"$	c #9FE295",
"%	c #ACE6A3",
"&	c #B3E8AB",
"*	c #90DE85",
"=	c #52CB40",
"-	c #7CD86F",
";	c #89DB7E",
">	c #95DF8A",
",	c #B7E9B0",
"'	c #C1ECBB",
")	c #C8EEC3",
"!	c #A4E49B",
"~	c #44BC33",
"{	c #67D158",
"]	c #74D566",
"^	c #7ED871",
"/	c #96DF8C",
"(	c #CCF0C7",
"_	c #D6F3D2",
":	c #DFF5DC",
"<	c #B6E9AE",
"[	c #2F8223",
"}	c #46C235",
"|	c #81D974",
"1	c #5CCE4B",
"2	c #399E2B",
"3	c #AAE5A2",
"4	c #E2F6DF",
"5	c #C5EDC0",
"6	c #6AD25B",
"7	c #25661B",
"8	c #276C1D",
"9	c #328B26",
"0	c #54CC43",
"a	c #5DCE4D",
"b	c #56CC45",
"c	c #99E08F",
"d	c #75D568",
"e	c #2E8023",
"f	c #29711E",
"g	c #4CC93A",
"h	c #A3E39A",
"i	c #6ED360",
"j	c #47C635",
"k	c #43BB32",
"l	c #338D26",
"m	c #41B431",
"n	c #93DE89",
"o	c #49C837",
"p	c #3DA82D",
"q	c #379A29",
"r	c #85DA79",
"s	c #42B631",
"t	c #29721F",
"u	c #276E1D",
"v	c #66D156",
"w	c #318825",
"x	c #42B732",
"y	c #286F1E",
"z	c #63D053",
"A	c #3BA32C",
"B	c #86DB7A",
"C	c #9CE192",
"D	c #3DA92E",
"E	c #47C435",
"F	c #215C19",
"G	c #318724",
"H	c #225E19",
"       .+       ",
"     @#$%&*     ",
"   =-;>$%,')!   ",
" ~{]^;>>/,'(_:< ",
"[}{]^|{12}3(_456",
"7890ab+cdefghijk",
"788lm@n]oe88pjjk",
"788lq8qdrst8pjjk",
"788lq88uj-vwpjjk",
"788lx88yjzoApjjk",
"788[BCDyj0{bEjjk",
"788889i+rigjjjjk",
" F88888G=jjjjED ",
"   F888ujjjED   ",
"     F8ujED     ",
"       HD       "};
