/* XPM */
static char * delete_16_xpm[] = {
"16 16 86 1",
" 	c None",
".	c #900000",
"+	c #8B0000",
"@	c #8C0000",
"#	c #9C2323",
"$	c #B66666",
"%	c #D1ABAB",
"&	c #860000",
"*	c #8B0101",
"=	c #AA4040",
"-	c #CD9292",
";	c #D09595",
">	c #D29797",
",	c #7E0000",
"'	c #850000",
")	c #A52D2D",
"!	c #BF6767",
"~	c #C46C6C",
"{	c #C76F6F",
"]	c #C87070",
"^	c #7B0000",
"/	c #950D0D",
"(	c #B74F4F",
"_	c #BF5A5A",
":	c #C35E5E",
"<	c #C56060",
"[	c #C66161",
"}	c #6D0000",
"|	c #7F0000",
"1	c #A42020",
"2	c #B64545",
"3	c #BC4B4B",
"4	c #BF4E4E",
"5	c #C15050",
"6	c #650000",
"7	c #870000",
"8	c #A82626",
"9	c #B23636",
"0	c #B43939",
"a	c #B73B3B",
"b	c #5C0000",
"c	c #8F0000",
"d	c #A92424",
"e	c #AB2828",
"f	c #FDFDFD",
"g	c #FFFFFF",
"h	c #540000",
"i	c #A51818",
"j	c #A71B1B",
"k	c #4B0000",
"l	c #810000",
"m	c #9E0909",
"n	c #A41111",
"o	c #A71313",
"p	c #A91616",
"q	c #420000",
"r	c #6B0000",
"s	c #990000",
"t	c #A10909",
"u	c #A70F0F",
"v	c #AA1212",
"w	c #AC1414",
"x	c #4F0000",
"y	c #9B0000",
"z	c #A20707",
"A	c #A60B0B",
"B	c #A80D0D",
"C	c #A90E0E",
"D	c #350000",
"E	c #610101",
"F	c #9B0606",
"G	c #AD1212",
"H	c #B01515",
"I	c #B11616",
"J	c #310000",
"K	c #640808",
"L	c #9D1313",
"M	c #B61B1B",
"N	c #B91E1E",
"O	c #BB2020",
"P	c #2B0101",
"Q	c #4C0A0A",
"R	c #7A1818",
"S	c #A32424",
"T	c #BF2C2C",
"U	c #270404",
"     ......     ",
"   +@#$%%$#@+   ",
"  &*=-;>>;-=*&  ",
" ,')!~{]]{~!)', ",
" ^/(_:<[[<:_(/^ ",
"}|123455554321|}",
"67890aaaaaa09876",
"bcdefggggggfedcb",
"hcijfggggggfjich",
"klmnopppppponmlk",
"qrstuvwwwwvutsrq",
" x'yzABCCBAzy'x ",
" DEFBGHIIHGBFED ",
"  JKLMNOONMLKJ  ",
"   PQRSTTSRQP   ",
"     UUUUUU     "};
