/* XPM */
static const char * extinfo_mini_16_xpm[] = {
"16 16 89 1",
" 	c None",
".	c #9F9F9F",
"+	c #9C9C9C",
"@	c #A3A3A3",
"#	c #939393",
"$	c #C7C7C7",
"%	c #C0C0C0",
"&	c #8D8D8D",
"*	c #888888",
"=	c #B9B9B9",
"-	c #B2B2B2",
";	c #838383",
">	c #7E7E7E",
",	c #ABABAB",
"'	c #A5A5A5",
")	c #7B7B7B",
"!	c #DEC468",
"~	c #DEC058",
"{	c #DEBF54",
"]	c #E0C66E",
"^	c #747474",
"/	c #9E9E9E",
"(	c #989898",
"_	c #727272",
":	c #D7AE4B",
"<	c #F3D58F",
"[	c #F2D286",
"}	c #D7AC45",
"|	c #6A6A6A",
"1	c #8C8C8C",
"2	c #6C6C6C",
"3	c #D2A340",
"4	c #F2D178",
"5	c #F1CE71",
"6	c #D2A33E",
"7	c #646464",
"8	c #8A8A8A",
"9	c #545454",
"0	c #CD9637",
"a	c #F2D262",
"b	c #F1CF5B",
"c	c #CE9738",
"d	c #5F5F5F",
"e	c #737373",
"f	c #606060",
"g	c #505050",
"h	c #CD5F5F",
"i	c #C54747",
"j	c #C34343",
"k	c #CD6767",
"l	c #CA8E30",
"m	c #F1D04D",
"n	c #F0CF4A",
"o	c #CB9135",
"p	c #525252",
"q	c #656565",
"r	c #535353",
"s	c #B53333",
"t	c #CC5A5A",
"u	c #C85454",
"v	c #B43434",
"w	c #C68620",
"x	c #F1CC1F",
"y	c #F1C90D",
"z	c #C78511",
"A	c #555555",
"B	c #696969",
"C	c #565656",
"D	c #AA0C0C",
"E	c #CE0000",
"F	c #CC0000",
"G	c #A81010",
"H	c #C37F13",
"I	c #F2D300",
"J	c #C58117",
"K	c #585858",
"L	c #6F6F6F",
"M	c #6E6E6E",
"N	c #595959",
"O	c #932323",
"P	c #A71313",
"Q	c #A61414",
"R	c #922424",
"S	c #AF5829",
"T	c #C27D1A",
"U	c #C37A1B",
"V	c #AE552A",
"W	c #575757",
"X	c #4D4D4D",
"                ",
"                ",
"            ..+@",
"            #$%&",
"            *=-;",
"            >,')",
"      !~{]  ^/(_",
"      :<[}  |#12",
"      3456  78;9",
"      0abc  defg",
"hijk  lmno  pqqr",
"stuv  wxyz  A|BC",
"DEFG  HIIJ  KLMN",
"OPQR  STUV  gWWX",
"                ",
"                "};
