/* XPM */
static const char * extinfo_micro_16_xpm[] = {
"16 16 79 1",
" 	c None",
".	c #9F9F9F",
"+	c #9C9C9C",
"@	c #A3A3A3",
"#	c #939393",
"$	c #C7C7C7",
"%	c #C0C0C0",
"&	c #8D8D8D",
"*	c #888888",
"=	c #B9B9B9",
"-	c #B2B2B2",
";	c #838383",
">	c #7E7E7E",
",	c #ABABAB",
"'	c #A5A5A5",
")	c #7B7B7B",
"!	c #9B9B9B",
"~	c #999999",
"{	c #A7A7A7",
"]	c #747474",
"^	c #9E9E9E",
"/	c #989898",
"(	c #727272",
"_	c #919191",
":	c #C1C1C1",
"<	c #BCBCBC",
"[	c #8E8E8E",
"}	c #6A6A6A",
"|	c #8C8C8C",
"1	c #6C6C6C",
"2	c #898989",
"3	c #B5B5B5",
"4	c #B1B1B1",
"5	c #646464",
"6	c #8A8A8A",
"7	c #545454",
"8	c #828282",
"9	c #AAAAAA",
"0	c #A6A6A6",
"a	c #5F5F5F",
"b	c #737373",
"c	c #606060",
"d	c #505050",
"e	c #CD5F5F",
"f	c #C54747",
"g	c #C34343",
"h	c #CD6767",
"i	c #7D7D7D",
"j	c #9D9D9D",
"k	c #808080",
"l	c #525252",
"m	c #656565",
"n	c #535353",
"o	c #B53333",
"p	c #CC5A5A",
"q	c #C85454",
"r	c #B43434",
"s	c #7F7F7F",
"t	c #555555",
"u	c #696969",
"v	c #565656",
"w	c #AA0C0C",
"x	c #CE0000",
"y	c #CC0000",
"z	c #A81010",
"A	c #6B6B6B",
"B	c #797979",
"C	c #6E6E6E",
"D	c #585858",
"E	c #6F6F6F",
"F	c #595959",
"G	c #932323",
"H	c #A71313",
"I	c #A61414",
"J	c #922424",
"K	c #58504C",
"L	c #575757",
"M	c #554D49",
"N	c #4D4D4D",
"                ",
"                ",
"            ..+@",
"            #$%&",
"            *=-;",
"            >,')",
"      @!~{  ]^/(",
"      _:<[  }#|1",
"      234*  56;7",
"      890;  abcd",
"efgh  i.jk  lmmn",
"opqr  b*s1  t}uv",
"wxyz  ABBC  DECF",
"GHIJ  KLLM  dLLN",
"                ",
"                "};
