/* XPM */
static const char * filter_16_xpm[] = {
"16 16 43 1",
" 	g None",
".	g #575757",
"+	g #707070",
"@	g #717171",
"#	g #6F6F6F",
"$	g #6D6D6D",
"%	g #656565",
"&	g #646464",
"*	g #BBBBBB",
"=	g #BDBDBD",
"-	g #686868",
";	g #ACACAC",
">	g #919191",
",	g #5D5D5D",
"'	g #282828",
")	g #1E1E1E",
"!	g #353535",
"~	g #474747",
"{	g #9F9F9F",
"]	g #E1E1E1",
"^	g #F3F3F3",
"/	g #F6F6F6",
"(	g #E9E9E9",
"_	g #B2B2B2",
":	g #CACACA",
"<	g #F9F9F9",
"[	g #FAFAFA",
"}	g #F0F0F0",
"|	g #BABABA",
"1	g #F1F1F1",
"2	g #F8F8F8",
"3	g #EFEFEF",
"4	g #606060",
"5	g #D6D6D6",
"6	g #F2F2F2",
"7	g #E8E8E8",
"8	g #E6E6E6",
"9	g #DEDEDE",
"0	g #545454",
"a	g #C4C4C4",
"b	g #F4F4F4",
"c	g #CCCCCC",
"d	g #A4A4A4",
"   .+@#$%.      ",
"  &*=====       ",
"  -;>#,')!~     ",
"   {=]^/(       ",
"    _:<[}       ",
"    ,|123       ",
"     4567       ",
"      @890      ",
"       6a       ",
"       bc       ",
"       ^c       ",
"       ^c       ",
"       6c       ",
"       6c       ",
"       (d       ",
"                "};
