/* XPM */
static const char * geo_16_xpm[] = {
"16 16 206 2",
"  	c None",
". 	c #68AA73",
"+ 	c #55AD4D",
"@ 	c #76BD69",
"# 	c #8ECA81",
"$ 	c #8FCC81",
"% 	c #7BBE6D",
"& 	c #5B9757",
"* 	c #629772",
"= 	c #79B28E",
"- 	c #52AA4B",
"; 	c #A8DA9C",
"> 	c #F0FAEE",
", 	c #FCFEFC",
"' 	c #FFFFFF",
") 	c #F8FFF5",
"! 	c #BBE2B0",
"~ 	c #578D58",
"{ 	c #78AF8D",
"] 	c #499743",
"^ 	c #CDF2C6",
"/ 	c #F3FBF4",
"( 	c #E0EDDF",
"_ 	c #D5E8D0",
": 	c #DCEED6",
"< 	c #EBF8EA",
"[ 	c #EAF7E9",
"} 	c #F1FDF3",
"| 	c #DDFCD6",
"1 	c #549351",
"2 	c #79B18E",
"3 	c #498B4C",
"4 	c #A3E898",
"5 	c #D1E7CD",
"6 	c #B1CDAD",
"7 	c #ADCCA6",
"8 	c #A5CF9D",
"9 	c #C0E1B7",
"0 	c #DEF1DD",
"a 	c #D7EDD3",
"b 	c #D9F0D6",
"c 	c #E1F6DE",
"d 	c #B7EEAE",
"e 	c #46854A",
"f 	c #6CA07F",
"g 	c #4AB138",
"h 	c #98D38F",
"i 	c #90BA84",
"j 	c #8FC581",
"k 	c #92CC80",
"l 	c #A2D692",
"m 	c #D4EFD1",
"n 	c #D3E8D0",
"o 	c #C8E2C4",
"p 	c #C6E2C2",
"q 	c #D2EFCF",
"r 	c #CFEFCB",
"s 	c #C8F0C4",
"t 	c #58B448",
"u 	c #689B7B",
"v 	c #4E8B54",
"w 	c #3CB620",
"x 	c #4BA034",
"y 	c #78BC66",
"z 	c #74C25C",
"A 	c #89CC7A",
"B 	c #DCF3D9",
"C 	c #E9F9E7",
"D 	c #E6F8E6",
"E 	c #DFF2DE",
"F 	c #DAF1D7",
"G 	c #CDEDC9",
"H 	c #C5ECC2",
"I 	c #B9E8B2",
"J 	c #77D86A",
"K 	c #48824D",
"L 	c #3F9137",
"M 	c #5BC147",
"N 	c #44A22E",
"O 	c #55B438",
"P 	c #53B438",
"Q 	c #63BA4C",
"R 	c #C8E7C1",
"S 	c #F2F8F4",
"T 	c #ECF8EC",
"U 	c #E5F5E3",
"V 	c #C7E9C3",
"W 	c #B2DDAB",
"X 	c #87CA7E",
"Y 	c #76D46A",
"Z 	c #418C3E",
"` 	c #479E3C",
" .	c #8DDD85",
"..	c #9BDE94",
"+.	c #7EBE72",
"@.	c #3C9C22",
"#.	c #33A614",
"$.	c #48B02C",
"%.	c #64B44E",
"&.	c #B7DBB1",
"*.	c #F1FBEF",
"=.	c #D6F1D3",
"-.	c #CAEDC7",
";.	c #98D48C",
">.	c #49A537",
",.	c #4CB733",
"'.	c #3A8E2C",
").	c #489E3E",
"!.	c #8ADB7F",
"~.	c #99DC92",
"{.	c #B2E6AE",
"].	c #569F45",
"^.	c #1E8000",
"/.	c #1F9200",
"(.	c #197800",
"_.	c #71BC60",
":.	c #EBF9EB",
"<.	c #D4F1D1",
"[.	c #B5E5AD",
"}.	c #2D9A14",
"|.	c #2F9713",
"1.	c #39B31D",
"2.	c #2C7720",
"3.	c #4A8C4A",
"4.	c #88DE7C",
"5.	c #99DF91",
"6.	c #86C97F",
"7.	c #1C8600",
"8.	c #1D8800",
"9.	c #208800",
"0.	c #1A7A00",
"a.	c #4EB133",
"b.	c #DAF3D9",
"c.	c #CCEEC8",
"d.	c #62BA4A",
"e.	c #156200",
"f.	c #5EB04E",
"g.	c #56C640",
"h.	c #377432",
"i.	c #598D65",
"j.	c #6AB75D",
"k.	c #1C8400",
"l.	c #1D8A00",
"m.	c #1E8C00",
"n.	c #1E8E00",
"o.	c #219A00",
"p.	c #A2DA98",
"q.	c #7DCA6E",
"r.	c #1B8802",
"s.	c #6CBB5F",
"t.	c #6FD062",
"u.	c #4D7C57",
"v.	c #4B9740",
"w.	c #4BB632",
"x.	c #1A7C00",
"y.	c #229F01",
"z.	c #2AA20A",
"A.	c #2EA40E",
"B.	c #2CA40C",
"C.	c #2BA50F",
"D.	c #209800",
"E.	c #32A812",
"F.	c #2FAE0C",
"G.	c #2C8719",
"H.	c #71A585",
"I.	c #5E906E",
"J.	c #38A720",
"K.	c #33AB13",
"L.	c #3AA81C",
"M.	c #3AAC20",
"N.	c #41AE28",
"O.	c #44B12B",
"P.	c #3CAC22",
"Q.	c #39AA1A",
"R.	c #35A816",
"S.	c #2DAB0B",
"T.	c #1D8801",
"U.	c #507D5D",
"V.	c #53865E",
"W.	c #369E1C",
"X.	c #53C03A",
"Y.	c #63BE4E",
"Z.	c #68BE54",
"`.	c #6ABF57",
" +	c #62BE50",
".+	c #5EBC48",
"++	c #50BD33",
"@+	c #2B9B0D",
"#+	c #45734D",
"$+	c #629272",
"%+	c #468840",
"&+	c #68BE59",
"*+	c #81D573",
"=+	c #85DC7A",
"-+	c #88DC7A",
";+	c #79CF6B",
">+	c #5DB74B",
",+	c #3A8033",
"'+	c #568464",
")+	c #608E6F",
"!+	c #52805B",
"~+	c #508255",
"{+	c #528255",
"]+	c #507E57",
"^+	c #598667",
"/+	c #75AB89",
"        . + @ # $ % & *         ",
"    = - ; > , ' ' ' ) ! ~ {     ",
"    ] ^ / ( _ : < [ [ } | 1 2   ",
"  3 4 5 6 7 8 9 0 0 a b c d e   ",
"f g h i j k l m n o p q r s t u ",
"v w x y z A B C D E F G H I J K ",
"L M N O P Q R S T U F V W X Y Z ",
"`  ...+.@.#.$.%.&.*.=.-.;.>.,.'.",
").!.~.{.].^./.(._.:.<.[.}.|.1.2.",
"3.4.5.6.7.8.9.0.a.b.c.d.e.f.g.h.",
"i.Y j.k.l.m.n.m.o.p.q.n.r.s.t.u.",
"2 v.w.x./.y.z.A.B.C.D.n.E.F.G.H.",
"  I.J.K.L.M.N.O.O.P.Q.R.S.T.U.  ",
"    V.W.X.Y.Z.`.`. +.+++@+#+    ",
"      $+%+&+*+=+-+;+>+,+'+      ",
"        2 )+!+~+{+]+^+/+        "};
