/* XPM */
static const char * green_ext_list_16_xpm[] = {
"16 16 62 1",
" 	c None",
".	c #58BC58",
"+	c #318331",
"@	c #08A208",
"#	c #149C14",
"$	c #327432",
"%	c #65A565",
"&	c #3EA63E",
"*	c #06B806",
"=	c #05C105",
"-	c #05BD05",
";	c #06B006",
">	c #089A08",
",	c #0A820A",
"'	c #517F51",
")	c #59BB59",
"!	c #06B606",
"~	c #04D004",
"{	c #03DF03",
"]	c #03D903",
"^	c #05C305",
"/	c #07A907",
"(	c #098D09",
"_	c #0C700C",
":	c #6C966C",
"<	c #328232",
"[	c #03DB03",
"}	c #00F800",
"|	c #02EA02",
"1	c #04CC04",
"2	c #07AF07",
"3	c #099109",
"4	c #0C740C",
"5	c #345A34",
"6	c #13A113",
"7	c #06BA06",
"8	c #04D404",
"9	c #02E602",
"0	c #02DE02",
"a	c #04C604",
"b	c #07AB07",
"c	c #000000",
"d	c #159715",
"e	c #06BE06",
"f	c #05C905",
"g	c #05C505",
"h	c #089E08",
"i	c #FF0000",
"j	c #3A843C",
"k	c #099509",
"l	c #08A408",
"m	c #08AA08",
"n	c #67A168",
"o	c #0B7D0B",
"p	c #0A880A",
"q	c #0A8E0A",
"r	c #0A8C0A",
"s	c #517D51",
"t	c #0C6C0C",
"u	c #6D956D",
"v	c #345834",
"w	c #0F510F",
"                ",
"                ",
"                ",
"     .+@#$%     ",
"    &*=-;>,'    ",
"   )!~{]^/(_:   ",
"   <-[}|12345   ",
"   67890abcccc  ",
"   dbefg!hciic  ",
"   jklbmccciiccc",
"   nopqrciiiiiic",
"    st__ciiiiiic",
"     uvwccciiccc",
"          ciic  ",
"          cccc  ",
"                "};
