/* XPM */
static const char * green_16_xpm[] = {
"16 16 59 1",
" 	c None",
".	c #32FA32",
"+	c #31F731",
"@	c #26F426",
"#	c #27E327",
"$	c #2FDD2F",
"%	c #35CF35",
"&	c #29FF29",
"*	c #08FE08",
"=	c #06FE06",
"-	c #00F400",
";	c #00DC00",
">	c #00B600",
",	c #0F950F",
"'	c #2CAC2C",
")	c #23FF23",
"!	c #00E400",
"~	c #00C400",
"{	c #009C00",
"]	c #007400",
"^	c #269826",
"/	c #27FF27",
"(	c #00CC00",
"_	c #00AC00",
":	c #008400",
"<	c #005C00",
"[	c #2C8E2C",
"}	c #008C00",
"|	c #006A00",
"1	c #126812",
"2	c #2DF92D",
"3	c #338B3A",
"4	c #00EC00",
"5	c #00D600",
"6	c #00A200",
"7	c #2E8C37",
"8	c #17F517",
"9	c #007C00",
"0	c #278735",
"a	c #16E416",
"b	c #00BC00",
"c	c #32D432",
"d	c #069406",
"e	c #2E9436",
"f	c #2AD02A",
"g	c #33993A",
"h	c #129212",
"i	c #22A822",
"j	c #2B9D2E",
"k	c #1F971F",
"l	c #289E28",
"m	c #248C24",
"n	c #086408",
"o	c #2B9D2B",
"p	c #2F8D2F",
"q	c #2E8E2E",
"r	c #258925",
"s	c #2E962E",
"t	c #339D33",
"     .+@#$%     ",
"   &*===-;>,'   ",
"  )======!~{]^  ",
" /=======!(_:<[ ",
" ========!(_}|1 ",
"2=======-;~_}||3",
".======-45~6}]]7",
"8=====-4;(>{:990",
"a-===-4;(b6}:::0",
"c;!!!!5(b_d::}:e",
"fb~(((~>_d}}}}}g",
" d6_>_6{d:}}d}h ",
" i9}}}}::}}dd}j ",
"  k<|]]9:}}}}l  ",
"   mn|]9::},o   ",
"     pqrrst     "};
