/* XPM */
static char * grey_list_16_xpm[] = {
"16 16 63 1",
" 	c None",
".	c #9A9A9A",
"+	c #676767",
"@	c #6E6E6E",
"#	c #5E5E5E",
"$	c #8F8F8F",
"%	c #838383",
"&	c #7C7C7C",
"*	c #828282",
"=	c #7F7F7F",
"-	c #777777",
";	c #696969",
">	c #595959",
",	c #6F6F6F",
"'	c #7B7B7B",
")	c #8B8B8B",
"!	c #959595",
"~	c #919191",
"{	c #727272",
"]	c #606060",
"^	c #4E4E4E",
"/	c #888888",
"(	c #929292",
"_	c #A4A4A4",
":	c #9C9C9C",
"<	c #898989",
"[	c #767676",
"}	c #636363",
"|	c #515151",
"1	c #4D4D4D",
"2	c #717171",
"3	c #7D7D7D",
"4	c #8E8E8E",
"5	c #999999",
"6	c #949494",
"7	c #858585",
"8	c #747474",
"9	c #505050",
"0	c #454545",
"a	c #6B6B6B",
"b	c #808080",
"c	c #878787",
"d	c #848484",
"e	c #5B5B5B",
"f	c #4B4B4B",
"g	c #424242",
"h	c #666666",
"i	c #737373",
"j	c #525252",
"k	c #474747",
"l	c #8D8D8D",
"m	c #565656",
"n	c #5D5D5D",
"o	c #616161",
"p	c #373737",
"q	c #818181",
"r	c #4C4C4C",
"s	c #494949",
"t	c #363636",
"u	c #626262",
"v	c #3B3B3B",
"w	c #414141",
"x	c #464646",
"                ",
"                ",
"                ",
"                ",
"     .+@@#$     ",
"    %&*=-;>,    ",
"   .')!~%{]^/   ",
"   +=(_:<[}|1   ",
"   2345678}90   ",
"   a8bcd'aefg   ",
"   ah,8ia]jgk   ",
"   lmno]e|0pq   ",
"    @r^^sgtu    ",
"     crvwxq     ",
"                ",
"                "};
