/* XPM */
static char * info_18_12_xpm[] = {
"18 12 64 1",
" 	c None",
".	c #184499",
"+	c #2A52A1",
"@	c #3A5FA7",
"#	c #164095",
"$	c #4265A9",
"%	c #7A92C0",
"&	c #A2B1D0",
"*	c #123C8E",
"=	c #3156A1",
"-	c #758FC2",
";	c #869DCB",
">	c #FFFFFF",
",	c #103885",
"'	c #1E4795",
")	c #5475B6",
"!	c #6C8AC5",
"~	c #6E8CC6",
"{	c #6E8CC7",
"]	c #103681",
"^	c #28509F",
"/	c #5073B8",
"(	c #6A89C6",
"_	c #A7B9DD",
":	c #AFBFDF",
"<	c #8DA5D3",
"[	c #5E80C3",
"}	c #5C7FC2",
"|	c #10357D",
"1	c #2A54A4",
"2	c #476DB7",
"3	c #6988C6",
"4	c #4E73BD",
"5	c #4F75BE",
"6	c #103276",
"7	c #244EA1",
"8	c #3761B1",
"9	c #3E66B7",
"0	c #3B64B4",
"a	c #3E67B7",
"b	c #3F68B9",
"c	c #10306E",
"d	c #1C4495",
"e	c #2A56AB",
"f	c #315DB2",
"g	c #2F5BB0",
"h	c #305BB0",
"i	c #0F2C63",
"j	c #153A82",
"k	c #1F4BA2",
"l	c #446AB4",
"m	c #F4FFFF",
"n	c #153067",
"o	c #204792",
"p	c #446BB7",
"q	c #C8F4FF",
"r	c #EAFFFF",
"s	c #193468",
"t	c #294C90",
"u	c #375FAE",
"v	c #406BC1",
"w	c #1A315E",
"x	c #203868",
"y	c #223B6C",
"    .+@@+.        ",
"   #$%&&%$#       ",
"  *=-;>>;-=*      ",
" ,')!~>>{!)',     ",
" ]^/(_:<[}/^]     ",
" |123>>>4521|     ",
" 67890>>ab876     ",
" cdefg>>hfedc     ",
" ijklm>>mlkji     ",
"  nopqrrqpon      ",
"   stuvvuts       ",
"    wxyyxw        "};
