/* XPM */
static const char * master_24_xpm[] = {
"24 24 309 2",
"  	c None",
". 	c #C4C7D9",
"+ 	c #5A6380",
"@ 	c #404F77",
"# 	c #536590",
"$ 	c #67769F",
"% 	c #67779F",
"& 	c #556691",
"* 	c #455276",
"= 	c #636B87",
"- 	c #767E9B",
"; 	c #47547A",
"> 	c #8F9BBB",
", 	c #CFD5E6",
"' 	c #E7EBF3",
") 	c #EFF1F7",
"! 	c #F1F3F8",
"~ 	c #EBEEF5",
"{ 	c #D2D8E7",
"] 	c #939FBB",
"^ 	c #4D5878",
"/ 	c #8189A6",
"( 	c #666E8A",
"_ 	c #55648F",
": 	c #CAD1E6",
"< 	c #EEEFF7",
"[ 	c #EAECF4",
"} 	c #E3E6F0",
"| 	c #E6E8F1",
"1 	c #EDEEF6",
"2 	c #EDEFF6",
"3 	c #CCD2E5",
"4 	c #5A678B",
"5 	c #737A96",
"6 	c #7B83A0",
"7 	c #465788",
"8 	c #C3CAE2",
"9 	c #D9DCE9",
"0 	c #C8CDDB",
"a 	c #C0C5D4",
"b 	c #BCC3D4",
"c 	c #CFD4E2",
"d 	c #E6E8F3",
"e 	c #E5E7F2",
"f 	c #E3E5F1",
"g 	c #E0E2EF",
"h 	c #E0E3F0",
"i 	c #C5CCE3",
"j 	c #48567F",
"k 	c #878EAC",
"l 	c #374670",
"m 	c #8995C4",
"n 	c #B4BCD2",
"o 	c #A2AABF",
"p 	c #9DA7BF",
"q 	c #9DA9C5",
"r 	c #A0ACC9",
"s 	c #C9CFE1",
"t 	c #D2D5E4",
"u 	c #D4D8E6",
"v 	c #CED2E2",
"w 	c #D3D7E7",
"x 	c #D5D9EA",
"y 	c #D2D6E9",
"z 	c #8B97C4",
"A 	c #3B4668",
"B 	c #6D7591",
"C 	c #3E5290",
"D 	c #7483B5",
"E 	c #8390AE",
"F 	c #8391B5",
"G 	c #8394BB",
"H 	c #8E9DC2",
"I 	c #B9C2DA",
"J 	c #DDE0EE",
"K 	c #D9DCEA",
"L 	c #D0D4E3",
"M 	c #CACFE0",
"N 	c #D3D7E9",
"O 	c #CFD3E7",
"P 	c #C8CDE4",
"Q 	c #A3ABD3",
"R 	c #405187",
"S 	c #777F9A",
"T 	c #444E71",
"U 	c #3C5399",
"V 	c #304784",
"W 	c #6275A2",
"X 	c #697DAE",
"Y 	c #687CAD",
"Z 	c #A4AFCE",
"` 	c #E3E6F2",
" .	c #E5E8F3",
"..	c #E1E4F0",
"+.	c #DBDEED",
"@.	c #D1D5E8",
"#.	c #C5CAE1",
"$.	c #BFC5E0",
"%.	c #9AA3CE",
"&.	c #5E6EAA",
"*.	c #454E69",
"=.	c #35446F",
"-.	c #6273B1",
";.	c #52639B",
">.	c #50659C",
",.	c #4D659D",
"'.	c #4C649E",
").	c #6B7FAF",
"!.	c #CBD1E4",
"~.	c #E7E9F1",
"{.	c #E9EBF3",
"].	c #E4E7F2",
"^.	c #DADDED",
"/.	c #CFD3E8",
"(.	c #B8BED8",
"_.	c #9AA3C6",
":.	c #7884B5",
"<.	c #6979B5",
"[.	c #354063",
"}.	c #3E4D7B",
"|.	c #838FC5",
"1.	c #959ECC",
"2.	c #959EC7",
"3.	c #536494",
"4.	c #304A8A",
"5.	c #314C90",
"6.	c #4D649D",
"7.	c #6073A3",
"8.	c #B6BED4",
"9.	c #E9EBF5",
"0.	c #D9DCEC",
"a.	c #CBD0E6",
"b.	c #B0B7D7",
"c.	c #6675A6",
"d.	c #475A94",
"e.	c #465DA0",
"f.	c #2D3B62",
"g.	c #3F4D79",
"h.	c #838EC4",
"i.	c #949ECB",
"j.	c #A6AED4",
"k.	c #959EC1",
"l.	c #273E78",
"m.	c #14337F",
"n.	c #153481",
"o.	c #12317E",
"p.	c #7586B0",
"q.	c #D4D8EA",
"r.	c #C4C9E2",
"s.	c #6778AA",
"t.	c #1E3676",
"u.	c #435997",
"v.	c #2D4891",
"w.	c #24335A",
"x.	c #404C6F",
"y.	c #7E8AC1",
"z.	c #949DCB",
"A.	c #A2AAD1",
"B.	c #596997",
"C.	c #0D2A72",
"D.	c #0D2D7D",
"E.	c #0D2D7C",
"F.	c #0A2A7A",
"G.	c #52679E",
"H.	c #D7DAEB",
"I.	c #CCD0E6",
"J.	c #929FC7",
"K.	c #1F387A",
"L.	c #2D417A",
"M.	c #5B6DA8",
"N.	c #2E4890",
"O.	c #2D3858",
"P.	c #505874",
"Q.	c #6978B0",
"R.	c #8A94C3",
"S.	c #4F5F92",
"T.	c #1B377E",
"U.	c #0C2C7B",
"V.	c #0E2E7D",
"W.	c #254188",
"X.	c #ADB5D4",
"Y.	c #ABB4D4",
"Z.	c #435A98",
"`.	c #0F2B70",
" +	c #34467A",
".+	c #8D97C7",
"++	c #4B5D97",
"@+	c #474E66",
"#+	c #848BA8",
"$+	c #445384",
"%+	c #6575AF",
"&+	c #142D6C",
"*+	c #0C2B79",
"=+	c #10307E",
"-+	c #163481",
";+	c #1A3884",
">+	c #1D3A85",
",+	c #495F9D",
"'+	c #385295",
")+	c #0E2D7A",
"!+	c #274288",
"~+	c #2D468A",
"{+	c #4D63A3",
"]+	c #293A67",
"^+	c #7A819B",
"/+	c #464E6A",
"(+	c #465A98",
"_+	c #294387",
":+	c #1E3B83",
"<+	c #223F88",
"[+	c #2B468D",
"}+	c #314B91",
"|+	c #344E92",
"1+	c #334D92",
"2+	c #2C478E",
"3+	c #244089",
"4+	c #1D3B86",
"5+	c #1F3C87",
"6+	c #102C72",
"7+	c #3A4259",
"8+	c #979FBF",
"9+	c #344063",
"0+	c #284289",
"a+	c #395396",
"b+	c #445C9B",
"c+	c #4D63A0",
"d+	c #5064A1",
"e+	c #4E63A0",
"f+	c #4A609E",
"g+	c #455C9B",
"h+	c #3F5798",
"i+	c #314C92",
"j+	c #18337C",
"k+	c #24304F",
"l+	c #8A91AF",
"m+	c #8890AD",
"n+	c #354061",
"o+	c #3C508C",
"p+	c #576BA7",
"q+	c #697AB0",
"r+	c #7080B3",
"s+	c #7382B4",
"t+	c #7181B3",
"u+	c #6B7CB0",
"v+	c #6073AB",
"w+	c #4C63A1",
"x+	c #2E4480",
"y+	c #293451",
"z+	c #7B829C",
"A+	c #959DBD",
"B+	c #4B5168",
"C+	c #465176",
"D+	c #6874A4",
"E+	c #7986B8",
"F+	c #7F8BBE",
"G+	c #7E8ABD",
"H+	c #727FB2",
"I+	c #556394",
"J+	c #364367",
"K+	c #41475B",
"L+	c #868DA9",
"M+	c #595E74",
"N+	c #4A4F65",
"O+	c #999EB4",
"P+	c #6F748B",
"Q+	c #40455A",
"R+	c #51566A",
"S+	c #7D849E",
"T+	c #71778F",
"U+	c #5F6270",
"V+	c #CFCFD2",
"W+	c #909096",
"X+	c #595C6D",
"Y+	c #7E85A0",
"Z+	c #626577",
"`+	c #999AA4",
" @	c #9B9CA5",
".@	c #999AA3",
"+@	c #9999A4",
"@@	c #C7C7CB",
"#@	c #DCDCDD",
"$@	c #D4D4D5",
"%@	c #B7B7BC",
"&@	c #80818B",
"*@	c #94959E",
"=@	c #9C9DA6",
"-@	c #5C6072",
";@	c #5C5E6D",
">@	c #A6A6A9",
",@	c #A7A8AA",
"'@	c #9C9CA2",
")@	c #B6B6B7",
"!@	c #B7B7B7",
"~@	c #ADADAE",
"{@	c #87878C",
"]@	c #A1A1A3",
"^@	c #A8A9AB",
"/@	c #A0A0A4",
"(@	c #4F515F",
"_@	c #6F748C",
":@	c #494C59",
"<@	c #484B58",
"[@	c #51535D",
"}@	c #63646A",
"|@	c #626369",
"1@	c #5F6068",
"2@	c #434550",
"3@	c #474A58",
"4@	c #656B80",
"                                                ",
"              . + @ # $ % & * =                 ",
"            - ; > , ' ) ! ~ { ] ^ /             ",
"          ( _ : < [ } | 1 2 < < 3 4 5           ",
"        6 7 8 9 0 a b c d e f g h i j k         ",
"        l m n o p q r s t u v w x y z A         ",
"      B C D E F G H I J K L M N O P Q R S       ",
"      T U V W X Y Z ` d  ...+.@.#.$.%.&.*.      ",
"      =.-.;.>.,.'.).!.~.{.].^./.(._.:.<.[.      ",
"      }.|.1.2.3.4.5.6.7.8.9.0.a.b.c.d.e.f.      ",
"      g.h.i.j.k.l.m.n.o.p.e q.r.s.t.u.v.w.      ",
"      x.y.z.A.B.C.D.E.F.G.H.I.J.K.L.M.N.O.      ",
"      P.Q.R.S.T.U.D.V.E.W.X.Y.Z.`. +.+++@+      ",
"      #+$+%+&+*+=+-+;+>+>+,+'+)+!+~+{+]+^+      ",
"        /+(+_+:+<+[+}+|+1+2+3+4+<+5+6+7+        ",
"        8+9+0+a+b+,+c+d+e+f+g+h+i+j+k+l+        ",
"          m+n+o+p+q+r+s+t+u+v+w+x+y+z+          ",
"            A+B+C+D+E+F+G+H+I+J+K+l+            ",
"                L+M+N+O+P+Q+R+S+                ",
"                  T+U+V+W+X+Y+                  ",
"          Z+`+ @.@+@@@#@$@%@&@*@=@*@-@          ",
"          ;@>@,@>@'@)@)@!@~@{@]@^@/@(@          ",
"          _@:@<@<@[@}@|@|@1@2@3@<@<@4@          ",
"                                                "};
