/* XPM */
static char * master_24_xpm[] = {
"24 24 267 2",
"  	c None",
". 	c #00025F",
"+ 	c #000161",
"@ 	c #000160",
"# 	c #5F74A9",
"$ 	c #B9C3D9",
"% 	c #D8DDEA",
"& 	c #E3E7F0",
"* 	c #B9C3DD",
"= 	c #7081AB",
"- 	c #334E94",
"; 	c #F5F7FD",
"> 	c #FEFDFF",
", 	c #E7EAF2",
"' 	c #E4E8F0",
") 	c #E9ECF4",
"! 	c #EEF0F6",
"~ 	c #EDEFF7",
"{ 	c #FBFAFD",
"] 	c #F6F7FE",
"^ 	c #455B94",
"/ 	c #5167A4",
"( 	c #FAF8FD",
"_ 	c #E3E7F3",
": 	c #D8DCE7",
"< 	c #D4D9E6",
"[ 	c #D0D6E4",
"} 	c #EBECF5",
"| 	c #E7E9F4",
"1 	c #E8E9F3",
"2 	c #E5E8F2",
"3 	c #DFE3EF",
"4 	c #F5F5FB",
"5 	c #5A6EA7",
"6 	c #233E8B",
"7 	c #DFE1F0",
"8 	c #C9CEE0",
"9 	c #A8AFC0",
"0 	c #A9B0C2",
"a 	c #AAB2C8",
"b 	c #A7B0C9",
"c 	c #E2E5F1",
"d 	c #E3E6F2",
"e 	c #E6E8F4",
"f 	c #DBDEEC",
"g 	c #DBDEED",
"h 	c #D5D9EB",
"i 	c #E0E2F1",
"j 	c #1D367B",
"k 	c #7583BD",
"l 	c #99A6C4",
"m 	c #8B94AB",
"n 	c #909DBC",
"o 	c #91A0C5",
"p 	c #8697BE",
"q 	c #BCC5DC",
"r 	c #DADDEA",
"s 	c #C7CCDC",
"t 	c #AFB6CA",
"u 	c #C5CADC",
"v 	c #D6D9EB",
"w 	c #CED3E7",
"x 	c #CFD4E8",
"y 	c #7784BF",
"z 	c #324B93",
"A 	c #3B5398",
"B 	c #7482A2",
"C 	c #7588B5",
"D 	c #7688B5",
"E 	c #7285B3",
"F 	c #D6DAEB",
"G 	c #E4E6F2",
"H 	c #E4E6F1",
"I 	c #E4E6F4",
"J 	c #D9DCED",
"K 	c #D0D4E7",
"L 	c #C9CDE5",
"M 	c #C5CAE3",
"N 	c #8994C8",
"O 	c #18337A",
"P 	c #4A5FA1",
"Q 	c #0F2A71",
"R 	c #314A87",
"S 	c #596FA6",
"T 	c #5B70A6",
"U 	c #556CA3",
"V 	c #E9EBF5",
"W 	c #E6E9F3",
"X 	c #EEEFF7",
"Y 	c #E6E8F3",
"Z 	c #DFE2EF",
"` 	c #C8CDE3",
" .	c #BBC1DB",
"..	c #AFB6D8",
"+.	c #8E97C9",
"@.	c #4A5EA0",
"#.	c #717FBB",
"$.	c #969FCE",
"%.	c #828DBB",
"&.	c #536697",
"*.	c #3F5999",
"=.	c #3E5897",
"-.	c #5269A2",
";.	c #DBDDE7",
">.	c #C4C9D6",
",.	c #F1F2F9",
"'.	c #E1E4F0",
").	c #CBD0E7",
"!.	c #B5BAD8",
"~.	c #6672A1",
"{.	c #495F9F",
"].	c #6676B3",
"^.	c #7886C0",
"/.	c #8D96C7",
"(.	c #9DA6CF",
"_.	c #B3B9DA",
":.	c #334575",
"<.	c #223F87",
"[.	c #254188",
"}.	c #1A3883",
"|.	c #193880",
"1.	c #FFFFFF",
"2.	c #DFE2F0",
"3.	c #D2D6E9",
"4.	c #C2C7E1",
"5.	c #5B6DA3",
"6.	c #2B3F74",
"7.	c #7C89BE",
"8.	c #2B4690",
"9.	c #7281BB",
"0.	c #8F99C8",
"a.	c #B4BBDD",
"b.	c #354676",
"c.	c #0A2A7A",
"d.	c #0D2D7C",
"e.	c #0E2E7C",
"f.	c #001C70",
"g.	c #DEDFE9",
"h.	c #D5D9EA",
"i.	c #C9CEE5",
"j.	c #A8B2D6",
"k.	c #001358",
"l.	c #5165A3",
"m.	c #0A2B79",
"n.	c #08297A",
"o.	c #6877B3",
"p.	c #8D97C6",
"q.	c #9EA6D2",
"r.	c #8893BC",
"s.	c #011F69",
"t.	c #0D2E7D",
"u.	c #0E2E7D",
"v.	c #012276",
"w.	c #A5B0CF",
"x.	c #CED2E8",
"y.	c #B9BFDC",
"z.	c #2F4B93",
"A.	c #00134B",
"B.	c #737FAC",
"C.	c #939CCB",
"D.	c #1E3982",
"E.	c #1F387A",
"F.	c #9CA3D3",
"G.	c #273968",
"H.	c #042576",
"I.	c #0F2F7D",
"J.	c #10307E",
"K.	c #29458A",
"L.	c #D4D7EC",
"M.	c #365196",
"N.	c #001D67",
"O.	c #3D528C",
"P.	c #5D6DA2",
"Q.	c #919BCE",
"R.	c #04184A",
"S.	c #6878B7",
"T.	c #243F87",
"U.	c #0B2566",
"V.	c #102F7F",
"W.	c #1C3985",
"X.	c #244089",
"Y.	c #28438B",
"Z.	c #29448C",
"`.	c #25418A",
" +	c #112F7F",
".+	c #183682",
"++	c #0B2C7C",
"@+	c #234088",
"#+	c #203E86",
"$+	c #103183",
"%+	c #122659",
"&+	c #38529A",
"*+	c #324E93",
"=+	c #314C91",
"-+	c #324C91",
";+	c #395396",
">+	c #3F5798",
",+	c #405899",
"'+	c #3D5597",
")+	c #364F93",
"!+	c #2D488F",
"~+	c #2D488E",
"{+	c #2B478D",
"]+	c #0E2F83",
"^+	c #071435",
"/+	c #1A2F69",
"(+	c #2F4B96",
"_+	c #4C619E",
":+	c #596DA7",
"<+	c #5E71A8",
"[+	c #6072AA",
"}+	c #6072A9",
"|+	c #5D70A9",
"1+	c #5469A3",
"2+	c #445B99",
"3+	c #244392",
"4+	c #0A1D4B",
"5+	c #1F2A49",
"6+	c #4A609F",
"7+	c #6C7CB5",
"8+	c #7685B6",
"9+	c #7E8CBA",
"0+	c #808EBB",
"a+	c #7A89B7",
"b+	c #6E7FB1",
"c+	c #5B6FAB",
"d+	c #3C5396",
"e+	c #0C1429",
"f+	c #414B6E",
"g+	c #5B6590",
"h+	c #7581B6",
"i+	c #7783BD",
"j+	c #717CB2",
"k+	c #525D86",
"l+	c #293555",
"m+	c #818081",
"n+	c #CAC9C4",
"o+	c #8F8F9C",
"p+	c #BABAC1",
"q+	c #F2F2F2",
"r+	c #82828F",
"s+	c #737384",
"t+	c #DADADD",
"u+	c #E9E9E8",
"v+	c #EBEBEA",
"w+	c #DADADC",
"x+	c #CACAC8",
"y+	c #D1D1D1",
"z+	c #CDCDCD",
"A+	c #DADAD8",
"B+	c #9898A1",
"C+	c #C5C5C3",
"D+	c #EBEBEB",
"E+	c #EAEAE9",
"F+	c #C5C5C8",
"G+	c #66666E",
"H+	c #64646B",
"I+	c #65656B",
"J+	c #606069",
"K+	c #A9A9AB",
"L+	c #A6A6A9",
"M+	c #A7A7A9",
"N+	c #A8A8AA",
"O+	c #8E8E97",
"P+	c #505055",
"Q+	c #66666C",
"R+	c #5B5B64",
"                                                ",
"                      . + @                     ",
"                  # $ % & % * =                 ",
"              - ; > , ' ) ! ~ { ] ^             ",
"            / ( _ : < [ } | 1 2 3 4 5           ",
"          6 7 8 9 0 a b c d e f g h i j         ",
"          k l m n o p q r s t u v w x y         ",
"        z A B C D E F G H c I J K L M N O       ",
"        P Q R S T U V W X Y Z v `  ...+.@.      ",
"        #.$.%.&.*.=.-.;.>.,.'.h ).!.~.{.].      ",
"        ^./.(._.:.<.[.}.|.1.2.3.4.5.6.7.8.      ",
"        9.0.(.a.b.c.d.e.f.g.h.i.j.k.l.m.n.      ",
"        o.p.q.r.s.t.u.d.v.w.x.y.z.A.B.C.D.      ",
"        E.F.G.H.u.d.I.J.J.K.L.M.N.O.P.Q.R.      ",
"          S.T.U.V.W.X.Y.Z.`. +.+++@+#+$+        ",
"          %+&+*+=+-+;+>+,+'+)+!+~+{+]+^+        ",
"            /+(+_+:+<+[+}+|+5 1+2+3+4+          ",
"              5+6+7+8+9+0+a+b+c+d+e+            ",
"                  f+g+h+i+j+k+l+                ",
"                      m+n+                      ",
"                    o+p+q+r+s+                  ",
"            t+u+v+w+x+y+z+A+B+C+D+E+F+          ",
"            G+H+I+J+K+L+M+N+O+P+Q+H+R+          ",
"                                                "};
