/* XPM */
static const char * orange_list_16_xpm[] = {
"16 16 77 1",
" 	c None",
".	c #BC8C58",
"+	c #835B31",
"@	c #A25808",
"#	c #9C5A14",
"$	c #745432",
"%	c #A58665",
"&	c #A6743E",
"*	c #B86206",
"=	c #C16605",
"-	c #BD6405",
";	c #B05E06",
">	c #9A5408",
",	c #82480A",
"'	c #7F6951",
")	c #BB8C59",
"!	c #B66106",
"~	c #D06E04",
"{	c #DF7503",
"]	c #D97203",
"^	c #C36705",
"/	c #A95B07",
"(	c #8D4D09",
"_	c #70400C",
":	c #96826C",
"<	c #825B32",
"[	c #DB7303",
"}	c #F88000",
"|	c #EA7A02",
"1	c #CC6C04",
"2	c #AF5E07",
"3	c #914F09",
"4	c #74420C",
"5	c #5A4834",
"6	c #A15D13",
"7	c #BA6306",
"8	c #D47004",
"9	c #E67802",
"0	c #DE7402",
"a	c #C66804",
"b	c #AB5C07",
"c	c #904F0A",
"d	c #72410C",
"e	c #5C3B18",
"f	c #975815",
"g	c #BE6506",
"h	c #C96A05",
"i	c #C56805",
"j	c #9E5608",
"k	c #84490A",
"l	c #6B3E0D",
"m	c #573919",
"n	c #84623A",
"o	c #955109",
"p	c #A45908",
"q	c #AA5C08",
"r	c #8C4D0A",
"s	c #76430C",
"t	c #5C360E",
"u	c #504336",
"v	c #A18667",
"w	c #7D460B",
"x	c #884B0A",
"y	c #8E4E0A",
"z	c #61380D",
"A	c #4B2E0F",
"B	c #887E74",
"C	c #7D6851",
"D	c #6C3E0C",
"E	c #673C0D",
"F	c #4B2D0F",
"G	c #675F57",
"H	c #95826D",
"I	c #584734",
"J	c #51310F",
"K	c #553919",
"L	c #4F4235",
"                ",
"                ",
"                ",
"     .+@#$%     ",
"    &*=-;>,'    ",
"   )!~{]^/(_:   ",
"   <-[}|12345   ",
"   67890abcde   ",
"   fbghi!jklm   ",
"   nopbqjrstu   ",
"   vwxyrk4zAB   ",
"    CD__EtFG    ",
"     HIJKLB     ",
"                ",
"                ",
"                "};
