/* XPM */
static char * red_list_16_xpm[] = {
"16 16 83 1",
" 	c None",
".	c #BC5858",
"+	c #833131",
"@	c #A10808",
"#	c #9B1414",
"$	c #743232",
"%	c #A56565",
"&	c #A63E3E",
"*	c #B80606",
"=	c #C10605",
"-	c #BD0605",
";	c #AF0606",
">	c #9A0809",
",	c #810B0A",
"'	c #7F5151",
")	c #BB5959",
"!	c #B60606",
"~	c #CF0404",
"{	c #DE0303",
"]	c #D80303",
"^	c #C30505",
"/	c #A80707",
"(	c #8D090A",
"_	c #700C0C",
":	c #966C6C",
"<	c #823232",
"[	c #DB0303",
"}	c #F70001",
"|	c #EA0202",
"1	c #CC0504",
"2	c #AF0707",
"3	c #910909",
"4	c #740C0C",
"5	c #5A3434",
"6	c #A11313",
"7	c #B90606",
"8	c #D40404",
"9	c #E50202",
"0	c #DE0202",
"a	c #C60405",
"b	c #AB0707",
"c	c #8F0A0A",
"d	c #710C0C",
"e	c #5B1818",
"f	c #971515",
"g	c #AA0807",
"h	c #BE0606",
"i	c #C80505",
"j	c #C50505",
"k	c #B50607",
"l	c #9E0808",
"m	c #840A0B",
"n	c #6A0D0D",
"o	c #561919",
"p	c #843B3A",
"q	c #950909",
"r	c #A40808",
"s	c #A90808",
"t	c #9D0809",
"u	c #8B0A0A",
"v	c #750C0C",
"w	c #5C0E0E",
"x	c #503636",
"y	c #A16867",
"z	c #7C0B0B",
"A	c #880A0A",
"B	c #8D0A0A",
"C	c #8C0A0A",
"D	c #830A0A",
"E	c #610D0D",
"F	c #4B0F0F",
"G	c #887474",
"H	c #7D5151",
"I	c #6C0C0D",
"J	c #6F0C0C",
"K	c #670D0D",
"L	c #4B0F10",
"M	c #675757",
"N	c #956D6D",
"O	c #583434",
"P	c #510F0F",
"Q	c #541A19",
"R	c #4F3535",
"                ",
"                ",
"                ",
"                ",
"     .+@#$%     ",
"    &*=-;>,'    ",
"   )!~{]^/(_:   ",
"   <-[}|12345   ",
"   67890abcde   ",
"   fghijklmno   ",
"   pqrbstuvwx   ",
"   yzABCD4EFG   ",
"    HI_JKwLM    ",
"     NOPQRG     ",
"                ",
"                "};
