/* XPM */
static const char * red_16_xpm[] = {
"16 16 60 1",
" 	c None",
".	c #FA3232",
"+	c #F73030",
"@	c #F42525",
"#	c #E32727",
"$	c #DD2F2F",
"%	c #D03434",
"&	c #FF2828",
"*	c #FE0808",
"=	c #FE0606",
"-	c #F30000",
";	c #DC0000",
">	c #B50000",
",	c #940F0F",
"'	c #AB2C2C",
")	c #FF2222",
"!	c #E30000",
"~	c #C40000",
"{	c #9C0000",
"]	c #740000",
"^	c #982626",
"/	c #FF2626",
"(	c #CC0000",
"_	c #AC0000",
":	c #830000",
"<	c #5C0000",
"[	c #8E2C2C",
"}	c #8C0000",
"|	c #6A0000",
"1	c #681212",
"2	c #FA2B2B",
"3	c #8A3A33",
"4	c #FA3131",
"5	c #EB0000",
"6	c #D60000",
"7	c #A20000",
"8	c #8B362E",
"9	c #F51616",
"0	c #7C0000",
"a	c #863527",
"b	c #E31616",
"c	c #BC0000",
"d	c #D43131",
"e	c #940606",
"f	c #93362E",
"g	c #CF2A2A",
"h	c #983A33",
"i	c #911212",
"j	c #A82222",
"k	c #9C2D2B",
"l	c #961F1F",
"m	c #9D2828",
"n	c #8B2424",
"o	c #630808",
"p	c #9D2B2B",
"q	c #8D2F2F",
"r	c #8E2E2E",
"s	c #882525",
"t	c #962E2E",
"u	c #9C3333",
"     .+@#$%     ",
"   &*===-;>,'   ",
"  )======!~{]^  ",
" /=======!(_:<[ ",
" ========!(_}|1 ",
"2=======-;~_}||3",
"4======-56~7}]]8",
"9=====-5;(>{:00a",
"b-===-5;(c7}:::a",
"d;!!!!6(c_e::}:f",
"gc~(((~>_e}}}}}h",
" e7_>_7{e:}}e}i ",
" j0}}}}::}}ee}k ",
"  l<|]]0:}}}}m  ",
"   no|]0::},p   ",
"     qrsstu     "};
