/* XPM */
static const char * red_ext_list_16_xpm[] = {
"16 14 56 1",
" 	c None",
".	c #BC5858",
"+	c #833131",
"@	c #A10808",
"#	c #9B1414",
"$	c #743232",
"%	c #A56565",
"&	c #A63E3E",
"*	c #B80606",
"=	c #C10605",
"-	c #BD0605",
";	c #AF0606",
">	c #9A0809",
",	c #810B0A",
"'	c #7F5151",
")	c #BB5959",
"!	c #B60606",
"~	c #CF0404",
"{	c #DE0303",
"]	c #D80303",
"^	c #C30505",
"/	c #A80707",
"(	c #8D090A",
"_	c #700C0C",
":	c #966C6C",
"<	c #823232",
"[	c #DB0303",
"}	c #F70001",
"|	c #EA0202",
"1	c #CC0504",
"2	c #000000",
"3	c #A11313",
"4	c #B90606",
"5	c #D40404",
"6	c #E50202",
"7	c #DE0202",
"8	c #C60405",
"9	c #00FF00",
"0	c #971515",
"a	c #AA0807",
"b	c #BE0606",
"c	c #C80505",
"d	c #843B3A",
"e	c #950909",
"f	c #A40808",
"g	c #AB0707",
"h	c #A16867",
"i	c #7C0B0B",
"j	c #880A0A",
"k	c #8D0A0A",
"l	c #7D5151",
"m	c #6C0C0D",
"n	c #956D6D",
"o	c #583434",
"p	c #510F0F",
"q	c #541A19",
"                ",
"                ",
"     .+@#$%     ",
"    &*=-;>,'    ",
"   )!~{]^/(_:   ",
"   <-[}|12222   ",
"   3456782992   ",
"   0abc22299222 ",
"   defg29999992 ",
"   hijk29999992 ",
"    lm_22299222 ",
"     nopq2992   ",
"         2222   ",
"                "};
