/* XPM */
static char * reload_16_xpm[] = {
"16 16 80 1",
" 	c None",
".	c #3F6989",
"+	c #3D6786",
"@	c #E2ECF5",
"#	c #345772",
"$	c #3B6382",
"%	c #C2D8EA",
"&	c #DAE8F2",
"*	c #A4BBCC",
"=	c #3A617F",
"-	c #335874",
";	c #8DAEC6",
">	c #AFCDE3",
",	c #375F7D",
"'	c #BAD4E7",
")	c #A3BCCE",
"!	c #365D7B",
"~	c #7A99AF",
"{	c #ACCAE1",
"]	c #A2C4DE",
"^	c #345B78",
"/	c #2E5069",
"(	c #3F6682",
"_	c #94B7D1",
":	c #2E536E",
"<	c #90B0C8",
"[	c #97BDDA",
"}	c #658BA8",
"|	c #305672",
"1	c #284860",
"2	c #688DA9",
"3	c #2B506B",
"4	c #92B7D4",
"5	c #8FB8D8",
"6	c #476B86",
"7	c #27475F",
"8	c #2C516C",
"9	c #284C66",
"0	c #8FB8D7",
"a	c #8DB7D7",
"b	c #2C5069",
"c	c #23435A",
"d	c #23465F",
"e	c #86AFCF",
"f	c #45667F",
"g	c #244761",
"h	c #BBD4E7",
"i	c #1F3E56",
"j	c #769DBB",
"k	c #6B8AA1",
"l	c #204058",
"m	c #21425B",
"n	c #193449",
"o	c #597C97",
"p	c #90BADA",
"q	c #95B7D0",
"r	c #2D4D64",
"s	c #1D3D55",
"t	c #91BBDB",
"u	c #BDD6E9",
"v	c #A6C8E2",
"w	c #173349",
"x	c #759CB9",
"y	c #9FC7E5",
"z	c #BED9EE",
"A	c #19374F",
"B	c #9AC4E4",
"C	c #142F44",
"D	c #749AB7",
"E	c #A5CFEF",
"F	c #16334A",
"G	c #AFD4F1",
"H	c #163349",
"I	c #102B3F",
"J	c #122F45",
"K	c #10293D",
"L	c #B4DEFE",
"M	c #D2EBFE",
"N	c #0D2638",
"O	c #0F2B40",
"........        ",
"+@@@@@@+  +++   ",
"#$%%%%%$  $&*=  ",
" -;>>>>,  ,>')! ",
" ~{]]]]^  /(_{~ ",
":<[}|[[|   12[<:",
"34567858    6543",
"90ab c9c999 ba09",
"deaf    ghggfaed",
"ijakl   mahmkaji",
"nopqrs  sttuvpon",
" wxyzA  ABBBBxw ",
"  CDEF  FEEEEGFH",
"   IJK  JLLLLLMJ",
"        NOOOOOON",
"                "};
