/* XPM */
static char * sb_24_xpm[] = {
"24 24 150 2",
"  	c None",
". 	c #F9A879",
"+ 	c #FDB286",
"@ 	c #FEB990",
"# 	c #FABD98",
"$ 	c #F99B63",
"% 	c #FDA470",
"& 	c #FDAB7B",
"* 	c #FEC09B",
"= 	c #FEC7A6",
"- 	c #FACAAE",
"; 	c #F98D4F",
"> 	c #FD975B",
", 	c #FD9E65",
"' 	c #FECDB1",
") 	c #FED4BB",
"! 	c #FAD8C2",
"~ 	c #F98039",
"{ 	c #FD8945",
"] 	c #FD9050",
"^ 	c #FEDBC6",
"/ 	c #FEE2D1",
"( 	c #FAE6D8",
"_ 	c #A23210",
": 	c #F97324",
"< 	c #FD7C2F",
"[ 	c #FD823A",
"} 	c #FCA774",
"| 	c #F8803E",
"1 	c #EF5842",
"2 	c #FCB592",
"3 	c #FEE9DC",
"4 	c #FEEFE7",
"5 	c #FAF2ED",
"6 	c #A57C66",
"7 	c #CE1A12",
"8 	c #ED3719",
"9 	c #FB712C",
"0 	c #FD9A60",
"a 	c #F97E37",
"b 	c #F86C1B",
"c 	c #FA8A4D",
"d 	c #F26A51",
"e 	c #E7271D",
"f 	c #EF5E4C",
"g 	c #FCC1A7",
"h 	c #FDE0CF",
"i 	c #FA9052",
"j 	c #DF5B12",
"k 	c #CD1A12",
"l 	c #E51D14",
"m 	c #EC3B1F",
"n 	c #FB7E40",
"o 	c #FC8D4C",
"p 	c #F97A30",
"q 	c #F86B19",
"r 	c #FB8542",
"s 	c #FDA775",
"t 	c #FDB185",
"u 	c #F89168",
"v 	c #F35C2A",
"w 	c #E51E15",
"x 	c #EF6455",
"y 	c #FCCFBA",
"z 	c #FDD5BE",
"A 	c #F98C4D",
"B 	c #F86714",
"C 	c #DF5C12",
"D 	c #F76415",
"E 	c #F56628",
"F 	c #FD9B60",
"G 	c #FCA573",
"H 	c #F9762B",
"I 	c #F25114",
"J 	c #E62115",
"K 	c #F76315",
"L 	c #E92D14",
"M 	c #EE4928",
"N 	c #FA8E59",
"O 	c #FCA979",
"P 	c #F77846",
"Q 	c #F35317",
"R 	c #E72115",
"S 	c #E82D14",
"T 	c #EE4C2E",
"U 	c #F9986A",
"V 	c #F99972",
"W 	c #F67343",
"X 	c #ED5034",
"Y 	c #E61F15",
"Z 	c #E72114",
"` 	c #F7793D",
" .	c #FA9C65",
"..	c #F77E40",
"+.	c #EC3E1A",
"@.	c #FA8A4A",
"#.	c #FA985F",
"$.	c #F66E29",
"%.	c #F35614",
"&.	c #F67E4D",
"*.	c #EF6B5E",
"=.	c #E7271E",
"-.	c #F96E20",
";.	c #F86716",
">.	c #F86918",
",.	c #F96C1F",
"'.	c #EE3F18",
").	c #EA473F",
"!.	c #F6ADA3",
"~.	c #FAC8B6",
"{.	c #F06B5C",
"].	c #E7261C",
"^.	c #F97D32",
"/.	c #FD8640",
"(.	c #FC7729",
"_.	c #F96916",
":.	c #EA4238",
"<.	c #F69B88",
"[.	c #FAB496",
"}.	c #F26047",
"|.	c #FA823F",
"1.	c #FD9C63",
"2.	c #FC8844",
"3.	c #F96E1E",
"4.	c #99150D",
"5.	c #E11C13",
"6.	c #EA3D30",
"7.	c #F78D6E",
"8.	c #FC995F",
"9.	c #F97225",
"0.	c #F36514",
"a.	c #AE480E",
"b.	c #E41D13",
"c.	c #E11D13",
"d.	c #F36614",
"e.	c #F86813",
"f.	c #E61D13",
"g.	c #E82114",
"h.	c #F46514",
"i.	c #F86614",
"j.	c #E51C13",
"k.	c #E21D14",
"l.	c #E82214",
"m.	c #F46414",
"n.	c #FA6914",
"o.	c #E71E14",
"p.	c #E72113",
"q.	c #F56615",
"r.	c #E62214",
"s.	c #F96613",
"                                                ",
"                                                ",
"                    . + @ #                     ",
"                $ % & + @ * = -                 ",
"            ; > , % & + @ * = ' ) !             ",
"        ~ { ] > , % & + @ * = ' ) ^ / (         ",
"  _ : < [ { ] > , % } | 1 2 = ' ) ^ / 3 4 5 6   ",
"  7 8 9 [ { ] > 0 a b c d e f g ) ^ / 3 h i j   ",
"  k l l m n o p q r s t u v l w x y z A B B C   ",
"  k l l l l D E F % G H B I l l l J B B B B C   ",
"  k l l l l K L M N & O P Q l l l R B B B B C   ",
"  k l l l l K S l l T U V W X Y l R B B B B C   ",
"  k l l l l K S l l l Z B `  ...+.R B B B B C   ",
"  k l l l l K S l l l Z B @.#.$.%.R B B B B C   ",
"  k l l l l &.*.=.l l Z B -.;.>.,.'.B B B B C   ",
"  k l l l l ).!.~.{.].Z B q ^./.(._.B B B B C   ",
"  k l l l l l l :.<.[.}.|.1.2.3.B B B B B B C   ",
"  4.5.l l l l l l l 6.7.8.9.B B B B B B B 0.a.  ",
"      b.c.l l l l l l Z B B B B B B B d.e.      ",
"          f.c.l l l l g.B B B B B h.i.          ",
"              j.k.l l l.B B B m.n.              ",
"                  o.k.p.B q.i.                  ",
"                      r.s.                      ",
"                                                "};
