/* XPM */
static char * sb_32_xpm[] = {
"32 32 213 2",
"  	c None",
". 	c #BF8460",
"+ 	c #FBB286",
"@ 	c #FCB78E",
"# 	c #BE8E72",
"$ 	c #BF7C54",
"% 	c #FBA876",
"& 	c #FDAE7F",
"* 	c #FDB387",
"= 	c #FEB88F",
"- 	c #FEBD97",
"; 	c #FCC09D",
"> 	c #BF967E",
", 	c #BF7346",
"' 	c #FB9C66",
") 	c #FDA46F",
"! 	c #FDA977",
"~ 	c #FEC29F",
"{ 	c #FEC7A7",
"] 	c #FCCCAE",
"^ 	c #BE9E89",
"/ 	c #BE6B3A",
"( 	c #FB9355",
"_ 	c #FD995E",
": 	c #FD9E67",
"< 	c #FECDAF",
"[ 	c #FED2B7",
"} 	c #FCD5BD",
"| 	c #BDA596",
"1 	c #BE642E",
"2 	c #FB8946",
"3 	c #FD8F4E",
"4 	c #FD9456",
"5 	c #FED7BF",
"6 	c #FEDCC8",
"7 	c #FCDFCF",
"8 	c #BEACA1",
"9 	c #BD5D22",
"0 	c #FB7F36",
"a 	c #FD853E",
"b 	c #FD8A46",
"c 	c #FEE1D0",
"d 	c #FEE6D8",
"e 	c #FCE9DE",
"f 	c #BDB3AC",
"g 	c #BE5316",
"h 	c #FB7526",
"i 	c #FD7B2E",
"j 	c #FD8036",
"k 	c #FCAA7A",
"l 	c #F98344",
"m 	c #F05E47",
"n 	c #FDB590",
"o 	c #FEEBE0",
"p 	c #FEF0E8",
"q 	c #FCF2EE",
"r 	c #BEBCB9",
"s 	c #8F120D",
"t 	c #E93317",
"u 	c #FA6B24",
"v 	c #FCA16A",
"w 	c #FA833D",
"x 	c #F86715",
"y 	c #F76B1F",
"z 	c #E82C20",
"A 	c #E51E15",
"B 	c #F0614F",
"C 	c #FDBEA0",
"D 	c #FCE4D5",
"E 	c #F78E52",
"F 	c #993E0D",
"G 	c #8C120D",
"H 	c #E51D14",
"I 	c #EC371B",
"J 	c #FB7432",
"K 	c #FC975A",
"L 	c #FA7F36",
"M 	c #F86814",
"N 	c #F96D1E",
"O 	c #FB8F51",
"P 	c #FDB084",
"Q 	c #FDB38C",
"R 	c #F3785E",
"S 	c #E82718",
"T 	c #EF6553",
"U 	c #FCC8AE",
"V 	c #FDDCC8",
"W 	c #FA8D4F",
"X 	c #F86714",
"Y 	c #963E0D",
"Z 	c #EC3A20",
"` 	c #FB7E41",
" .	c #FC8D4B",
"..	c #FA7A2E",
"+.	c #F96D1D",
"@.	c #FB8A48",
"#.	c #FDA775",
"$.	c #FDB285",
"%.	c #F88C63",
"&.	c #F76C28",
"*.	c #EA3514",
"=.	c #F0685A",
"-.	c #FCD1BE",
";.	c #FDD3BA",
">.	c #FB8A4B",
",.	c #953E0D",
"'.	c #F76315",
").	c #F76416",
"!.	c #FB843F",
"~.	c #FD9C65",
"{.	c #FC975C",
"].	c #F97126",
"^.	c #E62215",
"/.	c #F76115",
"(.	c #F14914",
"_.	c #EE4525",
":.	c #FA8850",
"<.	c #FCA876",
"[.	c #FA8847",
"}.	c #F76618",
"|.	c #E62315",
"1.	c #F14A14",
"2.	c #EE4929",
"3.	c #FA915D",
"4.	c #FCAB84",
"5.	c #F77C4D",
"6.	c #EB3817",
"7.	c #EE4C2E",
"8.	c #FA996A",
"9.	c #F99971",
"0.	c #F77135",
"a.	c #F5865B",
"b.	c #EE5436",
"c.	c #E62116",
"d.	c #E72114",
"e.	c #F79165",
"f.	c #FA9A61",
"g.	c #F88346",
"h.	c #ED4822",
"i.	c #E62114",
"j.	c #FAA06D",
"k.	c #F78044",
"l.	c #F66120",
"m.	c #EE3C15",
"n.	c #FB9C65",
"o.	c #FA843F",
"p.	c #F86716",
"q.	c #EC3A14",
"r.	c #F57A49",
"s.	c #F6AC9D",
"t.	c #EE685E",
"u.	c #E72319",
"v.	c #F96815",
"w.	c #F97222",
"x.	c #FB6E24",
"y.	c #EE4116",
"z.	c #EA443C",
"A.	c #F5ACA4",
"B.	c #FEE7DB",
"C.	c #F9BCAB",
"D.	c #EE6152",
"E.	c #E62218",
"F.	c #F96916",
"G.	c #FA782C",
"H.	c #FB8540",
"I.	c #FD833B",
"J.	c #FC7323",
"K.	c #E94037",
"L.	c #F59F90",
"M.	c #FED5BD",
"N.	c #F8AC92",
"O.	c #EF5947",
"P.	c #E82517",
"Q.	c #F86917",
"R.	c #FA7E37",
"S.	c #FB9358",
"T.	c #FD9557",
"U.	c #FC7F36",
"V.	c #F96C1A",
"W.	c #8E120D",
"X.	c #E93C31",
"Y.	c #F5927B",
"Z.	c #FEC1A0",
"`.	c #F89A77",
" +	c #FBA16B",
".+	c #FDA874",
"++	c #FC8B4A",
"@+	c #F96E1F",
"#+	c #983F0D",
"$+	c #AF150F",
"%+	c #E21D14",
"&+	c #E9382C",
"*+	c #F68767",
"=+	c #FC985D",
"-+	c #F97124",
";+	c #F66714",
">+	c #C45210",
",+	c #AE150F",
"'+	c #B01510",
")+	c #E31D14",
"!+	c #E82114",
"~+	c #F76714",
"{+	c #C55211",
"]+	c #B01610",
"^+	c #B21611",
"/+	c #E82214",
"(+	c #C45111",
"_+	c #B31711",
":+	c #E72113",
"<+	c #C65311",
"[+	c #B41710",
"}+	c #E32014",
"|+	c #F66513",
"                                                                ",
"                                                                ",
"                            . + @ #                             ",
"                        $ % & * = - ; >                         ",
"                    , ' ) ! & * = - ~ { ] ^                     ",
"                / ( _ : ) ! & * = - ~ { < [ } |                 ",
"            1 2 3 4 _ : ) ! & * = - ~ { < [ 5 6 7 8             ",
"        9 0 a b 3 4 _ : ) ! & * = - ~ { < [ 5 6 c d e f         ",
"    g h i j a b 3 4 _ : ) ! k l m n ~ { < [ 5 6 c d o p q r     ",
"  s t u i j a b 3 4 _ : v w x y z A B C < [ 5 6 c d o p D E F   ",
"  G H H I J a b 3 4 K L M N O P Q R S A T U 5 6 c d V W X X Y   ",
"  G H H H H Z `  ...M +.@.#.& $.%.&.*.H H A =.-.;.>.X X X X ,.  ",
"  G H H H H H H '.).!.~.) ! {.].X X *.H H H H ^.X X X X X X ,.  ",
"  G H H H H H H /.(._.:.) ! <.[.}.X *.H H H H |.X X X X X X ,.  ",
"  G H H H H H H /.1.H H 2.3.& * 4.5.6.H H H H |.X X X X X X ,.  ",
"  G H H H H H H /.1.H H H H 7.8.9.0.a.b.c.H H |.X X X X X X ,.  ",
"  G H H H H H H /.1.H H H H H d.X X e.f.g.h.i.|.X X X X X X ,.  ",
"  G H H H H H H /.1.H H H H H d.X X j.f.k.l.m.|.X X X X X X ,.  ",
"  G H H H H H H /.1.H H H H H d.X X n.o.p.X q.|.X X X X X X ,.  ",
"  G H H H H H H r.s.t.u.H H H d.X X X X v.w.x.y.X X X X X X ,.  ",
"  G H H H H H H z.A.B.C.D.E.H d.X X F.G.H.I.J.v.X X X X X X ,.  ",
"  G H H H H H H H H K.L.M.N.O.P.Q.R.S.T.U.V.X X X X X X X X Y   ",
"  W.H H H H H H H H H H X.Y.Z.`. +.+++@+X X X X X X X X X X #+  ",
"    $+%+H H H H H H H H H H &+*+=+-+X X X X X X X X X X ;+>+    ",
"        ,+%+H H H H H H H H H d.X X X X X X X X X X ;+>+        ",
"            '+)+H H H H H H H !+X X X X X X X X ~+{+            ",
"                ]+)+H H H H H !+X X X X X X ~+{+                ",
"                    ^+)+H H H /+X X X X ~+(+                    ",
"                        _+)+H :+X X ~+<+                        ",
"                            [+}+|+<+                            ",
"                                                                ",
"                                                                "};
