/* XPM */
static const char * sortasc_18_12_xpm[] = {
"18 12 2 1",
" 	c None",
".	c #787878",
"                  ",
"                  ",
"                  ",
"                  ",
"         .        ",
"        ...       ",
"       .....      ",
"      .......     ",
"     .........    ",
"                  ",
"                  ",
"                  "};
