/* XPM */
static const char * sortdsclight_16_xpm[] = {
"16 16 3 1",
" 	c None",
".	c #787878",
"+	c #FFFFFF",
"                ",
"                ",
"                ",
"                ",
"                ",
"    ........+   ",
"     .     +    ",
"      .   +     ",
"       . +      ",
"        +       ",
"                ",
"                ",
"                ",
"                ",
"                ",
"                "};
