/* XPM */
static const char * yellow_ext_list_16_xpm[] = {
"16 16 55 1",
" 	c None",
".	c #BCBB58",
"+	c #838231",
"@	c #A2A008",
"#	c #9C9A14",
"$	c #747332",
"%	c #A5A465",
"&	c #A6A53E",
"*	c #B8B606",
"=	c #C1BF05",
"-	c #BDBB05",
";	c #B0AE06",
">	c #9A9808",
",	c #82800A",
"'	c #7F7E51",
")	c #BBB959",
"!	c #B6B406",
"~	c #D0CD04",
"{	c #DFDC03",
"]	c #D9D603",
"^	c #C3C105",
"/	c #A9A707",
"(	c #8D8B09",
"_	c #706F0C",
":	c #96956C",
"<	c #828132",
"[	c #DBD803",
"}	c #F8F500",
"|	c #EAE702",
"1	c #CCCA04",
"2	c #000000",
"3	c #A19F13",
"4	c #BAB806",
"5	c #D4D204",
"6	c #E6E302",
"7	c #DEDB02",
"8	c #C6C404",
"9	c #FF0000",
"0	c #979615",
"a	c #ABA907",
"b	c #BEBC06",
"c	c #C9C705",
"d	c #83843A",
"e	c #959309",
"f	c #A4A208",
"g	c #A0A167",
"h	c #7D7B0B",
"i	c #88860A",
"j	c #8E8C0A",
"k	c #7D7C51",
"l	c #6C6B0C",
"m	c #95946D",
"n	c #585834",
"o	c #51500F",
"p	c #545519",
"                ",
"                ",
"                ",
"     .+@#$%     ",
"    &*=-;>,'    ",
"   )!~{]^/(_:   ",
"   <-[}|12222   ",
"   3456782992   ",
"   0abc22299222 ",
"   defa29999992 ",
"   ghij29999992 ",
"    kl_22299222 ",
"     mnop2992   ",
"         2222   ",
"                ",
"                "};
