/* XPM */
static char * ag_xpm[] = {
"18 12 109 2",
"  	c None",
". 	c #3A080B",
"+ 	c #373737",
"@ 	c #787878",
"# 	c #868686",
"$ 	c #31070C",
"% 	c #CE151C",
"& 	c #000304",
"* 	c #757575",
"= 	c #A8A8A8",
"- 	c #ABABAB",
"; 	c #B0B0AC",
"> 	c #C0C2AC",
", 	c #CA141C",
"' 	c #B3161D",
") 	c #B9131C",
"! 	c #393B3A",
"~ 	c #808080",
"{ 	c #969682",
"] 	c #E2E381",
"^ 	c #F1F181",
"/ 	c #999A82",
"( 	c #7B7B7B",
"_ 	c #AB121A",
": 	c #B6171F",
"< 	c #9C1420",
"[ 	c #D61723",
"} 	c #7D0E16",
"| 	c #1E1E1E",
"1 	c #222222",
"2 	c #252222",
"3 	c #C8C622",
"4 	c #EAEA22",
"5 	c #D5D122",
"6 	c #2B2522",
"7 	c #6A0D14",
"8 	c #98141F",
"9 	c #991423",
"0 	c #A51525",
"a 	c #E51522",
"b 	c #340E1C",
"c 	c #010C2D",
"d 	c #171A14",
"e 	c #D4DC19",
"f 	c #E8EA12",
"g 	c #DEE213",
"h 	c #E5E912",
"i 	c #DFE319",
"j 	c #1F2015",
"k 	c #01092A",
"l 	c #26101D",
"m 	c #A81526",
"n 	c #971322",
"o 	c #971327",
"p 	c #A1142A",
"q 	c #A8152A",
"r 	c #D91617",
"s 	c #3576F0",
"t 	c #3189F3",
"u 	c #2459EC",
"v 	c #164CEF",
"w 	c #154BF0",
"x 	c #2158EC",
"y 	c #3387F3",
"z 	c #3179F2",
"A 	c #AF1325",
"B 	c #981327",
"C 	c #941226",
"D 	c #BB100A",
"E 	c #BE111C",
"F 	c #1A77F9",
"G 	c #1054E5",
"H 	c #1252E4",
"I 	c #174DE0",
"J 	c #147AF9",
"K 	c #B51429",
"L 	c #C00E04",
"M 	c #B41626",
"N 	c #C00200",
"O 	c #C8465B",
"P 	c #F4F8F9",
"Q 	c #E5EDF3",
"R 	c #E5E9F1",
"S 	c #EEFDFD",
"T 	c #C95774",
"U 	c #AF1626",
"V 	c #AD1521",
"W 	c #B51721",
"X 	c #BA1820",
"Y 	c #BC1721",
"Z 	c #F2B6B5",
"` 	c #FBFFFF",
" .	c #FEFDFA",
"..	c #F8CDCB",
"+.	c #AF161E",
"@.	c #A3151D",
"#.	c #BC101B",
"$.	c #B10000",
"%.	c #BB0C17",
"&.	c #B30005",
"*.	c #B30612",
"=.	c #9D141C",
"-.	c #A21423",
";.	c #980000",
">.	c #B7568A",
",.	c #B964A1",
"'.	c #A21526",
").	c #9F141C",
"!.	c #921318",
". + @ # # # # # # # # # # # # @ + $ ",
"% & * = - = = ; ; > ; = = = = * & , ",
"' ) ! @ ~ ~ { ] ^ ^ ^ / ~ ~ ( ! _ : ",
"< [ } | 1 2 3 4 4 4 4 5 6 1 1 7 [ 8 ",
"9 0 a b c d e f g g h i j k l a m n ",
"o p q r s t u v v w w x y z [ A B C ",
"B p q D E F G H I H I H J K L q p o ",
"9 m M M N O P Q R R R S T N M U 0 n ",
"9 V W X Y N Z `  . .` ..N Y Y W +.8 ",
"@.' W Y Y #.$.P ` ` ` $.%.Y Y : +.@.",
"@.: W W M M &.*.` P M $.M W W W +.=.",
"=.@.@.-.0 0 p ;.>.,.;.p 0 '.'.).=.!."};
