/* XPM */
static const char * ai_xpm[] = {
"18 12 117 2",
"  	c None",
". 	c #CC6B6E",
"+ 	c #D9A6B8",
"@ 	c #8084BF",
"# 	c #8D8EC4",
"$ 	c #EBA7AE",
"% 	c #8B8ED3",
"& 	c #8B8CC0",
"* 	c #E1B3CF",
"= 	c #EBD7DB",
"- 	c #8B8CCD",
"; 	c #8B8DC7",
"> 	c #8889BD",
", 	c #B2769D",
"' 	c #44448B",
") 	c #101064",
"! 	c #171F8B",
"~ 	c #AA6C84",
"{ 	c #EECEE6",
"] 	c #D5F2F4",
"^ 	c #F2C2C4",
"/ 	c #F2C6CC",
"( 	c #CDD4EC",
"_ 	c #F5ECE8",
": 	c #E8E6F5",
"< 	c #B0BEE7",
"[ 	c #B0B1D7",
"} 	c #AEAED1",
"| 	c #6E84CC",
"1 	c #12126D",
"2 	c #0F1068",
"3 	c #D54646",
"4 	c #C9464B",
"5 	c #DF5D5A",
"6 	c #F1AFA9",
"7 	c #E58989",
"8 	c #F1A7A4",
"9 	c #EDAAAF",
"0 	c #E699A0",
"a 	c #8484B2",
"b 	c #8080B5",
"c 	c #D64242",
"d 	c #C4323F",
"e 	c #DB565B",
"f 	c #E9655D",
"g 	c #D53233",
"h 	c #EA7B73",
"i 	c #DE4A4A",
"j 	c #DA5F66",
"k 	c #EA6E66",
"l 	c #313287",
"m 	c #676D94",
"n 	c #767CA4",
"o 	c #626491",
"p 	c #4C5182",
"q 	c #0F1073",
"r 	c #132DA9",
"s 	c #C5B2E4",
"t 	c #E8CDBD",
"u 	c #EC5667",
"v 	c #EA4C50",
"w 	c #85E9EC",
"x 	c #ECADDB",
"y 	c #1131A8",
"z 	c #131486",
"A 	c #131482",
"B 	c #131470",
"C 	c #ECECE5",
"D 	c #EAEA94",
"E 	c #E8E8B9",
"F 	c #E4E4E3",
"G 	c #D8B4BE",
"H 	c #E775A3",
"I 	c #0E1080",
"J 	c #0F17B8",
"K 	c #F25E6C",
"L 	c #F36067",
"M 	c #1015AB",
"N 	c #0F27B4",
"O 	c #F4E4D8",
"P 	c #F492AA",
"Q 	c #11139E",
"R 	c #1013A1",
"S 	c #F0E6C3",
"T 	c #E7D8B1",
"U 	c #0E0F94",
"V 	c #0F109F",
"W 	c #0F11A0",
"X 	c #0F12A5",
"Y 	c #1013A4",
"Z 	c #1013A3",
"` 	c #121393",
" .	c #12138E",
"..	c #E1DED8",
"+.	c #F0F0D9",
"@.	c #C8C8CC",
"#.	c #121383",
"$.	c #0F1088",
"%.	c #10118E",
"&.	c #121390",
"*.	c #131489",
"=.	c #15187F",
"-.	c #11F8F8",
";.	c #14147C",
">.	c #0F107E",
",.	c #293F7E",
"'.	c #28377B",
").	c #0F106C",
"!.	c #12138C",
"~.	c #141479",
"{.	c #131375",
"].	c #0F1097",
"^.	c #11139B",
"/.	c #0F129C",
"(.	c #0F108C",
"_.	c #111167",
":.	c #0F0F5D",
". + @ # $ $ % & * = - - ; # > , ' ) ",
"! ~ { ] ^ / ( _ : < [ [ [ [ } | 1 2 ",
"3 4 5 6 7 7 8 9 0 8 > > @ a b ' 1 1 ",
"c d e f g g h i j k l l l m n o p q ",
"r s t | u v w x , y z A B C D E F 2 ",
"G H I J K L M N O P Q R R S S T T U ",
"I V W X Y Z Y ` Y M R R  ...D +.@.#.",
"$.%.%.&.&.&.%.%. . . . .*.=.-.-.;.I ",
">.A A ;.A A z A z z A z z 1 ,.'.q q ",
"q ).>.=.A z !. . .!. .z z =.~.{.~.).",
") B >.A !. .].^./.Q ^.^.` (.A ;.B _.",
") ).;.A $.].].V /.V /.].` (.>.;.).:."};
