/* XPM */
static char * al_xpm[] = {
"18 12 101 2",
"  	c None",
". 	c #9C0A21",
"+ 	c #B53F52",
"@ 	c #CD7D8D",
"# 	c #D08B99",
"$ 	c #CF899B",
"% 	c #CE899C",
"& 	c #BF4256",
"* 	c #940A20",
"= 	c #A30A22",
"- 	c #AD0B25",
"; 	c #D27B8A",
"> 	c #E2ACB5",
", 	c #E2AFB9",
"' 	c #A20A25",
") 	c #D5818F",
"! 	c #D68594",
"~ 	c #E48594",
"{ 	c #DA8595",
"] 	c #DE8695",
"^ 	c #E08594",
"/ 	c #9F0A28",
"( 	c #AA0C29",
"_ 	c #AD0C28",
": 	c #B82941",
"< 	c #C42C45",
"[ 	c #892F42",
"} 	c #693140",
"| 	c #663140",
"1 	c #56323F",
"2 	c #49323F",
"3 	c #803041",
"4 	c #B82D45",
"5 	c #BB2C45",
"6 	c #9B0A27",
"7 	c #9D0A2E",
"8 	c #A80B2E",
"9 	c #AC0C2E",
"0 	c #BB0D2E",
"a 	c #A0102B",
"b 	c #011624",
"c 	c #371525",
"d 	c #281524",
"e 	c #3E1429",
"f 	c #2A1626",
"g 	c #C60D30",
"h 	c #B20D2E",
"i 	c #A60B2C",
"j 	c #9B0A32",
"k 	c #A60B35",
"l 	c #AB0B35",
"m 	c #AD0B36",
"n 	c #B70B36",
"o 	c #B50D34",
"p 	c #04152A",
"q 	c #12162A",
"r 	c #18172B",
"s 	c #16172B",
"t 	c #BD0C35",
"u 	c #960A30",
"v 	c #9C0A33",
"w 	c #B00B37",
"x 	c #BA0C37",
"y 	c #35142E",
"z 	c #32152E",
"A 	c #28152C",
"B 	c #3A132F",
"C 	c #CD0D37",
"D 	c #AD0B30",
"E 	c #B40C30",
"F 	c #B80D30",
"G 	c #8B102D",
"H 	c #501428",
"I 	c #301626",
"J 	c #4B132A",
"K 	c #BF0D30",
"L 	c #B80C2B",
"M 	c #BD0D2B",
"N 	c #C20D2C",
"O 	c #4D1328",
"P 	c #7E1228",
"Q 	c #1B1624",
"R 	c #371427",
"S 	c #C60E2E",
"T 	c #C30D2D",
"U 	c #9D0B27",
"V 	c #BA0C28",
"W 	c #EB0D2E",
"X 	c #5C122B",
"Y 	c #92102D",
"Z 	c #DF0D2F",
"` 	c #E40D2E",
" .	c #A70B23",
"..	c #B50C27",
"+.	c #BA0D2C",
"@.	c #D70B35",
"#.	c #CA0C35",
"$.	c #B70C29",
"%.	c #A50B26",
"&.	c #A70B29",
"*.	c #A40B33",
". + @ # $ $ % % % % % % % % # @ & * ",
"= - ; > , , , , , , , , , , > ; - = ",
"' - & ) ! ! ~ { ] { { ^ ! { ; & - / ",
"/ ( _ : < [ } | 1 2 } 3 4 5 : _ ( 6 ",
"7 8 9 9 0 a b c d e f b g h 9 9 i 7 ",
"j k l m n o p q r r s p t n l l k u ",
"v l l w x o y z s r A B C o w m k v ",
"7 D E F g G e H I f J J g K F E 9 7 ",
"' - L M N N O P b Q P R S T M L _ U ",
"' L V M N S W S X Y Z ` T T M V L . ",
" ...0 +.0 F F t @.#.x F K F L $...= ",
"= %.&.i 8 *.k k *.k *.*.*.i i %.' * "};
