/* XPM */
static char * aq_xpm[] = {
"18 12 113 2",
"  	c None",
". 	c #495ECC",
"+ 	c #7484DF",
"@ 	c #9FACE9",
"# 	c #A6B3EB",
"$ 	c #A3B1EB",
"% 	c #7283DD",
"& 	c #4D62D6",
"* 	c #5167E0",
"= 	c #A5B0EF",
"- 	c #C3CBF5",
"; 	c #C3CCF5",
"> 	c #C4CCF5",
", 	c #C2CBF3",
"' 	c #C6CFF2",
") 	c #BEC8F4",
"! 	c #4B61D6",
"~ 	c #5168E2",
"{ 	c #7F90EA",
"] 	c #A5B0F1",
"^ 	c #A7B3F1",
"/ 	c #CDD4E9",
"( 	c #E6E8ED",
"_ 	c #DFE1ED",
": 	c #C7CFE9",
"< 	c #AFB9EB",
"[ 	c #8099E9",
"} 	c #485FD7",
"| 	c #4D65E3",
"1 	c #4F66E4",
"2 	c #7181D6",
"3 	c #7081E1",
"4 	c #5E74E9",
"5 	c #E6E6E3",
"6 	c #ECECEC",
"7 	c #EAEAEA",
"8 	c #DCDDE2",
"9 	c #8E9DDC",
"0 	c #6177E9",
"a 	c #6579E9",
"b 	c #5068E5",
"c 	c #435ED8",
"d 	c #4966E5",
"e 	c #4865E8",
"f 	c #5B74E0",
"g 	c #AAB3D9",
"h 	c #8799DD",
"i 	c #B2BBDD",
"j 	c #ECECEA",
"k 	c #435FE7",
"l 	c #4465EA",
"m 	c #445FDB",
"n 	c #3D5BD9",
"o 	c #4364E8",
"p 	c #4565ED",
"q 	c #3E5FEF",
"r 	c #F4F4F0",
"s 	c #F4F4F4",
"t 	c #4364F0",
"u 	c #3D5CDA",
"v 	c #4668F0",
"w 	c #3F62F2",
"x 	c #7D97EA",
"y 	c #F9F9F7",
"z 	c #F9F9F9",
"A 	c #F9F8F3",
"B 	c #7191ED",
"C 	c #4B69EC",
"D 	c #4E6BF3",
"E 	c #4D69F7",
"F 	c #6079EF",
"G 	c #DCE1F1",
"H 	c #FDFDFC",
"I 	c #EDEFF4",
"J 	c #6A85EE",
"K 	c #4A68F8",
"L 	c #4E6EF9",
"M 	c #4963DE",
"N 	c #526BED",
"O 	c #556FF4",
"P 	c #566FF2",
"Q 	c #516CF9",
"R 	c #7C8FED",
"S 	c #BFC8EF",
"T 	c #D1D6F1",
"U 	c #B8C2EC",
"V 	c #516CF6",
"W 	c #5A73F9",
"X 	c #5770F9",
"Y 	c #4D64DB",
"Z 	c #556CED",
"` 	c #586FF4",
" .	c #5A74FD",
"..	c #526EFD",
"+.	c #4A67FD",
"@.	c #CDD4EB",
"#.	c #D4D9EE",
"$.	c #5471FA",
"%.	c #556DEB",
"&.	c #5571F7",
"*.	c #4F6FFC",
"=.	c #4C6DFC",
"-.	c #6A89F2",
";.	c #6F8EF1",
">.	c #5673F2",
",.	c #4A5FD0",
"'.	c #4662E3",
").	c #4362E4",
"!.	c #3B5CE4",
"~.	c #3A5AE4",
"{.	c #3E5EE4",
"].	c #4A64DC",
"^.	c #495DCA",
". + @ # # $ $ $ @ @ $ # $ # # @ % . ",
"& * = - ; > ; , ' ; ) ) ; ; > @ * & ",
"! ~ { ] ] ^ = / ( _ : < ] ] ] [ * ! ",
"} | 1 2 3 4 % 5 6 7 7 8 9 0 a b | } ",
"c d e f g h i 6 6 6 6 j $ k 1 l d m ",
"n o p q [ r s s s s s s : b t p l n ",
"u l v w x y z z z z z z A B t t p n ",
"m C D E F G H H H H H H I J K L C m ",
"M N O P Q R S ) T z H H U V W X N } ",
"Y Z ` W  ...L +.E @.y #.F $.W O Z Y ",
"Y %.P &...$.*.=.L -.;.>.K W &.P %.Y ",
",.Y M '.'.).).).).!.~.{.).d M ].} ^."};
