/* XPM */
static const char * as_xpm[] = {
"18 12 129 2",
"  	c None",
". 	c #000066",
"+ 	c #393991",
"@ 	c #7A7AB9",
"# 	c #8686C4",
"$ 	c #8585C9",
"% 	c #8585CC",
"& 	c #8686BE",
"* 	c #7F7AB2",
"= 	c #68395A",
"- 	c #8E2240",
"; 	c #00006B",
"> 	c #000072",
", 	c #A9A9D3",
"' 	c #ABABD8",
") 	c #ABABDC",
"! 	c #ABABD3",
"~ 	c #B0ABC2",
"{ 	c #D3AFC8",
"] 	c #F3C9CF",
"^ 	c #E0A996",
"/ 	c #E2E2E2",
"( 	c #D6D6D6",
"_ 	c #000074",
": 	c #424298",
"< 	c #7C7CB9",
"[ 	c #8080BF",
"} 	c #8080C2",
"| 	c #8080B5",
"1 	c #91809A",
"2 	c #C1839D",
"3 	c #F1B1B5",
"4 	c #F1F1E9",
"5 	c #F1F1F1",
"6 	c #9A9A81",
"7 	c #807F65",
"8 	c #00007D",
"9 	c #000080",
"0 	c #1F1F90",
"a 	c #222285",
"b 	c #222273",
"c 	c #582246",
"d 	c #AA3A5D",
"e 	c #EA8D8F",
"f 	c #EAE3D0",
"g 	c #ECECEC",
"h 	c #E1EAEA",
"i 	c #442E22",
"j 	c #491F1F",
"k 	c #67492A",
"l 	c #7C8799",
"m 	c #B6BABF",
"n 	c #000094",
"o 	c #000084",
"p 	c #000058",
"q 	c #4E002C",
"r 	c #B53358",
"s 	c #EC9598",
"t 	c #ECECDF",
"u 	c #240101",
"v 	c #460401",
"w 	c #5B2600",
"x 	c #633500",
"y 	c #9CA6BC",
"z 	c #85084E",
"A 	c #E871A3",
"B 	c #EDD8D3",
"C 	c #F5F5F5",
"D 	c #F4F4F4",
"E 	c #686382",
"F 	c #563816",
"G 	c #6B4B36",
"H 	c #330800",
"I 	c #EBEBEB",
"J 	c #D4D7D8",
"K 	c #7B024D",
"L 	c #DC649D",
"M 	c #F0C3CB",
"N 	c #F8F8F8",
"O 	c #AABBC9",
"P 	c #F3F8F8",
"Q 	c #AA9BBB",
"R 	c #513917",
"S 	c #DBDBDB",
"T 	c #00008A",
"U 	c #440032",
"V 	c #AF2456",
"W 	c #FD8E9A",
"X 	c #FDFDE3",
"Y 	c #FFFFFF",
"Z 	c #F8FAFC",
"` 	c #C2B28E",
" .	c #BCA257",
"..	c #C7B6A3",
"+.	c #6E6421",
"@.	c #ADABB4",
"#.	c #00008C",
"$.	c #00006D",
"%.	c #340036",
"&.	c #9E1042",
"*.	c #FF7A81",
"=.	c #FFE9D3",
"-.	c #E6F9E8",
";.	c #869552",
">.	c #A0A174",
",.	c #878B55",
"'.	c #D6D6DC",
").	c #00007B",
"!.	c #000092",
"~.	c #1D0043",
"{.	c #840038",
"].	c #FF7190",
"^.	c #FFB89E",
"/.	c #DAC545",
"(.	c #B8CA74",
"_.	c #A1C5A4",
":.	c #E3EDED",
"<.	c #00009A",
"[.	c #00009F",
"}.	c #0000A6",
"|.	c #0000A9",
"1.	c #0000A2",
"2.	c #12007B",
"3.	c #7A0173",
"4.	c #F16596",
"5.	c #F2CEC5",
"6.	c #000050",
"7.	c #36002E",
"8.	c #851C3B",
". + @ # # $ % % % % % % % $ & * = - ",
"; > @ , ' ' ' ' ) ) ) ! ~ { ] ^ / ( ",
"> _ : < [ } } < | 1 2 3 4 5 6 7 / ( ",
"8 9 9 0 a b c d e f g g h i j k l m ",
"n o p q r s t g g g g g u v w x y ( ",
"z A B 5 5 C C C D D D C E F G H I J ",
"K L M C N N N N N N N 5 O P Q R I S ",
"n T . U V W X Y Y Y Z `  ...+.@.g S ",
"9 o T #.9 $.%.&.*.=.Y Y -.;.>.,.'.S ",
"_ ).8 9 T #.!.#.).~.{.].^./.(._.:.S ",
"$._ 9 T !.<.[.[.}.|.1.T 2.3.4.5.I S ",
"; _ 8 T !.<.[.1.1.}.1.[.[.!.).6.7.8."};
