/* XPM */
static char * ax_xpm[] = {
"18 12 129 2",
"  	c None",
". 	c #004283",
"+ 	c #386DA7",
"@ 	c #799CC7",
"# 	c #87A6CF",
"$ 	c #86A2D4",
"% 	c #ADBFB4",
"& 	c #E8B68D",
"* 	c #D98FA0",
"= 	c #E1CD8F",
"- 	c #8CA9D4",
"; 	c #86A4D7",
"> 	c #86A5D1",
", 	c #00458A",
"' 	c #004892",
") 	c #749BC5",
"! 	c #A9C1DD",
"~ 	c #ACC3E2",
"{ 	c #CBD6CA",
"] 	c #F3D0B1",
"^ 	c #E9B3BD",
"/ 	c #EEE0B2",
"( 	c #B1C6E0",
"_ 	c #ACC3DF",
": 	c #00448F",
"< 	c #004A95",
"[ 	c #3972AD",
"} 	c #7DA2CA",
"| 	c #82A5D1",
"1 	c #B4C3AB",
"2 	c #EFBA88",
"3 	c #E08D9A",
"4 	c #E7D289",
"5 	c #89AACC",
"6 	c #82A5CF",
"7 	c #00409B",
"8 	c #0045A1",
"9 	c #00469F",
"0 	c #1F5CAB",
"a 	c #245BB4",
"b 	c #789670",
"c 	c #E6882F",
"d 	c #CB374C",
"e 	c #D9B331",
"f 	c #2D6AA6",
"g 	c #245FB1",
"h 	c #2461AD",
"i 	c #9A962B",
"j 	c #A5A12C",
"k 	c #A9A42C",
"l 	c #AEA72B",
"m 	c #AEA730",
"n 	c #C4BB26",
"o 	c #DD7716",
"p 	c #C31737",
"q 	c #E7B806",
"r 	c #B4AE29",
"s 	c #B4AD2C",
"t 	c #AFA92C",
"u 	c #ACA52B",
"v 	c #A09928",
"w 	c #959129",
"x 	c #C33A24",
"y 	c #D13E27",
"z 	c #D53F27",
"A 	c #D84028",
"B 	c #DC4227",
"C 	c #C7283B",
"D 	c #C11043",
"E 	c #CE3931",
"F 	c #BC3823",
"G 	c #C13527",
"H 	c #CF3A2A",
"I 	c #D53B2A",
"J 	c #D93C2B",
"K 	c #DC3D2B",
"L 	c #CB273D",
"M 	c #C51145",
"N 	c #D23734",
"O 	c #DF3F2B",
"P 	c #BA3326",
"Q 	c #B9B12C",
"R 	c #BDB42B",
"S 	c #DCCE15",
"T 	c #ED7D16",
"U 	c #D01739",
"V 	c #F7C405",
"W 	c #9A9427",
"X 	c #00429E",
"Y 	c #0049A6",
"Z 	c #004FA6",
"` 	c #004FAE",
" .	c #0049B8",
"..	c #70945F",
"+.	c #FA810E",
"@.	c #D71933",
"#.	c #E9B910",
"$.	c #0D5BA5",
"%.	c #004FB5",
"&.	c #0050AF",
"*.	c #0050B1",
"=.	c #004692",
"-.	c #004C9C",
";.	c #004EA1",
">.	c #0049B3",
",.	c #D61836",
"'.	c #E4B413",
").	c #115BA9",
"!.	c #0050A9",
"~.	c #004C98",
"{.	c #00438D",
"].	c #699068",
"^.	c #F67C10",
"/.	c #1059B5",
"(.	c #004CBE",
"_.	c #004EBA",
":.	c #004CA9",
"<.	c #004386",
"[.	c #004599",
"}.	c #0040AF",
"|.	c #578067",
"1.	c #DD6D10",
"2.	c #B9153B",
"3.	c #CDA013",
"4.	c #0E4EB0",
"5.	c #0044B2",
"6.	c #0045A9",
"7.	c #004497",
"8.	c #003E7C",
". + @ # $ % & * = - $ ; ; > # @ + . ",
", ' ) ! ~ { ] ^ / ( ~ ~ _ _ ! ) ' , ",
": < [ } | 1 2 3 4 5 | 6 6 6 } [ < : ",
"7 8 9 0 a b c d e f g h h h 0 9 8 7 ",
"i j k l m n o p q r s s t s u j v w ",
"x y z A B A C D E A A B B A B y y F ",
"G H I J K J L M N O O O K J J I y P ",
"v l s Q R S T U V n R R R R Q s l W ",
"X Y Z `  ...+.@.#.$.%.&.*.` ` Z Y 7 ",
"=.-.;.Z >...+.,.'.).%.*.&.!.Z ;.~.{.",
": ~.;.!. .].^.U './.(._.%.&.:.;.~., ",
"<.=.[.8 }.|.1.2.3.4.5.5.5.6.8 7.: 8."};
