/* XPM */
static char * bb_xpm[] = {
"18 12 115 2",
"  	c None",
". 	c #062771",
"+ 	c #3C5697",
"@ 	c #7B8DBD",
"# 	c #8999C7",
"$ 	c #8696CB",
"% 	c #8590D2",
"& 	c #EBDD85",
"* 	c #EBD785",
"= 	c #8591CF",
"- 	c #8696CC",
"; 	c #062876",
"> 	c #072B7D",
", 	c #798CBB",
"' 	c #AAB6D6",
") 	c #ACB8D9",
"! 	c #ABB2DF",
"~ 	c #F5EBAB",
"{ 	c #F5E7AB",
"] 	c #ABB4DC",
"^ 	c #06277C",
"/ 	c #072C80",
"( 	c #3E5B9C",
"_ 	c #7F92BE",
": 	c #8194C2",
"< 	c #808BCB",
"[ 	c #F1E280",
"} 	c #F1E080",
"| 	c #F1E680",
"1 	c #808EC6",
"2 	c #072B87",
"3 	c #062B8A",
"4 	c #244494",
"5 	c #254599",
"6 	c #223AA7",
"7 	c #EAD322",
"8 	c #8D7C22",
"9 	c #CEAE22",
"0 	c #8E7B22",
"a 	c #EAD622",
"b 	c #223F9C",
"c 	c #062784",
"d 	c #062794",
"e 	c #062A99",
"f 	c #082F94",
"g 	c #0116A5",
"h 	c #ECE701",
"i 	c #987C01",
"j 	c #7C6B01",
"k 	c #726401",
"l 	c #8A7201",
"m 	c #ECEC01",
"n 	c #011D9A",
"o 	c #062B96",
"p 	c #062692",
"q 	c #0526A1",
"r 	c #052AAA",
"s 	c #052AAC",
"t 	c #0229B2",
"u 	c #0016BC",
"v 	c #F4DE00",
"w 	c #E5B400",
"x 	c #5F5900",
"y 	c #696100",
"z 	c #CDA100",
"A 	c #F4EE00",
"B 	c #001CB4",
"C 	c #05259D",
"D 	c #062BB0",
"E 	c #062CB1",
"F 	c #032AB4",
"G 	c #0018C0",
"H 	c #F9DB00",
"I 	c #F9E700",
"J 	c #131300",
"K 	c #0B0800",
"L 	c #F9DE00",
"M 	c #001CB8",
"N 	c #062B9D",
"O 	c #042BA1",
"P 	c #072D9F",
"Q 	c #0019B1",
"R 	c #FDD800",
"S 	c #FDF300",
"T 	c #AE8B00",
"U 	c #FDF500",
"V 	c #072E9F",
"W 	c #072992",
"X 	c #042D96",
"Y 	c #001AAA",
"Z 	c #B79500",
"` 	c #FFDD00",
" .	c #FFE400",
"..	c #00209C",
"+.	c #032D97",
"@.	c #062C8F",
"#.	c #062786",
"$.	c #072D85",
"%.	c #082F8B",
"&.	c #FFCF00",
"*.	c #FFD000",
"=.	c #08308E",
"-.	c #082F89",
";.	c #082F91",
">.	c #FCCA00",
",.	c #FCE100",
"'.	c #001FA5",
").	c #032C9F",
"!.	c #03279B",
"~.	c #0017AE",
"{.	c #E5C400",
"].	c #E5B800",
"^.	c #E6CB00",
"/.	c #001AA5",
"(.	c #06256B",
". + @ # $ % & * * * * & = - # @ + . ",
"; > , ' ) ! ~ { { { { ~ ] ) ' , > ; ",
"^ / ( _ : < [ [ [ } [ | 1 : _ ( > ^ ",
"2 3 2 4 5 6 7 8 9 9 0 a b 5 4 2 3 c ",
"d e e f e g h i j k l m n e o e e p ",
"q r s s t u v w x y z A B t s s r C ",
"q s D E F G H I J K L I M F E E r C ",
"d N O P O Q R S T i U L q O V O N p ",
"3 W f f X Y H R Z T `  ...+.f f @.#.",
"^ $.$.%.X Y ` &.&.&.*. ...+.@.=.2 ^ ",
"; / -.;.P Q R *.>.>.&.,.'.).;.=./ ; ",
"; / 3 W !.~.{.].w w w ^./.!.W 2 > (."};
