/* XPM */
static const char * be_xpm[] = {
"18 12 70 1",
" 	c None",
".	c #000000",
"+	c #373737",
"@	c #787878",
"#	c #868686",
"$	c #EBE185",
"%	c #EBDC85",
"&	c #EBD985",
"*	c #EAE785",
"=	c #D28686",
"-	c #CD7878",
";	c #B63737",
">	c #9D0000",
",	c #757575",
"'	c #A8A8A8",
")	c #ABABAB",
"!	c #F4F2AB",
"~	c #F5EAAB",
"{	c #E3ABAB",
"]	c #E3A8A8",
"^	c #D37575",
"/	c #AF0000",
"(	c #A30000",
"_	c #393939",
":	c #808080",
"<	c #F1E880",
"[	c #F1E180",
"}	c #F1ED80",
"|	c #D78080",
"1	c #D67B7B",
"2	c #C13939",
"3	c #1E1E1E",
"4	c #222222",
"5	c #EADA22",
"6	c #EACE22",
"7	c #EAC922",
"8	c #E9E222",
"9	c #BB2222",
"0	c #BA1E1E",
"a	c #ECD801",
"b	c #ECCB01",
"c	c #ECC501",
"d	c #EBE301",
"e	c #B10101",
"f	c #A90000",
"g	c #9A0000",
"h	c #F4DD00",
"i	c #F4CD00",
"j	c #F4CA00",
"k	c #F3E900",
"l	c #A70000",
"m	c #FCE600",
"n	c #F9D500",
"o	c #F9CF00",
"p	c #F9D200",
"q	c #FCF300",
"r	c #B50000",
"s	c #FFEA00",
"t	c #FDD900",
"u	c #FDD300",
"v	c #FDD600",
"w	c #BD0000",
"x	c #B90000",
"y	c #FFDB00",
"z	c #C10000",
"A	c #E5CF00",
"B	c #E5C200",
"C	c #E6BD00",
"D	c #E5DB00",
"E	c #960000",
".+@###$%&&&*===-;>",
"..,')'!~~~~!{{]^/(",
".._@::<[&[[}||12/(",
"...344567778990//>",
"......abcccd//e/fg",
"......hijiik////lg",
"......mniopqereefg",
"......stuuvqwwxr/>",
"......syvvtqzzzxe(",
"......stvuvqwzzwr(",
"......snuouqxwwxr(",
"......ABCCCDlffflE"};
