/* XPM */
static const char * bm_xpm[] = {
"18 12 109 2",
"  	c None",
". 	c #AE4953",
"+ 	c #CDA7B0",
"@ 	c #909BC3",
"# 	c #8686AD",
"$ 	c #9E9FCB",
"% 	c #E4969A",
"& 	c #92A2D6",
"* 	c #8585B9",
"= 	c #9788B5",
"- 	c #E0B2CB",
"; 	c #DEC1D5",
"> 	c #D38585",
", 	c #D48686",
"' 	c #D07878",
") 	c #BB3737",
"! 	c #A30000",
"~ 	c #102081",
"{ 	c #6C4975",
"] 	c #EEC5C7",
"^ 	c #E9DAF4",
"/ 	c #D8E4F1",
"( 	c #EFB2AD",
"_ 	c #D3D7F0",
": 	c #E8CADA",
"< 	c #F5EBEF",
"[ 	c #C6DFF4",
"} 	c #BDB6DE",
"| 	c #E9ABAB",
"1 	c #E5ABAB",
"2 	c #D67575",
"3 	c #B50000",
"4 	c #AA0000",
"5 	c #D33333",
"6 	c #CA2937",
"7 	c #C75257",
"8 	c #E59287",
"9 	c #E6928C",
"0 	c #DA8080",
"a 	c #E88C84",
"b 	c #E49A9C",
"c 	c #DD979A",
"d 	c #E58883",
"e 	c #E8978E",
"f 	c #C67381",
"g 	c #D97B7B",
"h 	c #C43939",
"i 	c #BB0000",
"j 	c #542157",
"k 	c #735189",
"l 	c #E4AEB1",
"m 	c #E9726D",
"n 	c #D98C94",
"o 	c #BD2622",
"p 	c #E6C1C3",
"q 	c #EAA3A0",
"r 	c #DD6664",
"s 	c #7B5E91",
"t 	c #7B5480",
"u 	c #CA2222",
"v 	c #C12222",
"w 	c #265FBC",
"x 	c #B4BECF",
"y 	c #B0759F",
"z 	c #000C8F",
"A 	c #3377D1",
"B 	c #D92417",
"C 	c #1677DB",
"D 	c #0F62CA",
"E 	c #D2C7C6",
"F 	c #A680A6",
"G 	c #2F2A8B",
"H 	c #C14556",
"I 	c #D4DFDD",
"J 	c #B56D9D",
"K 	c #D83C3E",
"L 	c #A70A15",
"M 	c #310037",
"N 	c #2D002D",
"O 	c #821F53",
"P 	c #DB0F00",
"Q 	c #731B57",
"R 	c #2A0004",
"S 	c #3A0044",
"T 	c #D878A6",
"U 	c #EB3530",
"V 	c #C8375F",
"W 	c #988996",
"X 	c #225590",
"Y 	c #E20000",
"Z 	c #F10000",
"` 	c #D10000",
" .	c #D80000",
"..	c #F50000",
"+.	c #E60000",
"@.	c #BE0000",
"#.	c #C00000",
"$.	c #C10201",
"%.	c #B20609",
"&.	c #4C7889",
"*.	c #4E9FA4",
"=.	c #5F2629",
"-.	c #A70000",
";.	c #C40000",
">.	c #CB0000",
",.	c #930000",
"'.	c #4C1A00",
").	c #AE0000",
"!.	c #9B0000",
". + @ # $ % & * = - ; > > > , ' ) ! ",
"~ { ] ^ / ( _ : < [ } | 1 1 1 2 3 4 ",
"5 6 7 8 9 0 a b c d e 0 d f g h i 4 ",
"j k l m n o p q r s t u v o o ' . . ",
"w x y z A B C D E F G i i 3 H I J x ",
"K L M N O P Q R S T U i i i V W X J ",
"! 3 Y Z ` i  ...+.@.@.#.i $.%.&.*.=.",
"-.3 i #.;.;.;.;.>.;.;.;.;.;.>.,.'.).",
"4 i #.;.>.;.;.>.;.>.;.>.>.>.;.>.>.4 ",
").@.;.;.>.>.>.>.>.>.>.>.>.;.>.#.@.-.",
").i @.#.#.;.#.#.@.@.@.#.;.;.@.#.i 4 ",
"-.).3 ).).).).).).).).).).).).).-.!."};
