/* XPM */
static const char * bs_xpm[] = {
"18 12 85 1",
" 	c None",
".	c #000223",
"+	c #3739C4",
"@	c #787ADD",
"#	c #8687D5",
"$	c #8586D9",
"%	c #787ACD",
"&	c #3739B1",
"*	c #000391",
"=	c #000000",
"-	c #7577B6",
";	c #A8A9F0",
">	c #ABACE6",
",	c #ABACE3",
"'	c #A8A9E1",
")	c #7577CD",
"!	c #0003A1",
"~	c #000398",
"{	c #393939",
"]	c #7B7C8C",
"^	c #8081DC",
"/	c #8081E6",
"(	c #8080D7",
"_	c #7B7BD1",
":	c #3939BA",
"<	c #0000A6",
"[	c #00039D",
"}	c #1E1E1E",
"|	c #222322",
"1	c #23248D",
"2	c #3339D3",
"3	c #2224C2",
"4	c #2222C1",
"5	c #2222BF",
"6	c #1E1EBE",
"7	c #0000B5",
"8	c #0004A5",
"9	c #4A4D01",
"0	c #ECEC12",
"a	c #ECEC0D",
"b	c #ECEC0C",
"c	c #EBEB0D",
"d	c #EAEA0C",
"e	c #E4E40D",
"f	c #D1D10C",
"g	c #748516",
"h	c #F4F427",
"i	c #E2E627",
"j	c #D9DC26",
"k	c #C3C622",
"l	c #748414",
"m	c #F9F928",
"n	c #E8EC27",
"o	c #E6EA27",
"p	c #DFE326",
"q	c #4A5000",
"r	c #FDFD11",
"s	c #FDFD16",
"t	c #FDFD0C",
"u	c #FDFD0D",
"v	c #FBFB0D",
"w	c #F8F80D",
"x	c #F2F20C",
"y	c #D4D40C",
"z	c #00038A",
"A	c #0D13E8",
"B	c #0000D0",
"C	c #0000CF",
"D	c #0000CA",
"E	c #0000C4",
"F	c #0000B3",
"G	c #0003CD",
"H	c #0004E4",
"I	c #0004C5",
"J	c #0004BF",
"K	c #0000BC",
"L	c #0000AD",
"M	c #000286",
"N	c #0004C9",
"O	c #0004AE",
"P	c #0003A8",
"Q	c #000226",
"R	c #0004B4",
"S	c #0004B0",
"T	c #0004BC",
".+@##$$$$$$$$##%&*",
"==-;>>>>>>>>,,')!~",
"=={]^/((((((((_:<[",
"===}|1234444556778",
"======900aaabcddef",
"========ghiiiiijjk",
"========lmnnooipjk",
"======qrstuuuvwxby",
"=====zABCCCCCDDEEF",
"===.GHIEEEJEEKKFL[",
"==MHNIJINNNIIJ7OP~",
"QRISOTTJJJJJTRO8[z"};
