/* XPM */
static char * bt_xpm[] = {
"18 12 155 2",
"  	c None",
". 	c #CCC019",
"+ 	c #DDD44D",
"@ 	c #E9E287",
"# 	c #EBE595",
"$ 	c #EBE495",
"% 	c #EBE896",
"& 	c #E9E987",
"* 	c #DDDD4D",
"= 	c #CC4E19",
"- 	c #D4C81A",
"; 	c #E0D31C",
"> 	c #EEE785",
", 	c #F4F0B2",
"' 	c #F5F1B7",
") 	c #F5F0B6",
"! 	c #F3E6C9",
"~ 	c #E2DDD6",
"{ 	c #F5E6B6",
"] 	c #E8C994",
"^ 	c #CE1C1E",
"/ 	c #CE1A1A",
"( 	c #E2D51F",
"_ 	c #E9DE4F",
": 	c #F1E989",
"< 	c #F1EB8F",
"[ 	c #F1EE90",
"} 	c #E5D2A5",
"| 	c #9EAECE",
"1 	c #C7CFE3",
"2 	c #D6E5F1",
"3 	c #E2E6D7",
"4 	c #E5D1AF",
"5 	c #615A84",
"6 	c #C21C1D",
"7 	c #D21A1C",
"8 	c #D6C91F",
"9 	c #E5D71E",
"0 	c #E9DD38",
"a 	c #EADE3D",
"b 	c #EAE23D",
"c 	c #EAD741",
"d 	c #CAB584",
"e 	c #8694AE",
"f 	c #8A8B93",
"g 	c #9C8994",
"h 	c #72617E",
"i 	c #73788E",
"j 	c #91393D",
"k 	c #E21B1F",
"l 	c #D7C822",
"m 	c #E4D623",
"n 	c #E8DA22",
"o 	c #EADC22",
"p 	c #ECDE23",
"q 	c #ECE622",
"r 	c #ECD526",
"s 	c #ECD122",
"t 	c #B3B0D1",
"u 	c #77879E",
"v 	c #852E34",
"w 	c #9CB3C1",
"x 	c #E8C6CF",
"y 	c #DF1A22",
"z 	c #CC1721",
"A 	c #D8CA25",
"B 	c #E7D828",
"C 	c #EDDE28",
"D 	c #F0E129",
"E 	c #F3E828",
"F 	c #F4D630",
"G 	c #6F83C0",
"H 	c #4892CA",
"I 	c #99B5A6",
"J 	c #7DA1C3",
"K 	c #5A9ABE",
"L 	c #783E5C",
"M 	c #C4456B",
"N 	c #DB2334",
"O 	c #E31A28",
"P 	c #CE1624",
"Q 	c #E9DA29",
"R 	c #F5E529",
"S 	c #F8E92A",
"T 	c #F9F929",
"U 	c #C8AF8D",
"V 	c #4C6BB5",
"W 	c #8E2134",
"X 	c #AA3063",
"Y 	c #9573AD",
"Z 	c #649CC1",
"` 	c #CB1C29",
" .	c #F81C2A",
"..	c #F71D28",
"+.	c #EB1B29",
"@.	c #E41A29",
"#.	c #DACB22",
"$.	c #F2E424",
"%.	c #F8EE26",
"&.	c #FBFB24",
"*.	c #FDE324",
"=.	c #7D9CB6",
"-.	c #84819E",
";.	c #D08EA2",
">.	c #FD2229",
",.	c #D51E24",
"'.	c #568098",
").	c #B6404D",
"!.	c #B04E61",
"~.	c #D9222B",
"{.	c #F01D24",
"].	c #E51B24",
"^.	c #CE1721",
"/.	c #DACD1C",
"(.	c #F3EB20",
"_.	c #F9CC20",
":.	c #B2AB69",
"<.	c #89BBB0",
"[.	c #755B63",
"}.	c #F9E1E6",
"|.	c #F24B54",
"1.	c #FF1E22",
"2.	c #A16C76",
"3.	c #FCFCFC",
"4.	c #E47783",
"5.	c #ED1E1F",
"6.	c #E71C20",
"7.	c #EBEB1D",
"8.	c #F3F31F",
"9.	c #A6C695",
"0.	c #5C5E94",
"a.	c #AC5C7B",
"b.	c #E21E23",
"c.	c #7D91A3",
"d.	c #A83843",
"e.	c #FB1E23",
"f.	c #E73E42",
"g.	c #F01E1F",
"h.	c #E71D1D",
"i.	c #D9D91A",
"j.	c #EBEB20",
"k.	c #D3745C",
"l.	c #DC2559",
"m.	c #EF1D27",
"n.	c #D7749F",
"o.	c #F51C29",
"p.	c #CF9719",
"q.	c #D5191E",
"r.	c #E11924",
"s.	c #E11827",
"t.	c #DB1827",
"u.	c #DF1827",
"v.	c #DF1925",
"w.	c #D8191E",
"x.	c #BD1717",
". + @ # # $ $ $ $ $ # # % # # & * = ",
"- ; > , ' ' ' ) ' ' ! ~ { ' , ] ^ / ",
"- ( _ : < [ < < [ } | 1 2 3 4 5 6 7 ",
"8 ( 9 0 0 a a b c d e f g h i j k ^ ",
"l m n o p p q r s r t u v v w x y z ",
"A B C D D E F G H I 5 J K L M N O P ",
"A Q D R S T U V W X Y Z `  ...+.@.P ",
"#.o $.%.&.*.=.-.;.>.,.'.).!.~.{.].^.",
"/.9 (._.:.<.u [.}.|.1.1.2.3.4.5.6.^.",
"/.7.8.9.0.a.b.c.d.1.e.1.e.f.g.g.h./ ",
"i.j.k.l.>.e.m.3.n. ...o.o.e.g.5.h.7 ",
"p.7 q.y r.r.s.t.r.r.u.s.y v.y w.7 x."};
