/* XPM */
static const char * by_xpm[] = {
"18 12 74 1",
" 	c None",
".	c #C09E9E",
"+	c #CDA0A6",
"@	c #DCC1C7",
"#	c #CE8686",
"$	c #D38080",
"%	c #C67A7F",
"&	c #B33737",
"*	c #980000",
"=	c #C49798",
"-	c #C45E5F",
";	c #E0BEC1",
">	c #E0A8A8",
",	c #E1ABAB",
"'	c #D4A6A9",
")	c #CF7575",
"!	c #A70000",
"~	c #A10000",
"{	c #C5A1A6",
"]	c #D27B7B",
"^	c #D48080",
"/	c #D37B7B",
"(	c #BC3939",
"_	c #A90000",
":	c #9D0000",
"<	c #C08E9D",
"[	c #BC3F48",
"}	c #C58893",
"|	c #B41E1E",
"1	c #B62222",
"2	c #B51E1E",
"3	c #AF0000",
"4	c #BB7396",
"5	c #B73344",
"6	c #C685A0",
"7	c #AC0101",
"8	c #920000",
"9	c #C298B7",
"0	c #C26396",
"a	c #CA8AB6",
"b	c #C4689D",
"c	c #CF88B8",
"d	c #B20000",
"e	c #B40000",
"f	c #950000",
"g	c #BE7E9C",
"h	c #BC4650",
"i	c #E186AA",
"j	c #C60000",
"k	c #D40000",
"l	c #CB0000",
"m	c #D92A3F",
"n	c #98C59B",
"o	c #00B300",
"p	c #00B500",
"q	c #00AD00",
"r	c #00A600",
"s	c #009300",
"t	c #C9ABAC",
"u	c #EB7183",
"v	c #A2C09A",
"w	c #009E00",
"x	c #00A100",
"y	c #009B00",
"z	c #009600",
"A	c #008700",
"B	c #C99E9B",
"C	c #E86E6B",
"D	c #A2B397",
"E	c #C3A29F",
"F	c #DA7886",
"G	c #95A89A",
"H	c #008A00",
"I	c #007900",
".+@########$###%&*",
"=-;>,>',,,',,,>)!~",
"{%']^^^^$$$^^^/(_:",
"<[}|111111111123!*",
"456_3_3_777737_!!8",
"90a!_3_33_33_3!!~8",
"9bc3deeedeeedd3__f",
"ghijkkkkkkkkkkkljd",
"<mnooopoppppopoqrs",
"tuvwxxxxxrxxxxwyzA",
"BCDyyyyzyyzyyyzzsA",
"EFGHHHHAHHHHHHHHAI"};
