/* XPM */
static char * ca_xpm[] = {
"18 12 66 1",
" 	c None",
".	c #9E0000",
"+	c #B63737",
"@	c #CD7878",
"#	c #D08686",
"$	c #DCB3C4",
"%	c #E9EBEB",
"&	c #E6EAEA",
"*	c #EBE6E8",
"=	c #E7E7E9",
"-	c #ECEBEC",
";	c #A50000",
">	c #AE0000",
",	c #D37575",
"'	c #E1A8A8",
")	c #EBCED4",
"!	c #F4F5F5",
"~	c #F0F1F1",
"{	c #F2F4F4",
"]	c #F2F2F3",
"^	c #A30000",
"/	c #C13939",
"(	c #D47B7B",
"_	c #E3B5BA",
":	c #EEF1F1",
"<	c #EEEEEE",
"[	c #B61E1E",
"}	c #D08088",
"|	c #C33234",
"1	c #C22728",
"2	c #E4EAEA",
"3	c #B81C27",
"4	c #B30000",
"5	c #AA0000",
"6	c #CB6E86",
"7	c #E5ECEC",
"8	c #E4ECEC",
"9	c #9B0000",
"0	c #CF78AC",
"a	c #E9EEF0",
"b	c #B60000",
"c	c #E7EEF0",
"d	c #D27BAE",
"e	c #D476AD",
"f	c #F0F7F8",
"g	c #BE0A0F",
"h	c #BB0000",
"i	c #EFF9F9",
"j	c #D779AF",
"k	c #D9748F",
"l	c #FAFDFD",
"m	c #BF0000",
"n	c #D66378",
"o	c #F7FEFE",
"p	c #DC7881",
"q	c #EDD6DB",
"r	c #EDCBD1",
"s	c #F7F9FA",
"t	c #F3F6F8",
"u	c #F0CED7",
"v	c #C2678C",
"w	c #E1E5E5",
"x	c #DBDCE0",
"y	c #DCDDE2",
"z	c #E0E4E4",
"A	c #960000",
".+@#$%&*&*==-$#@+.",
";>,')!~~{{]~{)',>^",
"^>/(_:<:-*:<~_(+>^",
"^>>[}&&&|1&2%}34>.",
".5>>67774487%6>>59",
"95>50a4b33bbcd5>;9",
".5>>efgbb44hij>>59",
"^>bbkllkmmnolkbb>.",
"^4hhplolqrlslphh4.",
";bhhpltlurlslphhb^",
"5bhbkl]{ft!]okhbb^",
"^55^vwxxyyyyzv;;^A"};
