/* XPM */
static const char * cc_xpm[] = {
"18 12 122 2",
"  	c None",
". 	c #A15E6F",
"+ 	c #BE96AC",
"@ 	c #858EC0",
"# 	c #8788C2",
"$ 	c #E49FA8",
"% 	c #D39FB3",
"& 	c #8687CD",
"* 	c #8F87BE",
"= 	c #D0B6D1",
"- 	c #CEBFD7",
"; 	c #8687C2",
"> 	c #8787BD",
", 	c #8788B6",
"' 	c #7B7BAB",
") 	c #3B3C82",
"! 	c #191962",
"~ 	c #2D3F8A",
"{ 	c #9F6E84",
"] 	c #EFD6D5",
"^ 	c #E4F2F5",
"/ 	c #E6B7BA",
"( 	c #E3BFC9",
"_ 	c #E2D6E7",
": 	c #F5E9EE",
"< 	c #DBE5F2",
"[ 	c #B1BBE0",
"} 	c #A8A8CF",
"| 	c #A8A8C6",
"1 	c #E3E3E6",
"2 	c #ACADC8",
"3 	c #010156",
"4 	c #09095B",
"5 	c #C52326",
"6 	c #B60715",
"7 	c #CA5151",
"8 	c #E37475",
"9 	c #DA7A7A",
"0 	c #DC7A79",
"a 	c #E37A7C",
"b 	c #DA878B",
"c 	c #E67A85",
"d 	c #F08191",
"e 	c #7878AD",
"f 	c #7878AA",
"g 	c #8586B4",
"h 	c #4B4B8D",
"i 	c #0B0C59",
"j 	c #2C4799",
"k 	c #B7C8DC",
"l 	c #E5B8C1",
"m 	c #AE97BC",
"n 	c #D05151",
"o 	c #C45961",
"p 	c #CBDBEA",
"q 	c #EABAB6",
"r 	c #A682A3",
"s 	c #4054A1",
"t 	c #1C1D76",
"u 	c #2A297E",
"v 	c #515196",
"w 	c #1C1C72",
"x 	c #18186F",
"y 	c #000053",
"z 	c #8387AA",
"A 	c #656B9E",
"B 	c #AC90AD",
"C 	c #CC6E93",
"D 	c #1C0261",
"E 	c #00008D",
"F 	c #E7454E",
"G 	c #C33D4F",
"H 	c #000089",
"I 	c #3649A0",
"J 	c #EDB2AA",
"K 	c #A0517B",
"L 	c #000068",
"M 	c #22238C",
"N 	c #B2B4C2",
"O 	c #000065",
"P 	c #00006E",
"Q 	c #050575",
"R 	c #1A1C8C",
"S 	c #181C89",
"T 	c #0A0C79",
"U 	c #00007D",
"V 	c #000085",
"W 	c #000077",
"X 	c #000082",
"Y 	c #000073",
"Z 	c #000091",
"` 	c #262EA9",
" .	c #0E1092",
"..	c #0B0C7C",
"+.	c #0A0C88",
"@.	c #000079",
"#.	c #5D70CB",
"$.	c #4350BE",
"%.	c #06077D",
"&.	c #FCFCFC",
"*.	c #383D9F",
"=.	c #111287",
"-.	c #000061",
";.	c #696CAF",
">.	c #5659A6",
",.	c #00005C",
"'.	c #C2C3C8",
").	c #5B5E9F",
"!.	c #06066C",
"~.	c #111269",
"{.	c #060663",
"].	c #060667",
"^.	c #060660",
"/.	c #060668",
"(.	c #060679",
"_.	c #060674",
":.	c #06066F",
"<.	c #06065F",
"[.	c #060681",
"}.	c #050686",
"|.	c #05068B",
"1.	c #05055B",
". + @ # $ % & * = - ; ; > > , ' ) ! ",
"~ { ] ^ / ( _ : < [ } } } | 1 2 3 4 ",
"5 6 7 8 9 0 a b c d e e f ' g h 3 i ",
"j k l m n o p q r s t u v w x y z A ",
"B C D E F G H I J K L M N O P Q R S ",
"T U V V P W X Y Z H V U Y V X `  ...",
"+.V V @.#.$.@.V V H H H V H V X V +.",
"..W Y %.&.&.L W W @.W W @.W *.=.W T ",
"L L L -.;.>.-.Y Y Y Y P P ,.'.).O !.",
"~.{.].!.^./.Q Q (.(.(.(._.:.<.{.-.~.",
"<.].:._.%.[.}.|.|.|.|.}.[.(._.!.{.1.",
"y ,.O Y @.U V V V V V X U @.Y O ,.y "};
