/* XPM */
static char * cd_xpm[] = {
"18 12 151 2",
"  	c None",
". 	c #0081B4",
"+ 	c #329CCC",
"@ 	c #76BDDD",
"# 	c #83C2E2",
"$ 	c #82C1E4",
"% 	c #7CC3E2",
"& 	c #82C0E5",
"* 	c #83C6E4",
"= 	c #93C9C8",
"- 	c #B3A258",
"; 	c #C03906",
"> 	c #0387BA",
", 	c #1693B3",
"' 	c #ADD0B4",
") 	c #AED9E5",
"! 	c #A9D8ED",
"~ 	c #A8D7EF",
"{ 	c #A8D6F0",
"] 	c #A8D9F0",
"^ 	c #B9E0E0",
"/ 	c #DAD9BF",
"( 	c #E89F7B",
"_ 	c #D00606",
": 	c #BA000E",
"< 	c #0585C0",
"[ 	c #75AC62",
"} 	c #E9D93B",
"| 	c #B6D3A8",
"1 	c #78C3E4",
"2 	c #78C3E3",
"3 	c #78C2E4",
"4 	c #78C4E8",
"5 	c #8DCED4",
"6 	c #C2CAA2",
"7 	c #E8A47C",
"8 	c #E87A77",
"9 	c #D23B47",
"0 	c #C8000B",
"a 	c #CB1703",
"b 	c #0082C9",
"c 	c #3B9D9A",
"d 	c #7FB15C",
"e 	c #4EA8A3",
"f 	c #1C9ADB",
"g 	c #1C9CD3",
"h 	c #1C9CDD",
"i 	c #39AFBE",
"j 	c #96AB6A",
"k 	c #DA6D26",
"l 	c #DB281F",
"m 	c #D01C29",
"n 	c #CF1926",
"o 	c #D81501",
"p 	c #CD6610",
"q 	c #6E9965",
"r 	c #0083C5",
"s 	c #038DCE",
"t 	c #008CD9",
"u 	c #0491D0",
"v 	c #0091D5",
"w 	c #0090D9",
"x 	c #0092E1",
"y 	c #1CA6C2",
"z 	c #7BA56D",
"A 	c #D36314",
"B 	c #E01602",
"C 	c #CD0011",
"D 	c #DE1202",
"E 	c #D46110",
"F 	c #799F6C",
"G 	c #21A1BC",
"H 	c #0084CD",
"I 	c #008CDC",
"J 	c #008FE1",
"K 	c #0092E8",
"L 	c #12A5D7",
"M 	c #63AA97",
"N 	c #D36F1B",
"O 	c #E61B00",
"P 	c #D30012",
"Q 	c #D00015",
"R 	c #E20D05",
"S 	c #DD5710",
"T 	c #89A46C",
"U 	c #23A9CA",
"V 	c #008EE7",
"W 	c #008ADC",
"X 	c #0BA3DE",
"Y 	c #5EB0A2",
"Z 	c #D27623",
"` 	c #EC1E01",
" .	c #D90010",
"..	c #D40016",
"+.	c #E60805",
"@.	c #EA5509",
"#.	c #96A666",
"$.	c #28AFCE",
"%.	c #0099EC",
"&.	c #0091E7",
"*.	c #0090DF",
"=.	c #0083D0",
"-.	c #089DD4",
";.	c #5BAF98",
">.	c #C77D2A",
",.	c #F02A00",
"'.	c #DF000D",
").	c #DA0013",
"!.	c #E80706",
"~.	c #EF5406",
"{.	c #A4A353",
"].	c #39B7B9",
"^.	c #00A1EB",
"/.	c #009AEB",
"(.	c #009BE3",
"_.	c #009ADE",
":.	c #0094DC",
"<.	c #008FD7",
"[.	c #0087C5",
"}.	c #489E8D",
"|.	c #BB862D",
"1.	c #EA3200",
"2.	c #E0000B",
"3.	c #EA0307",
"4.	c #F04905",
"5.	c #B7A142",
"6.	c #44BCAF",
"7.	c #00A4EB",
"8.	c #009DE6",
"9.	c #03A6E6",
"0.	c #009CDD",
"a.	c #0098D9",
"b.	c #D02D03",
"c.	c #D70009",
"d.	c #E40008",
"e.	c #F34301",
"f.	c #BFA03B",
"g.	c #46B9AE",
"h.	c #0098D7",
"i.	c #0094D1",
"j.	c #0089C2",
"k.	c #D50009",
"l.	c #E93C01",
"m.	c #BB9236",
"n.	c #4FB6A6",
"o.	c #C02609",
"p.	c #B78020",
"q.	c #52A88C",
"r.	c #0599D3",
"s.	c #008ED2",
"t.	c #008BC5",
". + @ # # # $ # % & $ $ # $ * = - ; ",
"> , ' ) ! ! ~ ~ ~ { { { ] ^ / ( _ : ",
"< [ } | % 1 2 2 3 3 4 5 6 7 8 9 0 a ",
"b c d e f g g f h i j k l m n o p q ",
"r s t u v w x y z A B C C D E F G H ",
"b t I J K L M N O P Q R S T U V W b ",
"b I V X Y Z `  ...+.@.#.$.%.&.*.t H ",
"=.-.;.>.,.'.).!.~.{.].^./.(._.:.<.[.",
"}.|.1.2. .3.4.5.6.7.8.8.9.0.0.a.v [.",
"b.c.P d.e.f.g.7.%.8.8.8.(.(.0.h.i.j.",
"0 k.l.m.n.9.%././.8./.8.(.(.0.h.i.j.",
"o.p.q.r.J t w *.t I I w t <.s.s t.> "};
