/* XPM */
static char * ck_xpm[] = {
"18 12 99 2",
"  	c None",
". 	c #804864",
"+ 	c #AD859F",
"@ 	c #7880BA",
"# 	c #868FC8",
"$ 	c #EAA2AA",
"% 	c #9E9FCB",
"& 	c #8585BE",
"* 	c #A89CC9",
"= 	c #E2C0D2",
"- 	c #8E8FC9",
"; 	c #8A8ABE",
"> 	c #8989BB",
", 	c #7B7BAB",
"' 	c #37377D",
") 	c #010156",
"! 	c #2E3472",
"~ 	c #A76074",
"{ 	c #EEBBC9",
"] 	c #E3E4EF",
"^ 	c #EBB6AE",
"/ 	c #DECCDF",
"( 	c #F2CFDB",
"_ 	c #F5D7EA",
": 	c #C5C7E2",
"< 	c #ACADD4",
"[ 	c #ABACD1",
"} 	c #B8B9D9",
"| 	c #B6B7D6",
"1 	c #B4B4D2",
"2 	c #8D8EB8",
"3 	c #05055E",
"4 	c #C3322A",
"5 	c #BB2D36",
"6 	c #DA6D6B",
"7 	c #EA9588",
"8 	c #DA8687",
"9 	c #E5948C",
"0 	c #EBA19E",
"a 	c #DA97A0",
"b 	c #F19BA2",
"c 	c #9C86AE",
"d 	c #8284B8",
"e 	c #9697C2",
"f 	c #8181B2",
"g 	c #8080AF",
"h 	c #3C3C86",
"i 	c #2D2E78",
"j 	c #00005D",
"k 	c #2B52A2",
"l 	c #E092BD",
"m 	c #D08B93",
"n 	c #6D83C7",
"o 	c #E9583C",
"p 	c #9C92C1",
"q 	c #ABAAC8",
"r 	c #EA93B8",
"s 	c #756FA2",
"t 	c #222580",
"u 	c #45438F",
"v 	c #25257B",
"w 	c #222277",
"x 	c #222278",
"y 	c #1E1E75",
"z 	c #000061",
"A 	c #07086E",
"B 	c #945D92",
"C 	c #51226D",
"D 	c #000986",
"E 	c #C63B5C",
"F 	c #2A1D7E",
"G 	c #30409B",
"H 	c #C98092",
"I 	c #1A086F",
"J 	c #202186",
"K 	c #000073",
"L 	c #000078",
"M 	c #1A1D86",
"N 	c #000084",
"O 	c #000089",
"P 	c #00007D",
"Q 	c #2025A4",
"R 	c #000083",
"S 	c #05068C",
"T 	c #1B2095",
"U 	c #1B20A4",
"V 	c #10128B",
"W 	c #000077",
"X 	c #01016F",
"Y 	c #252791",
"Z 	c #181B8B",
"` 	c #151787",
" .	c #000069",
"..	c #0E0E78",
"+.	c #252684",
"@.	c #070771",
"#.	c #000064",
"$.	c #000058",
"%.	c #00004E",
". + @ # $ % & * = - & & & ; > , ' ) ",
"! ~ { ] ^ / ( _ : < [ < } | 1 2 3 ) ",
"4 5 6 7 8 9 0 a b c d e f g , h i j ",
"k l m n o p q r s t u v w x y z A x ",
"B C z D E F ) G H I J A K K K K L M ",
"K N N N O N N P N O Q O R N N R S T ",
"P N O O O O O O O N Q U N O N N Q V ",
"K W L L L L L L W L X Y T Z ` Y Z X ",
" . .X  . .X X X K X X X ..+.t @. .#.",
"j z z  .X X K W W W K K X  .#.#.z $.",
"$.j #.X W L P R R N R R L W X #.z ) ",
") j #.X K P R N R R R P L K K #.$.%."};
