/* XPM */
static const char * cu_xpm[] = {
"18 12 113 2",
"  	c None",
". 	c #790025",
"+ 	c #3737C4",
"@ 	c #7878DC",
"# 	c #8886D5",
"$ 	c #8785D6",
"% 	c #8785D8",
"& 	c #8785DB",
"* 	c #7B78CC",
"= 	c #3C37B0",
"- 	c #060089",
"; 	c #C10000",
"> 	c #CE0000",
", 	c #9175B6",
"' 	c #A8A8EF",
") 	c #ABABE4",
"! 	c #ABABE3",
"~ 	c #A8A8DF",
"{ 	c #7575C9",
"] 	c #00009F",
"^ 	c #A20000",
"/ 	c #B70000",
"( 	c #E53939",
"_ 	c #C07B8B",
": 	c #C1CBF0",
"< 	c #CADDF1",
"[ 	c #C3C3E5",
"} 	c #C3C2E3",
"| 	c #C5C4E3",
"1 	c #A4A3D3",
"2 	c #8A88C5",
"3 	c #807EB9",
"4 	c #AF0000",
"5 	c #C71E1E",
"6 	c #D92B22",
"7 	c #E9CDB4",
"8 	c #EAEAEA",
"9 	c #E9E9E7",
"0 	c #E5E5E3",
"a 	c #E2E2E0",
"b 	c #D1D1CF",
"c 	c #9F0000",
"d 	c #A50000",
"e 	c #B5141D",
"f 	c #BA1C22",
"g 	c #C73237",
"h 	c #C6E7EC",
"i 	c #ACD5EC",
"j 	c #D3D3E1",
"k 	c #D5D2DF",
"l 	c #CBCCDC",
"m 	c #B9BBC8",
"n 	c #BB5887",
"o 	c #DCD6E1",
"p 	c #DFDAE5",
"q 	c #C66592",
"r 	c #B30203",
"s 	c #240072",
"t 	c #0000CD",
"u 	c #0000C2",
"v 	c #0000BE",
"w 	c #0000AA",
"x 	c #B0060D",
"y 	c #EAF0F0",
"z 	c #EFF5F5",
"A 	c #B90000",
"B 	c #0000D1",
"C 	c #0000C5",
"D 	c #B4141B",
"E 	c #CE6582",
"F 	c #D63A3F",
"G 	c #D1EFFD",
"H 	c #B2DFFD",
"I 	c #DEDCED",
"J 	c #DBDCF1",
"K 	c #DADBEF",
"L 	c #D7D8EC",
"M 	c #D1D3E7",
"N 	c #CACBE1",
"O 	c #B5B7CA",
"P 	c #E70900",
"Q 	c #FDDBBC",
"R 	c #FFFFFF",
"S 	c #FFFFFD",
"T 	c #F9F9F7",
"U 	c #F3F3F1",
"V 	c #D3D3D1",
"W 	c #EC0000",
"X 	c #950022",
"Y 	c #98ACF7",
"Z 	c #ACD5FF",
"` 	c #9F9EE4",
" .	c #9E9BE2",
"..	c #9D9DE5",
"+.	c #A09EE0",
"@.	c #9E9BDC",
"#.	c #9B98D7",
"$.	c #9793CF",
"%.	c #8684BB",
"&.	c #C70000",
"*.	c #D70000",
"=.	c #380081",
"-.	c #0001E5",
";.	c #0000BB",
">.	c #0000B6",
",.	c #0000A7",
"'.	c #000090",
").	c #0600AE",
"!.	c #0600B4",
"~.	c #0500BB",
"{.	c #0500BF",
"].	c #0600A4",
"^.	c #06009C",
". + @ # $ % % % % & % % % $ $ * = - ",
"; > , ' ) ! ! ) ) ) ! ! ) ! ~ { ] - ",
"^ / ( _ : < [ } [ [ [ } } | } 1 2 3 ",
"^ 4 4 5 6 7 8 8 8 8 8 8 8 9 9 0 a b ",
"c d e f 4 d g h i j j j k j j l l m ",
"c n o p q r r / s t u u u u u v v w ",
"c x y z 5 / A A s B C C C C C u v w ",
"c D E E A r F G H I J J J K L M N O ",
"^ / / > P Q R R R R R R R S T U 8 V ",
"d ; W X Y Z `  .....+...` +.@.#.$.%.",
"&.*.=.-.u ;.v u u u u v ;.>.w ,.] '.",
". ;.C ).!.~.~.{.{.{.{.~.!.!.).].^.- "};
