/* XPM */
static const char * cv_xpm[] = {
"18 12 82 1",
" 	c None",
".	c #00007B",
"+	c #37379F",
"@	c #7878C2",
"#	c #8686CC",
"$	c #8585D0",
"%	c #8585D4",
"&	c #3939A4",
"*	c #000080",
"=	c #000088",
"-	c #7575C1",
";	c #A8A8D9",
">	c #ABABDE",
",	c #ABABE0",
"'	c #00007D",
")	c #000087",
"!	c #8080C7",
"~	c #8080CB",
"{	c #7B7BC3",
"]	c #00008F",
"^	c #000093",
"/	c #1E1E9E",
"(	c #2323A1",
"_	c #2222A5",
":	c #25259F",
"<	c #00009B",
"[	c #0101A0",
"}	c #00009F",
"|	c #171890",
"1	c #1B1D8C",
"2	c #435075",
"3	c #252986",
"4	c #32456C",
"5	c #0000A6",
"6	c #0101B2",
"7	c #0000B5",
"8	c #0000C0",
"9	c #1121A8",
"0	c #213486",
"a	c #0000BA",
"b	c #D9BBD9",
"c	c #E9C9E9",
"d	c #F0D0F0",
"e	c #F5D5F5",
"f	c #F8D4D5",
"g	c #F9D1DC",
"h	c #F9D1F9",
"i	c #F9D4B4",
"j	c #F9DAF9",
"k	c #F8D7F8",
"l	c #D3B7D3",
"m	c #DA2126",
"n	c #EB2328",
"o	c #F22528",
"p	c #F82616",
"q	c #FB290D",
"r	c #FD2B0A",
"s	c #FD2717",
"t	c #FD2728",
"u	c #FD2708",
"v	c #FD2D0C",
"w	c #FD2907",
"x	c #FB2628",
"y	c #D42025",
"z	c #DABDDA",
"A	c #EBCDEB",
"B	c #F3D4F3",
"C	c #FDDAC5",
"D	c #FFD8D2",
"E	c #FFD9FF",
"F	c #FFD8FF",
"G	c #FFDA98",
"H	c #FFDFFF",
"I	c #0000AD",
"J	c #13228F",
"K	c #516559",
"L	c #0000A9",
"M	c #171C9E",
"N	c #1314A2",
"O	c #47588A",
"P	c #2C34A0",
"Q	c #000075",
".+@##$$$%%%%%##@&.",
"*=-;>>,,,,,,>,;-='",
")=&@!!~~~~~{!~@&=)",
"]^^/((_:(_((((/^<=",
"<[}}[|1234^}}}}}[^",
"5677890882aa77766[",
"bcdefghhhhijjkedcl",
"mnopqrsttuvwtxxony",
"zABjCDEEEFGHHHjdAl",
")^^^IJ466KLI[}^^])",
"*]^<5MNO:P66L5}^='",
"'=^<5LI6666IL[<^)Q"};
