/* XPM */
static const char * cy_xpm[] = {
"18 12 74 1",
" 	c None",
".	c #C5C5C5",
"+	c #D9D9D9",
"@	c #E5E5E6",
"#	c #E7E7E9",
"$	c #EAEAEA",
"%	c #CECECE",
"&	c #F2F2F2",
"*	c #F2F2F3",
"=	c #CECFD0",
"-	c #E3E3E3",
";	c #EDEDED",
">	c #EDEEF0",
",	c #EAEEF2",
"'	c #E1E6E6",
")	c #DDDDDE",
"!	c #E2E7EB",
"~	c #E2E2E9",
"{	c #E0D5A7",
"]	c #DDDBD8",
"^	c #DADADD",
"/	c #C9C9C9",
"(	c #DCDDE2",
"_	c #E3E4E6",
":	c #DDBF80",
"<	c #DCB558",
"[	c #E1E9EC",
"}	c #DFD8C3",
"|	c #DCB22A",
"1	c #DABC37",
"2	c #DFD2B0",
"3	c #C9C9CE",
"4	c #D0D1D6",
"5	c #DCDCE0",
"6	c #E5CBAA",
"7	c #D98800",
"8	c #D99600",
"9	c #DA9F00",
"0	c #D89100",
"a	c #E4CFB7",
"b	c #E7EBF0",
"c	c #EFF4F8",
"d	c #EEAA00",
"e	c #DF9800",
"f	c #DA9800",
"g	c #EFB114",
"h	c #E6B959",
"i	c #EADFD5",
"j	c #CACBD0",
"k	c #EAEBED",
"l	c #FBF7FB",
"m	c #ACD6BF",
"n	c #9BD1D0",
"o	c #FDDBB0",
"p	c #FDD9B9",
"q	c #9CC6A4",
"r	c #99D8DF",
"s	c #F8F8FD",
"t	c #CCCCCD",
"u	c #D3D3D3",
"v	c #F7F7F8",
"w	c #FFF5FC",
"x	c #B2DAC1",
"y	c #8DC080",
"z	c #AED8DF",
"A	c #8BC28C",
"B	c #9ED5BE",
"C	c #FFFCFF",
"D	c #F5F5F6",
"E	c #F3F4F6",
"F	c #F5F2F8",
"G	c #A4D6B5",
"H	c #D4D5D6",
"I	c #BCBCBC",
".+@#######$####@+.",
"%+$&&&******&*&$+%",
"=+-;;;;;>,;;;>>'+%",
"=+)-@'!#~##!#~{]^/",
"=(__~-!':<[}|12_(3",
"45~#,6789880a,b~(3",
"4_#,,cdefeghic,#(j",
"4_k>lmnoopqrs&,k@t",
"u'>&vwxyzABClD&k't",
"u@$&EvCFGwCsDD&;@/",
"u-$>&E*vsl&&*&;$-%",
"/uH^^((((((((^+H%I"};
