/* XPM */
static const char * de_xpm[] = {
"18 12 46 1",
" 	c None",
".	c #000000",
"+	c #373737",
"@	c #787878",
"#	c #868686",
"$	c #757575",
"%	c #A8A8A8",
"&	c #ABABAB",
"*	c #393939",
"=	c #808080",
"-	c #7B7B7B",
";	c #1E1E1E",
">	c #222222",
",	c #DA0001",
"'	c #E40000",
")	c #EB0001",
"!	c #ED0000",
"~	c #D30000",
"{	c #F20001",
"]	c #F50000",
"^	c #F80001",
"/	c #FD0001",
"(	c #DAAF16",
"_	c #EBBD18",
":	c #F3C418",
"<	c #F9C818",
"[	c #FFCD19",
"}	c #D3AA15",
"|	c #DAA416",
"1	c #EBB318",
"2	c #F3B819",
"3	c #F9BC19",
"4	c #FDBE1B",
"5	c #FFC01B",
"6	c #FFC01C",
"7	c #D69E15",
"8	c #EBAE16",
"9	c #F1B218",
"0	c #FAB71C",
"a	c #FCB81F",
"b	c #F7B61A",
"c	c #CF9914",
"d	c #E3A51B",
"e	c #E6A51F",
"f	c #E1A419",
"g	c #C18F13",
".+@############@+.",
"..$%&%&&&%&&%&%$..",
"..*@==========-*..",
"...;>>>>>>>>>>;...",
",'')!!!!)!!!)!)''~",
",'!{{{]]{]]]{{{!'~",
",)!]^^^^^^^^^^]{'~",
",){^^/////////]{!~",
"(_:<[[[[[[[[[[<:_}",
"|12345546666663217",
"78900aaaaaaaaab187",
"c|d|ddeeeeeeffd|7g"};
