/* XPM */
static const char * dk_xpm[] = {
"18 12 63 1",
" 	c None",
".	c #C30000",
"+	c #DD3737",
"@	c #E97878",
"#	c #EB8686",
"$	c #EB9DA5",
"%	c #ECECEC",
"&	c #EBC5D5",
"*	c #CC0000",
"=	c #E00000",
"-	c #EE7575",
";	c #F4A8A8",
">	c #F5BCC0",
",	c #F5F5F5",
"'	c #F5DAE2",
")	c #F5ABAB",
"!	c #D10000",
"~	c #E93939",
"{	c #F17B7B",
"]	c #F19B9D",
"^	c #F0F0F0",
"/	c #F1C9CE",
"(	c #F18080",
"_	c #D70000",
":	c #E50000",
"<	c #E91E1E",
"[	c #E94F53",
"}	c #E9E9E9",
"|	c #EAA1A9",
"1	c #EA2222",
"2	c #EB0000",
"3	c #EC1C22",
"4	c #EC8499",
"5	c #EC0101",
"6	c #D1C4C9",
"7	c #E7DAE0",
"8	c #EDDEE4",
"9	c #F0DBE5",
"0	c #F2E4EA",
"a	c #F4F2F3",
"b	c #F4DCE5",
"c	c #F4E4EA",
"d	c #E7D8DF",
"e	c #CED9D9",
"f	c #F9F9F9",
"g	c #D3D3D3",
"h	c #F20000",
"i	c #F80000",
"j	c #FB1E24",
"k	c #FFFFFF",
"l	c #FD8FA5",
"m	c #FF0000",
"n	c #FD393E",
"o	c #FFA2AB",
"p	c #FD3E42",
"q	c #FFA4B1",
"r	c #FA3C48",
"s	c #FCA3BC",
"t	c #DB0000",
"u	c #D93144",
"v	c #DCE5E5",
"w	c #DA89B0",
"x	c #BB0000",
".+@#$%&########@+*",
"*=-;>,';);)););-=!",
"*=~{]^/((((((({~=_",
"*=:<[}|1111111<:=!",
"*:223%455555555::!",
"67890^abccccccc8d6",
"e}^,ffffffffff^^}g",
"!2hijklimmimmiih2_",
"*5iinkommmmmmiih5!",
"!5hipkqmmmmmmmih5*",
"!5hhrksiimimmiih5t",
".!!_uvwtttttttt!*x"};
