/* XPM */
static char * et_xpm[] = {
"18 12 115 2",
"  	c None",
". 	c #1F5F35",
"+ 	c #508464",
"@ 	c #88AB99",
"# 	c #94B4A6",
"$ 	c #91B1AB",
"% 	c #518A68",
"& 	c #216338",
"* 	c #22683B",
"= 	c #87AD97",
"- 	c #B3CBBE",
"; 	c #B5CCC3",
"> 	c #B5CCC4",
", 	c #1D613C",
"' 	c #1F683D",
") 	c #8BB19B",
"! 	c #8FB49C",
"~ 	c #8FB49A",
"{ 	c #8FB58D",
"] 	c #8FB4A0",
"^ 	c #055445",
"/ 	c #065B44",
"( 	c #237058",
"_ 	c #27735C",
": 	c #25725F",
"< 	c #2D7D49",
"[ 	c #3F7B58",
"} 	c #4560CA",
"| 	c #4560CC",
"1 	c #3F7960",
"2 	c #055243",
"3 	c #D7AF16",
"4 	c #E4BC16",
"5 	c #E6BC18",
"6 	c #EBC217",
"7 	c #ECC80F",
"8 	c #ECCA06",
"9 	c #2F2BEC",
"0 	c #6452D7",
"a 	c #5F51D7",
"b 	c #2A27EC",
"c 	c #ECCC0A",
"d 	c #E8BF17",
"e 	c #D0AA15",
"f 	c #ECC117",
"g 	c #EFC417",
"h 	c #F1C618",
"i 	c #F3E600",
"j 	c #9E85A7",
"k 	c #4046E7",
"l 	c #6969BB",
"m 	c #3A42F0",
"n 	c #8A77B5",
"o 	c #D3B516",
"p 	c #E3C218",
"q 	c #E9C917",
"r 	c #EECD18",
"s 	c #F0D21A",
"t 	c #F9EC00",
"u 	c #9394AB",
"v 	c #1632F9",
"w 	c #7E74B1",
"x 	c #8777AB",
"y 	c #1B34F9",
"z 	c #7F85BA",
"A 	c #F9F400",
"B 	c #CDB015",
"C 	c #D2B818",
"D 	c #E3C61A",
"E 	c #EBCD1A",
"F 	c #F9DF0F",
"G 	c #FDDA02",
"H 	c #384DFD",
"I 	c #576CE6",
"J 	c #5367E6",
"K 	c #2744FD",
"L 	c #FCD40F",
"M 	c #FAE209",
"N 	c #F2D41A",
"O 	c #CCB317",
"P 	c #9F0028",
"Q 	c #AD0029",
"R 	c #B5002A",
"S 	c #BD002B",
"T 	c #CC0010",
"U 	c #C40A28",
"V 	c #4E27DE",
"W 	c #4927E1",
"X 	c #BE0D35",
"Y 	c #CF000A",
"Z 	c #B9002A",
"` 	c #9A0027",
" .	c #A60B25",
"..	c #B40C27",
"+.	c #B90A28",
"@.	c #BF0A2C",
"#.	c #C00A2D",
"$.	c #BA0C33",
"%.	c #C70B1C",
"&.	c #DF0900",
"*.	c #C80B17",
"=.	c #BF0A2F",
"-.	c #B40927",
";.	c #9F0B22",
">.	c #A70B23",
",.	c #BB0D2F",
"'.	c #BC0D32",
").	c #BA0C34",
"!.	c #BA0D2C",
"~.	c #A30B22",
"{.	c #A60B2F",
"].	c #A50B31",
"^.	c #A40B35",
"/.	c #A50B29",
"(.	c #940A20",
". + @ # # # $ $ $ $ $ $ $ # # @ % . ",
"& * = - ; ; ; ; > > > > ; - - = * , ",
", ' % ) # ! ~ ~ { { ~ ! ] ! ) % ' . ",
"^ / / ( _ : < [ } | 1 < : : ( / / 2 ",
"3 4 5 6 6 7 8 9 0 a b 8 c 6 6 d 5 e ",
"3 5 f g h i j k l l m n i h g f 5 e ",
"o p q r s t u v w x y z A r r q p B ",
"C D E s s F G H I J K L M N N E D O ",
"P Q R R S S T U V W X Y S S Z R Q ` ",
" ...+.@.@.#.$.%.&.&.*.=.#.=.@.+.-.;.",
">...+.,.,.'.$.).$.).).$.'.$.!.....~.",
";. . .{.{.].].^.^.^.^.^.{.]./. .~.(."};
