/* XPM */
static const char * eu_xpm[] = {
"18 12 167 2",
"  	c #1B317C",
". 	c #43579E",
"+ 	c #808DC1",
"@ 	c #8D99CB",
"# 	c #8B98CE",
"$ 	c #8B98D0",
"% 	c #8A97D2",
"& 	c #8B97D3",
"* 	c #8A96D4",
"= 	c #8B95D3",
"- 	c #8B96D2",
"; 	c #8B97D1",
"> 	c #8B97CE",
", 	c #8C98CC",
"' 	c #7F8CC2",
") 	c #1B307C",
"! 	c #0B267E",
"~ 	c #001D83",
"{ 	c #7585BF",
"] 	c #A8B2D8",
"^ 	c #ABB4DB",
"/ 	c #ABB4DD",
"( 	c #B2B9DA",
"_ 	c #ADB5DE",
": 	c #C1C5D0",
"< 	c #B6BDD9",
"[ 	c #AEB6DD",
"} 	c #AEB6DC",
"| 	c #0B257E",
"1 	c #0F2984",
"2 	c #001D87",
"3 	c #3950A1",
"4 	c #7B8AC1",
"5 	c #808EC6",
"6 	c #808DC8",
"7 	c #B1B0A8",
"8 	c #919BBF",
"9 	c #979DBC",
"0 	c #8D97C3",
"a 	c #A7AAB0",
"b 	c #9FA4B4",
"c 	c #808ACA",
"d 	c #808EC5",
"e 	c #0F2884",
"f 	c #0F288F",
"g 	c #001C90",
"h 	c #001C8E",
"i 	c #1E369B",
"j 	c #394C90",
"k 	c #6D6E70",
"l 	c #293F9A",
"m 	c #243C9E",
"n 	c #2238A1",
"o 	c #2239A1",
"p 	c #2A3F9C",
"q 	c #3E4F8E",
"r 	c #666B74",
"s 	c #253D9B",
"t 	c #1E389A",
"u 	c #0F278F",
"v 	c #0E279A",
"w 	c #001C9E",
"x 	c #001D9E",
"y 	c #001C9D",
"z 	c #092497",
"A 	c #36447B",
"B 	c #021F9A",
"C 	c #011E9B",
"D 	c #011E9A",
"E 	c #011C9C",
"F 	c #112A92",
"G 	c #3E4976",
"H 	c #001D9C",
"I 	c #0E269A",
"J 	c #0E26A7",
"K 	c #001CAF",
"L 	c #001CB2",
"M 	c #021CB4",
"N 	c #3D4D88",
"O 	c #132DAC",
"P 	c #001BB5",
"Q 	c #001EB3",
"R 	c #36488E",
"S 	c #1E34A7",
"T 	c #001AB5",
"U 	c #001DB1",
"V 	c #0F27A7",
"W 	c #001CB0",
"X 	c #001CB5",
"Y 	c #021EB6",
"Z 	c #405188",
"` 	c #1830AF",
" .	c #001ABA",
"..	c #001EB7",
"+.	c #354694",
"@.	c #1E35AA",
"#.	c #001BB8",
"$.	c #001DB4",
"%.	c #0F26A7",
"&.	c #0F289C",
"*.	c #001DA2",
"=.	c #001EA4",
"-.	c #001EA6",
";.	c #0C27A0",
">.	c #434E7C",
",.	c #0221A5",
"'.	c #001DA7",
").	c #0020A5",
"!.	c #001AA9",
"~.	c #173199",
"{.	c #525971",
"].	c #0420A5",
"^.	c #0F279C",
"/.	c #102992",
"(.	c #001D95",
"_.	c #001E97",
":.	c #001E99",
"<.	c #0F2B93",
"[.	c #5D5F66",
"}.	c #21378B",
"|.	c #0C2898",
"1.	c #001CA3",
"2.	c #001DA1",
"3.	c #172E93",
"4.	c #1A3290",
"5.	c #50576D",
"6.	c #042498",
"7.	c #001F99",
"8.	c #102892",
"9.	c #102A88",
"0.	c #001E8D",
"a.	c #001F90",
"b.	c #002095",
"c.	c #00209B",
"d.	c #0018A5",
"e.	c #626464",
"f.	c #404C7E",
"g.	c #364387",
"h.	c #283B90",
"i.	c #6F6E5C",
"j.	c #324384",
"k.	c #0016A6",
"l.	c #00219A",
"m.	c #102988",
"n.	c #0C2781",
"o.	c #001E89",
"p.	c #001F92",
"q.	c #001FA1",
"r.	c #001FAA",
"s.	c #0221AC",
"t.	c #021DB2",
"u.	c #3A4A8C",
"v.	c #2E4198",
"w.	c #0621AF",
"x.	c #0322AC",
"y.	c #1C327E",
"z.	c #102989",
"A.	c #112A93",
"B.	c #112B9E",
"C.	c #102AA7",
"D.	c #102AAD",
"E.	c #0F29B2",
"F.	c #1029B4",
"G.	c #0D25B8",
"H.	c #0E27B7",
"I.	c #0F28B5",
"J.	c #1C317E",
"  . + @ # $ % & * * = - ; > , ' . ) ",
"! ~ { ] ^ / ( _ : < [ } / ^ ] { ~ | ",
"1 2 3 4 5 6 7 8 9 0 a b c d 4 3 2 e ",
"f g h i j k l m n o p q r s t h g u ",
"v w x y z A B C D D E F G C H x w I ",
"J K L M N O P Q Q Q Q P R S T U K J ",
"V W X Y Z `  ......... .+.@.#.$.W %.",
"&.*.=.-.;.>.,.'.).).!.~.{.].-.=.*.^.",
"/.(._.:.<.[.}.|.1.2.3.4.5.6.7._.(.8.",
"9.0.a.b.c.d.e.f.g.h.i.j.k.l.b.a.0.m.",
"n.o.p.7.q.r.s.t.u.v.w.x.r.q.7.p.o.n.",
"y.z.A.B.C.D.E.F.G.H.I.E.D.C.B.A.z.J."};
