/* XPM */
static char * fm_xpm[] = {
"18 12 91 1",
" 	c None",
".	c #1490BF",
"+	c #47ACD4",
"@	c #82C7E2",
"#	c #8FCDE6",
"$	c #8DCCE7",
"%	c #86CBE7",
"&	c #8CCBE7",
"*	c #1596C7",
"=	c #169FD2",
"-	c #80CBE7",
";	c #AFDEF0",
">	c #B2DFF1",
",	c #C4E6F2",
"'	c #56C7F2",
")	c #1496C9",
"!	c #16A1D4",
"~	c #4AB6DE",
"{	c #86CEE9",
"]	c #8AD0EB",
"^	c #80CFEB",
"/	c #F1EBEE",
"(	c #F1ECEE",
"_	c #50BAE0",
":	c #149FD6",
"<	c #1396CB",
"[	c #15A2D8",
"}	c #31ADDD",
"|	c #33AFDE",
"1	c #2CAEDF",
"2	c #55BBE0",
"3	c #0F90C9",
"4	c #1195CD",
"5	c #139FDA",
"6	c #11A1E1",
"7	c #09A5E0",
"8	c #04A6E1",
"9	c #14A5DE",
"0	c #0CA5E0",
"a	c #15A6E0",
"b	c #1193CA",
"c	c #1095D0",
"d	c #11A0DF",
"e	c #11A5E7",
"f	c #07A5E6",
"g	c #41B8EA",
"h	c #F3E5EE",
"i	c #3BB7EB",
"j	c #02A8EB",
"k	c #13A9EA",
"l	c #16AEE9",
"m	c #09A7EA",
"n	c #2FB4EB",
"o	c #50BDEA",
"p	c #02A5E6",
"q	c #13A3E0",
"r	c #42BCEF",
"s	c #F9EAF3",
"t	c #3DBCF0",
"u	c #09ABEF",
"v	c #14ADEF",
"w	c #30B8F0",
"x	c #14A9E7",
"y	c #06AFEE",
"z	c #04B2F1",
"A	c #16B4F0",
"B	c #08B0F1",
"C	c #16B3EE",
"D	c #00B1F1",
"E	c #13ADEB",
"F	c #149ACD",
"G	c #16ACE6",
"H	c #17B0EA",
"I	c #13B3F1",
"J	c #0BB4F1",
"K	c #3BC1F2",
"L	c #41C2F2",
"M	c #0CB3F1",
"N	c #16B2F0",
"O	c #1395C7",
"P	c #FFF1F7",
"Q	c #16A6DC",
"R	c #1599CB",
"S	c #16AAE3",
"T	c #16AFED",
"U	c #4FC4F2",
"V	c #1493C3",
"W	c #139BD0",
"X	c #109DDC",
"Y	c #039CDC",
"Z	c #1389B6",
".+@##$$$%%$$$&$@+.",
"*=-;>>>;,,;>>>,'=*",
")!~{]]]^/('$]$#_:*",
"<:[}|}}1_2~|}}}==3",
"45567879779080a55b",
"cdefghijklmnhope63",
"cqmmrstuvvuws'jeqb",
"cqxlyzuABuCuDuEl5b",
"F9GHIIAJKLMINAHG9O",
"F9GlCAIDPPzINNHGQ*",
"R9SHTNvuU'BIIlHSQ*",
"VFW555X5YY5X55:FRZ"};
