/* XPM */
static char * fo_xpm[] = {
"18 12 103 2",
"  	c None",
". 	c #CCCCCC",
"+ 	c #DDDDDD",
"@ 	c #E9E9E9",
"# 	c #E2EBEB",
"$ 	c #9485CE",
"% 	c #EBA4B1",
"& 	c #BFD2EB",
"* 	c #EEEEEE",
"= 	c #D4D4D4",
"- 	c #E0E0E0",
"; 	c #F5F5F5",
"> 	c #EFF5F5",
", 	c #B7ABDB",
"' 	c #F5C2C8",
") 	c #B8ABD9",
"! 	c #D6E3F5",
"~ 	c #F1F1F1",
"{ 	c #E8F1F1",
"] 	c #9380C4",
"^ 	c #F1A4A7",
"/ 	c #9580BF",
"( 	c #C6D6F1",
"_ 	c #D8D8D8",
": 	c #E6E6E6",
"< 	c #2A229A",
"[ 	c #EA6266",
"} 	c #47228D",
"| 	c #B4CFEA",
"1 	c #D1D1D1",
"2 	c #2A4AC4",
"3 	c #2F51D2",
"4 	c #3A5CD5",
"5 	c #244FDF",
"6 	c #010FA5",
"7 	c #EC5153",
"8 	c #2A1F95",
"9 	c #2534DC",
"0 	c #4566D9",
"a 	c #3354D4",
"b 	c #3053D3",
"c 	c #811762",
"d 	c #8B1A67",
"e 	c #8F1B69",
"f 	c #901C68",
"g 	c #8D296F",
"h 	c #D23E80",
"i 	c #F44F6D",
"j 	c #DF457B",
"k 	c #972C73",
"l 	c #911C66",
"m 	c #941C69",
"n 	c #911B6A",
"o 	c #7D165F",
"p 	c #D9354D",
"q 	c #E93852",
"r 	c #F03953",
"s 	c #F53A54",
"t 	c #F83B56",
"u 	c #F94B6B",
"v 	c #F94F72",
"w 	c #F94D6F",
"x 	c #F93E59",
"y 	c #F93C54",
"z 	c #D3344B",
"A 	c #2118B9",
"B 	c #241BC6",
"C 	c #261DCA",
"D 	c #2F24CF",
"E 	c #1319DC",
"F 	c #0617B1",
"G 	c #FD5858",
"H 	c #3524A0",
"I 	c #0B0ADB",
"J 	c #2B2BD2",
"K 	c #271DCD",
"L 	c #291ECF",
"M 	c #291ED0",
"N 	c #2017B4",
"O 	c #EBEBEB",
"P 	c #FAFAFA",
"Q 	c #FFFFFF",
"R 	c #0A0099",
"S 	c #FF5256",
"T 	c #2F0088",
"U 	c #BCE5FF",
"V 	c #EAFDFD",
"W 	c #2A009A",
"X 	c #2F008E",
"Y 	c #9DC2FF",
"Z 	c #F4F4F4",
"` 	c #D2D2D2",
" .	c #E5FAFA",
"..	c #2800A5",
"+.	c #FC4E62",
"@.	c #2B009E",
"#.	c #95BEFC",
"$.	c #CFE3E3",
"%.	c #2100A4",
"&.	c #E54563",
"*.	c #24009E",
"=.	c #82ACE6",
"-.	c #C1C1C1",
". + @ @ # $ % $ & @ * @ @ * @ @ + . ",
"= - * ; > , ' ) ! ; ; ; ; ; ; * - = ",
"= - @ ~ { ] ^ / ( ~ ~ ~ ~ ~ ~ @ - = ",
"_ - : @ @ < [ } | @ @ @ @ @ @ : - 1 ",
"2 3 3 4 5 6 7 8 9 0 a b a a b b 3 2 ",
"c d e f g h i j k l f m m m n e d o ",
"p q r s t u v w x t y y y t s r q z ",
"A B C D E F G H I J K L M L K C B N ",
"_ O ~ P Q R S T U Q Q Q Q P P ~ O = ",
"+ @ ; P V W S X Y Q Q Q Q Q P Z O ` ",
"_ O ~ ;  ...+.@.#.P Q P P P ; ~ * ` ",
". + + - $.%.&.*.=.: : : : : + + _ -."};
