/* XPM */
static const char * ge_xpm[] = {
"18 12 93 2",
"  	c None",
". 	c #CDCDCD",
"+ 	c #DEDEDE",
"@ 	c #E9E9E9",
"# 	c #EBEBEB",
"$ 	c #EBD2DE",
"% 	c #EB8282",
"& 	c #EBCEDC",
"* 	c #ECECEC",
"= 	c #D6D6D6",
"- 	c #E1E1E1",
"; 	c #F3E9EA",
"> 	c #F5D3D8",
", 	c #F5DADF",
"' 	c #F5F4F4",
") 	c #F5E3E9",
"! 	c #F5A8A8",
"~ 	c #F5F5F5",
"{ 	c #F5E0E7",
"] 	c #F5D1D6",
"^ 	c #D7D7D7",
"/ 	c #EACACC",
"( 	c #F08F91",
"_ 	c #F0E2E3",
": 	c #F0F0F0",
"< 	c #F07878",
"[ 	c #F0D0D6",
"} 	c #F3E6E7",
"| 	c #F09497",
"1 	c #EAC2C7",
"2 	c #DBDBDB",
"3 	c #E4E4E4",
"4 	c #E8E8E8",
"5 	c #E8AEB3",
"6 	c #EABFC2",
"7 	c #EAEAEA",
"8 	c #EA1C1C",
"9 	c #E9BEBF",
"0 	c #E9C9CA",
"a 	c #E8A8AF",
"b 	c #E5E5E5",
"c 	c #D8A6B7",
"d 	c #E6B1C1",
"e 	c #E8B3C1",
"f 	c #EABBC7",
"g 	c #ECBBC6",
"h 	c #EDB7C2",
"i 	c #ED8DA0",
"j 	c #ED0000",
"k 	c #ED869A",
"l 	c #D90000",
"m 	c #E80000",
"n 	c #F00000",
"o 	c #F50000",
"p 	c #EA0000",
"q 	c #F90000",
"r 	c #ECACBF",
"s 	c #F3B2C2",
"t 	c #F8BECB",
"u 	c #FBBECB",
"v 	c #FFBBC7",
"w 	c #FDBAC8",
"x 	c #FD90A5",
"y 	c #FD0000",
"z 	c #FD889F",
"A 	c #F4F4F4",
"B 	c #F9C0C6",
"C 	c #FDD5D8",
"D 	c #FDFDFD",
"E 	c #FFCFD5",
"F 	c #FFC5CC",
"G 	c #FFE3E6",
"H 	c #F9BAC0",
"I 	c #EFECEC",
"J 	c #F4CACB",
"K 	c #F92729",
"L 	c #FD373C",
"M 	c #FFC5D0",
"N 	c #FFEBED",
"O 	c #FD4349",
"P 	c #F92426",
"Q 	c #F4BBBC",
"R 	c #F88191",
"S 	c #FB97AB",
"T 	c #FDF9FA",
"U 	c #FDC3D6",
"V 	c #FDB9CF",
"W 	c #FBA8B7",
"X 	c #F87C8C",
"Y 	c #D1D1D1",
"Z 	c #EDB5CF",
"` 	c #EDABCB",
" .	c #DFDFDF",
". + @ @ # # # $ % % & * @ @ # @ + . ",
"= - ; > , ' ' ) ! ! ) ~ ~ { ] ; - = ",
"^ - / % ( _ : $ < < [ ; } | % 1 - 2 ",
"^ 3 4 5 6 7 # 1 8 8 9 # * 0 a b - = ",
"c d e f g h h i j j k h 9 g f e d c ",
"l m j n n o o o o o n o o o n j p l ",
"l p n o q q q q q q q q q q o n p l ",
"c r s t u v w x y y z w v t t s r c ",
"2 * A B C D D E y y F D D G H A * 2 ",
"2 I J K L G D M y y u D N O P Q * 2 ",
"2 * ; R S T D U y y V D T W X } * 2 ",
"Y - 3 4 * I I Z j j ` I I @ 4 3  .Y "};
