/* XPM */
static char * gg_xpm[] = {
"18 12 95 2",
"  	c None",
". 	c #CDCDCD",
"+ 	c #DEDEDE",
"@ 	c #E9E9E9",
"# 	c #ECECEC",
"$ 	c #EBB9D1",
"% 	c #EB8C82",
"& 	c #EBACC2",
"* 	c #EDECED",
"= 	c #EBEAEB",
"- 	c #D6D6D6",
"; 	c #E1E1E1",
"> 	c #F0F0F0",
", 	c #F5F5F5",
"' 	c #F5CEDD",
") 	c #F5CAA8",
"! 	c #F5D4A8",
"~ 	c #F5C6D3",
"{ 	c #F0B1C4",
"] 	c #F0AA78",
"^ 	c #F0BB78",
"/ 	c #F0A3B3",
"( 	c #DBDBDB",
"_ 	c #E5E5E5",
": 	c #EA7E9A",
"< 	c #EA711C",
"[ 	c #EA8E1C",
"} 	c #EA687D",
"| 	c #E4E4E4",
"1 	c #D86F92",
"2 	c #E67999",
"3 	c #E87C98",
"4 	c #EA7E97",
"5 	c #EC7296",
"6 	c #ED6D96",
"7 	c #ED749A",
"8 	c #ED2B57",
"9 	c #ED6400",
"0 	c #ED8A00",
"a 	c #ED2042",
"b 	c #D90000",
"c 	c #E80000",
"d 	c #ED0000",
"e 	c #F00C00",
"f 	c #F37000",
"g 	c #F46E00",
"h 	c #F46A00",
"i 	c #F4B700",
"j 	c #F4CA00",
"k 	c #F47100",
"l 	c #F37F00",
"m 	c #F01F00",
"n 	c #EA0000",
"o 	c #F00000",
"p 	c #F50D00",
"q 	c #F97D00",
"r 	c #F97900",
"s 	c #F9C200",
"t 	c #F9D300",
"u 	c #F88C00",
"v 	c #F52200",
"w 	c #DB6085",
"x 	c #EC6E91",
"y 	c #F37192",
"z 	c #F87592",
"A 	c #FB6E92",
"B 	c #FD6791",
"C 	c #FD6E97",
"D 	c #FD2851",
"E 	c #FD6E00",
"F 	c #FD9600",
"G 	c #FD203E",
"H 	c #FD6B97",
"I 	c #F4F4F4",
"J 	c #F9F9F9",
"K 	c #FDFDFD",
"L 	c #FFFEFF",
"M 	c #FF799C",
"N 	c #FF6900",
"O 	c #FF8E00",
"P 	c #FF5C78",
"Q 	c #FF78A1",
"R 	c #FF5C7D",
"S 	c #F3F3F3",
"T 	c #FBFBFB",
"U 	c #FD7BB0",
"V 	c #FD618C",
"W 	c #FDFAFD",
"X 	c #D1D1D1",
"Y 	c #DFDFDF",
"Z 	c #E8E8E8",
"` 	c #ED7DB2",
" .	c #ED1100",
"..	c #ED1500",
"+.	c #ED5E90",
". + @ @ # # @ $ % % & * = = = @ + . ",
"- ; > , , , , ' ) ! ~ , , , , > ; - ",
"- ; @ > > > > { ] ^ / > > > > @ ; - ",
"( ; _ @ @ @ @ : < [ } @ @ @ @ _ | - ",
"1 2 3 4 5 6 7 8 9 0 a 7 6 5 : 4 2 1 ",
"b c d e f g h g i j k h h l m d n b ",
"b n o p q q r r s t q r r u v d n b ",
"w x y z A B C D E F G H B A z y 5 w ",
"( # I J K L L M N O P L L K J I # ( ",
"( # I J K L L Q N O R L L K J I # ( ",
"( # S J T K L U N O V W L K J > # ( ",
"X Y _ Z @ # # `  ...+.# # @ Z _ Y X "};
