/* XPM */
static char * gh_xpm[] = {
"18 12 46 1",
" 	c None",
".	c #CC0000",
"+	c #DD3737",
"@	c #E97878",
"#	c #EB8686",
"$	c #D40000",
"%	c #E00000",
"&	c #EE7575",
"*	c #F4A8A8",
"=	c #F5ABAB",
"-	c #E93939",
";	c #F17B7B",
">	c #F18080",
",	c #E50000",
"'	c #E91E1E",
")	c #EA2222",
"!	c #D8D800",
"~	c #E4E400",
"{	c #E8E800",
"]	c #ECEC01",
"^	c #D4D400",
"/	c #F2F200",
"(	c #F5F500",
"_	c #C9DC01",
":	c #425905",
"<	c #354A05",
"[	c #B5C901",
"}	c #F3F400",
"|	c #F8F800",
"1	c #F9F900",
"2	c #000009",
"3	c #FDFB01",
"4	c #FDFC00",
"5	c #D9BC02",
"6	c #00A700",
"7	c #00A800",
"8	c #00B200",
"9	c #00B600",
"0	c #00BB00",
"a	c #00BE00",
"b	c #06CC00",
"c	c #0DCF00",
"d	c #00C000",
"e	c #009C00",
"f	c #00A200",
"g	c #009200",
".+@############@+.",
"$%&*=**==*==*=*&%$",
"$%-;>>>;>>>>>>;-%$",
"$%,'))))))))))),%.",
"!~{]]]]]]]]]]]{{~^",
"!{{//((_:<[}}/(]~^",
"!{/(|111221111}/]^",
"!]/13334553444(/{^",
"6789000abcda09987e",
"f7900aaaaaaaa0098e",
"678000000000a0087f",
"e66666767777676ffg"};
