/* XPM */
static const char * gi_xpm[] = {
"18 12 74 1",
" 	c None",
".	c #CCCCCC",
"+	c #DDDDDD",
"@	c #E9E9E9",
"#	c #EEEEEE",
"$	c #E5E5E5",
"%	c #DCD9DD",
"&	c #D4D4D4",
"*	c #E0E0E0",
"=	c #F5F5F5",
"-	c #F2EEF0",
";	c #F2F2F2",
">	c #EFF1F1",
",	c #D09699",
"'	c #D3AAB2",
")	c #C98080",
"!	c #CEA9B0",
"~	c #CF9396",
"{	c #EBE8E9",
"]	c #D3D3D3",
"^	c #D8D8D8",
"/	c #962222",
"(	c #AA292A",
"_	c #B53536",
":	c #B92525",
"<	c #AB464C",
"[	c #E4EAEA",
"}	c #D1D1D1",
"|	c #8D0000",
"1	c #930101",
"2	c #980000",
"3	c #9C0101",
"4	c #890101",
"5	c #CAA2B1",
"6	c #E4E4E4",
"7	c #A60000",
"8	c #A30000",
"9	c #F7F8F8",
"0	c #D7BCD6",
"a	c #B00000",
"b	c #AF0000",
"c	c #C578AE",
"d	c #F8F8F8",
"e	c #F0F2F4",
"f	c #EB9DB0",
"g	c #F3A7A4",
"h	c #E6AF9A",
"i	c #E8CD7E",
"j	c #EF9CB0",
"k	c #EDD9E0",
"l	c #FBFBFB",
"m	c #D70000",
"n	c #E90000",
"o	c #EF0000",
"p	c #F70000",
"q	c #F80000",
"r	c #FF0000",
"s	c #FF1215",
"t	c #FF0415",
"u	c #FF6912",
"v	c #FF8F0D",
"w	c #F10000",
"x	c #D20000",
"y	c #DB0000",
"z	c #FD0900",
"A	c #FD5000",
"B	c #E40000",
"C	c #FA4D00",
"D	c #FA5600",
"E	c #CD0000",
"F	c #DF0000",
"G	c #E30000",
"H	c #E42B00",
"I	c #BF0000",
".+@@@#@#$##@#@#$%.",
"&*#=====--=====#*&",
"&*@;;>,'))!~{;;@*]",
"^*$@@@/(_:</[@@$*}",
"^$@@#%|123145#@@6&",
"^$@;;;|2783|%--@6&",
"^@;=90a8bb7bc9=;[&",
"^#;ddefghigjkld>#&",
"mnopqrstuvtsrqqwnx",
"ynwpqrrrzArrqrpwnx",
"mBopqqqqCDqqqpponx",
"EyFFGBGGHHGBGGFyxI"};
