/* XPM */
static char * gl_xpm[] = {
"18 12 82 1",
" 	c None",
".	c #CCCCCC",
"+	c #DDDDDD",
"@	c #E9E9E9",
"#	c #EEEEEE",
"$	c #D4D4D4",
"%	c #E0E0E0",
"&	c #F5F5F5",
"*	c #F1F2F2",
"=	c #EFF0F0",
"-	c #DE95AA",
";	c #D78088",
">	c #D7D8D8",
",	c #E5E5E5",
"'	c #E6E9E9",
")	c #BC2225",
"!	c #C02249",
"~	c #BB2227",
"{	c #D0D1D1",
"]	c #C11C58",
"^	c #B30101",
"/	c #B40037",
"(	c #B80134",
"_	c #C31D56",
":	c #ECECEC",
"<	c #B40004",
"[	c #B50010",
"}	c #B5001D",
"|	c #B5001E",
"1	c #B30011",
"2	c #BC0004",
"3	c #EFF5F5",
"4	c #AC001D",
"5	c #AA0015",
"6	c #F8F9F9",
"7	c #FBFBFB",
"8	c #F3F9F9",
"9	c #BF0000",
"0	c #B70016",
"a	c #B8001F",
"b	c #9B001A",
"c	c #A10034",
"d	c #F0D9E7",
"e	c #FDFDFD",
"f	c #F5DDEB",
"g	c #C50036",
"h	c #C30037",
"i	c #BB0037",
"j	c #A50032",
"k	c #AD0033",
"l	c #B70134",
"m	c #BF001F",
"n	c #C6002F",
"o	c #FCFDFD",
"p	c #CD0033",
"q	c #C80021",
"r	c #CA0037",
"s	c #AD002F",
"t	c #C20032",
"u	c #C30010",
"v	c #F3CEDE",
"w	c #CC0039",
"x	c #C50011",
"y	c #C90039",
"z	c #A9002E",
"A	c #AD002B",
"B	c #BC0030",
"C	c #C20022",
"D	c #BE000B",
"E	c #BF0027",
"F	c #C10041",
"G	c #C3003E",
"H	c #C4003A",
"I	c #BC0031",
"J	c #A9002A",
"K	c #A60029",
"L	c #AE0036",
"M	c #AE003A",
"N	c #AF003D",
"O	c #AB003D",
"P	c #AD0040",
"Q	c #9B0026",
".+@@@#@@#@#@#@@@+.",
"$%#&&&&&&&&&&&&#%$",
"$%@*=-;;-******@%$",
">%,'))!!)~@@@@@,%{",
">,']^//(/^_##:@@,{",
">,#<[}}|}123**##,{",
"45<3676666890a}|4b",
"c/^d6eeeeef9ghii/j",
"klmnooooeepqrrgh(j",
"sltupvoovwxyyrgtlz",
"ABthCummDEFFGHgIBJ",
"KskLMNNOPPPPNMLkzQ"};
