/* XPM */
static char * gn_xpm[] = {
"18 12 128 2",
"  	c None",
". 	c #9E0621",
"+ 	c #B63C52",
"@ 	c #CD7B8D",
"# 	c #D28999",
"$ 	c #D0879A",
"% 	c #CE859B",
"& 	c #EAE18F",
"* 	c #EBD98F",
"= 	c #EBDF8C",
"- 	c #89ADA9",
"; 	c #91B2A6",
"> 	c #86AA99",
", 	c #4C8164",
"' 	c #1B5C35",
") 	c #A50622",
"! 	c #AE0725",
"~ 	c #D3798A",
"{ 	c #E3AAB5",
"] 	c #E3ACB9",
"^ 	c #F4EEB1",
"/ 	c #F5EAB1",
"( 	c #AEC9C2",
"_ 	c #B2CBC2",
": 	c #B2CABE",
"< 	c #1D643B",
"[ 	c #1B5F3A",
"} 	c #A40625",
"| 	c #C13E56",
"1 	c #D67F8F",
"2 	c #D78293",
"3 	c #F1E788",
"4 	c #F1E187",
"5 	c #F1DF88",
"6 	c #89AF9B",
"7 	c #8BB2A0",
"8 	c #4F8768",
"9 	c #1C653C",
"0 	c #A20628",
"a 	c #AF0728",
"b 	c #BA2441",
"c 	c #BB2545",
"d 	c #B82245",
"e 	c #E9D930",
"f 	c #EAC930",
"g 	c #EAD52D",
"h 	c #2C745A",
"i 	c #367A5A",
"j 	c #387856",
"k 	c #1E693E",
"l 	c #1C6641",
"m 	c #185C40",
"n 	c #9F062E",
"o 	c #A8052F",
"p 	c #AE072E",
"q 	c #B0072D",
"r 	c #EBD713",
"s 	c #ECC911",
"t 	c #ECC512",
"u 	c #ECD30F",
"v 	c #0B604A",
"w 	c #1B654B",
"x 	c #1A634C",
"y 	c #165947",
"z 	c #9D0632",
"A 	c #A80635",
"B 	c #AE0735",
"C 	c #B00736",
"D 	c #AE0035",
"E 	c #F3DC16",
"F 	c #F4CC13",
"G 	c #F4CA15",
"H 	c #F4D911",
"I 	c #0A5F58",
"J 	c #156559",
"K 	c #196657",
"L 	c #186256",
"M 	c #15574E",
"N 	c #B50537",
"O 	c #B20037",
"P 	c #F8E217",
"Q 	c #F9D314",
"R 	c #F9CF16",
"S 	c #F9DE12",
"T 	c #0A615A",
"U 	c #15594F",
"V 	c #A1062E",
"W 	c #AF0630",
"X 	c #B50830",
"Y 	c #BA0830",
"Z 	c #BD0530",
"` 	c #FCE614",
" .	c #FDD711",
"..	c #FDD313",
"+.	c #FFD911",
"@.	c #FDE20F",
"#.	c #0B664E",
"$.	c #186C4F",
"%.	c #1D6C4E",
"&.	c #165A48",
"*.	c #B60727",
"=.	c #B90829",
"-.	c #BC082C",
";.	c #BC052F",
">.	c #BE002D",
",.	c #FEE913",
"'.	c #FFE50E",
").	c #0C6948",
"!.	c #1A6F47",
"~.	c #1F6F45",
"{.	c #1E6C45",
"].	c #A90729",
"^.	c #C0082A",
"/.	c #0B6849",
"(.	c #1E6D41",
"_.	c #A90623",
":.	c #FCD115",
"<.	c #FCE110",
"[.	c #A30032",
"}.	c #E4CE15",
"|.	c #E5C013",
"1.	c #E6BD15",
"2.	c #E5BE13",
"3.	c #E6CB11",
"4.	c #095950",
"5.	c #196247",
"6.	c #185D41",
"7.	c #195832",
". + @ # $ % & * * * * = - - ; > , ' ",
") ! ~ { ] ] ^ / / / / ^ ( _ : > < [ ",
"} ! | 1 2 1 3 4 4 5 5 3 6 7 6 8 9 [ ",
"0 a a b c d e f f f f g h i j k l m ",
"n o p q q q r s t t t u v w w x x y ",
"z A B C C D E F G G F H I J K J L M ",
"z A C C N O P Q R R Q S T J K J L U ",
"V W X Y Z Z `  .....+.@.#.$.%.%.x &.",
"} *.=.-.;.>.,.+. ... .'.).!.~.~.{.m ",
"].*.-.^.^.>.,. ... . .'./.!.(.(.k [ ",
"_.*.=.-.;.>.`  .Q :.:.<.#.$.~.~.k [ ",
") } ].].A [.}.|.1.1.2.3.4.U 5.6.[ 7."};
