/* XPM */
static const char * gr_xpm[] = {
"18 12 99 2",
"  	c None",
". 	c #3535CC",
"+ 	c #6060DD",
"@ 	c #8889E9",
"# 	c #EBEBEB",
"$ 	c #C8CBEB",
"% 	c #8E8FEB",
"& 	c #9B9EEB",
"* 	c #9496EB",
"= 	c #8F90EB",
"- 	c #8484E9",
"; 	c #4345EB",
"> 	c #1616CC",
", 	c #1919D4",
"' 	c #1414E0",
") 	c #7575EE",
"! 	c #F4F4F4",
"~ 	c #D8D9F5",
"{ 	c #ABABF5",
"] 	c #D1D4F5",
"^ 	c #F1F1F1",
"/ 	c #F1F1F5",
"( 	c #E8E8EE",
"_ 	c #D6D6D6",
": 	c #CACAD4",
"< 	c #7779D5",
"[ 	c #7B7CE1",
"} 	c #9091E9",
"| 	c #DADCF1",
"1 	c #B0B3EC",
"2 	c #B5B7F1",
"3 	c #CDCEF1",
"4 	c #DDDEF1",
"5 	c #BBBBE1",
"6 	c #AEAFD3",
"7 	c #E2E2E2",
"8 	c #A1A3EA",
"9 	c #3536EA",
"0 	c #3131E9",
"a 	c #1616E5",
"b 	c #1617DD",
"c 	c #1717CF",
"d 	c #1D21D7",
"e 	c #191BE4",
"f 	c #0C0EE8",
"g 	c #9397EC",
"h 	c #0000ED",
"i 	c #E7E7EC",
"j 	c #E6E6EA",
"k 	c #CCCDD1",
"l 	c #0E10D8",
"m 	c #080AE7",
"n 	c #828EF2",
"o 	c #0000F3",
"p 	c #090AF4",
"q 	c #252BF4",
"r 	c #4649F3",
"s 	c #373FF4",
"t 	c #363FF3",
"u 	c #343DED",
"v 	c #333CE7",
"w 	c #2D36D1",
"x 	c #7782D9",
"y 	c #7A87E9",
"z 	c #7482F0",
"A 	c #D7D9F8",
"B 	c #6D7CF9",
"C 	c #909BF9",
"D 	c #7A87F9",
"E 	c #6A78F8",
"F 	c #6B7AF9",
"G 	c #6777F5",
"H 	c #6272E9",
"I 	c #5865D3",
"J 	c #DADADA",
"K 	c #EFF0F8",
"L 	c #FBFBFB",
"M 	c #FDFDFD",
"N 	c #F9F9F9",
"O 	c #3B40DA",
"P 	c #4749F9",
"Q 	c #4A4CFF",
"R 	c #494CFF",
"S 	c #393ED3",
"T 	c #D3D3D3",
"U 	c #8989D9",
"V 	c #9597F1",
"W 	c #9799F7",
"X 	c #979BFA",
"Y 	c #969CFC",
"Z 	c #929AFC",
"` 	c #949BFC",
" .	c #8686D4",
"..	c #1819DA",
"+.	c #1718DF",
"@.	c #1718E1",
"#.	c #1618E5",
"$.	c #1718D6",
"%.	c #1515C1",
". + @ # $ % & * = = % = = = = - ; > ",
", ' ) ! ~ { { ] ! ^ / / / / / ( _ : ",
"< [ } ^ | 1 2 3 | 4 4 4 4 4 | $ 5 6 ",
"_ 7 7 # # # # 8 9 9 9 9 9 9 0 a b c ",
"d e f # g h h 1 ( ( i i i i j j 4 k ",
"l m h ^ n o p q r s s t t t t u v w ",
"x y z ! A B C D E F F F E E G H H I ",
"J # ^ K L M M M L M M M M L N ! # _ ",
"O ; r P Q R R Q R R Q Q Q Q P r ; S ",
"J # ^ L M M M M M M M M M M L ! # T ",
"U g V W X Y X Z ` Z Z Z X ` W g }  .",
"c ..+.@.@.#.a a ' a #.#.#.#.@.b $.%."};
