/* XPM */
static char * gt_xpm[] = {
"18 12 105 2",
"  	c None",
". 	c #1490BF",
"+ 	c #47ACD4",
"@ 	c #82C7E2",
"# 	c #8FCDE6",
"$ 	c #8CCBE7",
"% 	c #85C8E7",
"& 	c #EBEBEB",
"* 	c #1596C7",
"= 	c #169FD2",
"- 	c #80CBE7",
"; 	c #AFDEF0",
"> 	c #ABDCF1",
", 	c #F5F5F4",
"' 	c #F1F1F1",
") 	c #B0DEF1",
"! 	c #80CDEB",
"~ 	c #16A1D4",
"{ 	c #1496C9",
"] 	c #4AB6DE",
"^ 	c #86CEE9",
"/ 	c #88CFEB",
"( 	c #1396CB",
"_ 	c #149FD6",
": 	c #15A2D8",
"< 	c #31ADDD",
"[ 	c #22ACE1",
"} 	c #E8E7E2",
"| 	c #BDC8D8",
"1 	c #9BAFB7",
"2 	c #27AFE2",
"3 	c #1191C7",
"4 	c #1195CD",
"5 	c #139FDA",
"6 	c #11A0DF",
"7 	c #16A6DC",
"8 	c #1FB1EC",
"9 	c #7C9F6E",
"0 	c #5C9452",
"a 	c #DCD2A4",
"b 	c #516C3A",
"c 	c #3C783B",
"d 	c #98AA7C",
"e 	c #26B3EC",
"f 	c #0FA3E0",
"g 	c #14A5DE",
"h 	c #1095D0",
"i 	c #12A5E7",
"j 	c #12A9EB",
"k 	c #11ADF3",
"l 	c #4B9235",
"m 	c #F3EFE3",
"n 	c #F3EC93",
"o 	c #F4F469",
"p 	c #7C9EA7",
"q 	c #5F9451",
"r 	c #1BB1F3",
"s 	c #0EA6E9",
"t 	c #0F9BD8",
"u 	c #0F90C9",
"v 	c #13A3E0",
"w 	c #0FAEEE",
"x 	c #14B1F9",
"y 	c #3A981B",
"z 	c #D3DDE0",
"A 	c #F1D8CB",
"B 	c #E0D2BA",
"C 	c #417471",
"D 	c #55933E",
"E 	c #1BB3F9",
"F 	c #11ABEF",
"G 	c #14ADEB",
"H 	c #12AEED",
"I 	c #0EBAFD",
"J 	c #FDF9F4",
"K 	c #3C480F",
"L 	c #B1BBB5",
"M 	c #658AA3",
"N 	c #000000",
"O 	c #FDFDF8",
"P 	c #16BCFC",
"Q 	c #14A9E7",
"R 	c #1193CA",
"S 	c #149ACD",
"T 	c #17ADE5",
"U 	c #17B0EA",
"V 	c #00A6F0",
"W 	c #FFFFFF",
"X 	c #CDDBC9",
"Y 	c #75A970",
"Z 	c #74A471",
"` 	c #D5E3D3",
" .	c #00AAF1",
"..	c #11B1EE",
"+.	c #1395C7",
"@.	c #16A8DD",
"#.	c #02AEF1",
"$.	c #1599CB",
"%.	c #16AAE3",
"&.	c #FCFCFC",
"*.	c #1493C3",
"=.	c #149CD2",
"-.	c #0297DB",
";.	c #E5E5E4",
">.	c #1389B6",
". + @ # $ % & & & & & & % $ # @ + . ",
"* = - ; ; > , , , ' , , ) ; ; ! ~ * ",
"{ ~ ] ^ / ! ' ' ' ' ' ' ! ^ ^ ] ~ { ",
"( _ : < < [ & } | 1 & & 2 < < : ~ 3 ",
"4 5 6 6 7 8 9 0 a b c d e f 6 g 6 3 ",
"h 6 i i j k l m n o p q r s i i t u ",
"h v i j w x y z A B C D E F j i 6 ( ",
"h v i G H I J K L M N O P w G Q 6 R ",
"S g T U H V W X Y Z ` W  ...G T g +.",
"S @.T G .. .W W W W W W #...U T @.+.",
"$.7 %.G G V O W W &.&.&. .H G %.7 * ",
"*.S =._ t -.;.;.;.;.;.;.-.t _ S ( >."};
