/* XPM */
static char * gw_xpm[] = {
"18 12 69 1",
" 	c None",
".	c #9E0000",
"+	c #B63737",
"@	c #CD7878",
"#	c #D28686",
"$	c #CE8585",
"%	c #EBEB86",
"&	c #E9E978",
"*	c #DDDD37",
"=	c #CCCC00",
"-	c #A50000",
";	c #AE0000",
">	c #D37575",
",	c #E3A8A8",
"'	c #F4F5AB",
")	c #EEEE75",
"!	c #E1E100",
"~	c #D4D400",
"{	c #C23939",
"]	c #D67B7B",
"^	c #D78080",
"/	c #F1F180",
"(	c #F1F17B",
"_	c #E9E939",
":	c #A10000",
"<	c #B50000",
"[	c #BF1E1E",
"}	c #BC2222",
"|	c #B82222",
"1	c #EAEA22",
"2	c #E9E91E",
"3	c #E7E700",
"4	c #D10000",
"5	c #710000",
"6	c #750000",
"7	c #D50101",
"8	c #AA0000",
"9	c #ECEC01",
"0	c #EAEA00",
"a	c #D3D300",
"b	c #450000",
"c	c #000000",
"d	c #C30000",
"e	c #F4F400",
"f	c #F3F300",
"g	c #F2F200",
"h	c #BC0000",
"i	c #D90000",
"j	c #E30000",
"k	c #006F00",
"l	c #006800",
"m	c #006100",
"n	c #005D00",
"o	c #005A00",
"p	c #005100",
"q	c #8D0000",
"r	c #970000",
"s	c #EC0000",
"t	c #007E00",
"u	c #007800",
"v	c #007500",
"w	c #007100",
"x	c #C80000",
"y	c #CF0000",
"z	c #C60000",
"A	c #008500",
"B	c #B90000",
"C	c #006600",
"D	c #008100",
".+@#$$%%%%%%%%%&*=",
"-;>,,,''''''''')!~",
"-;{]^^//////(((_!~",
":;<[}|1111111123!=",
".4567899999999033a",
"8bccbdeeeeeefgf93a",
"8hccijklmmmmmmnnop",
"-qrr:stuvvvvvwwwlm",
"-<xyzjAtuuuuuuvvkm",
"8<BdzjAtuuuuutvvwC",
"8<BhdiDvvvwvvvvvwC",
".8888zwlCCClllllCn"};
