/* XPM */
static char * gy_xpm[] = {
"18 12 136 2",
"  	c None",
". 	c #463025",
"+ 	c #6ADA7E",
"@ 	c #89DF94",
"# 	c #86CC86",
"$ 	c #85C785",
"% 	c #85CA85",
"& 	c #78C778",
"* 	c #37AC37",
"= 	c #009300",
"- 	c #D4000C",
"; 	c #920016",
"> 	c #D1D29D",
", 	c #F4F4C8",
"' 	c #D4EDCF",
") 	c #AFDFC5",
"! 	c #ABDAAC",
"~ 	c #ABDFAB",
"{ 	c #A8DEA8",
"] 	c #75CB75",
"^ 	c #009E00",
"/ 	c #009600",
"( 	c #BC1616",
"_ 	c #DB0C16",
": 	c #B4393D",
"< 	c #BE997B",
"[ 	c #EDF182",
"} 	c #F1F1A8",
"| 	c #F1EFB2",
"1 	c #B6E1B5",
"2 	c #87D2A6",
"3 	c #80C982",
"4 	c #8BCE7C",
"5 	c #80D080",
"6 	c #7BCE7B",
"7 	c #39B639",
"8 	c #00A004",
"9 	c #BA1518",
"0 	c #C61619",
"a 	c #D71619",
"b 	c #D31E32",
"c 	c #9C222C",
"d 	c #91A922",
"e 	c #E9EA22",
"f 	c #EAEA2B",
"g 	c #EAEA6E",
"h 	c #E8EA7A",
"i 	c #31B366",
"j 	c #22A423",
"k 	c #22A722",
"l 	c #1EAA1E",
"m 	c #BA151C",
"n 	c #C6161D",
"o 	c #CB161D",
"p 	c #E9101E",
"q 	c #A0011A",
"r 	c #6C3408",
"s 	c #CFEC01",
"t 	c #ECEC01",
"u 	c #ECEC0A",
"v 	c #ECEC66",
"w 	c #E8EA76",
"x 	c #6CC877",
"y 	c #09A650",
"z 	c #008F00",
"A 	c #C61520",
"B 	c #C81520",
"C 	c #CE1621",
"D 	c #D61621",
"E 	c #E41522",
"F 	c #E40020",
"G 	c #770016",
"H 	c #6B8203",
"I 	c #F4F400",
"J 	c #F2F204",
"K 	c #F0F050",
"L 	c #EDED9D",
"M 	c #97D2BA",
"N 	c #1B9C40",
"O 	c #D21622",
"P 	c #EB1623",
"Q 	c #EA0021",
"R 	c #790017",
"S 	c #6D8503",
"T 	c #F9F900",
"U 	c #F8F803",
"V 	c #F5F553",
"W 	c #F0F0A5",
"X 	c #9DD3BC",
"Y 	c #1D9D40",
"Z 	c #D3171E",
"` 	c #DB171D",
" .	c #F8101F",
"..	c #AA001A",
"+.	c #743B08",
"@.	c #DDFD00",
"#.	c #FDFD00",
"$.	c #FDFD0F",
"%.	c #FDFD70",
"&.	c #F0F977",
"*.	c #72D57C",
"=.	c #0CB057",
"-.	c #009B00",
";.	c #BD1518",
">.	c #CE161C",
",.	c #E5171B",
"'.	c #E10019",
").	c #99000D",
"!.	c #8DB000",
"~.	c #FFFF60",
"{.	c #FFFF73",
"].	c #87DC7E",
"^.	c #0EB74E",
"/.	c #00A500",
"(.	c #00AA00",
"_.	c #00AC00",
":.	c #C11616",
"<.	c #E50D16",
"[.	c #AB0006",
"}.	c #8D3F00",
"|.	c #F2FD06",
"1.	c #FFFF5A",
"2.	c #FFFA70",
"3.	c #80D978",
"4.	c #11B858",
"5.	c #00A405",
"6.	c #00B100",
"7.	c #D9000D",
"8.	c #9A0017",
"9.	c #B5B84F",
"0.	c #F7F766",
"a.	c #8EDF79",
"b.	c #11B35A",
"c.	c #42D55E",
"d.	c #24CB39",
"e.	c #008900",
". + @ # $ % % % # % # # # % # & * = ",
"- ; > , ' ) ! ! ~ ~ { { { ~ { ] ^ / ",
"( _ : < [ } | 1 2 3 3 4 5 5 6 7 8 / ",
"9 0 a b c d e f g h 4 i j k l 8 ^ = ",
"m n o o p q r s t t u v w x y = = z ",
"m A B C D E F G H I I I I J K L M N ",
"m B C O D P Q R S T T T T U V W X Y ",
"m o Z `  ...+.@.#.#.$.%.&.*.=.-./ = ",
";.>.,.'.).!.#.$.~.{.].^./.(._._././ ",
":.<.[.}.|.1.2.3.4.5.(.6.6.6.6._././ ",
"7.8.9.0.a.b.^ /._._.6._.6._._.(././ ",
". c.d.-.= -.^ ^ ^ ^ ^ ^ ^ ^ ^ ^ -.e."};
