/* XPM */
static char * ht_xpm[] = {
"18 12 92 2",
"  	c None",
". 	c #060090",
"+ 	c #3C37B0",
"@ 	c #7B78CC",
"# 	c #8986D4",
"$ 	c #8885D8",
"% 	c #8785DB",
"& 	c #7975CD",
"* 	c #060097",
"= 	c #0700A0",
"- 	c #AAA8E1",
"; 	c #ADABE3",
"> 	c #ABABE5",
", 	c #05009C",
"' 	c #06009A",
") 	c #3E39B7",
"! 	c #7E7BCF",
"~ 	c #8080D2",
"{ 	c #9E9BDA",
"] 	c #9B9ADB",
"^ 	c #9E9CDF",
"/ 	c #AAA5EC",
"( 	c #A39DE5",
"_ 	c #A09DE0",
": 	c #A09DDC",
"< 	c #0700A9",
"[ 	c #211EB2",
"} 	c #2222AD",
"| 	c #EAEAEA",
"1 	c #527934",
"2 	c #295122",
"3 	c #C2DBB2",
"4 	c #2222B0",
"5 	c #0300AD",
"6 	c #0000BB",
"7 	c #0400B7",
"8 	c #0100B6",
"9 	c #0101B1",
"0 	c #ECECEB",
"a 	c #ECECEC",
"b 	c #ECE9D2",
"c 	c #54836E",
"d 	c #5D8C6B",
"e 	c #0000C1",
"f 	c #0000CE",
"g 	c #0000D3",
"h 	c #F3F3F3",
"i 	c #B6B3BF",
"j 	c #0628B5",
"k 	c #D0C6D4",
"l 	c #D3C0C5",
"m 	c #082FBA",
"n 	c #9499B9",
"o 	c #B90000",
"p 	c #C50000",
"q 	c #CB0000",
"r 	c #CE0000",
"s 	c #C30000",
"t 	c #F9F9F9",
"u 	c #6290DA",
"v 	c #720B00",
"w 	c #920900",
"x 	c #4770D1",
"y 	c #B60000",
"z 	c #A60000",
"A 	c #B20000",
"B 	c #BC0000",
"C 	c #FDFDFD",
"D 	c #F0F79F",
"E 	c #BDC400",
"F 	c #AB4114",
"G 	c #AB3115",
"H 	c #B3C200",
"I 	c #E5E681",
"J 	c #960000",
"K 	c #4AA654",
"L 	c #3C982B",
"M 	c #4B8B38",
"N 	c #458637",
"O 	c #487F29",
"P 	c #49992B",
"Q 	c #31AB57",
"R 	c #A20000",
"S 	c #850600",
"T 	c #840D0A",
"U 	c #820A09",
"V 	c #931514",
"W 	c #971815",
"X 	c #7E0600",
"Y 	c #A80000",
"Z 	c #D00000",
"` 	c #D50000",
". + @ # # $ % % % % % % # # # & + . ",
"* = & - ; - > > > > > > > ; - & , ' ",
", = ) ! ~ { ] ^ / ( _ ] : ~ ! ) = , ",
"= < < [ } | | | 1 2 3 | | 4 [ < < , ",
"5 6 7 8 9 0 a b c d a a 0 8 9 7 8 < ",
"e f g g f h i j k l m n h g g g f 6 ",
"o p q r s t u 5 v w , x t p r q p y ",
"z A o B p C D E F G H I C q B y y J ",
"z A o s p K L M N O N P Q s s o A R ",
"z y B s p S T U V W U T X s s o y R ",
"Y y o B B r Z ` Z r Z Z Z B B o y z ",
"R Y Y Y Y z Y Y z z Y Y Y Y Y z z J "};
