/* XPM */
static const char * id_xpm[] = {
"18 12 37 1",
" 	c None",
".	c #9E0000",
"+	c #B73737",
"@	c #CE7878",
"#	c #D28686",
"$	c #CF8585",
"%	c #A50000",
"&	c #AF0000",
"*	c #D37575",
"=	c #E3A8A8",
"-	c #E3ABAB",
";	c #E2ABAB",
">	c #A30000",
",	c #C23939",
"'	c #D67B7B",
")	c #D78080",
"!	c #B00000",
"~	c #BA1E1E",
"{	c #BC2222",
"]	c #AA0000",
"^	c #B30101",
"/	c #980000",
"(	c #930000",
"_	c #D8D9D9",
":	c #EBEBEB",
"<	c #F4F5F5",
"[	c #F7F8F8",
"}	c #F9F9F9",
"|	c #FDFDFD",
"1	c #D3D3D3",
"2	c #FCFCFC",
"3	c #D6D6D6",
"4	c #DFDFDF",
"5	c #CFCFCF",
"6	c #E1E1E1",
"7	c #E6E6E6",
"8	c #C1C1C1",
".+@####$$$$#$##@+.",
"%&*=-=----;;;;=*&%",
">&,'))))))))))'+&>",
">&!~{{{{{{{{{{{!&>",
".]&&!!!!^^!!!!!!]/",
"/>]]&&&&!!!&!!]]%(",
"_::<[[}}|[}}[}<<:1",
"_:<}2222||2222}::1",
"3:<}2222||2222}<:1",
"4:<<2222||2222}<:1",
"3:<<}222|||[2}<<:3",
"5_467:777777766638"};
