/* XPM */
static char * jp_xpm[] = {
"18 12 32 1",
" 	c None",
".	c #CCCCCC",
"+	c #DDDDDD",
"@	c #E9E9E9",
"#	c #EEEEEE",
"$	c #E5E5E5",
"%	c #D4D4D4",
"&	c #E0E0E0",
"*	c #F5F5F5",
"=	c #F2F2F2",
"-	c #F1CFD5",
";	c #F1B1BA",
">	c #D8D8D8",
",	c #EA7A82",
"'	c #EA2222",
")	c #EA757E",
"!	c #D1D1D1",
"~	c #ECA6B4",
"{	c #EC0101",
"]	c #ECA5B3",
"^	c #F3618F",
"/	c #F40000",
"(	c #F8F8F8",
"_	c #F96391",
":	c #F90000",
"<	c #FFB2BF",
"[	c #FD0000",
"}	c #FCFCFC",
"|	c #FF6F7B",
"1	c #FF6A75",
"2	c #FF6E83",
"3	c #C2C2C2",
".+@@@#$#@#@#$#@@+.",
"%&#************#&%",
"%&@====-;;-====@&%",
">&$@@@,'''')@@@$&!",
">$@@#~{{{{{{]#$@$!",
">$@==^//////^=##@!",
">@=*(_::::::_(*=@!",
">#=((<[[[[[[<}*=#%",
">#*(}}|:[[[1}}(*@!",
">@*(}}}<22<}}}(*#!",
">#=*}}}}}}}}}((=#%",
"!>&&$$$$$$$$$$&+%3"};
