/* XPM */
static char * kg_xpm[] = {
"18 12 65 1",
" 	c None",
".	c #9E0000",
"+	c #B63737",
"@	c #CD7878",
"#	c #D28686",
"$	c #CF8585",
"%	c #A50000",
"&	c #AE0000",
"*	c #D37575",
"=	c #E3A8A8",
"-	c #E1ABAB",
";	c #A30000",
">	c #C13939",
",	c #D67B7B",
"'	c #D78080",
")	c #DC9580",
"!	c #DD9980",
"~	c #BA1E1E",
"{	c #BB2222",
"]	c #C12522",
"^	c #E0E222",
"/	c #DDC622",
"(	c #DCBE22",
"_	c #E2E822",
":	c #C23022",
"<	c #AA0000",
"[	c #B30000",
"}	c #DFD701",
"|	c #D36F01",
"1	c #DDB301",
"2	c #DEBD01",
"3	c #DFE301",
"4	c #B60000",
"5	c #9B0000",
"6	c #C02800",
"7	c #E2C600",
"8	c #E0A900",
"9	c #DFA600",
"0	c #E2BD00",
"a	c #C33900",
"b	c #960000",
"c	c #C42700",
"d	c #E8C900",
"e	c #ECCA00",
"f	c #DE7F00",
"g	c #DC7700",
"h	c #EDD400",
"i	c #E8C400",
"j	c #C73700",
"k	c #BA0000",
"l	c #BD0000",
"m	c #EFE500",
"n	c #E48300",
"o	c #E59600",
"p	c #E69900",
"q	c #E37C00",
"r	c #F2F400",
"s	c #C00000",
"t	c #C30000",
"u	c #CA0000",
"v	c #F2F000",
"w	c #F2F800",
"x	c #CC0C00",
"y	c #D03300",
"z	c #D23A00",
".+@###$$$$$$$##@+.",
"%&*=-==-------=*&%",
";&>,'''')!'''',>&;",
";&&~{{]^/(_:{{~&<.",
".<&&[[}|12|34[[&<5",
"5<&[&678||90a&&&<b",
".<&[[cdefghij[[&<5",
";&4kllmnopqrslk4&.",
"%4klstuvhewxstsk[.",
"%4lsttssyzssttsl4;",
"<4kklllkkkkllllk4%",
";<<<<<<%%%%<%<<%;b"};
