/* XPM */
static char * km_xpm[] = {
"18 12 88 1",
" 	c None",
".	c #338100",
"+	c #DDDD37",
"@	c #E9E978",
"#	c #EBEB86",
"$	c #CCCC00",
"%	c #005E00",
"&	c #AED075",
"*	c #F4F4A8",
"=	c #F5F5AB",
"-	c #EEEE75",
";	c #E1E100",
">	c #D4D400",
",	c #006C00",
"'	c #397939",
")	c #7BB47D",
"!	c #D3E380",
"~	c #F1F186",
"{	c #F1F180",
"]	c #F1F17B",
"^	c #E9E939",
"/	c #D3D300",
"(	c #006000",
"_	c #007300",
":	c #D3D5D5",
"<	c #4F9E6A",
"[	c #22702E",
"}	c #419660",
"|	c #EAEAEA",
"1	c #E5E5E5",
"2	c #E2E2E2",
"3	c #D1D1D1",
"4	c #E4DCE4",
"5	c #469C61",
"6	c #007D00",
"7	c #37934F",
"8	c #6AB18D",
"9	c #EDEDED",
"0	c #409275",
"a	c #004F00",
"b	c #148323",
"c	c #2B904A",
"d	c #007400",
"e	c #005600",
"f	c #007A00",
"g	c #7FF4D5",
"h	c #F3F3F3",
"i	c #F4F4F4",
"j	c #F2F2F2",
"k	c #F0F0F0",
"l	c #469882",
"m	c #E9DCE9",
"n	c #00A300",
"o	c #680D00",
"p	c #F90000",
"q	c #F50000",
"r	c #EB0000",
"s	c #D30000",
"t	c #EBE2EB",
"u	c #258F33",
"v	c #069100",
"w	c #704500",
"x	c #FF0000",
"y	c #F00000",
"z	c #D40000",
"A	c #18851D",
"B	c #F1E3F2",
"C	c #5BBB4A",
"D	c #18B500",
"E	c #396B00",
"F	c #008E00",
"G	c #0018B5",
"H	c #0C00FF",
"I	c #0000FF",
"J	c #0000FA",
"K	c #0000F3",
"L	c #0000EB",
"M	c #0000D3",
"N	c #009900",
"O	c #00426D",
"P	c #0000F7",
"Q	c #0000D6",
"R	c #00552C",
"S	c #0000DA",
"T	c #0000DD",
"U	c #0000E3",
"V	c #0000E5",
"W	c #0000C1",
".+@############@+$",
"%%&*==========*-;>",
",,')!~{]]{{{{]]^;/",
"(_:<[}|||||||||123",
"%4567(%8|9999|||13",
"04abcd_efghihjk913",
"lmabcd6n6oppppqrrs",
"%tu65vnwxxpxxppyrz",
"%ABCDExxxxxxxxqqrs",
"__FvGHIIIIIIIIJKLM",
"6NOPJJIJIJIIJJPKLQ",
"RSTUVVVVVVUVUUUSQW"};
