/* XPM */
static const char * kp_xpm[] = {
"18 12 93 2",
"  	c None",
". 	c #060090",
"+ 	c #3C37B0",
"@ 	c #7B78CC",
"# 	c #8986D4",
"$ 	c #8785DB",
"% 	c #8885D8",
"& 	c #060089",
"* 	c #030095",
"= 	c #03009F",
"- 	c #7775CC",
"; 	c #A9A8E0",
"> 	c #ACABE3",
", 	c #ACABE4",
"' 	c #0014C1",
") 	c #000FC0",
"! 	c #3939C0",
"~ 	c #7B7BD8",
"{ 	c #8089E7",
"] 	c #7B85E5",
"^ 	c #3949D7",
"/ 	c #0014CA",
"( 	c #0013BF",
"_ 	c #D5687A",
": 	c #D95A4E",
"< 	c #E5BFA9",
"[ 	c #E9A399",
"} 	c #E27669",
"| 	c #EA798E",
"1 	c #EA808F",
"2 	c #E97C8B",
"3 	c #EA8090",
"4 	c #E56B7D",
"5 	c #E2697F",
"6 	c #D3637C",
"7 	c #9F0000",
"8 	c #D0AEB9",
"9 	c #D8CED7",
"0 	c #DFDAE2",
"a 	c #C72E30",
"b 	c #B10000",
"c 	c #B40101",
"d 	c #AA0000",
"e 	c #9A0000",
"f 	c #AC3958",
"g 	c #D2B1CA",
"h 	c #C2293D",
"i 	c #E1F2F2",
"j 	c #AF0000",
"k 	c #A80000",
"l 	c #980000",
"m 	c #AD3654",
"n 	c #DAC9D9",
"o 	c #C62639",
"p 	c #ECF8F8",
"q 	c #B80000",
"r 	c #A10000",
"s 	c #D0708A",
"t 	c #E6E8F2",
"u 	c #E7DBE6",
"v 	c #D01D1A",
"w 	c #BD0000",
"x 	c #C00000",
"y 	c #D8647C",
"z 	c #E2655A",
"A 	c #F3C0AF",
"B 	c #F9A696",
"C 	c #F56F5E",
"D 	c #FF708A",
"E 	c #FF798B",
"F 	c #FF798C",
"G 	c #F97686",
"H 	c #F37385",
"I 	c #EB6F84",
"J 	c #0015C5",
"K 	c #0400BC",
"L 	c #0300C6",
"M 	c #001AE0",
"N 	c #0017E7",
"O 	c #0016E8",
"P 	c #0016DB",
"Q 	c #0015D3",
"R 	c #0300A6",
"S 	c #0400AD",
"T 	c #0400B6",
"U 	c #0600C0",
"V 	c #0300C8",
"W 	c #0600BF",
"X 	c #0700A4",
"Y 	c #0700AE",
"Z 	c #0700B4",
"` 	c #0600BB",
" .	c #06009C",
". + @ # # # $ $ $ $ $ % % # # @ + & ",
"* = - ; > > > , , , , , , , ; - = * ",
"' ) ! ~ { { { { { { { { { ] ] ^ / ( ",
"_ : < [ } | 1 2 3 3 3 3 1 3 2 4 5 6 ",
"7 8 9 0 a b c c c c c c c c b b d e ",
"f g b h i c b c c c c c c b b j k l ",
"m n b o p c q q q q q q q c b b d e ",
"r s t u v w x x x x x x x w w c j 7 ",
"y z A B C D E E E F E E E E G H I 6 ",
"J / K L M N N O O N N N N M P P Q ( ",
"* R S T K L U V V V L L W W T S R * ",
". X X Y Z T ` W U W W ` T Z S X  .& "};
