/* XPM */
static const char * kw_xpm[] = {
"18 12 77 1",
" 	c None",
".	c #002500",
"+	c #37C337",
"@	c #78D978",
"#	c #86CD86",
"$	c #85CB85",
"%	c #78C778",
"&	c #37AC37",
"*	c #008B00",
"=	c #000000",
"-	c #75B275",
";	c #A8EFA8",
">	c #ABE3AB",
",	c #ABDFAB",
"'	c #ABDEAB",
")	c #75CB75",
"!	c #009F00",
"~	c #009700",
"{	c #393939",
"]	c #7B8C7B",
"^	c #80DA80",
"/	c #80E380",
"(	c #80D080",
"_	c #80CF80",
":	c #7BCD7B",
"<	c #39B539",
"[	c #1E1E1E",
"}	c #222222",
"|	c #228022",
"1	c #22BD22",
"2	c #22AB22",
"3	c #22A822",
"4	c #1EA71E",
"5	c #009A00",
"6	c #ECECEC",
"7	c #ECEBEC",
"8	c #E4E4E4",
"9	c #D1D1D1",
"0	c #F4F4F4",
"a	c #F4F2F4",
"b	c #EFECF2",
"c	c #EEEBF0",
"d	c #EBE8EE",
"e	c #E8E5EB",
"f	c #E3E0E5",
"g	c #CDCACF",
"h	c #F9F9F9",
"i	c #F1F6F7",
"j	c #EFF5F6",
"k	c #E7EDEE",
"l	c #E1E7E7",
"m	c #CBD0D1",
"n	c #FDFDFD",
"o	c #FAFDFD",
"p	c #F8FDFD",
"q	c #F6FBFB",
"r	c #ECF2F3",
"s	c #E5EBEB",
"t	c #CED4D4",
"u	c #850000",
"v	c #D90000",
"w	c #C00000",
"x	c #BF0000",
"y	c #B70000",
"z	c #AA0000",
"A	c #9C0000",
"B	c #280000",
"C	c #DE0000",
"D	c #F70000",
"E	c #BB0000",
"F	c #A40000",
"G	c #CF0000",
"H	c #A50000",
"I	c #2C0000",
"J	c #C60000",
"K	c #D10000",
"L	c #960000",
".+@##$$$$$$$$$$%&*",
"==-;>,,,,,'''',)!~",
"=={]^/(______::<!~",
"===[}|12232323455*",
"======666666667789",
"======0abbbbbcdefg",
"======hhiiijijbklm",
"======nopppppqirst",
"=====uvwxxwwwwxyzA",
"===BCDwxwxwwwwxEyF",
"==uDGxxExExxExxyyH",
"IJKzzHzHHHHHHzzHHL"};
