/* XPM */
static const char * ky_xpm[] = {
"18 12 114 2",
"  	c None",
". 	c #834B5E",
"+ 	c #B49CAD",
"@ 	c #8C9BC2",
"# 	c #868DC4",
"$ 	c #D1A3B6",
"% 	c #8590CE",
"& 	c #CCB6D1",
"* 	c #8591C4",
"= 	c #868AC2",
"- 	c #787DB4",
"; 	c #3B4F85",
"> 	c #051D5C",
", 	c #1E508D",
"' 	c #847694",
") 	c #EED5D3",
"! 	c #EAF0F4",
"~ 	c #E6C5CD",
"{ 	c #E4DCE9",
"] 	c #F5E7F0",
"^ 	c #D7E8F2",
"/ 	c #B4C5E4",
"( 	c #ABB6D6",
"_ 	c #F0E2BD",
": 	c #D1B8B1",
"< 	c #000F6C",
"[ 	c #001B5F",
"} 	c #BC323A",
"| 	c #B8142C",
"1 	c #C66168",
"2 	c #E38785",
"3 	c #DB8487",
"4 	c #E48A89",
"5 	c #DA9AA2",
"6 	c #E1889A",
"7 	c #F194A5",
"8 	c #808BB8",
"9 	c #808DB9",
"0 	c #84A3C4",
"a 	c #8CA687",
"b 	c #5D816D",
"c 	c #001A7B",
"d 	c #001B66",
"e 	c #1E5199",
"f 	c #A1BADC",
"g 	c #E5B4CF",
"h 	c #BCA7C6",
"i 	c #C86C7A",
"j 	c #ECAEB0",
"k 	c #4670AD",
"l 	c #223A84",
"m 	c #27307B",
"n 	c #874C5C",
"o 	c #B07862",
"p 	c #A34E3D",
"q 	c #2E1056",
"r 	c #001F72",
"s 	c #947EA4",
"t 	c #D07799",
"u 	c #251A6D",
"v 	c #001B94",
"w 	c #C14E6B",
"x 	c #C24460",
"y 	c #001296",
"z 	c #3655A3",
"A 	c #A55E88",
"B 	c #01107F",
"C 	c #011D7E",
"D 	c #010F84",
"E 	c #CB766A",
"F 	c #E78B35",
"G 	c #E8873E",
"H 	c #55458A",
"I 	c #00107B",
"J 	c #00088F",
"K 	c #001D98",
"L 	c #001D96",
"M 	c #000086",
"N 	c #0019A1",
"O 	c #0002A1",
"P 	c #346DAF",
"Q 	c #4D8BBF",
"R 	c #4A8EB1",
"S 	c #1446AE",
"T 	c #021C8C",
"U 	c #00099E",
"V 	c #4383B8",
"W 	c #558AC4",
"X 	c #E9AD67",
"Y 	c #313583",
"Z 	c #041E80",
"` 	c #001D87",
" .	c #00208B",
"..	c #002087",
"+.	c #90957B",
"@.	c #9BAFA2",
"#.	c #99A396",
"$.	c #001F7B",
"%.	c #001D75",
"&.	c #00217A",
"*.	c #00207D",
"=.	c #00007E",
"-.	c #00027B",
";.	c #0C2474",
">.	c #001974",
",.	c #000F71",
"'.	c #001C69",
").	c #001E6E",
"!.	c #001C62",
"~.	c #001F93",
"{.	c #001B72",
"].	c #001A93",
"^.	c #001B85",
"/.	c #001959",
". + @ # $ $ % @ & & * * * * = - ; > ",
", ' ) ! ~ ~ { ] ^ / ( ( ( ( _ : < [ ",
"} | 1 2 3 3 4 5 6 7 8 8 9 0 a b c d ",
"e f g h i 1 ^ j @ k l m m n o p q r ",
"s t u v w x y z j A B C D E F G H I ",
"B J y K L L L M N L L L O P Q R S M ",
"T v K K K K K K K K L U 4 : V W X Y ",
"Z ` ` ` `  ...........D +.+.@.#.+.m ",
"r $.%.$.&.&.*.*.*.*.*.*.=.-.;.>.-.,.",
"'.).r r &.&...........*.*.&.%.r ).d ",
"!.'.r $... .T L ~.L ~.~.T ` $.r '.[ ",
"!.'.{.C ` ` T ].].].].T ..^.C {.d /."};
