/* XPM */
static const char * kz_xpm[] = {
"18 12 129 2",
"  	c None",
". 	c #006D86",
"+ 	c #6AAB7A",
"@ 	c #ACCC9B",
"# 	c #86BBD0",
"$ 	c #86BCCD",
"% 	c #86BCD1",
"& 	c #86BBD3",
"* 	c #80BFC9",
"= 	c #87BECA",
"- 	c #7CBDC2",
"; 	c #39949D",
"> 	c #027378",
", 	c #00718F",
"' 	c #5DA447",
") 	c #CAD689",
"! 	c #A8D0DE",
"~ 	c #ACD4DE",
"{ 	c #ABD3E0",
"] 	c #A9D3D8",
"^ 	c #79B6C1",
"/ 	c #027E85",
"( 	c #02787D",
"_ 	c #00748D",
": 	c #339665",
"< 	c #87BA71",
"[ 	c #7BBAC9",
"} 	c #81BFC7",
"| 	c #3B9CA3",
"1 	c #027682",
"2 	c #007396",
"3 	c #4D9F59",
"4 	c #86AE3C",
"5 	c #1E8CA7",
"6 	c #23919F",
"7 	c #228FA6",
"8 	c #359B90",
"9 	c #ACCC45",
"0 	c #A1C747",
"a 	c #1E9995",
"b 	c #028396",
"c 	c #027A8F",
"d 	c #02738B",
"e 	c #0071A1",
"f 	c #2C947F",
"g 	c #61A855",
"h 	c #027BA7",
"i 	c #02829E",
"j 	c #0180A3",
"k 	c #BBD117",
"l 	c #ECEC01",
"m 	c #B2CF1C",
"n 	c #017EA3",
"o 	c #027D9F",
"p 	c #027196",
"q 	c #006CAF",
"r 	c #47A26E",
"s 	c #83B642",
"t 	c #0078BF",
"u 	c #0180B7",
"v 	c #1F94A4",
"w 	c #0A8DAC",
"x 	c #DFE10A",
"y 	c #F4F200",
"z 	c #D3DD10",
"A 	c #118FAA",
"B 	c #1D92A6",
"C 	c #027FB3",
"D 	c #0281B4",
"E 	c #026FA1",
"F 	c #006CB0",
"G 	c #007FBF",
"H 	c #007EC1",
"I 	c #58AE6A",
"J 	c #5CB16E",
"K 	c #32A292",
"L 	c #F9F700",
"M 	c #69B664",
"N 	c #50AC71",
"O 	c #65B059",
"P 	c #028AAF",
"Q 	c #0089AA",
"R 	c #0591A6",
"S 	c #79BA51",
"T 	c #1A9D95",
"U 	c #1D9D92",
"V 	c #159899",
"W 	c #099C96",
"X 	c #0891A3",
"Y 	c #028BA3",
"Z 	c #0285A6",
"` 	c #007399",
" .	c #51A55C",
"..	c #8DB940",
"+.	c #028E9D",
"@.	c #109993",
"#.	c #1D9B8F",
"$.	c #45AC70",
"%.	c #4DB06D",
"&.	c #6EB55C",
"*.	c #008CA5",
"=.	c #028C9A",
"-.	c #028A9B",
";.	c #007790",
">.	c #359D69",
",.	c #6CB34D",
"'.	c #41A87D",
").	c #028EA0",
"!.	c #028C96",
"~.	c #028892",
"{.	c #02848E",
"].	c #007392",
"^.	c #61AC48",
"/.	c #ABC228",
"(.	c #0081AE",
"_.	c #018AA4",
":.	c #0088B4",
"<.	c #0086B8",
"[.	c #007087",
"}.	c #41975A",
"|.	c #65A448",
"1.	c #0076A3",
"2.	c #027BA1",
"3.	c #027BAB",
"4.	c #0279AF",
"5.	c #027AB0",
"6.	c #027C98",
"7.	c #027983",
"8.	c #026D72",
". + @ # $ $ % # # & % % % * = - ; > ",
", ' ) ! ~ ~ ~ ~ { { { { ~ ~ ] ^ / ( ",
"_ : < [ * } * [ % [ [ % } } - | / 1 ",
"2 3 4 5 6 6 7 8 9 0 8 7 6 6 a b c d ",
"e f g h i j i k l l m n o i o n o p ",
"q r s t u v w x y y z A B C D u C E ",
"F r 4 G H I J K L L K M N u u u C E ",
"e 8 O P Q R S T U V W M X Q Y Z n 2 ",
"`  ...Y +.+.@.#.$.%.&.@.*.+.=.-.b _ ",
";.>.,.Z +.+.Y P a '.V Q ).+.!.~.{.1 ",
"].^./.(._.Q P :.:.<.:.P Q Y -.~.{.( ",
"[.}.|.1.2.3.3.4.4.5.4.3.h 2.6.c 7.8."};
