/* XPM */
static const char * la_xpm[] = {
"18 12 63 1",
" 	c None",
".	c #9E0000",
"+	c #B63737",
"@	c #CD7878",
"#	c #D28686",
"$	c #CF8585",
"%	c #A70000",
"&	c #B10000",
"*	c #D47575",
"=	c #E3A8A8",
"-	c #E3ABAB",
";	c #A90000",
">	c #BA0000",
",	c #C60000",
"'	c #D43939",
")	c #E27B7B",
"!	c #E48080",
"~	c #DB8080",
"{	c #CA8080",
"]	c #0000B2",
"^	c #0000BD",
"/	c #1E1EC5",
"(	c #2222C7",
"_	c #2222C1",
":	c #7C80E3",
"<	c #7485DF",
"[	c #2222C6",
"}	c #0300BB",
"|	c #0300AD",
"1	c #0300B7",
"2	c #0500B5",
"3	c #ECECEC",
"4	c #0401B6",
"5	c #0300AA",
"6	c #0500C0",
"7	c #0600C6",
"8	c #0000C4",
"9	c #5F66DA",
"0	c #F4F4F3",
"a	c #777CDD",
"b	c #0000C2",
"c	c #0600CA",
"d	c #0500AF",
"e	c #0600CC",
"f	c #0000CA",
"g	c #6168DF",
"h	c #F9F9F8",
"i	c #F1F1F4",
"j	c #0500B1",
"k	c #FDFDFD",
"l	c #0000CD",
"m	c #0000D1",
"n	c #0000D4",
"o	c #6A81F5",
"p	c #C10000",
"q	c #CC0000",
"r	c #D40000",
"s	c #DF0000",
"t	c #A30000",
"u	c #DC0000",
"v	c #B80000",
"w	c #BF0000",
"x	c #960000",
".+@##$$$$$$$$##@+.",
"%&*=-=---------*;%",
">,')!!!~{{~!!!)',>",
"]^^/((__:<__[[/}^|",
"|12}2113333}141115",
"26777890330abc7}6d",
"267cefghiih:fec76j",
"|^666b^kkkkbb666}5",
"^8flmnlloollnmlf8]",
"pqrrsssqt.qsssurqv",
";>wwwwwwwwwwwpw>>%",
"t;;;;;%%%%%%;;;%tx"};
