/* XPM */
static const char * li_xpm[] = {
"18 12 71 1",
" 	c None",
".	c #060090",
"+	c #3C37B0",
"@	c #7B78CD",
"#	c #8886D5",
"$	c #8785D7",
"%	c #8785D9",
"&	c #8785DB",
"*	c #8885D8",
"=	c #060097",
"-	c #0200A7",
";	c #7575DF",
">	c #B9B6D2",
",	c #ABABE5",
"'	c #ABABEA",
")	c #ADABE5",
"!	c #AAA8E1",
"~	c #7975CD",
"{	c #0700A2",
"]	c #03009F",
"^	c #0900A1",
"/	c #B4A639",
"(	c #C0BE7C",
"_	c #CBC280",
":	c #ABA796",
"<	c #8080E0",
"[	c #8280D5",
"}	c #8380D6",
"|	c #7F7BCF",
"1	c #3E39B7",
"2	c #06009A",
"3	c #0100A9",
"4	c #1E1693",
"5	c #E5DE00",
"6	c #CAC126",
"7	c #E9E922",
"8	c #867C53",
"9	c #2222CD",
"0	c #2722B6",
"a	c #2822B5",
"b	c #241EB3",
"c	c #0700A9",
"d	c #06009F",
"e	c #0300AE",
"f	c #0000C4",
"g	c #0805B8",
"h	c #3C3C82",
"i	c #515780",
"j	c #0201BA",
"k	c #0501B6",
"l	c #0000C0",
"m	c #0000CD",
"n	c #0000D9",
"o	c #0000E6",
"p	c #0000E9",
"q	c #0000D7",
"r	c #0000D3",
"s	c #B80000",
"t	c #C50000",
"u	c #CC0000",
"v	c #D30000",
"w	c #D60000",
"x	c #CB0000",
"y	c #B60000",
"z	c #A50000",
"A	c #B20000",
"B	c #BD0000",
"C	c #C20000",
"D	c #960000",
"E	c #A20000",
"F	c #A80000",
".+@#$$%%%&***##@+.",
"=-;>,'))))))))!~{=",
"]^/(_:<[[[[[}[|1{2",
"345678900aaaaabccd",
"efghifjkkkkkkkkkk3",
"lmnopnqqqqqqqqqrmj",
"stuvwwvwwvwvvvwxty",
"zAsBCCCCCCCCCCByyD",
"zysBCttCCtttCCCsAE",
"zsBCCCCCCCCCCCCByE",
"FysBBBBByBBBBBssyz",
"EFFFFFFFzFzzFFFFzD"};
