/* XPM */
static const char * local_xpm[] = {
"18 12 144 2",
"  	c None",
". 	c #E9E8E6",
"+ 	c #ECE9E5",
"@ 	c #E8E6E3",
"# 	c #E8E5E3",
"$ 	c #E7E5E2",
"% 	c #E8E5E2",
"& 	c #EAE7E3",
"* 	c #E2E2E1",
"= 	c #A19F9D",
"- 	c #D9E1EE",
"; 	c #7398CC",
"> 	c #87B0DF",
", 	c #90BAE3",
"' 	c #99C2EA",
") 	c #9FC9EE",
"! 	c #9EC7EC",
"~ 	c #95BEE7",
"{ 	c #8CB4E1",
"] 	c #81A9DA",
"^ 	c #7599CF",
"/ 	c #F0F6FF",
"( 	c #848281",
"_ 	c #A6A4A0",
": 	c #C3CFE6",
"< 	c #276AC4",
"[ 	c #3C82D7",
"} 	c #4C91E0",
"| 	c #589EE7",
"1 	c #5EA5EC",
"2 	c #5CA3EA",
"3 	c #5399E4",
"4 	c #468ADB",
"5 	c #3379D0",
"6 	c #296BC7",
"7 	c #D5E0F3",
"8 	c #817F7B",
"9 	c #A9A7A3",
"0 	c #C5D2E8",
"a 	c #215FBB",
"b 	c #387ACF",
"c 	c #4485D6",
"d 	c #4C8DDA",
"e 	c #5092DD",
"f 	c #4E90DC",
"g 	c #498AD8",
"h 	c #4080D3",
"i 	c #3273CB",
"j 	c #2562C0",
"k 	c #CBD5E8",
"l 	c #7C7B78",
"m 	c #ABAAA6",
"n 	c #C7D3EA",
"o 	c #0541A9",
"p 	c #1C5CBC",
"q 	c #2F6FC8",
"r 	c #3777CD",
"s 	c #3A7ACF",
"t 	c #3A7ACE",
"u 	c #3575CC",
"v 	c #2B6BC5",
"w 	c #1353B7",
"x 	c #0B46AE",
"y 	c #C9D3E5",
"z 	c #7E7B78",
"A 	c #AEABA7",
"B 	c #CBD8EE",
"C 	c #0C4AAF",
"D 	c #1554B8",
"E 	c #2261BF",
"F 	c #2A69C4",
"G 	c #2C6CC6",
"H 	c #2B6BC6",
"I 	c #2564C1",
"J 	c #1B5ABB",
"K 	c #0B49B1",
"L 	c #0D49AF",
"M 	c #C6D0E3",
"N 	c #AEADA9",
"O 	c #CFDCF1",
"P 	c #1A58B9",
"Q 	c #2566C3",
"R 	c #3B7DD1",
"S 	c #397BD0",
"T 	c #3374CB",
"U 	c #296AC6",
"V 	c #1A5ABC",
"W 	c #1754B8",
"X 	c #C4CEE1",
"Y 	c #7B7976",
"Z 	c #B3B0AD",
"` 	c #D5E1F4",
" .	c #3672C6",
"..	c #4380D2",
"+.	c #508ED9",
"@.	c #5997DE",
"#.	c #5C9AE1",
"$.	c #5A98DF",
"%.	c #5290DA",
"&.	c #4784D3",
"*.	c #3673C9",
"=.	c #316BC4",
"-.	c #C5D0E0",
";.	c #7B7A77",
">.	c #8F8F8F",
",.	c #FFFFFF",
"'.	c #EFF5FC",
").	c #E7EDF4",
"!.	c #DFE5EB",
"~.	c #DBE2E7",
"{.	c #D9DFE5",
"].	c #D5DBE1",
"^.	c #D1D6DD",
"/.	c #CED3DA",
"(.	c #CED4DB",
"_.	c #CFD5DD",
":.	c #DCDEDF",
"<.	c #6A6A6A",
"[.	c #606060",
"}.	c #636361",
"|.	c #7F7C7C",
"1.	c #C5C4C2",
"2.	c #DCDBD9",
"3.	c #D5D4D2",
"4.	c #D3D1D0",
"5.	c #D2D0CF",
"6.	c #B1B1AF",
"7.	c #6D6D6A",
"8.	c #565655",
"9.	c #525252",
"0.	c #E1E1E1",
"a.	c #EEEEEE",
"b.	c #E6E6E6",
"c.	c #EBEBEB",
"d.	c #E8E8E8",
"e.	c #D8D8D8",
"f.	c #E7E7E7",
"g.	c #DADADA",
"h.	c #EAEAEA",
"i.	c #F8F8F8",
"j.	c #F1F1F1",
"k.	c #E7E7E6",
"l.	c #F5F5F5",
"m.	c #E5E5E5",
"      . + @ # # $ $ # % $ & *       ",
"    = - ; > , ' ) ! ~ { ] ^ / (     ",
"    _ : < [ } | 1 2 3 4 5 6 7 8     ",
"    9 0 a b c d e f g h i j k l     ",
"    m n o p q r s t u v w x y z     ",
"    A B C D E F G H I J K L M l     ",
"    N O P Q i b R S T U V W X Y     ",
"    Z `  ...+.@.#.$.%.&.*.=.-.;.    ",
"    >.,.'.).!.~.{.].^./.(._.:.<.    ",
"      [.}.|.1.2.3.4.5.6.7.8.9.      ",
"          0.a.b.c.d.e.f.g.          ",
"          h.i.j.f.k.h.l.m.          "};
