/* XPM */
static char * lr_xpm[] = {
"18 12 117 2",
"  	c None",
". 	c #060090",
"+ 	c #3937AF",
"@ 	c #7978CD",
"# 	c #8686D4",
"$ 	c #8585E1",
"% 	c #A585AB",
"& 	c #E18585",
"* 	c #CD8585",
"= 	c #D08686",
"- 	c #CC7878",
"; 	c #B53737",
"> 	c #9B0000",
", 	c #090298",
"' 	c #000097",
") 	c #B9B9DD",
"! 	c #ACAAE2",
"~ 	c #ABABE0",
"{ 	c #CED4F1",
"] 	c #F5F5F2",
"^ 	c #F0EFF1",
"/ 	c #F0EFEF",
"( 	c #E7E5E6",
"_ 	c #D2CFCF",
": 	c #C6C3C3",
"< 	c #00009D",
"[ 	c #A19FC9",
"} 	c #E9E9E5",
"| 	c #F1F1ED",
"1 	c #94A1E9",
"2 	c #A080A4",
"3 	c #EB808F",
"4 	c #DB9093",
"5 	c #DC9092",
"6 	c #DB8C8D",
"7 	c #C95353",
"8 	c #B92122",
"9 	c #AC2022",
"0 	c #342EB5",
"a 	c #E5E5E2",
"b 	c #E1E0E0",
"c 	c #2222A7",
"d 	c #7D78C3",
"e 	c #EAEAC6",
"f 	c #D8B8BD",
"g 	c #D8B8BC",
"h 	c #D6B6BA",
"i 	c #D0ABB1",
"j 	c #CEA9B1",
"k 	c #BC9BA6",
"l 	c #0000A0",
"m 	c #140CB8",
"n 	c #0004B9",
"o 	c #190FBE",
"p 	c #0101B9",
"q 	c #3F0174",
"r 	c #EC4745",
"s 	c #C53F4D",
"t 	c #C4414F",
"u 	c #C23E4F",
"v 	c #BD3D51",
"w 	c #AB364C",
"x 	c #6C9DD6",
"y 	c #6197E7",
"z 	c #6099ED",
"A 	c #5C94F0",
"B 	c #68B3F2",
"C 	c #A69CD7",
"D 	c #E981AB",
"E 	c #D280AF",
"F 	c #CE7FB0",
"G 	c #D782B3",
"H 	c #D281B1",
"I 	c #CB7DAF",
"J 	c #C67AAB",
"K 	c #B36D9D",
"L 	c #D9707D",
"M 	c #E97985",
"N 	c #F07E89",
"O 	c #F5818A",
"P 	c #F87F82",
"Q 	c #E682A7",
"R 	c #D583B5",
"S 	c #B33B4C",
"T 	c #C24250",
"U 	c #C84450",
"V 	c #CE4550",
"W 	c #D14751",
"X 	c #D34755",
"Y 	c #CE4557",
"Z 	c #C84458",
"` 	c #C24257",
" .	c #AE3950",
"..	c #C5A5B1",
"+.	c #DDBAC1",
"@.	c #E3BEC4",
"#.	c #E8C3CA",
"$.	c #E8C3C9",
"%.	c #E6C1C6",
"&.	c #D6B4BC",
"*.	c #B12225",
"=.	c #C72627",
"-.	c #CF272C",
";.	c #CB2729",
">.	c #CE272E",
",.	c #C12526",
"'.	c #AB2124",
").	c #CBC8C8",
"!.	c #DCD8D8",
"~.	c #E2DEDF",
"{.	c #E6E3E5",
"].	c #EAE7EC",
"^.	c #EAE7EE",
"/.	c #E9E5E9",
"(.	c #A30000",
"_.	c #A50000",
":.	c #930000",
". + @ # $ % & * * * * * * = = - ; > ",
", ' ) ! ~ { ] ^ ^ ^ ^ ^ / ^ / ( _ : ",
"< [ } | 1 2 3 4 4 4 4 4 5 5 6 7 8 9 ",
"< 0 a b c d e f f f f f g f h i j k ",
"l m n o p q r s t t t t s t u u v w ",
"x y z A B C D E F F G G H H I I J K ",
"L M N O P Q R G G G R R G F E F F K ",
"S T U V W X X X X X X X X X Y Z `  .",
"..f +.@.#.#.#.#.$.$.#.#.#.%.@.f &.k ",
"*.8 =.-.;.>.-.-.-.-.-.-.-.-.;.;.,.'.",
").!.~.{.( ].].].^.^.^.^.]./.{.~.!.: ",
"(._._._._.(._.(._._._._.(._._._.(.:."};
