/* XPM */
static const char * mc_xpm[] = {
"18 12 56 1",
" 	c None",
".	c #9E0000",
"+	c #B63737",
"@	c #CD7878",
"#	c #D28686",
"$	c #CF8585",
"%	c #A50000",
"&	c #AE0000",
"*	c #D37575",
"=	c #E3A8A8",
"-	c #E3ABAB",
";	c #E2ABAB",
">	c #A30000",
",	c #C13939",
"'	c #D67B7B",
")	c #D78080",
"!	c #D68080",
"~	c #BA1E1E",
"{	c #BC2222",
"]	c #BB2222",
"^	c #B10101",
"/	c #A90000",
"(	c #9A0000",
"_	c #950000",
":	c #D4D9D9",
"<	c #E3E8E9",
"[	c #EAF0F0",
"}	c #EFF5F5",
"|	c #F2F8F8",
"1	c #F5FAFA",
"2	c #F0F5F5",
"3	c #E4E9E9",
"4	c #CED3D3",
"5	c #D2D7D8",
"6	c #EBEFEF",
"7	c #CCD1D2",
"8	c #D3D3D3",
"9	c #E4E4E4",
"0	c #ECECED",
"a	c #F1F1F2",
"b	c #F5F5F6",
"c	c #F7F7F8",
"d	c #CCCCCD",
"e	c #ECECEC",
"f	c #C9C9C9",
"g	c #EAEAEA",
"h	c #EFEFF0",
"i	c #F3F3F6",
"j	c #E3E3E3",
"k	c #CFCFCF",
"l	c #D8D9DB",
"m	c #DADADD",
"n	c #DCDDE2",
"o	c #DBDCE1",
"p	c #D4D5D6",
"q	c #BCBCBC",
".+@###$$$$$$$$#@+.",
"%&*=-=----;---=*&>",
">&,')))'))!)))'+&>",
">&&~{{{{]]]]{{{^&.",
"./&&^^^^^^^^^^&&/(",
"(%/&&^&^^^^&^&&/%_",
":<[}|||112|1|1}[34",
"5<62|11111111|}6<7",
"890abccc1ccccba09d",
"89eabccbcc1bcba09f",
"89ghabiiiiiibahgjk",
"f8:lmnnnnoonmmlpkq"};
