/* XPM */
static const char * me_xpm[] = {
"18 12 87 1",
" 	c None",
".	c #A67628",
"+	c #BC7D52",
"@	c #D1A78C",
"#	c #D5AF99",
"$	c #D2AD9C",
"%	c #D3AD9C",
"&	c #A67428",
"*	c #AB5720",
"=	c #AB0002",
"-	c #D17476",
";	c #E2A9AA",
">	c #E1ACAE",
",	c #A90005",
"'	c #A95822",
")	c #BF3B3E",
"!	c #D67F81",
"~	c #D68285",
"{	c #D5958D",
"]	c #A85726",
"^	c #AD0308",
"/	c #B92226",
"(	c #BA262B",
"_	c #BD4736",
":	c #BB3730",
"<	c #BD783C",
"[	c #BD7041",
"}	c #BC2C2D",
"|	c #A55325",
"1	c #A6552B",
"2	c #B2020B",
"3	c #B31912",
"4	c #B98237",
"5	c #BA4324",
"6	c #BA5725",
"7	c #B63F1E",
"8	c #B42215",
"9	c #A50006",
"0	c #A04F29",
"a	c #A4542F",
"b	c #AA030A",
"c	c #B11E16",
"d	c #BC9D4A",
"e	c #B4673A",
"f	c #7B6661",
"g	c #6C676C",
"h	c #BDA04B",
"i	c #B22419",
"j	c #B61713",
"k	c #B49650",
"l	c #687871",
"m	c #707B6B",
"n	c #C06B34",
"o	c #B5070C",
"p	c #B4030A",
"q	c #AD030A",
"r	c #A8562B",
"s	c #AC0005",
"t	c #B8030A",
"u	c #BD080A",
"v	c #C23018",
"w	c #C3612A",
"x	c #9E8D40",
"y	c #AC4E31",
"z	c #BB0B0E",
"A	c #AB5927",
"B	c #BE0308",
"C	c #C10209",
"D	c #C20005",
"E	c #C4411C",
"F	c #C33E1B",
"G	c #CD8D35",
"H	c #AD5A23",
"I	c #B60005",
"J	c #B90005",
"K	c #C1090B",
"L	c #C00509",
"M	c #B85727",
"N	c #B20002",
"O	c #A9531F",
"P	c #AA7729",
"Q	c #AD5722",
"R	c #B0572D",
"S	c #AF562F",
"T	c #AD5531",
"U	c #AE5728",
"V	c #9D6C25",
".+@###$$$%%%%##@+&",
"*=-;>>>>>>>>>>;-,*",
"',)!~~~~{{!~~~!),*",
"],^/((_:<[:_}(/^,|",
"1,^^2345667482^^90",
"a9b^^cdefgehi^^bb0",
"a9^22j<klmknop2q90",
"rspttuvw4xnyztt2s0",
"AstBCDEFGGv5zDBts|",
"HIJBCCKL5MDDCCBtN*",
"HNIJJtJIIIItJJJINO",
"PQHRRRSRSSTSSRUQOV"};
