/* XPM */
static const char * mg_xpm[] = {
"18 12 63 1",
" 	c None",
".	c #C5C5C5",
"+	c #D9D9D9",
"@	c #E5E5E5",
"#	c #E6E7EB",
"$	c #EAEAEA",
"%	c #E7EAEA",
"&	c #CF8585",
"*	c #D08585",
"=	c #CD7878",
"-	c #B63737",
";	c #9F0000",
">	c #CECECE",
",	c #F2F2F2",
"'	c #F2F4F4",
")	c #E2ABAB",
"!	c #D37575",
"~	c #AE0000",
"{	c #A50000",
"]	c #CECFD0",
"^	c #E3E3E3",
"/	c #EDEDED",
"(	c #EEF0F0",
"_	c #D78080",
":	c #D67B7B",
"<	c #C13939",
"[	c #A30000",
"}	c #DDDDDE",
"|	c #E3E4E8",
"1	c #BA2222",
"2	c #BC2222",
"3	c #BA1E1E",
"4	c #B20000",
"5	c #DEDDE0",
"6	c #E2E2E5",
"7	c #E4E8E9",
"8	c #EAEBED",
"9	c #B70101",
"0	c #CFD0D5",
"a	c #EBECF0",
"b	c #CA0000",
"c	c #CD0000",
"d	c #D50000",
"e	c #D00000",
"f	c #D0D1D6",
"g	c #F9F9F9",
"h	c #006D00",
"i	c #007700",
"j	c #007D00",
"k	c #007A00",
"l	c #006800",
"m	c #F7F5F8",
"n	c #FDFDFD",
"o	c #007100",
"p	c #006300",
"q	c #006700",
"r	c #F9F7F9",
"s	c #D3D3D3",
"t	c #E4E4E4",
"u	c #EFEFF0",
"v	c #C9C9C9",
"w	c #D6D7D8",
"x	c #005D00",
".+@#$%&&&&*&***=-;",
">+$,'')))))))))!~{",
"]+^/(,________:<~[",
"]+}^|%1111112234~;",
"]566789999999944~;",
"05|#a'bcddeddeecb9",
"f6#a'ghijjjkjkkkil",
"f68(mnoikkkkkiiohp",
"0@8,gnlikkkkkiiohq",
"f@8,rnhiikiiikiihq",
"st$umnlooioiiioioq",
"vsw+5@xpqqqqqlqqqx"};
