/* XPM */
static char * mr_xpm[] = {
"18 12 47 1",
" 	c None",
".	c #006200",
"+	c #378637",
"@	c #78AD78",
"#	c #86B586",
"$	c #85B385",
"%	c #85B285",
"&	c #006600",
"*	c #006C00",
"=	c #75AF75",
"-	c #A8CDA8",
";	c #ABCEAB",
">	c #ABCDAB",
",	c #006B00",
"'	c #398D39",
")	c #7BB37B",
"!	c #80B580",
"~	c #80B180",
"{	c #1E7E1E",
"]	c #228022",
"^	c #227C22",
"/	c #7BB222",
"(	c #88B922",
"_	c #227B22",
":	c #007000",
"<	c #97C001",
"[	c #ABC701",
"}	c #005F00",
"|	c #238100",
"1	c #147C00",
"2	c #077600",
"3	c #318700",
"4	c #B2C400",
"5	c #004C00",
"6	c #1B8400",
"7	c #007400",
"8	c #86C100",
"9	c #FCE000",
"0	c #3F9800",
"a	c #3A9600",
"b	c #EDE100",
"c	c #A2CD00",
"d	c #007900",
"e	c #005B00",
"f	c #6DB600",
"g	c #FFF800",
"h	c #7CC000",
".+@###$$$%$$$$#@+.",
"&*=-;;;;>>;;;;-=,&",
"&*')!!!!~~~!!!)',&",
"&,*{]]]^/(_^]]^*,.",
".,,*:*:&<[&:*:**,}",
".&***|1*&&*23***&}",
"},**:145}}546***,}",
".*:77&890abc.77:*.",
",::d7defggh}7d77:.",
"&:77ddd&...dddd7:.",
",:777d:7:7777777*,",
".,&,&,,&&&&&&,&,&}"};
