/* XPM */
static const char * mz_xpm[] = {
"18 12 97 2",
"  	c None",
". 	c #6E2C00",
"+ 	c #37CC37",
"@ 	c #78D378",
"# 	c #86CD86",
"$ 	c #85CB85",
"% 	c #78C778",
"& 	c #37AC37",
"* 	c #009000",
"= 	c #CB0000",
"- 	c #B40000",
"; 	c #75CE75",
"> 	c #A8ECA8",
", 	c #ABDFAB",
"' 	c #ABDEAB",
") 	c #75CB75",
"! 	c #00A000",
"~ 	c #009400",
"{ 	c #A20000",
"] 	c #E13939",
"^ 	c #90B97B",
"/ 	c #80EA80",
"( 	c #80D280",
"_ 	c #80CF80",
": 	c #7BCD7B",
"< 	c #39B539",
"[ 	c #009F00",
"} 	c #AF0000",
"| 	c #BE0100",
"1 	c #E91E1E",
"2 	c #7E5322",
"3 	c #22D92F",
"4 	c #2ADB3E",
"5 	c #37D538",
"6 	c #36D539",
"7 	c #32D335",
"8 	c #17CD1A",
"9 	c #16C91B",
"0 	c #15BA1A",
"a 	c #A60000",
"b 	c #820000",
"c 	c #B86000",
"d 	c #A80700",
"e 	c #EC1D40",
"f 	c #676D83",
"g 	c #575D73",
"h 	c #5A5D74",
"i 	c #585D72",
"j 	c #565C75",
"k 	c #525978",
"l 	c #495071",
"m 	c #AE0900",
"n 	c #504300",
"o 	c #57641D",
"p 	c #767933",
"q 	c #CE7000",
"r 	c #C10000",
"s 	c #130000",
"t 	c #000000",
"u 	c #6B301D",
"v 	c #61C6E0",
"w 	c #CFF5F5",
"x 	c #B71100",
"y 	c #BA0000",
"z 	c #090000",
"A 	c #970000",
"B 	c #9A4B00",
"C 	c #E6740F",
"D 	c #D48A00",
"E 	c #B20400",
"F 	c #D61341",
"G 	c #4F6E84",
"H 	c #3D5C71",
"I 	c #4E5674",
"J 	c #444C6B",
"K 	c #E26E00",
"L 	c #FFFF0A",
"M 	c #FFFF14",
"N 	c #FFFF13",
"O 	c #F9F913",
"P 	c #F3F313",
"Q 	c #EBEB12",
"R 	c #D3D311",
"S 	c #EBB900",
"T 	c #FFFF00",
"U 	c #EBEB00",
"V 	c #D3D300",
"W 	c #EFF100",
"X 	c #F7F700",
"Y 	c #FAFA00",
"Z 	c #D6D600",
"` 	c #B14300",
" .	c #D9DA00",
"..	c #DFDF00",
"+.	c #E3E300",
"@.	c #E4E400",
"#.	c #C1C100",
". + @ # # $ $ $ $ $ $ $ $ $ $ % & * ",
"= - ; > , , , , , , ' ' , , , ) ! ~ ",
"{ = ] ^ / ( _ _ _ _ _ _ _ : : < [ ~ ",
"{ } | 1 2 3 4 5 6 6 6 6 5 5 7 8 9 0 ",
"a b c d } e f g g h i i h h j j k l ",
"m n o p q r r s t t t t t t t t t t ",
"a u v w x y - z t t t t t t t t t t ",
"A B C D E F G H i i i g j j j j I J ",
"a | - y K L M M M M M M N N O P Q R ",
"a - - S T T T T T T T T T T T U U V ",
"a - W X Y Y T Y T T Y T T Y X U U Z ",
"`  ...+.+.@.+.+.@.@.@.@.+.+.+...Z #."};
