/* XPM */
static const char * na_xpm[] = {
"18 12 156 2",
"  	c None",
". 	c #3232C4",
"+ 	c #6060DD",
"@ 	c #9193E9",
"# 	c #9A9DEB",
"$ 	c #999CEB",
"% 	c #999AF1",
"& 	c #9A9BF1",
"* 	c #8A9DEB",
"= 	c #97B0EB",
"- 	c #DCA8B4",
"; 	c #DD3737",
"> 	c #CC0000",
", 	c #3434CD",
"' 	c #3333E0",
") 	c #BDBEEB",
"! 	c #BDBDF4",
"~ 	c #BABBF5",
"{ 	c #BBBDF5",
"] 	c #D3D1F1",
"^ 	c #AEC1F5",
"/ 	c #F4B6A8",
"( 	c #EE7575",
"_ 	c #E00000",
": 	c #D40004",
"< 	c #2E2FD2",
"[ 	c #3534DA",
"} 	c #ADAC87",
"| 	c #EBE98E",
"1 	c #C7C8B6",
"2 	c #9797EE",
"3 	c #879AF1",
"4 	c #E5B5C0",
"5 	c #F18080",
"6 	c #F17B7B",
"7 	c #E93939",
"8 	c #E1032F",
"9 	c #44BB5D",
"0 	c #252AD6",
"a 	c #5D60A8",
"b 	c #E5E52B",
"c 	c #E9E946",
"d 	c #DCD953",
"e 	c #6B6EBA",
"f 	c #4C4EEA",
"g 	c #5253EA",
"h 	c #494FEA",
"i 	c #2659EA",
"j 	c #EA5635",
"k 	c #E92222",
"l 	c #E91E1E",
"m 	c #E55164",
"n 	c #03E24D",
"o 	c #00BC1F",
"p 	c #454CC0",
"q 	c #E0DC2F",
"r 	c #EAEA1B",
"s 	c #D0CF3E",
"t 	c #474CC9",
"u 	c #3335EC",
"v 	c #1935EC",
"w 	c #1B51EC",
"x 	c #B37BAE",
"y 	c #EC0801",
"z 	c #EC0101",
"A 	c #EC0124",
"B 	c #84AA73",
"C 	c #00E844",
"D 	c #00BB23",
"E 	c #00A62B",
"F 	c #282FD5",
"G 	c #2228E7",
"H 	c #5563BC",
"I 	c #848D87",
"J 	c #5D68C1",
"K 	c #2421F3",
"L 	c #073DF4",
"M 	c #4561F4",
"N 	c #F44D45",
"O 	c #F40000",
"P 	c #F33774",
"Q 	c #1BEF6B",
"R 	c #00E535",
"S 	c #00BD31",
"T 	c #00BA35",
"U 	c #00A732",
"V 	c #2932D5",
"W 	c #2E37E9",
"X 	c #2730F0",
"Y 	c #2B2EF5",
"Z 	c #292FF8",
"` 	c #0D4CF9",
" .	c #987FDE",
"..	c #F91800",
"+.	c #F90000",
"@.	c #F90013",
"#.	c #AB9593",
"$.	c #00F95A",
"%.	c #00CD2A",
"&.	c #00C336",
"*.	c #2D33D4",
"=.	c #3338EB",
"-.	c #3338F2",
";.	c #083CF8",
">.	c #3761FB",
",.	c #F8676F",
"'.	c #FD0000",
").	c #FD1D52",
"!.	c #43EB65",
"~.	c #00FD36",
"{.	c #00C930",
"].	c #00C631",
"^.	c #00C231",
"/.	c #00A82D",
"(.	c #3034D3",
"_.	c #2935EB",
":.	c #0A49F3",
"<.	c #897EEA",
"[.	c #FD2B00",
"}.	c #DB7F7A",
"|.	c #00FF52",
"1.	c #00DE20",
"2.	c #00CA2F",
"3.	c #00C92A",
"4.	c #00C42B",
"5.	c #00BD2A",
"6.	c #00AA24",
"7.	c #1030DA",
"8.	c #2754EB",
"9.	c #DB7380",
"0.	c #FF053A",
"a.	c #67D76E",
"b.	c #00FF3C",
"c.	c #00CF24",
"d.	c #00CD2F",
"e.	c #00BE27",
"f.	c #506DDA",
"g.	c #EB3C16",
"h.	c #F20000",
"i.	c #FD587E",
"j.	c #04FD62",
"k.	c #00E72A",
"l.	c #00CB35",
"m.	c #00AA22",
"n.	c #D00700",
"o.	c #DE0000",
"p.	c #E40000",
"q.	c #E80029",
"r.	c #7AB57D",
"s.	c #00ED4C",
"t.	c #00C227",
"u.	c #00BD37",
"v.	c #00BD2E",
"w.	c #00B82A",
"x.	c #00B426",
"y.	c #00A621",
". + @ # # # # # $ $ % & & * = - ; > ",
", ' @ ) ! ~ { { { { ] ^ ^ ] / ( _ : ",
"< [ } | 1 2 & & & & 3 = 4 5 6 7 8 9 ",
"0 a b c d e f g h i + j k k l m n o ",
"0 p q r s t u v w x y z z A B C D E ",
"F G H I J K L M N O O O P Q R S T U ",
"V W X Y Z `  ...+.+.@.#.$.%.&.&.T U ",
"*.=.-.;.>.,.'.'.'.).!.~.%.{.].^.S /.",
"(._.:.<.[.'.'.'.}.|.1.%.%.2.3.4.5.6.",
"7.8.9.+.'.'.0.a.b.c.d.d.d.%.3.4.e.6.",
"f.g.h.+.'.i.j.k.{.l.l.{.2.2.4.4.e.m.",
"n.o.p.q.r.s.t.u.u.u.u.u.u.v.v.w.x.y."};
