/* XPM */
static const char * ne_xpm[] = {
"18 12 70 1",
" 	c None",
".	c #BF4706",
"+	c #D3713C",
"@	c #E19F7C",
"#	c #E4A88A",
"$	c #E3A689",
"%	c #C74B06",
"&	c #D25007",
"*	c #E7A079",
"=	c #F0C3AB",
"-	c #F0C4AE",
";	c #D34D03",
">	c #C74603",
",	c #DE753B",
"'	c #E9A27D",
")	c #EAA681",
"!	c #C83C00",
"~	c #D64100",
"{	c #DC571E",
"]	c #DD5B22",
"^	c #DE5E22",
"/	c #DE7541",
"(	c #DE7842",
"_	c #C33B00",
":	c #D6D7D7",
"<	c #E3E4E4",
"[	c #E7E7E7",
"}	c #EBEBEB",
"|	c #EBECEC",
"1	c #EDEDED",
"2	c #E5BDB3",
"3	c #E4B3AA",
"4	c #D1D1D1",
"5	c #D8D8D8",
"6	c #F3F3F3",
"7	c #F5F5F5",
"8	c #EDB4BA",
"9	c #E01400",
"0	c #ECA3AB",
"a	c #F0F0F0",
"b	c #F8F8F8",
"c	c #F5B8BE",
"d	c #EA1500",
"e	c #F5A7AF",
"f	c #FDFDFD",
"g	c #FDC8BC",
"h	c #D4D4D4",
"i	c #044F00",
"j	c #045700",
"k	c #055A00",
"l	c #055F00",
"m	c #056100",
"n	c #1E6D25",
"o	c #098336",
"p	c #1A6116",
"q	c #1D6917",
"r	c #1E6F1B",
"s	c #1E701B",
"t	c #1E6E18",
"u	c #1E701A",
"v	c #195E15",
"w	c #216A1A",
"x	c #216F1E",
"y	c #206F22",
"z	c #1F6D24",
"A	c #1E5F16",
"B	c #1C631E",
"C	c #196123",
"D	c #186024",
"E	c #1C5915",
".+@#$$$$$$$$$$#@+%",
"%&*=----------=@;%",
">;,'))))))))))',;>",
"!~~{]]^^/(^]]]{~!_",
":<[}||1|2311111[<4",
"5[}66678990766a}[4",
"5}177bbcddebbb6a}4",
"516bbfffggfffbb6|h",
"ijklmkmmnommmmmkji",
"pqqrstrtssssuuuqqv",
"wwsxyyzznnnnyzsrwA",
"AABBBCDCDDDDCBBBAE"};
