/* XPM */
static const char * nf_xpm[] = {
"18 12 70 1",
" 	c None",
".	c #005200",
"+	c #377937",
"@	c #78A478",
"#	c #86A286",
"$	c #D2DDDC",
"%	c #ECECEC",
"&	c #EAEAEA",
"*	c #75A575",
"=	c #005500",
"-	c #005900",
";	c #A8BEA8",
">	c #E6E6E6",
",	c #F3F3F3",
"'	c #F4F4F4",
")	c #DDE8E7",
"!	c #E5ECEC",
"~	c #397D39",
"{	c #7B9C7B",
"]	c #ADC9B8",
"^	c #91B896",
"/	c #1E571E",
"(	c #C1DACE",
"_	c #225722",
":	c #226322",
"<	c #004100",
"[	c #B6CDC4",
"}	c #74A790",
"|	c #388047",
"1	c #196B1F",
"2	c #589771",
"3	c #003D00",
"4	c #B6D2D3",
"5	c #146A20",
"6	c #035D05",
"7	c #004400",
"8	c #BED9CC",
"9	c #004D00",
"0	c #BAD7D8",
"a	c #F9F9F9",
"b	c #1C7330",
"c	c #12671D",
"d	c #D2E5E5",
"e	c #005C00",
"f	c #C1DBD0",
"g	c #FDFDFD",
"h	c #C9DFD5",
"i	c #006100",
"j	c #056406",
"k	c #0B690E",
"l	c #48935D",
"m	c #C4DCD3",
"n	c #CEE3D3",
"o	c #FFF9FF",
"p	c #277E2C",
"q	c #003700",
"r	c #004800",
"s	c #D6E8DA",
"t	c #CADFCF",
"u	c #6EAB83",
"v	c #92C1A8",
"w	c #1D7625",
"x	c #338540",
"y	c #9BC9AF",
"z	c #62A275",
"A	c #AED3CD",
"B	c #8EBEBA",
"C	c #C2D1D5",
"D	c #B2C9CC",
"E	c #ACC4C1",
".+@#$%%%%&%%%$#*+.",
"=-*;>,''')'''!;*-=",
"=-~{$,%,]^,%,${~-.",
".--/(&&&_:&&&(/--.",
".=-<[%%}|12%&[3=-.",
".==<4,'5-67!,8<==9",
".--<0aabc5.da0<=-9",
".-e7fghijk.lgm7e-.",
"=ei7nopq==qrgs7ie.",
"=ei7tguvwxyzos7ee.",
"-ee7(o'gABggg8rie=",
"===3]>>>CD>>>E3==9"};
