/* XPM */
static const char * nr_xpm[] = {
"18 12 66 1",
" 	c None",
".	c #060090",
"+	c #3C37B0",
"@	c #7B78CC",
"#	c #8986D4",
"$	c #8785D9",
"%	c #8885D6",
"&	c #7975CD",
"*	c #060097",
"=	c #0700A0",
"-	c #AAA8E1",
";	c #ADABE3",
">	c #ADABE6",
",	c #06009C",
"'	c #06009B",
")	c #3E39B7",
"!	c #7F7BCF",
"~	c #8380D3",
"{	c #8380D6",
"]	c #0700A9",
"^	c #241EB3",
"/	c #2822B5",
"(	c #2822B4",
"_	c #0000C9",
":	c #0000D2",
"<	c #0000D7",
"[	c #0000C1",
"}	c #8F933D",
"|	c #999E41",
"1	c #9DA241",
"2	c #A0A443",
"3	c #A5A943",
"4	c #8B8E3B",
"5	c #8F943D",
"6	c #9FA442",
"7	c #A4A847",
"8	c #99A13F",
"9	c #6F7933",
"0	c #8A933C",
"a	c #A7AB43",
"b	c #0000DE",
"c	c #0000E1",
"d	c #6468FD",
"e	c #0000F1",
"f	c #0000E5",
"g	c #0700A6",
"h	c #0600B0",
"i	c #0700B4",
"j	c #0000B1",
"k	c #BEBCE3",
"l	c #FFFFFD",
"m	c #0000B7",
"n	c #0800BC",
"o	c #0700BD",
"p	c #0600BC",
"q	c #0800BB",
"r	c #0800B4",
"s	c #0700AF",
"t	c #4843C9",
"u	c #9A9AE4",
"v	c #0000BC",
"w	c #0700C2",
"x	c #0800AF",
"y	c #0700C7",
"z	c #0700C9",
"A	c #060089",
".+@##$$$$$$$#%#&+.",
"*=&-;;>>>>>>>>-&,'",
",=)!~~~#~{{{~~!)=,",
"=]]^///(//////^]]'",
"_:<:<<<<<:<<<<:::[",
"}|12232332331222|4",
"5|678903aaa3373284",
"_<bbcdebfbfffcbbb[",
"ghijkllmnnoopqrrs=",
",]hjtluvwwooqqrx]'",
",]srv[vyyzzyworrg*",
"*,gxrmoownooorh,'A"};
