/* XPM */
static char * nz_xpm[] = {
"18 12 112 2",
"  	c None",
". 	c #CC4F45",
"+ 	c #614DA6",
"@ 	c #7878D3",
"# 	c #8688DA",
"$ 	c #D29AA6",
"% 	c #898EDB",
"& 	c #8585DD",
"* 	c #ABABE7",
"= 	c #EBB0BE",
"- 	c #8785D9",
"; 	c #8685D6",
"> 	c #7B78CC",
", 	c #3C37B0",
"' 	c #060089",
") 	c #0C20A3",
"! 	c #D1587A",
"~ 	c #C3A1BA",
"{ 	c #A8B3F3",
"] 	c #F3BAB6",
"^ 	c #ABB9F4",
"/ 	c #CAA5C0",
"( 	c #F2C8DB",
"_ 	c #ADABE6",
": 	c #AEACE1",
"< 	c #BDBAE3",
"[ 	c #7676CD",
"} 	c #06009F",
"| 	c #060097",
"1 	c #78204E",
"2 	c #722E6F",
"3 	c #E97566",
"4 	c #E8A39F",
"5 	c #D78F86",
"6 	c #E7A6A5",
"7 	c #F1A59C",
"8 	c #BC99BD",
"9 	c #8280D5",
"0 	c #828BDA",
"a 	c #EEA9B3",
"b 	c #393ABB",
"c 	c #0700A6",
"d 	c #06009A",
"e 	c #6A1C58",
"f 	c #65297E",
"g 	c #E54B3E",
"h 	c #D65F5E",
"i 	c #BB3F2F",
"j 	c #D76465",
"k 	c #EA6352",
"l 	c #854C8C",
"m 	c #923968",
"n 	c #2223B5",
"o 	c #2522B6",
"p 	c #514DBD",
"q 	c #3431B5",
"r 	c #0300AE",
"s 	c #0003AA",
"t 	c #0A1CB6",
"u 	c #CE5598",
"v 	c #954F93",
"w 	c #0023E7",
"x 	c #EC3219",
"y 	c #0131E9",
"z 	c #834795",
"A 	c #E35C8E",
"B 	c #0128CF",
"C 	c #0800B4",
"D 	c #0003B9",
"E 	c #4033B5",
"F 	c #110AB3",
"G 	c #0000B7",
"H 	c #7F49A0",
"I 	c #D86492",
"J 	c #4527B2",
"K 	c #0000CE",
"L 	c #0003D0",
"M 	c #F23C1B",
"N 	c #0E14D0",
"O 	c #4226B9",
"P 	c #F4809E",
"Q 	c #0500C6",
"R 	c #D2568F",
"S 	c #6D52C0",
"T 	c #0002CA",
"U 	c #A052AF",
"V 	c #A453AA",
"W 	c #0000C6",
"X 	c #0500CC",
"Y 	c #0700C9",
"Z 	c #2B30D1",
"` 	c #0F0ECF",
" .	c #0600B0",
"..	c #0600B9",
"+.	c #0700BD",
"@.	c #0500C2",
"#.	c #0800BC",
"$.	c #0000C1",
"%.	c #0700B4",
"&.	c #0700A4",
"*.	c #0800BB",
"=.	c #0800AF",
"-.	c #0F1CC7",
";.	c #E05D81",
">.	c #5937A8",
",.	c #0700A9",
"'.	c #0700C0",
").	c #0800CA",
"!.	c #060CC8",
"~.	c #EA678F",
"{.	c #583EB2",
"].	c #060093",
". + @ # $ % & * = & - - - ; ; > , ' ",
") ! ~ { ] ^ / ( { * _ : _ < : [ } | ",
"1 2 3 4 5 6 7 8 8 @ 9 9 0 a ~ b c d ",
"e f g h i j k l m n o o o p q r s } ",
"t u v w x y z A B C D E F G D z H s ",
"I J K L M N L O P Q B R S T K U V D ",
"G W Q X L K X L K Y K Z ` T X T W  .",
"r ..+.+.@.@.@.#.+.@.#.$.@.@.@.#.%.&.",
"c C C C *.#.*.*.+.#.#.*.D W D C =.c ",
"} c  .*.*.#.*.@.@.@.@.+.-.;.>.G ,.d ",
"d c =.C #.'.Q Y ).).Q Q !.~.{.r c | ",
"].} c r C *...+.*.@.#...D D r &.d ' "};
