/* XPM */
static char * pa_xpm[] = {
"18 12 110 2",
"  	c None",
". 	c #C5C5C5",
"+ 	c #D9D9D9",
"@ 	c #E5E5E5",
"# 	c #E7E7E9",
"$ 	c #E9EBEB",
"% 	c #E6E8E8",
"& 	c #EAECEC",
"* 	c #CE8585",
"= 	c #D28686",
"- 	c #CD7878",
"; 	c #B63737",
"> 	c #9E0000",
", 	c #CECECE",
"' 	c #EDEDEC",
") 	c #F4F4F4",
"! 	c #D1D1ED",
"~ 	c #F2F4F4",
"{ 	c #E2ABAB",
"] 	c #E3ABAB",
"^ 	c #D37575",
"/ 	c #AF0000",
"( 	c #A50000",
"_ 	c #DDDEDB",
": 	c #CAC9DE",
"< 	c #A6A6DA",
"[ 	c #8080CF",
"} 	c #A7A8DD",
"| 	c #D7D7E9",
"1 	c #F3F3F0",
"2 	c #EFF1F1",
"3 	c #D48080",
"4 	c #D67B7B",
"5 	c #C13939",
"6 	c #CECFD0",
"7 	c #DBDDDC",
"8 	c #E5E5E1",
"9 	c #4945BF",
"0 	c #2222AA",
"a 	c #3C35BC",
"b 	c #E8E8E5",
"c 	c #B92222",
"d 	c #BC2222",
"e 	c #BA1E1E",
"f 	c #A90000",
"g 	c #D3D4D3",
"h 	c #E1E2E0",
"i 	c #7577D0",
"j 	c #989BD5",
"k 	c #ECECE9",
"l 	c #EAECEA",
"m 	c #B20101",
"n 	c #9A0000",
"o 	c #F0F0ED",
"p 	c #F4F4F3",
"q 	c #A30000",
"r 	c #950000",
"s 	c #0000B1",
"t 	c #0000BE",
"u 	c #0000C2",
"v 	c #0000C7",
"w 	c #0000CE",
"x 	c #F9F9F9",
"y 	c #F4F8F8",
"z 	c #F2F9F9",
"A 	c #EEF5F5",
"B 	c #EAF1F1",
"C 	c #CED3D3",
"D 	c #0300AD",
"E 	c #0300B8",
"F 	c #0400BC",
"G 	c #0700C2",
"H 	c #0000B7",
"I 	c #FFFFFF",
"J 	c #FAFDFA",
"K 	c #F7FDFD",
"L 	c #F9FDFD",
"M 	c #E0879F",
"N 	c #E3E7E8",
"O 	c #CCD0D1",
"P 	c #0700A6",
"Q 	c #0700AE",
"R 	c #0800B4",
"S 	c #0800B7",
"T 	c #0800BB",
"U 	c #EFD1D6",
"V 	c #DA666F",
"W 	c #C10000",
"X 	c #D45D68",
"Y 	c #E3BDC4",
"Z 	c #CBCCCD",
"` 	c #06009F",
" .	c #0700A9",
"..	c #0800AF",
"+.	c #0800BE",
"@.	c #D22E33",
"#.	c #BC0000",
"$.	c #CA1718",
"%.	c #06009A",
"&.	c #0700C5",
"*.	c #DD7D9B",
"=.	c #DF9DB0",
"-.	c #D97685",
";.	c #060093",
">.	c #0700B9",
",.	c #DCDBE0",
"'.	c #DCE4E4",
").	c #D8E1E1",
"!.	c #D4D3D4",
"~.	c #BCBCBC",
". + @ # $ # # % & * = * = = = - ; > ",
", + ' ) ! ) ) ~ ~ { ] { { { { ^ / ( ",
", _ : < [ } | 1 2 3 3 3 3 4 4 5 / ( ",
"6 7 8 9 0 a b % % c d d d d e / f > ",
"g h b i j i k l l / m m m m / / f n ",
"+ @ ' o o 1 p p ~ m / m m / f f q r ",
"s t u v v v v v w x y y z z A B % C ",
"D E F F t G F t H I J K L M z 2 N O ",
"P Q R S T T T F H I x U V W X Y N Z ",
"`  ...R T +.+.F H I I L @.#.$.2 @ Z ",
"%.P ..S T G &.v u L y K *.=.-.B @ , ",
";.` P Q R T >.t E @ h ,.'.'.).!., ~."};
