/* XPM */
static char * pe_xpm[] = {
"18 12 65 1",
" 	c None",
".	c #9E0000",
"+	c #B63737",
"@	c #CD7878",
"#	c #D28686",
"$	c #CD8585",
"%	c #EAEBEB",
"&	c #A50000",
"*	c #AE0000",
"=	c #D37575",
"-	c #E3A8A8",
";	c #E2ABAB",
">	c #F4F5F5",
",	c #A30000",
"'	c #C13939",
")	c #D67B7B",
"!	c #D68080",
"~	c #F1F1F1",
"{	c #D78080",
"]	c #BA1E1E",
"^	c #B82222",
"/	c #9EA8AB",
"(	c #9BA6AE",
"_	c #BB2222",
":	c #B60000",
"<	c #AA0000",
"[	c #B30000",
"}	c #BD0101",
"|	c #B6D7D8",
"1	c #B0CBBF",
"2	c #B0BEB4",
"3	c #ACB3A0",
"4	c #6A8E71",
"5	c #CFECEC",
"6	c #9B0000",
"7	c #E10412",
"8	c #356A79",
"9	c #81B5BE",
"0	c #A4DCF4",
"a	c #81989D",
"b	c #B4D4D7",
"c	c #85A1BF",
"d	c #C20308",
"e	c #960000",
"f	c #E6040F",
"g	c #3987B3",
"h	c #77642C",
"i	c #F3B200",
"j	c #E17003",
"k	c #9D7C30",
"l	c #82C4DB",
"m	c #C9050F",
"n	c #BA0000",
"o	c #CC0000",
"p	c #E6FDFD",
"q	c #002300",
"r	c #DAA357",
"s	c #E88966",
"t	c #476657",
"u	c #FBFCFC",
"v	c #C90000",
"w	c #C20000",
"x	c #FEFFFF",
"y	c #F2FFFF",
"z	c #E5E5E5",
".+@##$%%%%%%###@+.",
"&*=-;->>>>>>-;-=*&",
",*'))!~~~~~~{{)+*,",
",**]^^%%/(%%__^:<.",
".<**[}|12345}[**<6",
"6<*[[7890abcd:[*<e",
".<*[:fghijklm:[*<6",
",*:nnopqrstuv}n:*.",
"&[nww}xxyxxxwwnn[.",
"&:n}w}xxxxxxww}}:,",
"<:n}}:uuxuxu}n}n:&",
",<&<<,zzzzzz&<<&,e"};
