/* XPM */
static const char * pw_xpm[] = {
"18 12 82 1",
" 	c None",
".	c #057CCC",
"+	c #399BDD",
"@	c #7ABBE9",
"#	c #87C1EB",
"$	c #86BFEB",
"%	c #3B9CDE",
"&	c #037CCC",
"*	c #0380D4",
"=	c #0086E0",
"-	c #75BEEE",
";	c #A8D5F4",
">	c #ABD5F5",
",	c #ABD4F5",
"'	c #7CC1F1",
")	c #39A2E9",
"!	c #7BC1F1",
"~	c #80C3F1",
"{	c #90CAE2",
"]	c #B4DAC1",
"^	c #BDDDB7",
"/	c #AAD5CB",
"(	c #85C5ED",
"_	c #42A6EA",
":	c #027DD8",
"<	c #0087E5",
"[	c #1E97E9",
"}	c #2296E9",
"|	c #51ACBC",
"1	c #D8E235",
"2	c #EAEA22",
"3	c #BBD853",
"4	c #2298EA",
"5	c #0086EA",
"6	c #008AEA",
"7	c #098DE4",
"8	c #C1DC30",
"9	c #ECEC01",
"0	c #81C475",
"a	c #0088ED",
"b	c #0086F0",
"c	c #2AA1D3",
"d	c #F3F300",
"e	c #F4F400",
"f	c #CBE52E",
"g	c #0693F4",
"h	c #008BF0",
"i	c #0187EC",
"j	c #0088F5",
"k	c #2BA5D7",
"l	c #F9F900",
"m	c #D2EB2F",
"n	c #008DF5",
"o	c #0380DA",
"p	c #008DF2",
"q	c #0091F8",
"r	c #0997F3",
"s	c #CEEC33",
"t	c #FDFD00",
"u	c #89D17C",
"v	c #0093FF",
"w	c #0095FC",
"x	c #0383DA",
"y	c #0091F3",
"z	c #3CB0C6",
"A	c #E7F619",
"B	c #C2E83F",
"C	c #18A0E9",
"D	c #0097FD",
"E	c #0093F7",
"F	c #008DED",
"G	c #008DEB",
"H	c #26A6DC",
"I	c #74CA94",
"J	c #5FC0A8",
"K	c #0C9BF4",
"L	c #008DFC",
"M	c #0384DF",
"N	c #0285E3",
"O	c #0285E6",
"P	c #0383E1",
"Q	c #037AC9",
".+@###$$$$##$##@%&",
"*=-;;;;>,>;;;;;'=*",
"*=)!~~{]^/((~''_=:",
":=<[}|12223+44}<=:",
":<5678999990a665<:",
":<abcdeeeeefghai5:",
":5hjkllllllmgnnha:",
"oapqrstttttuvwqna:",
"x6ywvzAtttBCwDwEFx",
"xGyEwwHIuJKwwwwyF:",
"x6yEwwnLLLvnwwEyGx",
".xMMNOOO<OOONNPxxQ"};
