/* XPM */
static char * py_xpm[] = {
"18 12 71 1",
" 	c None",
".	c #9E0000",
"+	c #B63737",
"@	c #CD7878",
"#	c #D28686",
"$	c #CF8585",
"%	c #A50000",
"&	c #AE0000",
"*	c #D37575",
"=	c #E3A8A8",
"-	c #E2ABAB",
";	c #A20000",
">	c #C03939",
",	c #D67B7B",
"'	c #D68080",
")	c #AA0000",
"!	c #B61E1E",
"~	c #B72222",
"{	c #BA2222",
"]	c #BD2225",
"^	c #B82222",
"/	c #980000",
"(	c #D6D7D7",
"_	c #E3E4E4",
":	c #E7E8E8",
"<	c #EBEBEB",
"[	c #E9ECEC",
"}	c #EDEDED",
"|	c #E9E2CF",
"1	c #E9DAC9",
"2	c #D1D1D1",
"3	c #D8D8D8",
"4	c #E7E7E7",
"5	c #F3F3F3",
"6	c #F5F5F5",
"7	c #F4CDC9",
"8	c #415257",
"9	c #3B535F",
"0	c #F4C3C1",
"a	c #FBFBFB",
"b	c #F8F8F8",
"c	c #F9CAC8",
"d	c #555466",
"e	c #505A6B",
"f	c #FDFDFD",
"g	c #D3D3D3",
"h	c #D9D9D9",
"i	c #FDD9C5",
"j	c #00009E",
"k	c #0000A7",
"l	c #0000AF",
"m	c #0000B6",
"n	c #0000C9",
"o	c #0000B1",
"p	c #0300A9",
"q	c #03009A",
"r	c #0700A4",
"s	c #0700B4",
"t	c #0600BB",
"u	c #0600BF",
"v	c #0700C2",
"w	c #0400BF",
"x	c #0400BB",
"y	c #06009A",
"z	c #0800AF",
"A	c #0800B7",
"B	c #0700C7",
"C	c #0700C9",
"D	c #060096",
"E	c #0400AE",
"F	c #060089",
".+@##$$$$$$$###@+.",
"%&*===--------=*&%",
";&>,''''''''',,+&;",
".))!~{~{]]^~^^~&%/",
"(_:<<[}[|1}}[[[:_2",
"34<55567890a665}:2",
"3<}66bbcde-fbb5}:g",
"h<5bafffiifffbb5[g",
"jkkllllmnnmoollppq",
"jrlsmtuuuvwtxmslpy",
"yrzAuvvBCCBBvuAzrD",
"DrrzsttuuuutAAEryF"};
