/* XPM */
static char * rs_woa_xpm[] = {
"18 12 51 1",
" 	c None",
".	c #CD0000",
"+	c #DE3232",
"@	c #E97676",
"#	c #EB8383",
"$	c #EB8282",
"%	c #D60000",
"&	c #E10000",
"*	c #EF7878",
"=	c #F5A6A6",
"-	c #F5A8A8",
";	c #F07575",
">	c #E93B3B",
",	c #F07878",
"'	c #C7000A",
")	c #D3000B",
"!	c #D4000B",
"~	c #D91923",
"{	c #DB1C26",
"]	c #0E0095",
"^	c #0F009B",
"/	c #100096",
"(	c #0F0098",
"_	c #0000AA",
":	c #0000B3",
"<	c #0000B6",
"[	c #0000B8",
"}	c #0000BB",
"|	c #0E0FA2",
"1	c #0F10AB",
"2	c #1112AF",
"3	c #1112B0",
"4	c #0F11AD",
"5	c #CBCCD6",
"6	c #DBDCE7",
"7	c #E2E3EE",
"8	c #E7E8F3",
"9	c #EAEBF6",
"0	c #ECEDF9",
"a	c #DBDBDB",
"b	c #ECECEC",
"c	c #F3F3F3",
"d	c #FBFBFB",
"e	c #FFFFFF",
"f	c #F8F8F8",
"g	c #EDEDED",
"h	c #D1D1D1",
"i	c #DFDFDF",
"j	c #E4E4E4",
"k	c #E8E8E8",
"l	c #EBEBEB",
".+@#########$##@+.",
"%&*=--=--=--=-=;&%",
"%&>;,,,,,,,,,,;>&%",
"')!~{{{{{{{{{{~!)'",
"]^^]]/(///((/^^]^]",
"_:<[[[}[[[[[[[[<:_",
"_:<[}}[[[}[[}[[<:_",
"|1123333333334221|",
"567890000090098765",
"abcdeeeeeeeeeefcga",
"abcfddedeedeedfcba",
"hijklggbbgggblkjih"};
