/* XPM */
static const char * ru_xpm[] = {
"18 12 47 1",
" 	c None",
".	c #C5C5C5",
"+	c #D9D9D9",
"@	c #E5E5E5",
"#	c #E7E7E9",
"$	c #E7E8E9",
"%	c #D8D8D8",
"&	c #CECECE",
"*	c #EAEAEA",
"=	c #F2F2F2",
"-	c #F2F2F3",
";	c #D2D2CF",
">	c #DEDEDB",
",	c #EFEFED",
"'	c #F0F0EE",
")	c #F0F0EF",
"!	c #D0D0CD",
"~	c #D6D6D6",
"{	c #E2E2E2",
"]	c #0000A7",
"^	c #0000AE",
"/	c #0101AC",
"(	c #0000A2",
"_	c #0300B2",
":	c #0300BF",
"<	c #0300C3",
"[	c #0300C7",
"}	c #0400C8",
"|	c #0300B7",
"1	c #0400CB",
"2	c #0400CD",
"3	c #0000CE",
"4	c #0000D2",
"5	c #0000D5",
"6	c #BD0000",
"7	c #CD0000",
"8	c #D40000",
"9	c #DA0000",
"0	c #DF0000",
"a	c #B60000",
"b	c #A80000",
"c	c #BB0000",
"d	c #C30000",
"e	c #C50000",
"f	c #A40000",
"g	c #A60000",
"h	c #960000",
".+@#$$$########@%.",
"&+*=======-=--=*+&",
";>@,''''='')),,@>!",
"~{@************@{;",
"]^^^^^^^///^^^^^^(",
"_:<[[[[[[[[[}[[<:^",
"|<[1122211222111[_",
":[34455554555443}|",
"67890000000000987a",
"bc6deeeeeeeeeee6cf",
"bac66666ccc6666cag",
"gbbbbgggggggbbbggh"};
