/* XPM */
static const char * sa_xpm[] = {
"18 12 97 2",
"  	c None",
". 	c #006200",
"+ 	c #378637",
"@ 	c #78AD78",
"# 	c #86B586",
"$ 	c #85B385",
"% 	c #006600",
"& 	c #006C00",
"* 	c #75AF75",
"= 	c #A8CDA8",
"- 	c #ABCEAB",
"; 	c #ABCCAB",
"> 	c #A8CBA8",
", 	c #006B00",
"' 	c #539355",
") 	c #A4BFA7",
"! 	c #A4BFA8",
"~ 	c #A9C1B3",
"{ 	c #8EB690",
"] 	c #81B681",
"^ 	c #98BE9D",
"/ 	c #C4CACD",
"( 	c #90B993",
"_ 	c #89BC8B",
": 	c #C1C9C4",
"< 	c #81A485",
"[ 	c #548858",
"} 	c #207527",
"| 	c #548360",
"1 	c #7C9D89",
"2 	c #5E9565",
"3 	c #438F47",
"4 	c #2D812F",
"5 	c #6B9576",
"6 	c #719A81",
"7 	c #61996B",
"8 	c #6D9A77",
"9 	c #508C55",
"0 	c #378047",
"a 	c #508D60",
"b 	c #005C00",
"c 	c #247332",
"d 	c #09710C",
"e 	c #5E957B",
"f 	c #749A91",
"g 	c #518B68",
"h 	c #1F7528",
"i 	c #418853",
"j 	c #418353",
"k 	c #0C7615",
"l 	c #769A9B",
"m 	c #3A8054",
"n 	c #45797A",
"o 	c #6D9CAE",
"p 	c #40866D",
"q 	c #2D7C4C",
"r 	c #498D79",
"s 	c #5D999B",
"t 	c #418D6E",
"u 	c #187028",
"v 	c #2A7949",
"w 	c #317458",
"x 	c #046909",
"y 	c #448078",
"z 	c #889BBD",
"A 	c #2E824F",
"B 	c #0A7011",
"C 	c #6591A9",
"D 	c #2D844B",
"E 	c #4F9686",
"F 	c #5B9898",
"G 	c #12721E",
"H 	c #327C55",
"I 	c #3D7D6A",
"J 	c #24793D",
"K 	c #127020",
"L 	c #007500",
"M 	c #007800",
"N 	c #007100",
"O 	c #167818",
"P 	c #128014",
"Q 	c #078007",
"R 	c #007C00",
"S 	c #158318",
"T 	c #329138",
"U 	c #107A11",
"V 	c #428F49",
"W 	c #3B8E44",
"X 	c #3D9049",
"Y 	c #479559",
"Z 	c #429253",
"` 	c #469057",
" .	c #7DA593",
"..	c #B8C6C0",
"+.	c #09790D",
"@.	c #358D47",
"#.	c #23852C",
". + @ # # # # # # $ # # $ $ # @ + . ",
"% & * = - = ; = ; ; ; ; ; ; > * , % ",
"% & ' ) ! ~ { ] ^ ! / ( ~ _ : < [ . ",
". } | 1 2 3 4 5 6 7 8 9 < 0 8 8 a b ",
". , c d e f 0 g h 8 i j 3 } k l m b ",
". % n k o p q r s o t u v q m n w b ",
". x y z A B C D E F , G H I J k K b ",
". & & L L L L M L L L L L N N , , . ",
"% N L O P Q R R M R M S T . L N & % ",
", N N U V W X Y Y Z `  .....L N N % ",
"% N N L L N L N L L N +.@.#.M L N % ",
". , , % , % % % % % % % % % % , % b "};
