/* XPM */
static const char * se_xpm[] = {
"18 12 70 1",
" 	c None",
".	c #0000CC",
"+	c #3737DD",
"@	c #7878E9",
"#	c #8686EB",
"$	c #8889E8",
"%	c #EBEB85",
"&	c #C8CBAE",
"*	c #8686EC",
"=	c #0000D4",
"-	c #0000E0",
";	c #7575EE",
">	c #A8A8F4",
",	c #AEAEF2",
"'	c #F5F5AB",
")	c #DDDEC6",
"!	c #ABABF5",
"~	c #3939E9",
"{	c #7B7BF1",
"]	c #F1F180",
"^	c #CFD0A4",
"/	c #8080F1",
"(	c #0000D9",
"_	c #0000E5",
":	c #1E1EE9",
"<	c #2222EA",
"[	c #EAEA22",
"}	c #9EA171",
"|	c #0000D3",
"1	c #353DAB",
"2	c #3B41B3",
"3	c #3D42B3",
"4	c #383CB9",
"5	c #4D51A9",
"6	c #EDED00",
"7	c #B8BC38",
"8	c #2B2EC6",
"9	c #4145B3",
"0	c #343BA6",
"a	c #D8D800",
"b	c #E7E700",
"c	c #F0F000",
"d	c #F4F400",
"e	c #D1D100",
"f	c #8C965B",
"g	c #97A161",
"h	c #9CA562",
"i	c #9AA369",
"j	c #A4AD61",
"k	c #F9F900",
"l	c #E3E519",
"m	c #939D77",
"n	c #A4AD64",
"o	c #A3AC64",
"p	c #889259",
"q	c #0000EB",
"r	c #0000F3",
"s	c #0000F9",
"t	c #FFFF00",
"u	c #979C6E",
"v	c #0000FF",
"w	c #0000F7",
"x	c #0B0BF3",
"y	c #B3B550",
"z	c #0C0CF3",
"A	c #FCFC00",
"B	c #AAB05C",
"C	c #0809DB",
"D	c #959D5C",
"E	c #0000C1",
".+@#$%&###*####@+.",
"=-;>,')>>>!!!!>;-=",
"=-~{*]^///////{~-=",
"(-_:<[}<<<<<<<:_-|",
"123456789999993320",
"ab6cccddddddcdc6be",
"fghijklmjjnoooohgp",
"(qrsstuvvvsvvswrq=",
"(qrsxtyvvvvvvsswq|",
"(qrwztyvvvvvvvwrq|",
"(qwwxABvsvsvvswrq=",
".(--CbD_____-_-((E"};
