/* XPM */
static const char * sh_xpm[] = {
"18 12 109 2",
"  	c None",
". 	c #B45869",
"+ 	c #C592AC",
"@ 	c #818CC6",
"# 	c #8788CD",
"$ 	c #E6A5B9",
"% 	c #EBA5AE",
"& 	c #868DD2",
"* 	c #CBA3C8",
"= 	c #EBC6D4",
"- 	c #8787C9",
"; 	c #8788C5",
"> 	c #7B7BBA",
", 	c #3B3C92",
"' 	c #191974",
") 	c #1B48AA",
"! 	c #AC7391",
"~ 	c #EFD4CF",
"{ 	c #E1E8F5",
"] 	c #D6CFEA",
"^ 	c #F5E2E5",
"/ 	c #EFECF5",
"( 	c #B6CBEE",
"_ 	c #A8A8DA",
": 	c #A8A8D7",
"< 	c #A6A6D3",
"[ 	c #7878B9",
"} 	c #000075",
"| 	c #090971",
"1 	c #D62D28",
"2 	c #E2141D",
"3 	c #E94D4D",
"4 	c #F07876",
"5 	c #F07A7A",
"6 	c #F08B8D",
"7 	c #F07C82",
"8 	c #8778B5",
"9 	c #7878BE",
"0 	c #7474BC",
"a 	c #464293",
"b 	c #000083",
"c 	c #0B0C7B",
"d 	c #44449A",
"e 	c #A3A7CB",
"f 	c #E5AFAA",
"g 	c #E384A2",
"h 	c #E36371",
"i 	c #EA4340",
"j 	c #CFE3EA",
"k 	c #EAAFA7",
"l 	c #5B68B7",
"m 	c #1C1C92",
"n 	c #1C1C8D",
"o 	c #E8E818",
"p 	c #CEA40D",
"q 	c #E3DD01",
"r 	c #0B0C83",
"s 	c #867AA9",
"t 	c #E68199",
"u 	c #511D8C",
"v 	c #0000A1",
"w 	c #EC606D",
"x 	c #ED593D",
"y 	c #0000A9",
"z 	c #374EA8",
"A 	c #EDA5A0",
"B 	c #DE5784",
"C 	c #000086",
"D 	c #00008D",
"E 	c #87A355",
"F 	c #4D6E7E",
"G 	c #7AB191",
"H 	c #0B0F95",
"I 	c #280F9A",
"J 	c #0000A7",
"K 	c #0501A1",
"L 	c #00009D",
"M 	c #0000B0",
"N 	c #2425AD",
"O 	c #0401A4",
"P 	c #0000AC",
"Q 	c #20030A",
"R 	c #1744A9",
"S 	c #154199",
"T 	c #0A0CA6",
"U 	c #0A0C9F",
"V 	c #0000BA",
"W 	c #110D53",
"X 	c #173104",
"Y 	c #07052D",
"Z 	c #0B0C93",
"` 	c #000096",
" .	c #000099",
"..	c #030792",
"+.	c #0B0C86",
"@.	c #00008B",
"#.	c #00007B",
"$.	c #00007E",
"%.	c #000091",
"&.	c #3B3B8D",
"*.	c #3C3D97",
"=.	c #3D3E9F",
"-.	c #3C3FA7",
";.	c #3B3FB0",
">.	c #3B40B6",
",.	c #393FB9",
"'.	c #383FBE",
").	c #000063",
"!.	c #00006F",
". + @ # $ % & # * = & # # - ; > , ' ",
") ! ~ { ~ $ ] ^ / ( _ _ : : < [ } | ",
"1 2 3 4 5 5 5 6 7 5 8 9 [ [ 0 a b c ",
"d e f g h i j k + l m n n m o p q r ",
"s t u v w x y z A B C D D D E F G H ",
"I v y y J K y L M N O y y P Q R S T ",
"U J y y P P y y y y y y P V W X Y T ",
"Z ` ` ` ` ` ` ` ` ` ` ` `  .O ..v Z ",
"+.C C C @.@.D D D D D D @.C @.C C +.",
"} #.$.b C D %.` ` ` ` %.D @.b $.#.} ",
"&.*.=.-.;.>.,.'.'.'.'.,.>.;.-.=.*.&.",
").!.$.C %. .L L v v L L  .%.C #.!.)."};
