/* XPM */
static const char * si_xpm[] = {
"18 12 62 1",
" 	c None",
".	c #CCCCCC",
"+	c #DDDDDD",
"@	c #E9E9E9",
"#	c #ECECEC",
"$	c #D4D4D4",
"%	c #E0E0E0",
"&	c #B09DB1",
"*	c #C3BDD2",
"=	c #BCB5DA",
"-	c #CFC6DB",
";	c #F5F5F5",
">	c #F4F4F4",
",	c #3B397F",
"'	c #7B7BB2",
")	c #888BB3",
"!	c #8080B7",
"~	c #9186B9",
"{	c #F1F1F1",
"]	c #080075",
"^	c #1E1E83",
"/	c #B0B1D3",
"(	c #22227D",
"_	c #463290",
":	c #E5E5E5",
"<	c #D1D1D1",
"[	c #010180",
"}	c #000066",
"|	c #9A8ABD",
"1	c #7A6CAD",
"2	c #00007B",
"3	c #01017D",
"4	c #00009E",
"5	c #4742B1",
"6	c #C8F1F2",
"7	c #3123AA",
"8	c #0000A3",
"9	c #0000A9",
"0	c #0000A6",
"a	c #000095",
"b	c #00008C",
"c	c #977EC9",
"d	c #F8F8F8",
"e	c #6F57BE",
"f	c #0000AF",
"g	c #0000B0",
"h	c #00009B",
"i	c #3D0597",
"j	c #BC0000",
"k	c #CF0000",
"l	c #D80000",
"m	c #D70000",
"n	c #C30000",
"o	c #E10000",
"p	c #DF0000",
"q	c #BB0000",
"r	c #A80000",
"s	c #C60000",
"t	c #A10000",
"u	c #B60000",
"v	c #A60000",
"w	c #960000",
".+@@##@##@#####@+.",
"$%&*=*-;;;;;;>>#%$",
"$%,')!~{{{{{{{{@%$",
"$%]^/(_@@@#@@@@:%<",
"[}|@##1}[233333[[3",
"445{6;78999999990a",
"49bcdeafffffggff9h",
"489aih90000999008h",
"jklmnooooooooppmkq",
"rqjsssssssssssnjqt",
"rqqjqjjjjqjjjjjquv",
"trrrrrrvvvvvrrrvvw"};
