/* XPM */
static const char * sr_xpm[] = {
"18 12 64 1",
" 	c None",
".	c #009000",
"+	c #37AC37",
"@	c #78C778",
"#	c #86CD86",
"$	c #008900",
"%	c #009500",
"&	c #009D00",
"*	c #75C975",
"=	c #A8DDA8",
"-	c #ABDEAB",
";	c #00BC13",
">	c #00C714",
",	c #39D549",
"'	c #7BE385",
")	c #80E58B",
"!	c #80E48A",
"~	c #00BB13",
"{	c #D66A7D",
"]	c #E2727E",
"^	c #E5737B",
"/	c #E98389",
"(	c #EA878D",
"_	c #E87B8D",
":	c #D3697B",
"<	c #A00000",
"[	c #AB0000",
"}	c #B00000",
"|	c #B60000",
"1	c #AF0000",
"2	c #BF0101",
"3	c #9A0000",
"4	c #CB7000",
"5	c #EBE600",
"6	c #EDF000",
"7	c #CF7700",
"8	c #A80000",
"9	c #980000",
"0	c #9E0000",
"a	c #C01500",
"b	c #F9F900",
"c	c #C22500",
"d	c #BB0000",
"e	c #C00000",
"f	c #C80000",
"g	c #DD4500",
"h	c #EB7683",
"i	c #F37A83",
"j	c #F97D84",
"k	c #FD7F85",
"l	c #FF7E88",
"m	c #FF8789",
"n	c #F65889",
"o	c #FF8087",
"p	c #00D014",
"q	c #00D815",
"r	c #00E217",
"s	c #00E618",
"t	c #00DE18",
"u	c #00DD16",
"v	c #00A400",
"w	c #00AC00",
"x	c #00AF00",
"y	c #009A00",
".+@############@+$",
"%&*===---=----=*&%",
";>,'))))!!!!!'',>~",
"{]^/((((__(((/_^]:",
"<[}}|}}1221||}}}[3",
"3[1}}||4567||}}}89",
"0[}}|||abbc||||}[3",
"<}|deeefggf2e2d|10",
"hhijklkmnnmloojih:",
";pqqrrrssstrrruqp~",
"%vwwwwwxwwwwwwwvv%",
".y&&&&&&&&&&&&&&y$"};
