/* XPM */
static const char * st_xpm[] = {
"18 12 73 1",
" 	c None",
".	c #582900",
"+	c #37A037",
"@	c #78AD78",
"#	c #86B586",
"$	c #85B285",
"%	c #378637",
"&	c #006200",
"*	c #D40000",
"=	c #602B00",
"-	c #75C275",
";	c #A8CDA8",
">	c #ABCCAB",
",	c #75AE75",
"'	c #006600",
")	c #A70000",
"!	c #E10000",
"~	c #825939",
"{	c #7BC97B",
"]	c #80AD80",
"^	c #7BAB7B",
"/	c #398039",
"(	c #005C00",
"_	c #005600",
":	c #A20000",
"<	c #AE0000",
"[	c #C70000",
"}	c #E67D1E",
"|	c #EAEA22",
"1	c #E9E91E",
"2	c #E5E500",
"3	c #E2E200",
"4	c #D3D300",
"5	c #9F0000",
"6	c #AA0000",
"7	c #B00000",
"8	c #D86C01",
"9	c #ECEC01",
"0	c #EAEA00",
"a	c #C63D00",
"b	c #F4F400",
"c	c #CAD100",
"d	c #252B00",
"e	c #1D2200",
"f	c #C3C800",
"g	c #96A000",
"h	c #000000",
"i	c #596900",
"j	c #CA3F00",
"k	c #F9F900",
"l	c #A7B000",
"m	c #363F00",
"n	c #B60000",
"o	c #B90000",
"p	c #E67600",
"q	c #FDFD00",
"r	c #E8E500",
"s	c #EDE800",
"t	c #F4EF00",
"u	c #DCD600",
"v	c #D4D400",
"w	c #F97A00",
"x	c #EB0000",
"y	c #652D00",
"z	c #00A300",
"A	c #006800",
"B	c #005D00",
"C	c #D90000",
"D	c #009A00",
"E	c #007400",
"F	c #007200",
"G	c #562C00",
"H	c #008B00",
".+@#$$$$$$$$$##@%&",
"*=-;;;;;>>>>>>;,'&",
")!~{]$]]]]]]]]^/(_",
":<[}||||||||||1234",
"567789999999990024",
"56<7)abcdefbbghi24",
"56<7)jkkhhkkklhm04",
"5<nopqqqrsqqqrtu0v",
"6n*wqqqqqqqqqqkb0v",
"6xyzA'A''''''''&B_",
"CyDEEEEFFFFFEEFFF'",
"GHAAAA'''''''AAAAB"};
