/* XPM */
static char * sv_xpm[] = {
"18 12 82 1",
" 	c None",
".	c #004F6A",
"+	c #377792",
"@	c #78A3BA",
"#	c #86ACC5",
"$	c #85AACF",
"%	c #85AACB",
"&	c #7BA6B9",
"*	c #00536F",
"=	c #005776",
"-	c #75A4B8",
";	c #A8C5D4",
">	c #ABC7D7",
",	c #ABC7DA",
"'	c #ABC7D9",
")	c #ABC6DC",
"!	c #005471",
"~	c #004E73",
"{	c #397A95",
"]	c #80A9C2",
"^	c #80A9BF",
"/	c #005177",
"(	c #004F73",
"_	c #004176",
":	c #004678",
"<	c #004775",
"[	c #1E5D83",
"}	c #226087",
"|	c #22628C",
"1	c #226690",
"2	c #003F73",
"3	c #D7D7D7",
"4	c #E4E4E4",
"5	c #E9E9E9",
"6	c #EDEDED",
"7	c #ECE7CF",
"8	c #ECE9CD",
"9	c #ECECEA",
"0	c #D1D1D1",
"a	c #D9D9D9",
"b	c #F0F0F0",
"c	c #F5F5F5",
"d	c #7C9DB2",
"e	c #8FA6B7",
"f	c #9EA9BB",
"g	c #6E90A9",
"h	c #F4F4F4",
"i	c #E8E8E8",
"j	c #F9F9F9",
"k	c #83A7B0",
"l	c #347A36",
"m	c #3C7A50",
"n	c #68989C",
"o	c #D3D3D3",
"p	c #FDFDFD",
"q	c #99AF9E",
"r	c #9DB4A2",
"s	c #FDFDF3",
"t	c #004977",
"u	c #004B7A",
"v	c #004C7C",
"w	c #004C7B",
"x	c #00558B",
"y	c #00629E",
"z	c #00568F",
"A	c #00587C",
"B	c #005D84",
"C	c #005E8A",
"D	c #005E8D",
"E	c #005E97",
"F	c #005E91",
"G	c #005F9C",
"H	c #005EA1",
"I	c #005DA5",
"J	c #005DA8",
"K	c #005482",
"L	c #005395",
"M	c #00549D",
"N	c #0053A1",
"O	c #0052A6",
"P	c #00539C",
"Q	c #004B65",
".+@##$$$$$$$%##&+.",
"*=-;>,',,,)),;;-=!",
"~={&&]]]]]]]^^&{/(",
"_:<[}}}|||1}}}[<<2",
"345566667896965540",
"a46bbbcdefgchbb6i0",
"a5bcjjjklmnjjjcb5o",
"a6bjppppqrsppjjb5o",
"_tttuvwxyyzwwuut<2",
"/AABCDDEEEEFDCBAA~",
"!ABDEGHIJJIHGEDBA*",
".=KzLMNNOOOMPLzK=Q"};
