/* XPM */
static const char * tc_xpm[] = {
"18 12 132 2",
"  	c None",
". 	c #B46866",
"+ 	c #C59AA7",
"@ 	c #818ABD",
"# 	c #8788BE",
"$ 	c #E6B2B8",
"% 	c #EBB9B3",
"& 	c #8687CC",
"* 	c #8788B9",
"= 	c #CBACC2",
"- 	c #EBCFD4",
"; 	c #868DCB",
"> 	c #8687BF",
", 	c #8787BC",
"' 	c #7B7BAE",
") 	c #3B3C81",
"! 	c #191961",
"~ 	c #1B4294",
"{ 	c #AC7D8A",
"] 	c #EFCBD4",
"^ 	c #E1E4F5",
"/ 	c #EECBCE",
"( 	c #F5C6C0",
"_ 	c #D6D1E7",
": 	c #F5EFE7",
"< 	c #EFDFF5",
"[ 	c #B6C7E9",
"} 	c #A8A8CF",
"| 	c #A6A6CD",
"1 	c #7878B0",
"2 	c #00005F",
"3 	c #090961",
"4 	c #D6512A",
"5 	c #E2351D",
"6 	c #E96B4D",
"7 	c #F09477",
"8 	c #F08E78",
"9 	c #F0947A",
"0 	c #F09E8D",
"a 	c #F08D82",
"b 	c #F0A286",
"c 	c #877BA7",
"d 	c #9092A0",
"e 	c #EBE57D",
"f 	c #DADA7C",
"g 	c #D5D741",
"h 	c #AAAB21",
"i 	c #B4B42E",
"j 	c #44488B",
"k 	c #A396C3",
"l 	c #E5B3B3",
"m 	c #E390A0",
"n 	c #E37471",
"o 	c #EA6B41",
"p 	c #CFC8EA",
"q 	c #EAA7AF",
"r 	c #C0899A",
"s 	c #5B66A9",
"t 	c #1C1F7A",
"u 	c #515952",
"v 	c #EADD3D",
"w 	c #E8C73B",
"x 	c #E5E500",
"y 	c #0406C0",
"z 	c #767A60",
"A 	c #867EA4",
"B 	c #E69998",
"C 	c #51286E",
"D 	c #00008F",
"E 	c #EC7B6E",
"F 	c #ED844F",
"G 	c #00008A",
"H 	c #374A9F",
"I 	c #EDB5A1",
"J 	c #DE7377",
"K 	c #00006B",
"L 	c #000074",
"M 	c #394548",
"N 	c #ECEC13",
"O 	c #E7AF2F",
"P 	c #E8E501",
"Q 	c #45599F",
"R 	c #A2A73D",
"S 	c #28167B",
"T 	c #00007A",
"U 	c #000081",
"V 	c #000085",
"W 	c #05027F",
"X 	c #000094",
"Y 	c #242596",
"Z 	c #252B67",
"` 	c #F3F300",
" .	c #EAF009",
"..	c #603D3B",
"+.	c #DFE30B",
"@.	c #D4D515",
"#.	c #0A0C83",
"$.	c #00009E",
"%.	c #F8F800",
"&.	c #8AB61C",
"*.	c #00334D",
"=.	c #CEE50A",
"-.	c #CFCA1E",
";.	c #0B0C79",
">.	c #000073",
",.	c #6E6D3F",
"'.	c #9CD816",
").	c #2C5542",
"!.	c #D2EC0D",
"~.	c #2E2C68",
"{.	c #0B0C6D",
"].	c #000067",
"^.	c #00006F",
"/.	c #00007C",
"(.	c #6D7934",
"_.	c #F3F405",
":.	c #434848",
"<.	c #0B0C7C",
"[.	c #00005A",
"}.	c #000062",
"|.	c #0A0162",
"1.	c #3B3B7C",
"2.	c #3C3D83",
"3.	c #3D3E8D",
"4.	c #3C3F97",
"5.	c #3B3F9F",
"6.	c #3B40A6",
"7.	c #393FAB",
"8.	c #383FAF",
"9.	c #383FB1",
"0.	c #00004E",
"a.	c #000056",
". + @ # $ % & * = - ; > > , * ' ) ! ",
"~ { ] ^ / ( _ : < [ } } } } | 1 2 3 ",
"4 5 6 7 8 8 9 0 a b c 1 d e f g h i ",
"j k l m n o p q r s t t u v w x y z ",
"A B C D E F G H I J K L M N O P Q R ",
"S T U V U W U K X Y W G Z `  ...+.@.",
"#.U U V V V V V U U V V $.%.&.*.=.-.",
";.L L L L L L L >.L >.L V ,.'.).!.~.",
"{.].].].K K K ^.^.^.^.K K /.(._.:.<.",
"[.2 }.].].^.^.>.L >.>.^.^.K ^.|.].[.",
"1.2.3.4.5.6.7.8.9.9.8.7.6.5.4.3.2.1.",
"0.a.2 ].>.>.T T /./.T T L ^.K 2 a.0."};
