/* XPM */
static const char * th_xpm[] = {
"18 12 53 1",
" 	c None",
".	c #9D0000",
"+	c #B53737",
"@	c #CD7878",
"#	c #D18686",
"$	c #CF8585",
"%	c #A10000",
"&	c #AA0000",
"*	c #D07575",
"=	c #E1A8A8",
"-	c #E0ABAB",
";	c #D2D5D5",
">	c #DEE1E1",
",	c #E6E9E9",
"'	c #EFF1F1",
")	c #F3F3F0",
"!	c #F0F1F1",
"~	c #E2E2E0",
"{	c #D3D3D0",
"]	c #D6D6D3",
"^	c #E5E5E2",
"/	c #E9E9E6",
"(	c #EBEBE9",
"_	c #E9E9E7",
":	c #D1D1CE",
"<	c #0000A6",
"[	c #0000AE",
"}	c #0000A9",
"|	c #0000A1",
"1	c #0300B4",
"2	c #0300BF",
"3	c #0200C1",
"4	c #0200C6",
"5	c #0300C7",
"6	c #0300C6",
"7	c #0200CA",
"8	c #0200CB",
"9	c #0000B2",
"0	c #0000B9",
"a	c #DADAD7",
"b	c #F9F9F6",
"c	c #FDFDFA",
"d	c #FFFFFC",
"e	c #D6DADA",
"f	c #F4F9F9",
"g	c #FAFFFF",
"h	c #E7EBEB",
"i	c #CFD3D3",
"j	c #A50000",
"k	c #B30000",
"l	c #B60000",
"m	c #B80000",
"n	c #950000",
".+@#$$$$$$$$$$#@+.",
"%&*=-=--------=*&%",
";>,')'))))''!!!,~{",
"]~^/,((((,(_(__^~:",
"<[[[[[[}[[}[[[[[[|",
"12344455665644646[",
"13477778667777743[",
"}9100000020000099<",
"a()bcddddddddcb)({",
"e,'fggggggggggf'hi",
"jklmmmmmmmmmmmmlk%",
"%j&j&&jjjjjj&j&jjn"};
