/* XPM */
static const char * tv_xpm[] = {
"18 12 151 2",
"  	c None",
". 	c #CC4F45",
"+ 	c #614DA6",
"@ 	c #7878D3",
"# 	c #8688DA",
"$ 	c #D29AA6",
"% 	c #898EDB",
"& 	c #8585DD",
"* 	c #968ED5",
"= 	c #EBABAE",
"- 	c #84CFEF",
"; 	c #89D0EC",
"> 	c #8FCDE6",
", 	c #7BC7E9",
"' 	c #3AACDD",
") 	c #1490BF",
"! 	c #0C20A3",
"~ 	c #D1587A",
"{ 	c #C3A1BA",
"] 	c #A8B3F3",
"^ 	c #F3BAB6",
"/ 	c #D1C1DE",
"( 	c #F2C7DB",
"_ 	c #A9DDF4",
": 	c #B1DFF2",
"< 	c #C6DAA0",
"[ 	c #7EB567",
"} 	c #0495D2",
"| 	c #78204E",
"1 	c #722E6F",
"2 	c #E97566",
"3 	c #E8A39F",
"4 	c #D78F86",
"5 	c #E7A6A5",
"6 	c #F1A59D",
"7 	c #BC97BC",
"8 	c #C183A5",
"9 	c #86DAF1",
"0 	c #7CCFF1",
"a 	c #63BEC4",
"b 	c #39A9B0",
"c 	c #0B94CD",
"d 	c #6B1C58",
"e 	c #652A7E",
"f 	c #E54B3F",
"g 	c #D6605E",
"h 	c #BB3F30",
"i 	c #D76465",
"j 	c #EA6353",
"k 	c #854B8D",
"l 	c #912562",
"m 	c #2EBBD7",
"n 	c #27B0E8",
"o 	c #6BBDA8",
"p 	c #52BAC1",
"q 	c #93CE7A",
"r 	c #019CE5",
"s 	c #0C9DDE",
"t 	c #1395C7",
"u 	c #0915B7",
"v 	c #CE5396",
"w 	c #934792",
"x 	c #001FE6",
"y 	c #EC2E13",
"z 	c #012DE7",
"A 	c #E1558A",
"B 	c #0106D8",
"C 	c #01AEE9",
"D 	c #03A5EB",
"E 	c #9CC35B",
"F 	c #7BBE81",
"G 	c #02A7F2",
"H 	c #25ACCF",
"I 	c #10A1E0",
"J 	c #039DE3",
"K 	c #0F90CA",
"L 	c #CE5362",
"M 	c #4412AE",
"N 	c #0000D3",
"O 	c #0000CC",
"P 	c #F22E00",
"Q 	c #0D00CA",
"R 	c #0000D7",
"S 	c #4007B2",
"T 	c #F4554F",
"U 	c #01B5F3",
"V 	c #08A7F0",
"W 	c #07A8F1",
"X 	c #0FA6EC",
"Y 	c #0BA3EC",
"Z 	c #11A6E5",
"` 	c #74B989",
" .	c #1595C6",
"..	c #019ED7",
"+.	c #00A7E9",
"@.	c #10BDE8",
"#.	c #11C2F1",
"$.	c #03BDF8",
"%.	c #11C4F6",
"&.	c #11C4F1",
"*.	c #00B6F9",
"=.	c #00AFF9",
"-.	c #34BED4",
";.	c #98CD74",
">.	c #01ABF9",
",.	c #09AEF5",
"'.	c #1FB2E5",
").	c #25B1DD",
"!.	c #10A7E8",
"~.	c #9AC05D",
"{.	c #1093CB",
"].	c #1098D0",
"^.	c #13A6E1",
"/.	c #14ACE7",
"(.	c #14B0EC",
"_.	c #13B2F0",
":.	c #16B5F1",
"<.	c #10ABF2",
"[.	c #7BCA93",
"}.	c #0AABFA",
"|.	c #01ACFD",
"1.	c #8CCD79",
"2.	c #AFCF4E",
"3.	c #02A2EA",
"4.	c #149ACD",
"5.	c #16A6DC",
"6.	c #16AEE9",
"7.	c #17B0EA",
"8.	c #18B4F0",
"9.	c #0DB1FA",
"0.	c #0AB0FE",
"a.	c #02B3FE",
"b.	c #13A5DF",
"c.	c #1397C9",
"d.	c #4EC2BC",
"e.	c #63C8AA",
"f.	c #BAD749",
"g.	c #6BC69A",
"h.	c #16AAE3",
"i.	c #1599CB",
"j.	c #16AFED",
"k.	c #06AEF9",
"l.	c #77C99B",
"m.	c #60C5B3",
"n.	c #1493C3",
"o.	c #149CD2",
"p.	c #129DD6",
"q.	c #129EDB",
"r.	c #0A9DE4",
"s.	c #33AAC1",
"t.	c #1389B6",
". + @ # $ % & * = - ; > > > > , ' ) ",
"! ~ { ] ^ ] / ( ] _ : : : : _ < [ } ",
"| 1 2 3 4 5 6 7 8 9 ; - - ; 0 a b c ",
"d e f g h i j k l m n o p p q r s t ",
"u v w x y z k A B C D E F G H I J K ",
"L M N O P Q R S T U V V W X Y Z `  .",
"..+.@.#.$.%.&.*.=.-.;.>.,.'.).!.~.{.",
"].^./.(._.:.:.(.<.-.[.}.|.1.2.W 3.K ",
"4.5.6.7.(.:.:.:.8.9.0.:.-.m a./.b.c.",
"4.5./.7.8.:.a.a.9.d.e.9.f.g.,.h.5.t ",
"i.5.h.6.j.k.l.;.}.m.;.k.9.,.6.h.5. .",
"n.4.o.p.q.r.s.b r.r.r q.q.q.p.4.c.t."};
