/* XPM */
static const char * tz_xpm[] = {
"18 12 101 2",
"  	c None",
". 	c #006200",
"+ 	c #378637",
"@ 	c #78AD78",
"# 	c #86B586",
"$ 	c #85B385",
"% 	c #85BC85",
"& 	c #A4D485",
"* 	c #AAAA86",
"= 	c #797878",
"- 	c #373737",
"; 	c #010101",
"> 	c #006600",
", 	c #006C00",
"' 	c #75AF75",
") 	c #A8CDA8",
"! 	c #ABCEAB",
"~ 	c #ABCCAB",
"{ 	c #C0E4AB",
"] 	c #C2D2AB",
"^ 	c #B0ABAB",
"/ 	c #A8A8A8",
"( 	c #757575",
"_ 	c #398D39",
": 	c #7BB37B",
"< 	c #80B580",
"[ 	c #94CD80",
"} 	c #A4CE80",
"| 	c #9A8D80",
"1 	c #808080",
"2 	c #7B7B7B",
"3 	c #393939",
"4 	c #006B00",
"5 	c #1E7E1E",
"6 	c #228022",
"7 	c #289322",
"8 	c #68BC22",
"9 	c #656222",
"0 	c #222222",
"a 	c #1E1E1E",
"b 	c #333600",
"c 	c #4E4E37",
"d 	c #017701",
"e 	c #49B701",
"f 	c #518201",
"g 	c #110101",
"h 	c #060800",
"i 	c #555600",
"j 	c #4E549B",
"k 	c #0200C4",
"l 	c #27A100",
"m 	c #47AC00",
"n 	c #351E00",
"o 	c #495200",
"p 	c #48556F",
"q 	c #1310D9",
"r 	c #0000D3",
"s 	c #0400AF",
"t 	c #098400",
"u 	c #4BBE00",
"v 	c #4A4D00",
"w 	c #4A5434",
"x 	c #3134D3",
"y 	c #0000E6",
"z 	c #0200C9",
"A 	c #0700BD",
"B 	c #0500B1",
"C 	c #4BBB00",
"D 	c #527C00",
"E 	c #0F0000",
"F 	c #0B0D00",
"G 	c #5A5A00",
"H 	c #5255A8",
"I 	c #0000ED",
"J 	c #0000CD",
"K 	c #0600C0",
"L 	c #0600B9",
"M 	c #0700A7",
"N 	c #4CA100",
"O 	c #3A1D00",
"P 	c #5B5F61",
"Q 	c #120CE2",
"R 	c #0000DB",
"S 	c #0800B9",
"T 	c #0800B7",
"U 	c #0700AE",
"V 	c #54552D",
"W 	c #3937CD",
"X 	c #0000E9",
"Y 	c #0800AF",
"Z 	c #06009C",
"` 	c #535500",
" .	c #4B4FB0",
"..	c #0600C9",
"+.	c #0700C5",
"@.	c #060096",
"#.	c #4B4E8B",
"$.	c #0906D4",
"%.	c #0700B4",
"&.	c #0700A4",
"*.	c #060089",
". + @ # # # # # # $ $ $ % & * = - ; ",
"> , ' ) ! ) ) ) ~ ~ ~ { ] ^ / ( ; ; ",
"> , _ : # < < : < [ } | 1 1 2 3 ; ; ",
"> 4 , 5 6 6 5 7 8 9 0 0 0 0 a ; b c ",
". 4 4 , , d e f g ; ; ; ; ; h i j k ",
". > 4 4 l m n ; ; ; ; ; ; o p q r s ",
". > t u v ; ; ; ; ; ; b w x y z A B ",
"4 C D E ; ; ; ; ; F G H I J K A L M ",
"N O ; ; ; ; ; ; i P Q R A S T T U M ",
"; ; ; ; ; ; b V W X k A A L T Y M Z ",
"; ; ; ; F `  .I r ....+.K L T Y M @.",
"; ; ; v #.$.J A K A A A S %.U &.Z *."};
