/* XPM */
static char * ua_xpm[] = {
"18 12 49 1",
" 	c None",
".	c #1490BF",
"+	c #47ACD4",
"@	c #82C7E2",
"#	c #8FCDE6",
"$	c #8DCBE7",
"%	c #1596C7",
"&	c #169FD2",
"*	c #80CBE7",
"=	c #AFDEF0",
"-	c #B2DFF1",
";	c #1496C9",
">	c #16A1D4",
",	c #4AB6DE",
"'	c #86CEE9",
")	c #8AD0EB",
"!	c #8ACFEB",
"~	c #8ACFEC",
"{	c #149FD6",
"]	c #1396CB",
"^	c #15A2D8",
"/	c #31ADDD",
"(	c #34AFDF",
"_	c #1392C6",
":	c #0F94D0",
"<	c #109EDC",
"[	c #10A1E0",
"}	c #11A5E3",
"|	c #0F90CA",
"1	c #008BD8",
"2	c #0094E7",
"3	c #0098ED",
"4	c #009AF0",
"5	c #009DF3",
"6	c #009EF4",
"7	c #0087D1",
"8	c #D9D900",
"9	c #EBEB00",
"0	c #F5F500",
"a	c #F9F900",
"b	c #F0F000",
"c	c #D3D300",
"d	c #FDFD00",
"e	c #DFDF00",
"f	c #D6D600",
"g	c #CFCF00",
"h	c #E1E100",
"i	c #E6E600",
"j	c #C1C100",
".+@##$$$$$$$$$#@+.",
"%&*=--=-=---=-=*&%",
";>,')))!~~~!))',{%",
"]{^/(((((((((//^{_",
":<[[}}}}}}}}}}[[<|",
"123455666666654327",
"8990aaaaaaaaaa0b9c",
"890aadddddddddab9c",
"890adddddddddda09c",
"e9baddddddddddab9c",
"89b0adaddddadaab9f",
"g8ehiiiiiiiiihhefj"};
