/* XPM */
static char * ye_xpm[] = {
"18 12 34 1",
" 	c None",
".	c #9E0000",
"+	c #B63737",
"@	c #CD7878",
"#	c #D28686",
"$	c #CF8585",
"%	c #A50000",
"&	c #AE0000",
"*	c #D37575",
"=	c #E3A8A8",
"-	c #E2ABAB",
";	c #A20000",
">	c #C03939",
",	c #D67B7B",
"'	c #D68080",
")	c #AB0000",
"!	c #B71E1E",
"~	c #B82222",
"{	c #990000",
"]	c #D6D7D7",
"^	c #E3E4E4",
"/	c #E7E7E7",
"(	c #EBEBEB",
"_	c #EBECEC",
":	c #EDEDED",
"<	c #D0D1D1",
"[	c #D8D8D8",
"}	c #F3F3F3",
"|	c #F5F5F5",
"1	c #F8F8F8",
"2	c #D3D3D3",
"3	c #F0F0F0",
"4	c #FDFDFD",
"5	c #000000",
".+@##$$$$$$$###@+.",
"%&*=-=------=-=*&%",
";&>,'''''''''',+&;",
".))!~~~~~~~~~~~&%{",
"]^/(__::___::((/^<",
"[/(}}}|||}|1|}}:/2",
"[(:||111111111}3/2",
"[:}11444444441|}_[",
"555555555555555555",
"555555555555555555",
"555555555555555555",
"555555555555555555"};
