/* XPM */
static const char * za_xpm[] = {
"18 12 118 2",
"  	c None",
". 	c #009000",
"+ 	c #37AC37",
"@ 	c #98D2AA",
"# 	c #EBCBD8",
"$ 	c #E5858A",
"% 	c #D28686",
"& 	c #CF8585",
"* 	c #CD7878",
"= 	c #B63737",
"- 	c #9E0000",
"; 	c #009400",
"> 	c #009E00",
", 	c #75C975",
"' 	c #A8E7AA",
") 	c #E0F5E2",
"! 	c #F5C5DC",
"~ 	c #E5ABAB",
"{ 	c #E2ABAB",
"] 	c #D37575",
"^ 	c #AE0000",
"/ 	c #A50000",
"( 	c #8CD500",
"_ 	c #00AA00",
": 	c #39B339",
"< 	c #7BCD7B",
"[ 	c #80D280",
"} 	c #97FDB8",
"| 	c #F1DCCE",
"1 	c #EA6698",
"2 	c #D68080",
"3 	c #D78080",
"4 	c #D67B7B",
"5 	c #A20000",
"6 	c #4A2400",
"7 	c #86E200",
"8 	c #4FE500",
"9 	c #1EAF1E",
"0 	c #22CA2C",
"a 	c #B6EAB6",
"b 	c #DB2227",
"c 	c #D62231",
"d 	c #CF0012",
"e 	c #CB0012",
"f 	c #BB0012",
"g 	c #000000",
"h 	c #B48700",
"i 	c #BBEA00",
"j 	c #01BA01",
"k 	c #01A201",
"l 	c #4BE98A",
"m 	c #A9ECC2",
"n 	c #94ECA6",
"o 	c #95ECA5",
"p 	c #90E8A7",
"q 	c #8CE4A7",
"r 	c #7ED19D",
"s 	c #120000",
"t 	c #CFAC00",
"u 	c #81CC00",
"v 	c #00A700",
"w 	c #D4B000",
"x 	c #84D100",
"y 	c #00AE00",
"z 	c #BB8E00",
"A 	c #C3F800",
"B 	c #00C600",
"C 	c #00B000",
"D 	c #00B700",
"E 	c #79FB70",
"F 	c #BCFDC5",
"G 	c #95FBB7",
"H 	c #88EBB0",
"I 	c #7AD4A2",
"J 	c #8EEB00",
"K 	c #4DF200",
"L 	c #09D600",
"M 	c #BCFFCD",
"N 	c #8951FF",
"O 	c #0000D4",
"P 	c #1300D2",
"Q 	c #1200CD",
"R 	c #0D00CE",
"S 	c #1000C3",
"T 	c #0F00B2",
"U 	c #8FDA00",
"V 	c #74FF4D",
"W 	c #9BD0FF",
"X 	c #1F00E4",
"Y 	c #0300BF",
"Z 	c #0600BC",
"` 	c #0300BB",
" .	c #0300B8",
"..	c #0300B3",
"+.	c #0300AE",
"@.	c #0300A9",
"#.	c #03009A",
"$.	c #009A00",
"%.	c #06CC00",
"&.	c #ACFAC6",
"*.	c #8A57FC",
"=.	c #0000CA",
"-.	c #0000C6",
";.	c #0700C9",
">.	c #0700C7",
",.	c #0700C5",
"'.	c #0700BD",
").	c #0700B4",
"!.	c #0700A7",
"~.	c #060096",
"{.	c #54B154",
"].	c #A497E1",
"^.	c #0600C0",
"/.	c #0800B7",
"(.	c #0800AF",
"_.	c #0700A4",
":.	c #06009C",
"<.	c #060089",
". + @ # $ % % % % & & & % % % * = - ",
"; > , ' ) ! ~ ~ { { { { { { { ] ^ / ",
"( _ : < [ } | 1 2 2 2 2 3 4 4 = ^ 5 ",
"6 7 8 9 9 9 0 a 1 b c c c c c d e f ",
"g g h i j k k _ l m n o o o o p q r ",
"g g g s t u v v v _ v _ _ _ v k k . ",
"g g g s w x _ y _ y y y _ y _ v k ; ",
"g g z A B y C D E F } } } G G H H I ",
"6 J K C C C L M N O P P P Q Q R S T ",
"U C _ y j V W X Y Y Y Z `  ...+.@.#.",
"$.v v %.&.*.=.-.;.;.>.>.,.'.).).!.~.",
". $.{.].R ).).'.^.Y Y Z /...(._.:.<."};
